<?xml version="1.0" encoding="utf-8"?>
<!-- Generator: Adobe Illustrator 22.0.0, SVG Export Plug-In . SVG Version: 6.00 Build 0)  -->
<svg version="1.1" id="Layer_1" xmlns="http://www.w3.org/2000/svg" xmlns:xlink="http://www.w3.org/1999/xlink" x="0px" y="0px"
	 viewBox="0 0 750 227" style="enable-background:new 0 0 750 227;" xml:space="preserve">
<style type="text/css">
	.st0{fill:#FFFFFF;}
	.st1{fill:#6CC4CE;}
	.st2{fill:#50CFDE;}
	.st3{fill:#4CCBDF;}
	.st4{fill:#3BC7DB;}
	.st5{fill:#45C7DD;}
	.st6{fill:#46C8DE;}
	.st7{fill:#44C7DF;}
	.st8{fill:#50CFE2;}
	.st9{fill:#3FC5DF;}
	.st10{fill:#4DCCE4;}
	.st11{fill:#49CEE1;}
	.st12{fill:#4AC9D9;}
	.st13{fill:#52CFE0;}
	.st14{fill:#50CDE3;}
	.st15{fill:#40C4DD;}
	.st16{fill:#3EBFDE;}
	.st17{fill:#44C5E1;}
	.st18{fill:#45C6E3;}
	.st19{fill:#51CDE4;}
	.st20{fill:#51D1E2;}
	.st21{fill:#46C8D7;}
	.st22{fill:#40BDDD;}
	.st23{fill:#25A4CF;}
	.st24{fill:#2EAED5;}
	.st25{fill:#29AAD2;}
	.st26{fill:#34B5DA;}
	.st27{fill:#3FC3DD;}
	.st28{fill:#3EC2DD;}
	.st29{fill:#4DB6C5;}
	.st30{fill:#4FCEE1;}
	.st31{fill:#4CC8E2;}
	.st32{fill:#38BADA;}
	.st33{fill:#2CA7D3;}
	.st34{fill:#2BA8D4;}
	.st35{fill:#27A5D1;}
	.st36{fill:#25A5D4;}
	.st37{fill:#2AABD7;}
	.st38{fill:#3EC1DF;}
	.st39{fill:#3DC1DF;}
	.st40{fill:#4BCCDF;}
	.st41{fill:#4ECEE0;}
	.st42{fill:#50CFDF;}
	.st43{fill:#4AC9E2;}
	.st44{fill:#65BDD9;}
	.st45{fill:#29A6D4;}
	.st46{fill:#2FAAD6;}
	.st47{fill:#2AA4D3;}
	.st48{fill:#3295BB;}
	.st49{fill:#23A2D0;}
	.st50{fill:#26A2D1;}
	.st51{fill:#2AABD5;}
	.st52{fill:#48C9E2;}
	.st53{fill:#45C8E1;}
	.st54{fill:#51D0E1;}
	.st55{fill:#40C5D4;}
	.st56{fill:#2AABD2;}
	.st57{fill:#2AA9D2;}
	.st58{fill:#28A2D1;}
	.st59{fill:#1B95CA;}
	.st60{fill:#2398CD;}
	.st61{fill:#2299CD;}
	.st62{fill:#24A1D1;}
	.st63{fill:#2BA9D3;}
	.st64{fill:#25A5D0;}
	.st65{fill:#4DCCE3;}
	.st66{fill:#49CCE0;}
	.st67{fill:#3FC1DD;}
	.st68{fill:#35B7D8;}
	.st69{fill:#249ECC;}
	.st70{fill:#1E98CB;}
	.st71{fill:#219BCE;}
	.st72{fill:#1D92C7;}
	.st73{fill:#29A2D2;}
	.st74{fill:#2BAED6;}
	.st75{fill:#38BFDE;}
	.st76{fill:#50CEE3;}
	.st77{fill:#44C9DC;}
	.st78{fill:#52CFE3;}
	.st79{fill:#2EAED6;}
	.st80{fill:#219ECC;}
	.st81{fill:#1D96CA;}
	.st82{fill:#1C95CA;}
	.st83{fill:#229ACE;}
	.st84{fill:#1E9BCE;}
	.st85{fill:#2CABD6;}
	.st86{fill:#46C3E0;}
	.st87{fill:#4CCEE2;}
	.st88{fill:#46C9DC;}
	.st89{fill:#46C2E0;}
	.st90{fill:#36B6DA;}
	.st91{fill:#1995C8;}
	.st92{fill:#2698CA;}
	.st93{fill:#26A0D1;}
	.st94{fill:#26A6D5;}
	.st95{fill:#33B6D9;}
	.st96{fill:#4BCDE2;}
	.st97{fill:#50D0E1;}
	.st98{fill:#49C9DE;}
	.st99{fill:#46C7E2;}
	.st100{fill:#3FC0DD;}
	.st101{fill:#1795C8;}
	.st102{fill:#229CCF;}
	.st103{fill:#30A6D4;}
	.st104{fill:#1F9ACD;}
	.st105{fill:#2DAFD6;}
	.st106{fill:#50CEE2;}
	.st107{fill:#51CFE3;}
	.st108{fill:#2DABD4;}
	.st109{fill:#2EAAD4;}
	.st110{fill:#33ACD7;}
	.st111{fill:#2299CE;}
	.st112{fill:#5AA6CF;}
	.st113{fill:#46A0CD;}
	.st114{fill:#1E93C9;}
	.st115{fill:#28A5D5;}
	.st116{fill:#24A6D2;}
	.st117{fill:#41C0E0;}
	.st118{fill:#2CACD0;}
	.st119{fill:#219ECE;}
	.st120{fill:#239BCD;}
	.st121{fill:#2299CC;}
	.st122{fill:#328CC0;}
	.st123{fill:#2593C9;}
	.st124{fill:#279ED0;}
	.st125{fill:#2CA4D2;}
	.st126{fill:#21A1D0;}
	.st127{fill:#45C3E1;}
	.st128{fill:#45C9E2;}
	.st129{fill:#4CCFE1;}
	.st130{fill:#4FCAE3;}
	.st131{fill:#49C5E0;}
	.st132{fill:#25A0CF;}
	.st133{fill:#33ADD8;}
	.st134{fill:#26A4D2;}
	.st135{fill:#35B6DD;}
	.st136{fill:#4CCCE5;}
	.st137{fill:#30AFD7;}
	.st138{fill:#27A5D0;}
	.st139{fill:#299ED0;}
	.st140{fill:#2194CA;}
	.st141{fill:#2FA5D5;}
	.st142{fill:#32A8D8;}
	.st143{fill:#3096BC;}
	.st144{fill:#31ADD5;}
	.st145{fill:#4AC6E2;}
	.st146{fill:#259FD0;}
	.st147{fill:#30A7D3;}
	.st148{fill:#2CA0D2;}
	.st149{fill:#31AAD7;}
	.st150{fill:#30A7D5;}
	.st151{fill:#31ACD6;}
	.st152{fill:#47C3E0;}
	.st153{fill:#289FD1;}
	.st154{fill:#2FA6D4;}
	.st155{fill:#2CA6D4;}
	.st156{fill:#2598CE;}
	.st157{fill:#299DCE;}
	.st158{fill:#498FBD;}
	.st159{fill:#4BA1CC;}
	.st160{fill:#2A92C7;}
	.st161{fill:#2EADD6;}
	.st162{fill:none;stroke:#FFFFFF;stroke-width:2;stroke-miterlimit:10;}
</style>
<g id="BACKGROUND">
	<rect y="2" class="st0" width="750" height="225"/>
</g>
<g id="OBJECTS">
	<g>
		<g>
			<g>
				<polygon class="st1" points="206.8,174.3 189.5,164.2 206.8,154.2 				"/>
				<polygon class="st2" points="225.5,185.3 208.3,175.2 225.5,165.1 				"/>
				<polygon class="st3" points="206.3,153.3 189,163.4 189,143.2 				"/>
				<polygon class="st4" points="187.5,164.2 170.2,174.3 170.2,154.2 				"/>
				<polygon class="st5" points="225,142.3 207.8,152.4 207.8,132.2 				"/>
				<polygon class="st6" points="206.8,152.4 189.5,142.3 206.8,132.2 				"/>
				<polygon class="st7" points="187.5,142.3 170.2,152.4 170.2,132.2 				"/>
				<polygon class="st8" points="243.8,153.3 226.5,163.4 226.5,143.2 				"/>
				<polygon class="st9" points="225.5,141.4 208.3,131.3 225.5,121.3 				"/>
				<polygon class="st10" points="206.3,131.3 189,141.4 189,121.3 				"/>
				<polygon class="st11" points="169.2,152.4 152,142.3 169.2,132.2 				"/>
				<polygon class="st12" points="150.5,185.3 133.2,175.2 150.5,165.1 				"/>
				<polygon class="st13" points="258.6,164.2 249.3,169.7 249.3,158.8 				"/>
				<polygon class="st14" points="244.3,152.4 227,142.3 244.3,132.2 				"/>
				<polygon class="st15" points="243.8,131.3 226.5,141.4 226.5,121.3 				"/>
				<polygon class="st16" points="225,120.4 207.8,130.5 207.8,110.3 				"/>
				<polygon class="st17" points="205.3,127 194,120.4 205.3,113.8 				"/>
				<polygon class="st18" points="187.5,120.4 170.2,130.5 170.2,110.3 				"/>
				<polygon class="st19" points="169.2,130.5 152,120.4 169.2,110.3 				"/>
				<polygon class="st20" points="150.5,163.4 133.2,153.3 150.5,143.2 				"/>
				<polygon class="st21" points="150,186.2 132.7,196.3 132.7,176.1 				"/>
				<polygon class="st22" points="244.3,130.5 227,120.4 244.3,110.3 				"/>
				<polygon class="st23" points="243.8,109.4 226.5,119.5 226.5,99.3 				"/>
				<polygon class="st24" points="225.5,119.5 208.3,109.4 225.5,99.3 				"/>
				<polygon class="st25" points="206.3,109.4 189,119.5 189,99.3 				"/>
				<polygon class="st26" points="188,119.5 170.7,109.4 188,99.3 				"/>
				<polygon class="st27" points="150.5,141.4 133.2,131.3 150.5,121.3 				"/>
				<polygon class="st28" points="150,142.3 132.7,152.4 132.7,132.2 				"/>
				<polygon class="st29" points="281.8,174.3 264.6,164.2 281.8,154.2 				"/>
				<polygon class="st30" points="281.3,153.3 264.1,163.4 264.1,143.2 				"/>
				<polygon class="st31" points="263.1,141.4 245.8,131.3 263.1,121.3 				"/>
				<polygon class="st32" points="262.6,120.4 245.3,130.5 245.3,110.3 				"/>
				<polygon class="st33" points="244.3,108.5 227,98.4 244.3,88.4 				"/>
				<polygon class="st34" points="225,98.4 207.8,108.5 207.8,88.4 				"/>
				<polygon class="st35" points="206.8,108.5 189.5,98.4 206.8,88.4 				"/>
				<polygon class="st36" points="187.5,98.4 170.2,108.5 170.2,88.4 				"/>
				<polygon class="st37" points="169.2,108.5 152,98.4 169.2,88.4 				"/>
				<polygon class="st38" points="150.5,119.5 133.2,109.4 150.5,99.3 				"/>
				<polygon class="st39" points="150,120.4 132.7,130.5 132.7,110.3 				"/>
				<polygon class="st40" points="129.1,147.1 121,142.3 129.1,137.6 				"/>
				<polygon class="st41" points="131.2,153.3 113.9,163.4 113.9,143.2 				"/>
				<polygon class="st42" points="300.6,185.3 283.3,175.2 300.6,165.1 				"/>
				<polygon class="st43" points="281.3,131.3 264.1,141.4 264.1,121.3 				"/>
				<polygon class="st44" points="263.1,119.5 245.8,109.4 263.1,99.3 				"/>
				<polygon class="st45" points="262.6,98.4 245.3,108.5 245.3,88.4 				"/>
				<polygon class="st46" points="243.8,87.5 226.5,97.6 226.5,77.4 				"/>
				<polygon class="st47" points="225.5,97.6 208.3,87.5 225.5,77.4 				"/>
				<polygon class="st48" points="206.3,87.5 189,97.6 189,77.4 				"/>
				<polygon class="st49" points="188,97.6 170.7,87.5 188,77.4 				"/>
				<polygon class="st34" points="165,87.5 153.5,94.2 153.5,80.7 				"/>
				<polygon class="st50" points="150.5,97.6 133.2,87.5 150.5,77.4 				"/>
				<polygon class="st51" points="150,98.4 132.7,108.5 132.7,88.4 				"/>
				<polygon class="st52" points="131.7,130.5 114.4,120.4 131.7,110.3 				"/>
				<polygon class="st53" points="131.2,131.3 113.9,141.4 113.9,121.3 				"/>
				<polygon class="st54" points="112.4,164.2 95.2,174.3 95.2,154.2 				"/>
				<polygon class="st55" points="112.9,207.2 95.7,197.1 112.9,187 				"/>
				<polygon class="st56" points="281.8,130.5 264.6,120.4 281.8,110.3 				"/>
				<polygon class="st57" points="281.3,109.4 264.1,119.5 264.1,99.3 				"/>
				<polygon class="st58" points="263.1,97.6 245.8,87.5 263.1,77.4 				"/>
				<polygon class="st59" points="206.8,86.6 189.5,76.5 206.8,66.4 				"/>
				<polygon class="st60" points="187.5,76.5 170.2,86.6 170.2,66.4 				"/>
				<polygon class="st61" points="169.2,86.6 152,76.5 169.2,66.4 				"/>
				<polygon class="st62" points="150,76.5 132.7,86.6 132.7,66.4 				"/>
				<polygon class="st63" points="131.7,108.5 114.4,98.4 131.7,88.4 				"/>
				<polygon class="st64" points="131.2,109.4 113.9,119.5 113.9,99.3 				"/>
				<polygon class="st65" points="112.9,141.4 95.7,131.3 112.9,121.3 				"/>
				<polygon class="st66" points="112.4,142.3 95.2,152.4 95.2,132.2 				"/>
				<polygon class="st67" points="300.6,141.4 283.3,131.3 300.6,121.3 				"/>
				<polygon class="st68" points="300.1,120.4 282.8,130.5 282.8,110.3 				"/>
				<polygon class="st69" points="281.8,108.5 264.6,98.4 281.8,88.4 				"/>
				<polygon class="st70" points="281.3,87.5 264.1,97.6 264.1,77.4 				"/>
				<polygon class="st71" points="263.1,75.6 245.8,65.6 263.1,55.5 				"/>
				<polygon class="st72" points="168.7,65.6 151.5,75.6 151.5,55.5 				"/>
				<polygon class="st73" points="131.7,86.6 114.4,76.5 131.7,66.4 				"/>
				<polygon class="st74" points="112.9,119.5 95.7,109.4 112.9,99.3 				"/>
				<polygon class="st75" points="112.4,120.4 95.2,130.5 95.2,110.3 				"/>
				<polygon class="st76" points="94.2,152.4 76.9,142.3 94.2,132.2 				"/>
				<polygon class="st77" points="93.7,153.3 76.4,163.4 76.4,143.2 				"/>
				<polygon class="st78" points="318.9,131.3 301.6,141.4 301.6,121.3 				"/>
				<polygon class="st79" points="300.6,119.5 283.3,109.4 300.6,99.3 				"/>
				<polygon class="st80" points="300.1,98.4 282.8,108.5 282.8,88.4 				"/>
				<polygon class="st81" points="281.3,65.6 264.1,75.6 264.1,55.5 				"/>
				<polygon class="st82" points="187.5,54.6 170.2,64.7 170.2,44.5 				"/>
				<polygon class="st83" points="131.2,65.6 113.9,75.6 113.9,55.5 				"/>
				<polygon class="st84" points="112.9,97.6 95.7,87.5 112.9,77.4 				"/>
				<polygon class="st85" points="112.4,98.4 95.2,108.5 95.2,88.4 				"/>
				<polygon class="st86" points="94.2,130.5 76.9,120.4 94.2,110.3 				"/>
				<polygon class="st87" points="75.4,163.4 58.1,153.3 75.4,143.2 				"/>
				<polygon class="st88" points="74.9,164.2 57.6,174.3 57.6,154.2 				"/>
				<polygon class="st89" points="319.4,130.5 302.1,120.4 319.4,110.3 				"/>
				<polygon class="st90" points="318.9,109.4 301.6,119.5 301.6,99.3 				"/>
				<polygon class="st91" points="300.6,97.6 283.3,87.5 300.6,77.4 				"/>
				<polygon class="st92" points="300.1,76.5 282.8,86.6 282.8,66.4 				"/>
				<polygon class="st93" points="112.4,76.5 95.2,86.6 95.2,66.4 				"/>
				<polygon class="st94" points="94.2,108.5 76.9,98.4 94.2,88.4 				"/>
				<polygon class="st95" points="93.7,109.4 76.4,119.5 76.4,99.3 				"/>
				<polygon class="st43" points="75.4,141.4 58.1,131.3 75.4,121.3 				"/>
				<polygon class="st96" points="74.9,142.3 57.6,152.4 57.6,132.2 				"/>
				<polygon class="st97" points="56.6,174.3 39.4,164.2 56.6,154.2 				"/>
				<polygon class="st98" points="356.4,153.3 339.1,163.4 339.1,143.2 				"/>
				<polygon class="st99" points="338.1,141.4 320.9,131.3 338.1,121.3 				"/>
				<polygon class="st100" points="337.6,120.4 320.4,130.5 320.4,110.3 				"/>
				<polygon class="st33" points="319.4,108.5 302.1,98.4 319.4,88.4 				"/>
				<polygon class="st101" points="318.9,87.5 301.6,97.6 301.6,77.4 				"/>
				<polygon class="st102" points="300.6,75.6 283.3,65.6 300.6,55.5 				"/>
				<polygon class="st103" points="94.2,86.6 76.9,76.5 94.2,66.4 				"/>
				<polygon class="st104" points="93.7,87.5 76.4,97.6 76.4,77.4 				"/>
				<polygon class="st105" points="75.4,119.5 58.1,109.4 75.4,99.3 				"/>
				<polygon class="st43" points="74.9,120.4 57.6,130.5 57.6,110.3 				"/>
				<polygon class="st106" points="356.9,152.4 339.6,142.3 356.9,132.2 				"/>
				<polygon class="st107" points="356.4,131.3 339.1,141.4 339.1,121.3 				"/>
				<polygon class="st108" points="338.1,119.5 320.9,109.4 338.1,99.3 				"/>
				<polygon class="st109" points="337.6,98.4 320.4,108.5 320.4,88.4 				"/>
				<polygon class="st110" points="319.4,86.6 302.1,76.5 319.4,66.4 				"/>
				<polygon class="st111" points="313.3,65.6 305.2,70.3 305.2,60.8 				"/>
				<polygon class="st112" points="112.9,31.8 95.7,21.7 112.9,11.6 				"/>
				<polygon class="st113" points="112.4,32.7 95.2,42.7 95.2,22.6 				"/>
				<polygon class="st114" points="93.7,65.6 76.4,75.6 76.4,55.5 				"/>
				<polygon class="st115" points="75.4,97.6 58.1,87.5 75.4,77.4 				"/>
				<polygon class="st116" points="74.9,98.4 57.6,108.5 57.6,88.4 				"/>
				<polygon class="st117" points="56.6,130.5 39.4,120.4 56.6,110.3 				"/>
				<polygon class="st118" points="356.4,109.4 339.1,119.5 339.1,99.3 				"/>
				<polygon class="st119" points="338.1,97.6 320.9,87.5 338.1,77.4 				"/>
				<polygon class="st120" points="337.6,76.5 320.4,86.6 320.4,66.4 				"/>
				<polygon class="st121" points="319.4,64.7 302.1,54.6 319.4,44.5 				"/>
				<polygon class="st122" points="131.7,20.8 114.4,10.7 131.7,0.6 				"/>
				<polygon class="st123" points="94.2,42.7 76.9,32.7 94.2,22.6 				"/>
				<polygon class="st124" points="75.4,75.6 58.1,65.6 75.4,55.5 				"/>
				<polygon class="st125" points="74.9,76.5 57.6,86.6 57.6,66.4 				"/>
				<polygon class="st126" points="56.6,108.5 39.4,98.4 56.6,88.4 				"/>
				<polygon class="st127" points="56.1,109.4 38.9,119.5 38.9,99.3 				"/>
				<polygon class="st128" points="37.9,141.4 20.6,131.3 37.9,121.3 				"/>
				<polygon class="st129" points="19.1,174.3 1.8,164.2 19.1,154.2 				"/>
				<polygon class="st130" points="375.7,141.4 358.4,131.3 375.7,121.3 				"/>
				<polygon class="st131" points="375.2,120.4 357.9,130.5 357.9,110.3 				"/>
				<polygon class="st108" points="356.9,108.5 339.6,98.4 356.9,88.4 				"/>
				<polygon class="st132" points="356.4,87.5 339.1,97.6 339.1,77.4 				"/>
				<polygon class="st133" points="56.6,86.6 39.4,76.5 56.6,66.4 				"/>
				<polygon class="st134" points="56.1,87.5 38.9,97.6 38.9,77.4 				"/>
				<polygon class="st135" points="37.9,119.5 20.6,109.4 37.9,99.3 				"/>
				<polygon class="st136" points="32.5,120.4 22,126.5 22,114.2 				"/>
				<polygon class="st129" points="18.6,153.3 1.3,163.4 1.3,143.2 				"/>
				<polygon class="st137" points="375.7,119.5 358.4,109.4 375.7,99.3 				"/>
				<polygon class="st138" points="375.2,98.4 357.9,108.5 357.9,88.4 				"/>
				<polygon class="st103" points="356.9,86.6 339.6,76.5 356.9,66.4 				"/>
				<polygon class="st139" points="356.4,65.6 339.1,75.6 339.1,55.5 				"/>
				<polygon class="st140" points="74.9,32.7 57.6,42.7 57.6,22.6 				"/>
				<polygon class="st141" points="52.7,60.1 43.3,54.6 52.7,49 				"/>
				<polygon class="st142" points="56.1,65.6 38.9,75.6 38.9,55.5 				"/>
				<polygon class="st143" points="37.9,97.6 20.6,87.5 37.9,77.4 				"/>
				<polygon class="st144" points="37.4,98.4 20.1,108.5 20.1,88.4 				"/>
				<polygon class="st145" points="19.1,130.5 1.8,120.4 19.1,110.3 				"/>
				<polygon class="st146" points="375.7,97.6 358.4,87.5 375.7,77.4 				"/>
				<polygon class="st147" points="375.2,76.5 357.9,86.6 357.9,66.4 				"/>
				<polygon class="st148" points="356.9,64.7 339.6,54.6 356.9,44.5 				"/>
				<polygon class="st149" points="37.9,75.6 20.6,65.6 37.9,55.5 				"/>
				<polygon class="st150" points="37.4,76.5 20.1,86.6 20.1,66.4 				"/>
				<polygon class="st151" points="19.1,108.5 1.8,98.4 19.1,88.4 				"/>
				<polygon class="st152" points="18.6,109.4 1.3,119.5 1.3,99.3 				"/>
				<polygon class="st153" points="375.7,75.6 358.4,65.6 375.7,55.5 				"/>
				<polygon class="st154" points="16.6,81.9 7.3,76.5 16.6,71.1 				"/>
				<polygon class="st155" points="18.6,87.5 1.3,97.6 1.3,77.4 				"/>
				<polygon class="st156" points="37.4,32.7 20.1,42.7 20.1,22.6 				"/>
				<polygon class="st157" points="19.1,64.7 1.8,54.6 19.1,44.5 				"/>
				<polygon class="st157" points="18.6,65.6 1.3,75.6 1.3,55.5 				"/>
				<polygon class="st158" points="375.2,10.7 357.9,20.8 357.9,0.6 				"/>
				<polygon class="st159" points="19.1,42.7 1.8,32.7 19.1,22.6 				"/>
				<polygon class="st160" points="18.6,43.6 1.3,53.7 1.3,33.5 				"/>
			</g>
			<polygon class="st161" points="168.7,109.4 151.5,119.5 151.5,99.3 			"/>
			<polygon class="st40" points="221,55.5 212.8,50.7 221,45.9 			"/>
		</g>
		<g>
			<g>
				<polygon class="st1" points="214,182.7 182.3,164.2 214,145.8 				"/>
				<polygon class="st162" points="214,182.7 182.3,164.2 214,145.8 				"/>
			</g>
		</g>
		<g>
			<g>
				<polygon class="st44" points="265.2,122 243.7,109.4 265.2,96.8 				"/>
				<polygon class="st162" points="265.2,122 243.7,109.4 265.2,96.8 				"/>
			</g>
		</g>
		<g>
			<g>
				<polygon class="st87" points="78.8,167.3 54.8,153.3 78.8,139.3 				"/>
				<polygon class="st162" points="78.8,167.3 54.8,153.3 78.8,139.3 				"/>
			</g>
		</g>
		<g>
			<g>
				<polygon class="st94" points="103.6,119.5 67.5,98.4 103.6,77.4 				"/>
				<polygon class="st162" points="103.6,119.5 67.5,98.4 103.6,77.4 				"/>
			</g>
		</g>
		<g>
			<g>
				<polygon class="st161" points="174,109.4 146.2,125.6 146.2,93.2 				"/>
				<polygon class="st162" points="174,109.4 146.2,125.6 146.2,93.2 				"/>
			</g>
		</g>
		<g>
			<g>
				<polygon class="st94" points="98.7,48 72.4,32.7 98.7,17.3 				"/>
				<polygon class="st162" points="98.7,48 72.4,32.7 98.7,17.3 				"/>
			</g>
		</g>
		<g>
			<g>
				<polygon class="st94" points="60.5,87.5 34.5,102.7 34.5,72.3 				"/>
				<polygon class="st162" points="60.5,87.5 34.5,102.7 34.5,72.3 				"/>
			</g>
		</g>
		<g>
			<g>
				<polygon class="st44" points="306.2,76.5 276.8,93.7 276.8,59.4 				"/>
				<polygon class="st162" points="306.2,76.5 276.8,93.7 276.8,59.4 				"/>
			</g>
		</g>
		<g>
			<polygon class="st161" points="355.5,128.1 342.3,120.4 355.5,112.6 			"/>
			<polygon class="st162" points="355.5,128.1 342.3,120.4 355.5,112.6 			"/>
		</g>
	</g>
	<g>
		<g>
			<g>
				<polygon class="st1" points="544.6,194.1 561.8,184 544.6,173.9 				"/>
				<polygon class="st2" points="525.8,205.1 543.1,195 525.8,184.9 				"/>
				<polygon class="st3" points="545.1,173.1 562.3,183.1 562.3,163 				"/>
				<polygon class="st4" points="563.8,184 581.1,194.1 581.1,173.9 				"/>
				<polygon class="st5" points="526.3,162.1 543.6,172.2 543.6,152 				"/>
				<polygon class="st6" points="544.6,172.2 561.8,162.1 544.6,152 				"/>
				<polygon class="st7" points="563.8,162.1 581.1,172.2 581.1,152 				"/>
				<polygon class="st8" points="507.5,173.1 524.8,183.1 524.8,163 				"/>
				<polygon class="st9" points="525.8,161.2 543.1,151.1 525.8,141 				"/>
				<polygon class="st10" points="545.1,151.1 562.3,161.2 562.3,141 				"/>
				<polygon class="st11" points="582.1,172.2 599.4,162.1 582.1,152 				"/>
				<polygon class="st12" points="600.9,205.1 618.1,195 600.9,184.9 				"/>
				<polygon class="st13" points="492.8,184 502,189.4 502,178.6 				"/>
				<polygon class="st14" points="507,172.2 524.3,162.1 507,152 				"/>
				<polygon class="st15" points="507.5,151.1 524.8,161.2 524.8,141 				"/>
				<polygon class="st16" points="526.3,140.2 543.6,150.2 543.6,130.1 				"/>
				<polygon class="st17" points="546.1,146.7 557.3,140.2 546.1,133.6 				"/>
				<polygon class="st18" points="563.8,140.2 581.1,150.2 581.1,130.1 				"/>
				<polygon class="st19" points="582.1,150.2 599.4,140.2 582.1,130.1 				"/>
				<polygon class="st20" points="600.9,183.1 618.1,173.1 600.9,163 				"/>
				<polygon class="st21" points="601.4,205.9 618.6,216 618.6,195.9 				"/>
				<polygon class="st22" points="507,150.2 524.3,140.2 507,130.1 				"/>
				<polygon class="st23" points="507.5,129.2 524.8,139.3 524.8,119.1 				"/>
				<polygon class="st24" points="525.8,139.3 543.1,129.2 525.8,119.1 				"/>
				<polygon class="st25" points="545.1,129.2 562.3,139.3 562.3,119.1 				"/>
				<polygon class="st26" points="563.3,139.3 580.6,129.2 563.3,119.1 				"/>
				<polygon class="st27" points="600.9,161.2 618.1,151.1 600.9,141 				"/>
				<polygon class="st28" points="601.4,162.1 618.6,172.2 618.6,152 				"/>
				<polygon class="st29" points="469.5,194.1 486.8,184 469.5,173.9 				"/>
				<polygon class="st30" points="470,173.1 487.3,183.1 487.3,163 				"/>
				<polygon class="st31" points="488.3,161.2 505.5,151.1 488.3,141 				"/>
				<polygon class="st32" points="488.8,140.2 506,150.2 506,130.1 				"/>
				<polygon class="st33" points="507,128.3 524.3,118.2 507,108.1 				"/>
				<polygon class="st34" points="526.3,118.2 543.6,128.3 543.6,108.1 				"/>
				<polygon class="st35" points="544.6,128.3 561.8,118.2 544.6,108.1 				"/>
				<polygon class="st36" points="563.8,118.2 581.1,128.3 581.1,108.1 				"/>
				<polygon class="st37" points="582.1,128.3 599.4,118.2 582.1,108.1 				"/>
				<polygon class="st38" points="600.9,139.3 618.1,129.2 600.9,119.1 				"/>
				<polygon class="st39" points="601.4,140.2 618.6,150.2 618.6,130.1 				"/>
				<polygon class="st40" points="622.2,166.8 630.3,162.1 622.2,157.3 				"/>
				<polygon class="st41" points="620.1,173.1 637.4,183.1 637.4,163 				"/>
				<polygon class="st42" points="450.7,205.1 468,195 450.7,184.9 				"/>
				<polygon class="st43" points="470,151.1 487.3,161.2 487.3,141 				"/>
				<polygon class="st44" points="488.3,139.3 505.5,129.2 488.3,119.1 				"/>
				<polygon class="st45" points="488.8,118.2 506,128.3 506,108.1 				"/>
				<polygon class="st46" points="507.5,107.3 524.8,117.3 524.8,97.2 				"/>
				<polygon class="st47" points="525.8,117.3 543.1,107.3 525.8,97.2 				"/>
				<polygon class="st48" points="545.1,107.3 562.3,117.3 562.3,97.2 				"/>
				<polygon class="st49" points="563.3,117.3 580.6,107.3 563.3,97.2 				"/>
				<polygon class="st34" points="586.3,107.3 597.8,114 597.8,100.5 				"/>
				<polygon class="st50" points="600.9,117.3 618.1,107.3 600.9,97.2 				"/>
				<polygon class="st51" points="601.4,118.2 618.6,128.3 618.6,108.1 				"/>
				<polygon class="st52" points="619.6,150.2 636.9,140.2 619.6,130.1 				"/>
				<polygon class="st53" points="620.1,151.1 637.4,161.2 637.4,141 				"/>
				<polygon class="st54" points="638.9,184 656.2,194.1 656.2,173.9 				"/>
				<polygon class="st55" points="638.4,227 655.7,216.9 638.4,206.8 				"/>
				<polygon class="st56" points="469.5,150.2 486.8,140.2 469.5,130.1 				"/>
				<polygon class="st57" points="470,129.2 487.3,139.3 487.3,119.1 				"/>
				<polygon class="st58" points="488.3,117.3 505.5,107.3 488.3,97.2 				"/>
				<polygon class="st59" points="544.6,106.4 561.8,96.3 544.6,86.2 				"/>
				<polygon class="st60" points="563.8,96.3 581.1,106.4 581.1,86.2 				"/>
				<polygon class="st61" points="582.1,106.4 599.4,96.3 582.1,86.2 				"/>
				<polygon class="st62" points="601.4,96.3 618.6,106.4 618.6,86.2 				"/>
				<polygon class="st63" points="619.6,128.3 636.9,118.2 619.6,108.1 				"/>
				<polygon class="st64" points="620.1,129.2 637.4,139.3 637.4,119.1 				"/>
				<polygon class="st65" points="638.4,161.2 655.7,151.1 638.4,141 				"/>
				<polygon class="st66" points="638.9,162.1 656.2,172.2 656.2,152 				"/>
				<polygon class="st67" points="450.7,161.2 468,151.1 450.7,141 				"/>
				<polygon class="st68" points="451.2,140.2 468.5,150.2 468.5,130.1 				"/>
				<polygon class="st69" points="469.5,128.3 486.8,118.2 469.5,108.1 				"/>
				<polygon class="st70" points="470,107.3 487.3,117.3 487.3,97.2 				"/>
				<polygon class="st71" points="488.3,95.4 505.5,85.3 488.3,75.2 				"/>
				<polygon class="st72" points="582.6,85.3 599.9,95.4 599.9,75.2 				"/>
				<polygon class="st73" points="619.6,106.4 636.9,96.3 619.6,86.2 				"/>
				<polygon class="st74" points="638.4,139.3 655.7,129.2 638.4,119.1 				"/>
				<polygon class="st75" points="638.9,140.2 656.2,150.2 656.2,130.1 				"/>
				<polygon class="st76" points="657.2,172.2 674.4,162.1 657.2,152 				"/>
				<polygon class="st77" points="657.7,173.1 674.9,183.1 674.9,163 				"/>
				<polygon class="st78" points="432.5,151.1 449.7,161.2 449.7,141 				"/>
				<polygon class="st79" points="450.7,139.3 468,129.2 450.7,119.1 				"/>
				<polygon class="st80" points="451.2,118.2 468.5,128.3 468.5,108.1 				"/>
				<polygon class="st81" points="470,85.3 487.3,95.4 487.3,75.2 				"/>
				<polygon class="st82" points="563.8,74.4 581.1,84.5 581.1,64.3 				"/>
				<polygon class="st83" points="620.1,85.3 637.4,95.4 637.4,75.2 				"/>
				<polygon class="st84" points="638.4,117.3 655.7,107.3 638.4,97.2 				"/>
				<polygon class="st85" points="638.9,118.2 656.2,128.3 656.2,108.1 				"/>
				<polygon class="st86" points="657.2,150.2 674.4,140.2 657.2,130.1 				"/>
				<polygon class="st87" points="675.9,183.1 693.2,173.1 675.9,163 				"/>
				<polygon class="st88" points="676.4,184 693.7,194.1 693.7,173.9 				"/>
				<polygon class="st89" points="432,150.2 449.2,140.2 432,130.1 				"/>
				<polygon class="st90" points="432.5,129.2 449.7,139.3 449.7,119.1 				"/>
				<polygon class="st91" points="450.7,117.3 468,107.3 450.7,97.2 				"/>
				<polygon class="st92" points="451.2,96.3 468.5,106.4 468.5,86.2 				"/>
				<polygon class="st93" points="638.9,96.3 656.2,106.4 656.2,86.2 				"/>
				<polygon class="st94" points="657.2,128.3 674.4,118.2 657.2,108.1 				"/>
				<polygon class="st95" points="657.7,129.2 674.9,139.3 674.9,119.1 				"/>
				<polygon class="st43" points="675.9,161.2 693.2,151.1 675.9,141 				"/>
				<polygon class="st96" points="676.4,162.1 693.7,172.2 693.7,152 				"/>
				<polygon class="st97" points="694.7,194.1 712,184 694.7,173.9 				"/>
				<polygon class="st98" points="394.9,173.1 412.2,183.1 412.2,163 				"/>
				<polygon class="st99" points="413.2,161.2 430.5,151.1 413.2,141 				"/>
				<polygon class="st100" points="413.7,140.2 431,150.2 431,130.1 				"/>
				<polygon class="st33" points="432,128.3 449.2,118.2 432,108.1 				"/>
				<polygon class="st101" points="432.5,107.3 449.7,117.3 449.7,97.2 				"/>
				<polygon class="st102" points="450.7,95.4 468,85.3 450.7,75.2 				"/>
				<polygon class="st103" points="657.2,106.4 674.4,96.3 657.2,86.2 				"/>
				<polygon class="st104" points="657.7,107.3 674.9,117.3 674.9,97.2 				"/>
				<polygon class="st105" points="675.9,139.3 693.2,129.2 675.9,119.1 				"/>
				<polygon class="st43" points="676.4,140.2 693.7,150.2 693.7,130.1 				"/>
				<polygon class="st106" points="394.4,172.2 411.7,162.1 394.4,152 				"/>
				<polygon class="st107" points="394.9,151.1 412.2,161.2 412.2,141 				"/>
				<polygon class="st108" points="413.2,139.3 430.5,129.2 413.2,119.1 				"/>
				<polygon class="st109" points="413.7,118.2 431,128.3 431,108.1 				"/>
				<polygon class="st110" points="432,106.4 449.2,96.3 432,86.2 				"/>
				<polygon class="st111" points="438.1,85.3 446.1,90.1 446.1,80.6 				"/>
				<polygon class="st112" points="638.4,51.6 655.7,41.5 638.4,31.4 				"/>
				<polygon class="st113" points="638.9,52.4 656.2,62.5 656.2,42.3 				"/>
				<polygon class="st114" points="657.7,85.3 674.9,95.4 674.9,75.2 				"/>
				<polygon class="st115" points="675.9,117.3 693.2,107.3 675.9,97.2 				"/>
				<polygon class="st116" points="676.4,118.2 693.7,128.3 693.7,108.1 				"/>
				<polygon class="st117" points="694.7,150.2 712,140.2 694.7,130.1 				"/>
				<polygon class="st118" points="394.9,129.2 412.2,139.3 412.2,119.1 				"/>
				<polygon class="st119" points="413.2,117.3 430.5,107.3 413.2,97.2 				"/>
				<polygon class="st120" points="413.7,96.3 431,106.4 431,86.2 				"/>
				<polygon class="st121" points="432,84.5 449.2,74.4 432,64.3 				"/>
				<polygon class="st122" points="619.6,40.6 636.9,30.5 619.6,20.4 				"/>
				<polygon class="st123" points="657.2,62.5 674.4,52.4 657.2,42.3 				"/>
				<polygon class="st124" points="675.9,95.4 693.2,85.3 675.9,75.2 				"/>
				<polygon class="st125" points="676.4,96.3 693.7,106.4 693.7,86.2 				"/>
				<polygon class="st126" points="694.7,128.3 712,118.2 694.7,108.1 				"/>
				<polygon class="st127" points="695.2,129.2 712.5,139.3 712.5,119.1 				"/>
				<polygon class="st128" points="713.5,161.2 730.7,151.1 713.5,141 				"/>
				<polygon class="st129" points="732.2,194.1 749.5,184 732.2,173.9 				"/>
				<polygon class="st130" points="375.7,161.2 392.9,151.1 375.7,141 				"/>
				<polygon class="st131" points="376.2,140.2 393.4,150.2 393.4,130.1 				"/>
				<polygon class="st108" points="394.4,128.3 411.7,118.2 394.4,108.1 				"/>
				<polygon class="st132" points="394.9,107.3 412.2,117.3 412.2,97.2 				"/>
				<polygon class="st133" points="694.7,106.4 712,96.3 694.7,86.2 				"/>
				<polygon class="st134" points="695.2,107.3 712.5,117.3 712.5,97.2 				"/>
				<polygon class="st135" points="713.5,139.3 730.7,129.2 713.5,119.1 				"/>
				<polygon class="st136" points="718.8,140.2 729.4,146.3 729.4,134 				"/>
				<polygon class="st129" points="732.7,173.1 750,183.1 750,163 				"/>
				<polygon class="st137" points="375.7,139.3 392.9,129.2 375.7,119.1 				"/>
				<polygon class="st138" points="376.2,118.2 393.4,128.3 393.4,108.1 				"/>
				<polygon class="st103" points="394.4,106.4 411.7,96.3 394.4,86.2 				"/>
				<polygon class="st139" points="394.9,85.3 412.2,95.4 412.2,75.2 				"/>
				<polygon class="st140" points="676.4,52.4 693.7,62.5 693.7,42.3 				"/>
				<polygon class="st141" points="698.6,79.9 708.1,74.4 698.6,68.8 				"/>
				<polygon class="st142" points="695.2,85.3 712.5,95.4 712.5,75.2 				"/>
				<polygon class="st143" points="713.5,117.3 730.7,107.3 713.5,97.2 				"/>
				<polygon class="st144" points="714,118.2 731.2,128.3 731.2,108.1 				"/>
				<polygon class="st145" points="732.2,150.2 749.5,140.2 732.2,130.1 				"/>
				<polygon class="st146" points="375.7,117.3 392.9,107.3 375.7,97.2 				"/>
				<polygon class="st147" points="376.2,96.3 393.4,106.4 393.4,86.2 				"/>
				<polygon class="st148" points="394.4,84.5 411.7,74.4 394.4,64.3 				"/>
				<polygon class="st149" points="713.5,95.4 730.7,85.3 713.5,75.2 				"/>
				<polygon class="st150" points="714,96.3 731.2,106.4 731.2,86.2 				"/>
				<polygon class="st151" points="732.2,128.3 749.5,118.2 732.2,108.1 				"/>
				<polygon class="st152" points="732.7,129.2 750,139.3 750,119.1 				"/>
				<polygon class="st153" points="375.7,95.4 392.9,85.3 375.7,75.2 				"/>
				<polygon class="st154" points="734.7,101.7 744,96.3 734.7,90.9 				"/>
				<polygon class="st155" points="732.7,107.3 750,117.3 750,97.2 				"/>
				<polygon class="st156" points="714,52.4 731.2,62.5 731.2,42.3 				"/>
				<polygon class="st157" points="732.2,84.5 749.5,74.4 732.2,64.3 				"/>
				<polygon class="st157" points="732.7,85.3 750,95.4 750,75.2 				"/>
				<polygon class="st158" points="376.2,30.5 393.4,40.6 393.4,20.4 				"/>
				<polygon class="st159" points="732.2,62.5 749.5,52.4 732.2,42.3 				"/>
				<polygon class="st160" points="732.7,63.4 750,73.5 750,53.3 				"/>
			</g>
			<polygon class="st161" points="582.6,129.2 599.9,139.3 599.9,119.1 			"/>
			<polygon class="st40" points="530.4,75.2 538.5,70.5 530.4,65.7 			"/>
		</g>
		<g>
			<g>
				<polygon class="st1" points="537.4,202.5 569,184 537.4,165.5 				"/>
				<polygon class="st162" points="537.4,202.5 569,184 537.4,165.5 				"/>
			</g>
		</g>
		<g>
			<g>
				<polygon class="st44" points="486.1,141.8 507.7,129.2 486.1,116.6 				"/>
				<polygon class="st162" points="486.1,141.8 507.7,129.2 486.1,116.6 				"/>
			</g>
		</g>
		<g>
			<g>
				<polygon class="st87" points="672.6,187.1 696.6,173.1 672.6,159 				"/>
				<polygon class="st162" points="672.6,187.1 696.6,173.1 672.6,159 				"/>
			</g>
		</g>
		<g>
			<g>
				<polygon class="st94" points="647.8,139.3 683.8,118.2 647.8,97.2 				"/>
				<polygon class="st162" points="647.8,139.3 683.8,118.2 647.8,97.2 				"/>
			</g>
		</g>
		<g>
			<g>
				<polygon class="st161" points="577.4,129.2 605.1,145.4 605.1,113 				"/>
				<polygon class="st162" points="577.4,129.2 605.1,145.4 605.1,113 				"/>
			</g>
		</g>
		<g>
			<g>
				<polygon class="st94" points="652.7,67.8 678.9,52.4 652.7,37.1 				"/>
				<polygon class="st162" points="652.7,67.8 678.9,52.4 652.7,37.1 				"/>
			</g>
		</g>
		<g>
			<g>
				<polygon class="st94" points="690.8,107.3 716.8,122.4 716.8,92.1 				"/>
				<polygon class="st162" points="690.8,107.3 716.8,122.4 716.8,92.1 				"/>
			</g>
		</g>
		<g>
			<g>
				<polygon class="st44" points="445.2,96.3 474.6,113.5 474.6,79.1 				"/>
				<polygon class="st162" points="445.2,96.3 474.6,113.5 474.6,79.1 				"/>
			</g>
		</g>
		<g>
			<polygon class="st161" points="395.8,147.9 409.1,140.2 395.8,132.4 			"/>
			<polygon class="st162" points="395.8,147.9 409.1,140.2 395.8,132.4 			"/>
		</g>
	</g>
</g>
</svg>
