<?xml version="1.0" encoding="utf-8"?>
<!-- Generator: Adobe Illustrator 22.0.0, SVG Export Plug-In . SVG Version: 6.00 Build 0)  -->
<svg version="1.1" xmlns="http://www.w3.org/2000/svg" xmlns:xlink="http://www.w3.org/1999/xlink" x="0px" y="0px"
	 viewBox="0 0 750 500" style="enable-background:new 0 0 750 500;" xml:space="preserve">
<style type="text/css">
	.st0{fill:#FFFFFF;}
	.st1{fill:#6CC4CE;}
	.st2{fill:#50CFDE;}
	.st3{fill:#4CCBDF;}
	.st4{fill:#3BC7DB;}
	.st5{fill:#45C7DD;}
	.st6{fill:#46C8DE;}
	.st7{fill:#44C7DF;}
	.st8{fill:#50CFE2;}
	.st9{fill:#3FC5DF;}
	.st10{fill:#4DCCE4;}
	.st11{fill:#49CEE1;}
	.st12{fill:#4AC9D9;}
	.st13{fill:#52CFE0;}
	.st14{fill:#50CDE3;}
	.st15{fill:#40C4DD;}
	.st16{fill:#3EBFDE;}
	.st17{fill:#44C5E1;}
	.st18{fill:#45C6E3;}
	.st19{fill:#51CDE4;}
	.st20{fill:#51D1E2;}
	.st21{fill:#46C8D7;}
	.st22{fill:#40BDDD;}
	.st23{fill:#25A4CF;}
	.st24{fill:#2EAED5;}
	.st25{fill:#29AAD2;}
	.st26{fill:#34B5DA;}
	.st27{fill:#3FC3DD;}
	.st28{fill:#3EC2DD;}
	.st29{fill:#4DB6C5;}
	.st30{fill:#4FCEE1;}
	.st31{fill:#4CC8E2;}
	.st32{fill:#38BADA;}
	.st33{fill:#2CA7D3;}
	.st34{fill:#2BA8D4;}
	.st35{fill:#27A5D1;}
	.st36{fill:#25A5D4;}
	.st37{fill:#2AABD7;}
	.st38{fill:#3EC1DF;}
	.st39{fill:#3DC1DF;}
	.st40{fill:#4BCCDF;}
	.st41{fill:#4ECEE0;}
	.st42{fill:#50CFDF;}
	.st43{fill:#4AC9E2;}
	.st44{fill:#65BDD9;}
	.st45{fill:#29A6D4;}
	.st46{fill:#2FAAD6;}
	.st47{fill:#2AA4D3;}
	.st48{fill:#3295BB;}
	.st49{fill:#23A2D0;}
	.st50{fill:#26A2D1;}
	.st51{fill:#2AABD5;}
	.st52{fill:#48C9E2;}
	.st53{fill:#45C8E1;}
	.st54{fill:#51D0E1;}
	.st55{fill:#40C5D4;}
	.st56{fill:#2AABD2;}
	.st57{fill:#2AA9D2;}
	.st58{fill:#28A2D1;}
	.st59{fill:#1B95CA;}
	.st60{fill:#2398CD;}
	.st61{fill:#2299CD;}
	.st62{fill:#24A1D1;}
	.st63{fill:#2BA9D3;}
	.st64{fill:#25A5D0;}
	.st65{fill:#4DCCE3;}
	.st66{fill:#49CCE0;}
	.st67{fill:#3FC1DD;}
	.st68{fill:#35B7D8;}
	.st69{fill:#249ECC;}
	.st70{fill:#1E98CB;}
	.st71{fill:#219BCE;}
	.st72{fill:#1D92C7;}
	.st73{fill:#29A2D2;}
	.st74{fill:#2BAED6;}
	.st75{fill:#38BFDE;}
	.st76{fill:#50CEE3;}
	.st77{fill:#44C9DC;}
	.st78{fill:#52CFE3;}
	.st79{fill:#2EAED6;}
	.st80{fill:#219ECC;}
	.st81{fill:#1D96CA;}
	.st82{fill:#1C95CA;}
	.st83{fill:#229ACE;}
	.st84{fill:#1E9BCE;}
	.st85{fill:#2CABD6;}
	.st86{fill:#46C3E0;}
	.st87{fill:#4CCEE2;}
	.st88{fill:#46C9DC;}
	.st89{fill:#46C2E0;}
	.st90{fill:#36B6DA;}
	.st91{fill:#1995C8;}
	.st92{fill:#2698CA;}
	.st93{fill:#26A0D1;}
	.st94{fill:#26A6D5;}
	.st95{fill:#33B6D9;}
	.st96{fill:#4BCDE2;}
	.st97{fill:#50D0E1;}
	.st98{fill:#49C9DE;}
	.st99{fill:#46C7E2;}
	.st100{fill:#3FC0DD;}
	.st101{fill:#1795C8;}
	.st102{fill:#229CCF;}
	.st103{fill:#30A6D4;}
	.st104{fill:#1F9ACD;}
	.st105{fill:#2DAFD6;}
	.st106{fill:#50CEE2;}
	.st107{fill:#51CFE3;}
	.st108{fill:#2DABD4;}
	.st109{fill:#2EAAD4;}
	.st110{fill:#33ACD7;}
	.st111{fill:#2299CE;}
	.st112{fill:#5AA6CF;}
	.st113{fill:#46A0CD;}
	.st114{fill:#1E93C9;}
	.st115{fill:#28A5D5;}
	.st116{fill:#24A6D2;}
	.st117{fill:#41C0E0;}
	.st118{fill:#2CACD0;}
	.st119{fill:#219ECE;}
	.st120{fill:#239BCD;}
	.st121{fill:#2299CC;}
	.st122{fill:#328CC0;}
	.st123{fill:#2593C9;}
	.st124{fill:#279ED0;}
	.st125{fill:#2CA4D2;}
	.st126{fill:#21A1D0;}
	.st127{fill:#45C3E1;}
	.st128{fill:#45C9E2;}
	.st129{fill:#4CCFE1;}
	.st130{fill:#4FCAE3;}
	.st131{fill:#49C5E0;}
	.st132{fill:#25A0CF;}
	.st133{fill:#33ADD8;}
	.st134{fill:#26A4D2;}
	.st135{fill:#35B6DD;}
	.st136{fill:#4CCCE5;}
	.st137{fill:#30AFD7;}
	.st138{fill:#27A5D0;}
	.st139{fill:#299ED0;}
	.st140{fill:#2194CA;}
	.st141{fill:#2FA5D5;}
	.st142{fill:#32A8D8;}
	.st143{fill:#3096BC;}
	.st144{fill:#31ADD5;}
	.st145{fill:#4AC6E2;}
	.st146{fill:#259FD0;}
	.st147{fill:#30A7D3;}
	.st148{fill:#2CA0D2;}
	.st149{fill:#31AAD7;}
	.st150{fill:#30A7D5;}
	.st151{fill:#31ACD6;}
	.st152{fill:#47C3E0;}
	.st153{fill:#289FD1;}
	.st154{fill:#2FA6D4;}
	.st155{fill:#2CA6D4;}
	.st156{fill:#2598CE;}
	.st157{fill:#299DCE;}
	.st158{fill:#498FBD;}
	.st159{fill:#4BA1CC;}
	.st160{fill:#2A92C7;}
	.st161{fill:#2EADD6;}
	.st162{fill:none;stroke:#FFFFFF;stroke-width:2;stroke-miterlimit:10;}
</style>
<g id="BACKGROUND">
	<rect y="2" class="st0" width="750" height="500"/>
</g>
<g id="OBJECTS">
	<g>
		<g>
			<g>
				<polygon class="st1" points="206.8,309.3 189.5,299.2 206.8,289.2 				"/>
				<polygon class="st2" points="225.5,320.3 208.3,310.2 225.5,300.1 				"/>
				<polygon class="st3" points="206.3,288.3 189,298.4 189,278.2 				"/>
				<polygon class="st4" points="187.5,299.2 170.2,309.3 170.2,289.2 				"/>
				<polygon class="st5" points="225,277.3 207.8,287.4 207.8,267.2 				"/>
				<polygon class="st6" points="206.8,287.4 189.5,277.3 206.8,267.2 				"/>
				<polygon class="st7" points="187.5,277.3 170.2,287.4 170.2,267.2 				"/>
				<polygon class="st8" points="243.8,288.3 226.5,298.4 226.5,278.2 				"/>
				<polygon class="st9" points="225.5,276.4 208.3,266.3 225.5,256.3 				"/>
				<polygon class="st10" points="206.3,266.3 189,276.4 189,256.3 				"/>
				<polygon class="st11" points="169.2,287.4 152,277.3 169.2,267.2 				"/>
				<polygon class="st12" points="150.5,320.3 133.2,310.2 150.5,300.1 				"/>
				<polygon class="st13" points="258.6,299.2 249.3,304.7 249.3,293.8 				"/>
				<polygon class="st14" points="244.3,287.4 227,277.3 244.3,267.2 				"/>
				<polygon class="st15" points="243.8,266.3 226.5,276.4 226.5,256.3 				"/>
				<polygon class="st16" points="225,255.4 207.8,265.5 207.8,245.3 				"/>
				<polygon class="st17" points="205.3,262 194,255.4 205.3,248.8 				"/>
				<polygon class="st18" points="187.5,255.4 170.2,265.5 170.2,245.3 				"/>
				<polygon class="st19" points="169.2,265.5 152,255.4 169.2,245.3 				"/>
				<polygon class="st20" points="150.5,298.4 133.2,288.3 150.5,278.2 				"/>
				<polygon class="st21" points="150,321.2 132.7,331.3 132.7,311.1 				"/>
				<polygon class="st22" points="244.3,265.5 227,255.4 244.3,245.3 				"/>
				<polygon class="st23" points="243.8,244.4 226.5,254.5 226.5,234.3 				"/>
				<polygon class="st24" points="225.5,254.5 208.3,244.4 225.5,234.3 				"/>
				<polygon class="st25" points="206.3,244.4 189,254.5 189,234.3 				"/>
				<polygon class="st26" points="188,254.5 170.7,244.4 188,234.3 				"/>
				<polygon class="st27" points="150.5,276.4 133.2,266.3 150.5,256.3 				"/>
				<polygon class="st28" points="150,277.3 132.7,287.4 132.7,267.2 				"/>
				<polygon class="st29" points="281.8,309.3 264.6,299.2 281.8,289.2 				"/>
				<polygon class="st30" points="281.3,288.3 264.1,298.4 264.1,278.2 				"/>
				<polygon class="st31" points="263.1,276.4 245.8,266.3 263.1,256.3 				"/>
				<polygon class="st32" points="262.6,255.4 245.3,265.5 245.3,245.3 				"/>
				<polygon class="st33" points="244.3,243.5 227,233.4 244.3,223.4 				"/>
				<polygon class="st34" points="225,233.4 207.8,243.5 207.8,223.4 				"/>
				<polygon class="st35" points="206.8,243.5 189.5,233.4 206.8,223.4 				"/>
				<polygon class="st36" points="187.5,233.4 170.2,243.5 170.2,223.4 				"/>
				<polygon class="st37" points="169.2,243.5 152,233.4 169.2,223.4 				"/>
				<polygon class="st38" points="150.5,254.5 133.2,244.4 150.5,234.3 				"/>
				<polygon class="st39" points="150,255.4 132.7,265.5 132.7,245.3 				"/>
				<polygon class="st40" points="129.1,282.1 121,277.3 129.1,272.6 				"/>
				<polygon class="st41" points="131.2,288.3 113.9,298.4 113.9,278.2 				"/>
				<polygon class="st42" points="300.6,320.3 283.3,310.2 300.6,300.1 				"/>
				<polygon class="st43" points="281.3,266.3 264.1,276.4 264.1,256.3 				"/>
				<polygon class="st44" points="263.1,254.5 245.8,244.4 263.1,234.3 				"/>
				<polygon class="st45" points="262.6,233.4 245.3,243.5 245.3,223.4 				"/>
				<polygon class="st46" points="243.8,222.5 226.5,232.6 226.5,212.4 				"/>
				<polygon class="st47" points="225.5,232.6 208.3,222.5 225.5,212.4 				"/>
				<polygon class="st48" points="206.3,222.5 189,232.6 189,212.4 				"/>
				<polygon class="st49" points="188,232.6 170.7,222.5 188,212.4 				"/>
				<polygon class="st34" points="165,222.5 153.5,229.2 153.5,215.7 				"/>
				<polygon class="st50" points="150.5,232.6 133.2,222.5 150.5,212.4 				"/>
				<polygon class="st51" points="150,233.4 132.7,243.5 132.7,223.4 				"/>
				<polygon class="st52" points="131.7,265.5 114.4,255.4 131.7,245.3 				"/>
				<polygon class="st53" points="131.2,266.3 113.9,276.4 113.9,256.3 				"/>
				<polygon class="st54" points="112.4,299.2 95.2,309.3 95.2,289.2 				"/>
				<polygon class="st55" points="112.9,342.2 95.7,332.1 112.9,322 				"/>
				<polygon class="st56" points="281.8,265.5 264.6,255.4 281.8,245.3 				"/>
				<polygon class="st57" points="281.3,244.4 264.1,254.5 264.1,234.3 				"/>
				<polygon class="st58" points="263.1,232.6 245.8,222.5 263.1,212.4 				"/>
				<polygon class="st59" points="206.8,221.6 189.5,211.5 206.8,201.4 				"/>
				<polygon class="st60" points="187.5,211.5 170.2,221.6 170.2,201.4 				"/>
				<polygon class="st61" points="169.2,221.6 152,211.5 169.2,201.4 				"/>
				<polygon class="st62" points="150,211.5 132.7,221.6 132.7,201.4 				"/>
				<polygon class="st63" points="131.7,243.5 114.4,233.4 131.7,223.4 				"/>
				<polygon class="st64" points="131.2,244.4 113.9,254.5 113.9,234.3 				"/>
				<polygon class="st65" points="112.9,276.4 95.7,266.3 112.9,256.3 				"/>
				<polygon class="st66" points="112.4,277.3 95.2,287.4 95.2,267.2 				"/>
				<polygon class="st67" points="300.6,276.4 283.3,266.3 300.6,256.3 				"/>
				<polygon class="st68" points="300.1,255.4 282.8,265.5 282.8,245.3 				"/>
				<polygon class="st69" points="281.8,243.5 264.6,233.4 281.8,223.4 				"/>
				<polygon class="st70" points="281.3,222.5 264.1,232.6 264.1,212.4 				"/>
				<polygon class="st71" points="263.1,210.6 245.8,200.6 263.1,190.5 				"/>
				<polygon class="st72" points="168.7,200.6 151.5,210.6 151.5,190.5 				"/>
				<polygon class="st73" points="131.7,221.6 114.4,211.5 131.7,201.4 				"/>
				<polygon class="st74" points="112.9,254.5 95.7,244.4 112.9,234.3 				"/>
				<polygon class="st75" points="112.4,255.4 95.2,265.5 95.2,245.3 				"/>
				<polygon class="st76" points="94.2,287.4 76.9,277.3 94.2,267.2 				"/>
				<polygon class="st77" points="93.7,288.3 76.4,298.4 76.4,278.2 				"/>
				<polygon class="st78" points="318.9,266.3 301.6,276.4 301.6,256.3 				"/>
				<polygon class="st79" points="300.6,254.5 283.3,244.4 300.6,234.3 				"/>
				<polygon class="st80" points="300.1,233.4 282.8,243.5 282.8,223.4 				"/>
				<polygon class="st81" points="281.3,200.6 264.1,210.6 264.1,190.5 				"/>
				<polygon class="st82" points="187.5,189.6 170.2,199.7 170.2,179.5 				"/>
				<polygon class="st83" points="131.2,200.6 113.9,210.6 113.9,190.5 				"/>
				<polygon class="st84" points="112.9,232.6 95.7,222.5 112.9,212.4 				"/>
				<polygon class="st85" points="112.4,233.4 95.2,243.5 95.2,223.4 				"/>
				<polygon class="st86" points="94.2,265.5 76.9,255.4 94.2,245.3 				"/>
				<polygon class="st87" points="75.4,298.4 58.1,288.3 75.4,278.2 				"/>
				<polygon class="st88" points="74.9,299.2 57.6,309.3 57.6,289.2 				"/>
				<polygon class="st89" points="319.4,265.5 302.1,255.4 319.4,245.3 				"/>
				<polygon class="st90" points="318.9,244.4 301.6,254.5 301.6,234.3 				"/>
				<polygon class="st91" points="300.6,232.6 283.3,222.5 300.6,212.4 				"/>
				<polygon class="st92" points="300.1,211.5 282.8,221.6 282.8,201.4 				"/>
				<polygon class="st93" points="112.4,211.5 95.2,221.6 95.2,201.4 				"/>
				<polygon class="st94" points="94.2,243.5 76.9,233.4 94.2,223.4 				"/>
				<polygon class="st95" points="93.7,244.4 76.4,254.5 76.4,234.3 				"/>
				<polygon class="st43" points="75.4,276.4 58.1,266.3 75.4,256.3 				"/>
				<polygon class="st96" points="74.9,277.3 57.6,287.4 57.6,267.2 				"/>
				<polygon class="st97" points="56.6,309.3 39.4,299.2 56.6,289.2 				"/>
				<polygon class="st98" points="356.4,288.3 339.1,298.4 339.1,278.2 				"/>
				<polygon class="st99" points="338.1,276.4 320.9,266.3 338.1,256.3 				"/>
				<polygon class="st100" points="337.6,255.4 320.4,265.5 320.4,245.3 				"/>
				<polygon class="st33" points="319.4,243.5 302.1,233.4 319.4,223.4 				"/>
				<polygon class="st101" points="318.9,222.5 301.6,232.6 301.6,212.4 				"/>
				<polygon class="st102" points="300.6,210.6 283.3,200.6 300.6,190.5 				"/>
				<polygon class="st103" points="94.2,221.6 76.9,211.5 94.2,201.4 				"/>
				<polygon class="st104" points="93.7,222.5 76.4,232.6 76.4,212.4 				"/>
				<polygon class="st105" points="75.4,254.5 58.1,244.4 75.4,234.3 				"/>
				<polygon class="st43" points="74.9,255.4 57.6,265.5 57.6,245.3 				"/>
				<polygon class="st106" points="356.9,287.4 339.6,277.3 356.9,267.2 				"/>
				<polygon class="st107" points="356.4,266.3 339.1,276.4 339.1,256.3 				"/>
				<polygon class="st108" points="338.1,254.5 320.9,244.4 338.1,234.3 				"/>
				<polygon class="st109" points="337.6,233.4 320.4,243.5 320.4,223.4 				"/>
				<polygon class="st110" points="319.4,221.6 302.1,211.5 319.4,201.4 				"/>
				<polygon class="st111" points="313.3,200.6 305.2,205.3 305.2,195.8 				"/>
				<polygon class="st112" points="112.9,166.8 95.7,156.7 112.9,146.6 				"/>
				<polygon class="st113" points="112.4,167.7 95.2,177.7 95.2,157.6 				"/>
				<polygon class="st114" points="93.7,200.6 76.4,210.6 76.4,190.5 				"/>
				<polygon class="st115" points="75.4,232.6 58.1,222.5 75.4,212.4 				"/>
				<polygon class="st116" points="74.9,233.4 57.6,243.5 57.6,223.4 				"/>
				<polygon class="st117" points="56.6,265.5 39.4,255.4 56.6,245.3 				"/>
				<polygon class="st118" points="356.4,244.4 339.1,254.5 339.1,234.3 				"/>
				<polygon class="st119" points="338.1,232.6 320.9,222.5 338.1,212.4 				"/>
				<polygon class="st120" points="337.6,211.5 320.4,221.6 320.4,201.4 				"/>
				<polygon class="st121" points="319.4,199.7 302.1,189.6 319.4,179.5 				"/>
				<polygon class="st122" points="131.7,155.8 114.4,145.7 131.7,135.6 				"/>
				<polygon class="st123" points="94.2,177.7 76.9,167.7 94.2,157.6 				"/>
				<polygon class="st124" points="75.4,210.6 58.1,200.6 75.4,190.5 				"/>
				<polygon class="st125" points="74.9,211.5 57.6,221.6 57.6,201.4 				"/>
				<polygon class="st126" points="56.6,243.5 39.4,233.4 56.6,223.4 				"/>
				<polygon class="st127" points="56.1,244.4 38.9,254.5 38.9,234.3 				"/>
				<polygon class="st128" points="37.9,276.4 20.6,266.3 37.9,256.3 				"/>
				<polygon class="st129" points="19.1,309.3 1.8,299.2 19.1,289.2 				"/>
				<polygon class="st130" points="375.7,276.4 358.4,266.3 375.7,256.3 				"/>
				<polygon class="st131" points="375.2,255.4 357.9,265.5 357.9,245.3 				"/>
				<polygon class="st108" points="356.9,243.5 339.6,233.4 356.9,223.4 				"/>
				<polygon class="st132" points="356.4,222.5 339.1,232.6 339.1,212.4 				"/>
				<polygon class="st133" points="56.6,221.6 39.4,211.5 56.6,201.4 				"/>
				<polygon class="st134" points="56.1,222.5 38.9,232.6 38.9,212.4 				"/>
				<polygon class="st135" points="37.9,254.5 20.6,244.4 37.9,234.3 				"/>
				<polygon class="st136" points="32.5,255.4 22,261.5 22,249.2 				"/>
				<polygon class="st129" points="18.6,288.3 1.3,298.4 1.3,278.2 				"/>
				<polygon class="st137" points="375.7,254.5 358.4,244.4 375.7,234.3 				"/>
				<polygon class="st138" points="375.2,233.4 357.9,243.5 357.9,223.4 				"/>
				<polygon class="st103" points="356.9,221.6 339.6,211.5 356.9,201.4 				"/>
				<polygon class="st139" points="356.4,200.6 339.1,210.6 339.1,190.5 				"/>
				<polygon class="st140" points="74.9,167.7 57.6,177.7 57.6,157.6 				"/>
				<polygon class="st141" points="52.7,195.1 43.3,189.6 52.7,184 				"/>
				<polygon class="st142" points="56.1,200.6 38.9,210.6 38.9,190.5 				"/>
				<polygon class="st143" points="37.9,232.6 20.6,222.5 37.9,212.4 				"/>
				<polygon class="st144" points="37.4,233.4 20.1,243.5 20.1,223.4 				"/>
				<polygon class="st145" points="19.1,265.5 1.8,255.4 19.1,245.3 				"/>
				<polygon class="st146" points="375.7,232.6 358.4,222.5 375.7,212.4 				"/>
				<polygon class="st147" points="375.2,211.5 357.9,221.6 357.9,201.4 				"/>
				<polygon class="st148" points="356.9,199.7 339.6,189.6 356.9,179.5 				"/>
				<polygon class="st149" points="37.9,210.6 20.6,200.6 37.9,190.5 				"/>
				<polygon class="st150" points="37.4,211.5 20.1,221.6 20.1,201.4 				"/>
				<polygon class="st151" points="19.1,243.5 1.8,233.4 19.1,223.4 				"/>
				<polygon class="st152" points="18.6,244.4 1.3,254.5 1.3,234.3 				"/>
				<polygon class="st153" points="375.7,210.6 358.4,200.6 375.7,190.5 				"/>
				<polygon class="st154" points="16.6,216.9 7.3,211.5 16.6,206.1 				"/>
				<polygon class="st155" points="18.6,222.5 1.3,232.6 1.3,212.4 				"/>
				<polygon class="st156" points="37.4,167.7 20.1,177.7 20.1,157.6 				"/>
				<polygon class="st157" points="19.1,199.7 1.8,189.6 19.1,179.5 				"/>
				<polygon class="st157" points="18.6,200.6 1.3,210.6 1.3,190.5 				"/>
				<polygon class="st158" points="375.2,145.7 357.9,155.8 357.9,135.6 				"/>
				<polygon class="st159" points="19.1,177.7 1.8,167.7 19.1,157.6 				"/>
				<polygon class="st160" points="18.6,178.6 1.3,188.7 1.3,168.5 				"/>
			</g>
			<polygon class="st161" points="168.7,244.4 151.5,254.5 151.5,234.3 			"/>
			<polygon class="st40" points="221,190.5 212.8,185.7 221,180.9 			"/>
		</g>
		<g>
			
				<image style="overflow:visible;opacity:0.5;" width="271" height="294" xlink:href="6AC51676.png"  transform="matrix(0.24 0 0 0.24 172.16 270.92)">
			</image>
			<g>
				<polygon class="st1" points="214,317.7 182.3,299.2 214,280.8 				"/>
				<polygon class="st162" points="214,317.7 182.3,299.2 214,280.8 				"/>
			</g>
		</g>
		<g>
			
				<image style="overflow:visible;opacity:0.5;" width="228" height="245" xlink:href="6AC5167C.png"  transform="matrix(0.24 0 0 0.24 233.6 221.96)">
			</image>
			<g>
				<polygon class="st44" points="265.2,257 243.7,244.4 265.2,231.8 				"/>
				<polygon class="st162" points="265.2,257 243.7,244.4 265.2,231.8 				"/>
			</g>
		</g>
		<g>
			
				<image style="overflow:visible;opacity:0.5;" width="238" height="257" xlink:href="6AC5167E.png"  transform="matrix(0.24 0 0 0.24 44.72 264.44)">
			</image>
			<g>
				<polygon class="st87" points="78.8,302.3 54.8,288.3 78.8,274.3 				"/>
				<polygon class="st162" points="78.8,302.3 54.8,288.3 78.8,274.3 				"/>
			</g>
		</g>
		<g>
			
				<image style="overflow:visible;opacity:0.5;" width="288" height="316" xlink:href="6AC5167B.png"  transform="matrix(0.24 0 0 0.24 57.44 202.52)">
			</image>
			<g>
				<polygon class="st94" points="103.6,254.5 67.5,233.4 103.6,212.4 				"/>
				<polygon class="st162" points="103.6,254.5 67.5,233.4 103.6,212.4 				"/>
			</g>
		</g>
		<g>
			
				<image style="overflow:visible;opacity:0.5;" width="254" height="275" xlink:href="6AC51674.png"  transform="matrix(0.24 0 0 0.24 137.12 218.36)">
			</image>
			<g>
				<polygon class="st161" points="174,244.4 146.2,260.6 146.2,228.2 				"/>
				<polygon class="st162" points="174,244.4 146.2,260.6 146.2,228.2 				"/>
			</g>
		</g>
		<g>
			
				<image style="overflow:visible;opacity:0.5;" width="248" height="268" xlink:href="6AC51669.png"  transform="matrix(0.24 0 0 0.24 62.24 142.52)">
			</image>
			<g>
				<polygon class="st94" points="98.7,183 72.4,167.7 98.7,152.3 				"/>
				<polygon class="st162" points="98.7,183 72.4,167.7 98.7,152.3 				"/>
			</g>
		</g>
		<g>
			
				<image style="overflow:visible;opacity:0.5;" width="247" height="267" xlink:href="6AC5166A.png"  transform="matrix(0.24 0 0 0.24 25.28 197.48)">
			</image>
			<g>
				<polygon class="st94" points="60.5,222.5 34.5,237.7 34.5,207.3 				"/>
				<polygon class="st162" points="60.5,222.5 34.5,237.7 34.5,207.3 				"/>
			</g>
		</g>
		<g>
			
				<image style="overflow:visible;opacity:0.5;" width="261" height="283" xlink:href="6AC5166B.png"  transform="matrix(0.24 0 0 0.24 267.68 184.52)">
			</image>
			<g>
				<polygon class="st44" points="306.2,211.5 276.8,228.7 276.8,194.4 				"/>
				<polygon class="st162" points="306.2,211.5 276.8,228.7 276.8,194.4 				"/>
			</g>
		</g>
		<g>
			<polygon class="st161" points="355.5,263.1 342.3,255.4 355.5,247.6 			"/>
			<polygon class="st162" points="355.5,263.1 342.3,255.4 355.5,247.6 			"/>
		</g>
	</g>
	<g>
		<g>
			<g>
				<polygon class="st1" points="544.6,329.1 561.8,319 544.6,308.9 				"/>
				<polygon class="st2" points="525.8,340.1 543.1,330 525.8,319.9 				"/>
				<polygon class="st3" points="545.1,308.1 562.3,318.1 562.3,298 				"/>
				<polygon class="st4" points="563.8,319 581.1,329.1 581.1,308.9 				"/>
				<polygon class="st5" points="526.3,297.1 543.6,307.2 543.6,287 				"/>
				<polygon class="st6" points="544.6,307.2 561.8,297.1 544.6,287 				"/>
				<polygon class="st7" points="563.8,297.1 581.1,307.2 581.1,287 				"/>
				<polygon class="st8" points="507.5,308.1 524.8,318.1 524.8,298 				"/>
				<polygon class="st9" points="525.8,296.2 543.1,286.1 525.8,276 				"/>
				<polygon class="st10" points="545.1,286.1 562.3,296.2 562.3,276 				"/>
				<polygon class="st11" points="582.1,307.2 599.4,297.1 582.1,287 				"/>
				<polygon class="st12" points="600.9,340.1 618.1,330 600.9,319.9 				"/>
				<polygon class="st13" points="492.8,319 502,324.4 502,313.6 				"/>
				<polygon class="st14" points="507,307.2 524.3,297.1 507,287 				"/>
				<polygon class="st15" points="507.5,286.1 524.8,296.2 524.8,276 				"/>
				<polygon class="st16" points="526.3,275.2 543.6,285.2 543.6,265.1 				"/>
				<polygon class="st17" points="546.1,281.7 557.3,275.2 546.1,268.6 				"/>
				<polygon class="st18" points="563.8,275.2 581.1,285.2 581.1,265.1 				"/>
				<polygon class="st19" points="582.1,285.2 599.4,275.2 582.1,265.1 				"/>
				<polygon class="st20" points="600.9,318.1 618.1,308.1 600.9,298 				"/>
				<polygon class="st21" points="601.4,340.9 618.6,351 618.6,330.9 				"/>
				<polygon class="st22" points="507,285.2 524.3,275.2 507,265.1 				"/>
				<polygon class="st23" points="507.5,264.2 524.8,274.3 524.8,254.1 				"/>
				<polygon class="st24" points="525.8,274.3 543.1,264.2 525.8,254.1 				"/>
				<polygon class="st25" points="545.1,264.2 562.3,274.3 562.3,254.1 				"/>
				<polygon class="st26" points="563.3,274.3 580.6,264.2 563.3,254.1 				"/>
				<polygon class="st27" points="600.9,296.2 618.1,286.1 600.9,276 				"/>
				<polygon class="st28" points="601.4,297.1 618.6,307.2 618.6,287 				"/>
				<polygon class="st29" points="469.5,329.1 486.8,319 469.5,308.9 				"/>
				<polygon class="st30" points="470,308.1 487.3,318.1 487.3,298 				"/>
				<polygon class="st31" points="488.3,296.2 505.5,286.1 488.3,276 				"/>
				<polygon class="st32" points="488.8,275.2 506,285.2 506,265.1 				"/>
				<polygon class="st33" points="507,263.3 524.3,253.2 507,243.1 				"/>
				<polygon class="st34" points="526.3,253.2 543.6,263.3 543.6,243.1 				"/>
				<polygon class="st35" points="544.6,263.3 561.8,253.2 544.6,243.1 				"/>
				<polygon class="st36" points="563.8,253.2 581.1,263.3 581.1,243.1 				"/>
				<polygon class="st37" points="582.1,263.3 599.4,253.2 582.1,243.1 				"/>
				<polygon class="st38" points="600.9,274.3 618.1,264.2 600.9,254.1 				"/>
				<polygon class="st39" points="601.4,275.2 618.6,285.2 618.6,265.1 				"/>
				<polygon class="st40" points="622.2,301.8 630.3,297.1 622.2,292.3 				"/>
				<polygon class="st41" points="620.1,308.1 637.4,318.1 637.4,298 				"/>
				<polygon class="st42" points="450.7,340.1 468,330 450.7,319.9 				"/>
				<polygon class="st43" points="470,286.1 487.3,296.2 487.3,276 				"/>
				<polygon class="st44" points="488.3,274.3 505.5,264.2 488.3,254.1 				"/>
				<polygon class="st45" points="488.8,253.2 506,263.3 506,243.1 				"/>
				<polygon class="st46" points="507.5,242.3 524.8,252.3 524.8,232.2 				"/>
				<polygon class="st47" points="525.8,252.3 543.1,242.3 525.8,232.2 				"/>
				<polygon class="st48" points="545.1,242.3 562.3,252.3 562.3,232.2 				"/>
				<polygon class="st49" points="563.3,252.3 580.6,242.3 563.3,232.2 				"/>
				<polygon class="st34" points="586.3,242.3 597.8,249 597.8,235.5 				"/>
				<polygon class="st50" points="600.9,252.3 618.1,242.3 600.9,232.2 				"/>
				<polygon class="st51" points="601.4,253.2 618.6,263.3 618.6,243.1 				"/>
				<polygon class="st52" points="619.6,285.2 636.9,275.2 619.6,265.1 				"/>
				<polygon class="st53" points="620.1,286.1 637.4,296.2 637.4,276 				"/>
				<polygon class="st54" points="638.9,319 656.2,329.1 656.2,308.9 				"/>
				<polygon class="st55" points="638.4,362 655.7,351.9 638.4,341.8 				"/>
				<polygon class="st56" points="469.5,285.2 486.8,275.2 469.5,265.1 				"/>
				<polygon class="st57" points="470,264.2 487.3,274.3 487.3,254.1 				"/>
				<polygon class="st58" points="488.3,252.3 505.5,242.3 488.3,232.2 				"/>
				<polygon class="st59" points="544.6,241.4 561.8,231.3 544.6,221.2 				"/>
				<polygon class="st60" points="563.8,231.3 581.1,241.4 581.1,221.2 				"/>
				<polygon class="st61" points="582.1,241.4 599.4,231.3 582.1,221.2 				"/>
				<polygon class="st62" points="601.4,231.3 618.6,241.4 618.6,221.2 				"/>
				<polygon class="st63" points="619.6,263.3 636.9,253.2 619.6,243.1 				"/>
				<polygon class="st64" points="620.1,264.2 637.4,274.3 637.4,254.1 				"/>
				<polygon class="st65" points="638.4,296.2 655.7,286.1 638.4,276 				"/>
				<polygon class="st66" points="638.9,297.1 656.2,307.2 656.2,287 				"/>
				<polygon class="st67" points="450.7,296.2 468,286.1 450.7,276 				"/>
				<polygon class="st68" points="451.2,275.2 468.5,285.2 468.5,265.1 				"/>
				<polygon class="st69" points="469.5,263.3 486.8,253.2 469.5,243.1 				"/>
				<polygon class="st70" points="470,242.3 487.3,252.3 487.3,232.2 				"/>
				<polygon class="st71" points="488.3,230.4 505.5,220.3 488.3,210.2 				"/>
				<polygon class="st72" points="582.6,220.3 599.9,230.4 599.9,210.2 				"/>
				<polygon class="st73" points="619.6,241.4 636.9,231.3 619.6,221.2 				"/>
				<polygon class="st74" points="638.4,274.3 655.7,264.2 638.4,254.1 				"/>
				<polygon class="st75" points="638.9,275.2 656.2,285.2 656.2,265.1 				"/>
				<polygon class="st76" points="657.2,307.2 674.4,297.1 657.2,287 				"/>
				<polygon class="st77" points="657.7,308.1 674.9,318.1 674.9,298 				"/>
				<polygon class="st78" points="432.5,286.1 449.7,296.2 449.7,276 				"/>
				<polygon class="st79" points="450.7,274.3 468,264.2 450.7,254.1 				"/>
				<polygon class="st80" points="451.2,253.2 468.5,263.3 468.5,243.1 				"/>
				<polygon class="st81" points="470,220.3 487.3,230.4 487.3,210.2 				"/>
				<polygon class="st82" points="563.8,209.4 581.1,219.5 581.1,199.3 				"/>
				<polygon class="st83" points="620.1,220.3 637.4,230.4 637.4,210.2 				"/>
				<polygon class="st84" points="638.4,252.3 655.7,242.3 638.4,232.2 				"/>
				<polygon class="st85" points="638.9,253.2 656.2,263.3 656.2,243.1 				"/>
				<polygon class="st86" points="657.2,285.2 674.4,275.2 657.2,265.1 				"/>
				<polygon class="st87" points="675.9,318.1 693.2,308.1 675.9,298 				"/>
				<polygon class="st88" points="676.4,319 693.7,329.1 693.7,308.9 				"/>
				<polygon class="st89" points="432,285.2 449.2,275.2 432,265.1 				"/>
				<polygon class="st90" points="432.5,264.2 449.7,274.3 449.7,254.1 				"/>
				<polygon class="st91" points="450.7,252.3 468,242.3 450.7,232.2 				"/>
				<polygon class="st92" points="451.2,231.3 468.5,241.4 468.5,221.2 				"/>
				<polygon class="st93" points="638.9,231.3 656.2,241.4 656.2,221.2 				"/>
				<polygon class="st94" points="657.2,263.3 674.4,253.2 657.2,243.1 				"/>
				<polygon class="st95" points="657.7,264.2 674.9,274.3 674.9,254.1 				"/>
				<polygon class="st43" points="675.9,296.2 693.2,286.1 675.9,276 				"/>
				<polygon class="st96" points="676.4,297.1 693.7,307.2 693.7,287 				"/>
				<polygon class="st97" points="694.7,329.1 712,319 694.7,308.9 				"/>
				<polygon class="st98" points="394.9,308.1 412.2,318.1 412.2,298 				"/>
				<polygon class="st99" points="413.2,296.2 430.5,286.1 413.2,276 				"/>
				<polygon class="st100" points="413.7,275.2 431,285.2 431,265.1 				"/>
				<polygon class="st33" points="432,263.3 449.2,253.2 432,243.1 				"/>
				<polygon class="st101" points="432.5,242.3 449.7,252.3 449.7,232.2 				"/>
				<polygon class="st102" points="450.7,230.4 468,220.3 450.7,210.2 				"/>
				<polygon class="st103" points="657.2,241.4 674.4,231.3 657.2,221.2 				"/>
				<polygon class="st104" points="657.7,242.3 674.9,252.3 674.9,232.2 				"/>
				<polygon class="st105" points="675.9,274.3 693.2,264.2 675.9,254.1 				"/>
				<polygon class="st43" points="676.4,275.2 693.7,285.2 693.7,265.1 				"/>
				<polygon class="st106" points="394.4,307.2 411.7,297.1 394.4,287 				"/>
				<polygon class="st107" points="394.9,286.1 412.2,296.2 412.2,276 				"/>
				<polygon class="st108" points="413.2,274.3 430.5,264.2 413.2,254.1 				"/>
				<polygon class="st109" points="413.7,253.2 431,263.3 431,243.1 				"/>
				<polygon class="st110" points="432,241.4 449.2,231.3 432,221.2 				"/>
				<polygon class="st111" points="438.1,220.3 446.1,225.1 446.1,215.6 				"/>
				<polygon class="st112" points="638.4,186.6 655.7,176.5 638.4,166.4 				"/>
				<polygon class="st113" points="638.9,187.4 656.2,197.5 656.2,177.3 				"/>
				<polygon class="st114" points="657.7,220.3 674.9,230.4 674.9,210.2 				"/>
				<polygon class="st115" points="675.9,252.3 693.2,242.3 675.9,232.2 				"/>
				<polygon class="st116" points="676.4,253.2 693.7,263.3 693.7,243.1 				"/>
				<polygon class="st117" points="694.7,285.2 712,275.2 694.7,265.1 				"/>
				<polygon class="st118" points="394.9,264.2 412.2,274.3 412.2,254.1 				"/>
				<polygon class="st119" points="413.2,252.3 430.5,242.3 413.2,232.2 				"/>
				<polygon class="st120" points="413.7,231.3 431,241.4 431,221.2 				"/>
				<polygon class="st121" points="432,219.5 449.2,209.4 432,199.3 				"/>
				<polygon class="st122" points="619.6,175.6 636.9,165.5 619.6,155.4 				"/>
				<polygon class="st123" points="657.2,197.5 674.4,187.4 657.2,177.3 				"/>
				<polygon class="st124" points="675.9,230.4 693.2,220.3 675.9,210.2 				"/>
				<polygon class="st125" points="676.4,231.3 693.7,241.4 693.7,221.2 				"/>
				<polygon class="st126" points="694.7,263.3 712,253.2 694.7,243.1 				"/>
				<polygon class="st127" points="695.2,264.2 712.5,274.3 712.5,254.1 				"/>
				<polygon class="st128" points="713.5,296.2 730.7,286.1 713.5,276 				"/>
				<polygon class="st129" points="732.2,329.1 749.5,319 732.2,308.9 				"/>
				<polygon class="st130" points="375.7,296.2 392.9,286.1 375.7,276 				"/>
				<polygon class="st131" points="376.2,275.2 393.4,285.2 393.4,265.1 				"/>
				<polygon class="st108" points="394.4,263.3 411.7,253.2 394.4,243.1 				"/>
				<polygon class="st132" points="394.9,242.3 412.2,252.3 412.2,232.2 				"/>
				<polygon class="st133" points="694.7,241.4 712,231.3 694.7,221.2 				"/>
				<polygon class="st134" points="695.2,242.3 712.5,252.3 712.5,232.2 				"/>
				<polygon class="st135" points="713.5,274.3 730.7,264.2 713.5,254.1 				"/>
				<polygon class="st136" points="718.8,275.2 729.4,281.3 729.4,269 				"/>
				<polygon class="st129" points="732.7,308.1 750,318.1 750,298 				"/>
				<polygon class="st137" points="375.7,274.3 392.9,264.2 375.7,254.1 				"/>
				<polygon class="st138" points="376.2,253.2 393.4,263.3 393.4,243.1 				"/>
				<polygon class="st103" points="394.4,241.4 411.7,231.3 394.4,221.2 				"/>
				<polygon class="st139" points="394.9,220.3 412.2,230.4 412.2,210.2 				"/>
				<polygon class="st140" points="676.4,187.4 693.7,197.5 693.7,177.3 				"/>
				<polygon class="st141" points="698.6,214.9 708.1,209.4 698.6,203.8 				"/>
				<polygon class="st142" points="695.2,220.3 712.5,230.4 712.5,210.2 				"/>
				<polygon class="st143" points="713.5,252.3 730.7,242.3 713.5,232.2 				"/>
				<polygon class="st144" points="714,253.2 731.2,263.3 731.2,243.1 				"/>
				<polygon class="st145" points="732.2,285.2 749.5,275.2 732.2,265.1 				"/>
				<polygon class="st146" points="375.7,252.3 392.9,242.3 375.7,232.2 				"/>
				<polygon class="st147" points="376.2,231.3 393.4,241.4 393.4,221.2 				"/>
				<polygon class="st148" points="394.4,219.5 411.7,209.4 394.4,199.3 				"/>
				<polygon class="st149" points="713.5,230.4 730.7,220.3 713.5,210.2 				"/>
				<polygon class="st150" points="714,231.3 731.2,241.4 731.2,221.2 				"/>
				<polygon class="st151" points="732.2,263.3 749.5,253.2 732.2,243.1 				"/>
				<polygon class="st152" points="732.7,264.2 750,274.3 750,254.1 				"/>
				<polygon class="st153" points="375.7,230.4 392.9,220.3 375.7,210.2 				"/>
				<polygon class="st154" points="734.7,236.7 744,231.3 734.7,225.9 				"/>
				<polygon class="st155" points="732.7,242.3 750,252.3 750,232.2 				"/>
				<polygon class="st156" points="714,187.4 731.2,197.5 731.2,177.3 				"/>
				<polygon class="st157" points="732.2,219.5 749.5,209.4 732.2,199.3 				"/>
				<polygon class="st157" points="732.7,220.3 750,230.4 750,210.2 				"/>
				<polygon class="st158" points="376.2,165.5 393.4,175.6 393.4,155.4 				"/>
				<polygon class="st159" points="732.2,197.5 749.5,187.4 732.2,177.3 				"/>
				<polygon class="st160" points="732.7,198.4 750,208.5 750,188.3 				"/>
			</g>
			<polygon class="st161" points="582.6,264.2 599.9,274.3 599.9,254.1 			"/>
			<polygon class="st40" points="530.4,210.2 538.5,205.5 530.4,200.7 			"/>
		</g>
		<g>
			
				<image style="overflow:visible;opacity:0.5;" width="270" height="295" xlink:href="6AC5166C.png"  transform="matrix(0.24 0 0 0.24 528.32 290.6)">
			</image>
			<g>
				<polygon class="st1" points="537.4,337.5 569,319 537.4,300.5 				"/>
				<polygon class="st162" points="537.4,337.5 569,319 537.4,300.5 				"/>
			</g>
		</g>
		<g>
			
				<image style="overflow:visible;opacity:0.5;" width="228" height="246" xlink:href="6E7C3EFE.png"  transform="matrix(0.24 0 0 0.24 476.96 241.64)">
			</image>
			<g>
				<polygon class="st44" points="486.1,276.8 507.7,264.2 486.1,251.6 				"/>
				<polygon class="st162" points="486.1,276.8 507.7,264.2 486.1,251.6 				"/>
			</g>
		</g>
		<g>
			
				<image style="overflow:visible;opacity:0.5;" width="238" height="258" xlink:href="6E7C3EF9.png"  transform="matrix(0.24 0 0 0.24 663.44 284.12)">
			</image>
			<g>
				<polygon class="st87" points="672.6,322.1 696.6,308.1 672.6,294 				"/>
				<polygon class="st162" points="672.6,322.1 696.6,308.1 672.6,294 				"/>
			</g>
		</g>
		<g>
			
				<image style="overflow:visible;opacity:0.5;" width="288" height="316" xlink:href="6E7C3EFA.png"  transform="matrix(0.24 0 0 0.24 638.72 222.2)">
			</image>
			<g>
				<polygon class="st94" points="647.8,274.3 683.8,253.2 647.8,232.2 				"/>
				<polygon class="st162" points="647.8,274.3 683.8,253.2 647.8,232.2 				"/>
			</g>
		</g>
		<g>
			
				<image style="overflow:visible;opacity:0.5;" width="254" height="276" xlink:href="6E7C3EF8.png"  transform="matrix(0.24 0 0 0.24 567.2 238.04)">
			</image>
			<g>
				<polygon class="st161" points="577.4,264.2 605.1,280.4 605.1,248 				"/>
				<polygon class="st162" points="577.4,264.2 605.1,280.4 605.1,248 				"/>
			</g>
		</g>
		<g>
			
				<image style="overflow:visible;opacity:0.5;" width="248" height="268" xlink:href="6E7C3EF6.png"  transform="matrix(0.24 0 0 0.24 643.52 162.2)">
			</image>
			<g>
				<polygon class="st94" points="652.7,202.8 678.9,187.4 652.7,172.1 				"/>
				<polygon class="st162" points="652.7,202.8 678.9,187.4 652.7,172.1 				"/>
			</g>
		</g>
		<g>
			
				<image style="overflow:visible;opacity:0.5;" width="247" height="267" xlink:href="6E7C3EE9.png"  transform="matrix(0.24 0 0 0.24 680.72 217.16)">
			</image>
			<g>
				<polygon class="st94" points="690.8,242.3 716.8,257.4 716.8,227.1 				"/>
				<polygon class="st162" points="690.8,242.3 716.8,257.4 716.8,227.1 				"/>
			</g>
		</g>
		<g>
			
				<image style="overflow:visible;opacity:0.5;" width="260" height="284" xlink:href="6E7C3EEA.png"  transform="matrix(0.24 0 0 0.24 435.2 204.2)">
			</image>
			<g>
				<polygon class="st44" points="445.2,231.3 474.6,248.5 474.6,214.1 				"/>
				<polygon class="st162" points="445.2,231.3 474.6,248.5 474.6,214.1 				"/>
			</g>
		</g>
		<g>
			<polygon class="st161" points="395.8,282.9 409.1,275.2 395.8,267.4 			"/>
			<polygon class="st162" points="395.8,282.9 409.1,275.2 395.8,267.4 			"/>
		</g>
	</g>
</g>
</svg>
