<?xml version="1.0" encoding="utf-8"?>
<!-- Generator: Adobe Illustrator 22.0.0, SVG Export Plug-In . SVG Version: 6.00 Build 0)  -->
<svg version="1.1" xmlns="http://www.w3.org/2000/svg" xmlns:xlink="http://www.w3.org/1999/xlink" x="0px" y="0px"
	 viewBox="0 0 750 500" style="enable-background:new 0 0 750 500;" xml:space="preserve">
<style type="text/css">
	.st0{clip-path:url(#SVGID_2_);}
	.st1{fill:url(#SVGID_3_);}
	.st2{fill:url(#SVGID_4_);}
	.st3{fill:url(#SVGID_5_);}
	.st4{fill:url(#SVGID_6_);}
	.st5{fill:url(#SVGID_7_);}
	.st6{fill:url(#SVGID_8_);}
	.st7{fill:#EE4C93;}
	.st8{fill:url(#SVGID_9_);}
	.st9{fill:#EA227A;}
	.st10{clip-path:url(#SVGID_2_);fill:none;stroke:#EA227A;stroke-miterlimit:10;}
	.st11{fill:#FFFFFF;}
	.st12{fill:#00255B;}
	.st13{clip-path:url(#SVGID_2_);fill:#FFFFFF;}
	.st14{clip-path:url(#SVGID_2_);fill:#EA227A;}
	.st15{clip-path:url(#SVGID_2_);fill:none;stroke:#FFFFFF;stroke-miterlimit:10;}
	.st16{clip-path:url(#SVGID_2_);fill:none;stroke:#FACEE2;stroke-miterlimit:10;}
	.st17{fill:url(#SVGID_10_);}
	.st18{fill:url(#SVGID_11_);}
</style>
<g id="BACKGROUND">
</g>
<g id="OBJECTS">
	<g>
		<defs>
			<polyline id="SVGID_1_" points="750,0 750,500 0,500 0,0 			"/>
		</defs>
		<clipPath id="SVGID_2_">
			<use xlink:href="#SVGID_1_"  style="overflow:visible;"/>
		</clipPath>
		<g class="st0">
			<linearGradient id="SVGID_3_" gradientUnits="userSpaceOnUse" x1="533.4023" y1="-472.0781" x2="82.9247" y2="319.8499">
				<stop  offset="0" style="stop-color:#000000;stop-opacity:0"/>
				<stop  offset="0.1903" style="stop-color:#000204;stop-opacity:0.1903"/>
				<stop  offset="0.3617" style="stop-color:#00060F;stop-opacity:0.3617"/>
				<stop  offset="0.5258" style="stop-color:#000F21;stop-opacity:0.5258"/>
				<stop  offset="0.6854" style="stop-color:#001A3B;stop-opacity:0.6854"/>
				<stop  offset="0.8418" style="stop-color:#00295C;stop-opacity:0.8418"/>
				<stop  offset="0.9938" style="stop-color:#003B84;stop-opacity:0.9938"/>
				<stop  offset="1" style="stop-color:#003C86"/>
			</linearGradient>
			<path class="st1" d="M-5.2-5.5v219c30.3,4.3,61.6,2.7,91.5-3.7c50.5-10.7,97.5-34.2,140.8-62.3c60.3-39.1,116-88.4,184.9-109
				c33.7-10.1,69.6-12.9,101.8-27.1c9.7-4.3,19.1-10,27.4-16.8H-5.2z"/>
		</g>
		<g class="st0">
			<g>
				<linearGradient id="SVGID_4_" gradientUnits="userSpaceOnUse" x1="361.279" y1="-76.4652" x2="140.3835" y2="311.8635">
					<stop  offset="0" style="stop-color:#000000;stop-opacity:0"/>
					<stop  offset="1.811987e-02" style="stop-color:#000205;stop-opacity:1.811987e-02"/>
					<stop  offset="0.1641" style="stop-color:#00142D;stop-opacity:0.1641"/>
					<stop  offset="0.3152" style="stop-color:#00224D;stop-opacity:0.3152"/>
					<stop  offset="0.4706" style="stop-color:#002E66;stop-opacity:0.4706"/>
					<stop  offset="0.6319" style="stop-color:#003678;stop-opacity:0.6319"/>
					<stop  offset="0.8029" style="stop-color:#003A83;stop-opacity:0.8029"/>
					<stop  offset="1" style="stop-color:#003C86"/>
				</linearGradient>
				<path class="st2" d="M1.9,233.6c36.3,9.5,73.1,11.1,109.8,2.8c34.6-7.8,68.3-22.5,99.1-39.9c29.9-16.9,57.6-37.5,82.8-60.8
					c7-6.4,13.5-13.2,20.9-19.1c3.2-2.6,7.1-5,9.8-8.2c3.2-3.7,6.6-6.8,10.4-10c14.8-12.6,29.6-25.1,44.7-37.4
					c16.9-13.8,36.4-25.1,55.9-35c20.4-10.4,42.9-16.2,64.6-23.1c0.8-0.2,0.4-1.5-0.3-1.2c-18.2,5.9-36.7,11-54.4,18.4
					c-8.6,3.6-16.8,8.1-24.9,12.8c-8.1,4.8-16.5,9.3-24.5,14.4c-15.4,9.9-29.2,22.5-43.2,34.3c-7.5,6.3-15,12.7-22.5,19.1
					c-3,2.5-4.9,5.1-7.5,7.8c-3.6,3.8-8.6,6.9-12.8,10.2c-7,5.6-13.1,12.4-19.7,18.4c-6.3,5.7-12.7,11.3-19.3,16.7
					c-13.8,11.3-28.3,21.8-43.5,31.3c-30.1,19-63.1,34.6-97.1,45c-20.2,6.2-41.1,10.1-62.3,10.6c-22.3,0.6-44.3-2.7-65.8-8.4
					C1.4,232.2,1.1,233.4,1.9,233.6L1.9,233.6z"/>
			</g>
		</g>
		<g class="st0">
			<g>
				<linearGradient id="SVGID_5_" gradientUnits="userSpaceOnUse" x1="741.5969" y1="420.2368" x2="694.0234" y2="503.8698">
					<stop  offset="0" style="stop-color:#000000;stop-opacity:0"/>
					<stop  offset="1.811987e-02" style="stop-color:#000205;stop-opacity:1.811987e-02"/>
					<stop  offset="0.1641" style="stop-color:#00142D;stop-opacity:0.1641"/>
					<stop  offset="0.3152" style="stop-color:#00224D;stop-opacity:0.3152"/>
					<stop  offset="0.4706" style="stop-color:#002E66;stop-opacity:0.4706"/>
					<stop  offset="0.6319" style="stop-color:#003678;stop-opacity:0.6319"/>
					<stop  offset="0.8029" style="stop-color:#003A83;stop-opacity:0.8029"/>
					<stop  offset="1" style="stop-color:#003C86"/>
				</linearGradient>
				<path class="st3" d="M749,424.3c-10.8,12.5-20.7,25.7-31.3,38.3c-10.3,12.4-21.5,24-32,36.3c-0.5,0.6,0.4,1.5,0.9,0.9
					c10.4-12.3,21.7-23.9,32-36.3c10.5-12.7,20.5-25.9,31.3-38.3C750.4,424.6,749.5,423.7,749,424.3L749,424.3z"/>
			</g>
		</g>
		<g class="st0">
			<g>
				<linearGradient id="SVGID_6_" gradientUnits="userSpaceOnUse" x1="647.3416" y1="147.1957" x2="419.1233" y2="548.3975">
					<stop  offset="0" style="stop-color:#000000;stop-opacity:0"/>
					<stop  offset="1.811987e-02" style="stop-color:#000205;stop-opacity:1.811987e-02"/>
					<stop  offset="0.1641" style="stop-color:#00142D;stop-opacity:0.1641"/>
					<stop  offset="0.3152" style="stop-color:#00224D;stop-opacity:0.3152"/>
					<stop  offset="0.4706" style="stop-color:#002E66;stop-opacity:0.4706"/>
					<stop  offset="0.6319" style="stop-color:#003678;stop-opacity:0.6319"/>
					<stop  offset="0.8029" style="stop-color:#003A83;stop-opacity:0.8029"/>
					<stop  offset="1" style="stop-color:#003C86"/>
				</linearGradient>
				<path class="st4" d="M333.9,499.5c3.6-37.4,17.5-73.1,39.8-103.4c11.3-15.3,24.4-29.4,38.4-42.2c7.2-6.6,14.8-12.7,22.9-18.2
					c3.5-2.4,7.1-4.6,10.8-6.7c4.4-2.5,7.9-5.7,12.3-8.3c33.7-19.8,70.1-34.4,107.2-46.5c18.7-6.1,37.7-12.1,56.7-17.1
					c14.3-3.7,28.1-8.6,42.1-13.2c10.6-3.5,21.1-6.9,31.5-10.9c7.9-3.1,15.9-6.1,23.5-9.8c5.3-2.6,10.5-5.4,15.7-8.3
					c2.5-1.4,5.4-2.6,7.6-4.4c2.4-1.8,3.9-3.7,6.9-4.8c0.8-0.3,0.4-1.5-0.3-1.2c-3.6,1.3-5.8,3.9-8.9,5.9c-4.8,3.1-10,5.7-15,8.3
					c-8.9,4.7-18,8.5-27.4,12.1c-9.3,3.6-18.5,6.8-27.9,9.9c-13.1,4.3-26,9.2-39.2,12.8c-19.7,5.4-39.3,11-58.8,17.2
					c-37.2,11.9-73.8,26-107.9,45.2c-3.6,2-8,3.9-11.2,6.5c-4.2,3.4-8.6,6-13.3,8.9c-7.4,4.6-14.4,9.9-21.1,15.5
					c-14.6,12.3-27.5,26.3-39.7,41c-26,31.4-41.9,71.1-45.8,111.6C332.6,500.3,333.8,500.3,333.9,499.5L333.9,499.5z"/>
			</g>
		</g>
		<g class="st0">
			<linearGradient id="SVGID_7_" gradientUnits="userSpaceOnUse" x1="419.217" y1="-331.1241" x2="102.0602" y2="226.4295">
				<stop  offset="0" style="stop-color:#000000;stop-opacity:0"/>
				<stop  offset="0.1903" style="stop-color:#000204;stop-opacity:0.1903"/>
				<stop  offset="0.3617" style="stop-color:#00060F;stop-opacity:0.3617"/>
				<stop  offset="0.5258" style="stop-color:#000F21;stop-opacity:0.5258"/>
				<stop  offset="0.6854" style="stop-color:#001A3B;stop-opacity:0.6854"/>
				<stop  offset="0.8418" style="stop-color:#00295C;stop-opacity:0.8418"/>
				<stop  offset="0.9938" style="stop-color:#003B84;stop-opacity:0.9938"/>
				<stop  offset="1" style="stop-color:#003C86"/>
			</linearGradient>
			<path class="st5" d="M-5.2-5.5V133c10,9.8,21.7,17.9,34.4,23.9c32.8,15.5,71.1,17.4,106.6,9.9c35.5-7.6,68.6-24.1,99.1-43.9
				c42.4-27.5,81.7-62.2,130.2-76.8c23.7-7.1,49-9.1,71.7-19.1c15.1-6.6,29.2-18.2,36.4-32.6H-5.2z"/>
		</g>
		<g class="st0">
			
				<linearGradient id="SVGID_8_" gradientUnits="userSpaceOnUse" x1="994.3774" y1="-170.8736" x2="394.7482" y2="883.2593" gradientTransform="matrix(-1 0 0 -1 1086.7572 963.6127)">
				<stop  offset="0" style="stop-color:#000000;stop-opacity:0"/>
				<stop  offset="0.1903" style="stop-color:#000204;stop-opacity:0.1903"/>
				<stop  offset="0.3617" style="stop-color:#00060F;stop-opacity:0.3617"/>
				<stop  offset="0.5258" style="stop-color:#000F21;stop-opacity:0.5258"/>
				<stop  offset="0.6854" style="stop-color:#001A3B;stop-opacity:0.6854"/>
				<stop  offset="0.8418" style="stop-color:#00295C;stop-opacity:0.8418"/>
				<stop  offset="0.9938" style="stop-color:#003B84;stop-opacity:0.9938"/>
				<stop  offset="1" style="stop-color:#003C86"/>
			</linearGradient>
			<path class="st6" d="M756.2,235.1c-14.4,1.4-28.7,3.6-42.8,6.6c-67.2,14.3-129.8,45.5-187.4,82.9
				c-80.2,52.1-154.5,117.7-246.1,145.1c-44.8,13.4-92.6,17.2-135.5,36.1c-0.3,0.1-0.7,0.3-1,0.4h612.8V235.1z"/>
		</g>
		<g class="st0">
			<path class="st7" d="M756.2,216.9v-1"/>
			<path class="st7" d="M526.3-5.5h-1"/>
		</g>
		<g class="st0">
			
				<linearGradient id="SVGID_9_" gradientUnits="userSpaceOnUse" x1="923.3652" y1="-91.1841" x2="414.4196" y2="803.5292" gradientTransform="matrix(-1 0 0 -1 1086.7572 963.6127)">
				<stop  offset="0" style="stop-color:#000000;stop-opacity:0"/>
				<stop  offset="0.1903" style="stop-color:#000204;stop-opacity:0.1903"/>
				<stop  offset="0.3617" style="stop-color:#00060F;stop-opacity:0.3617"/>
				<stop  offset="0.5258" style="stop-color:#000F21;stop-opacity:0.5258"/>
				<stop  offset="0.6854" style="stop-color:#001A3B;stop-opacity:0.6854"/>
				<stop  offset="0.8418" style="stop-color:#00295C;stop-opacity:0.8418"/>
				<stop  offset="0.9938" style="stop-color:#003B84;stop-opacity:0.9938"/>
				<stop  offset="1" style="stop-color:#003C86"/>
			</linearGradient>
			<path class="st8" d="M756.9,278.8c-29.4-2.5-59.3-0.2-88.2,5.9c-57,12.1-110.2,38.6-159.1,70.4
				c-68.1,44.2-131.1,99.9-208.9,123.2c-34.7,10.4-71.6,14-105.4,26.7h561.5V278.8z"/>
		</g>
		<g class="st0">
			<path class="st9" d="M208.2,506.2C223.4,437.5,284.8,386,358,386c73.2,0,134.6,51.5,149.8,120.2h1C493.6,436.9,431.7,385,358,385
				c-73.8,0-135.6,52-150.8,121.2H208.2z"/>
		</g>
		
			<ellipse transform="matrix(0.5677 -0.8233 0.8233 0.5677 55.6896 618.4544)" class="st10" cx="616.7" cy="256.2" rx="30.6" ry="30.6"/>
		<g class="st0">
			<path class="st11" d="M90.7,146.3"/>
		</g>
		<g class="st0">
			<path class="st12" d="M748,102.4"/>
			<path class="st12" d="M751.2,108.7c2,0.1,3.5,1.6,3.5,3.7c0,2.1-1.6,3.7-3.7,3.6"/>
			<path class="st12" d="M756.2,112.1c-0.2,0.5-0.4,1-0.4,1.6c0,0.7,0.1,1.3,0.4,1.8V112.1z"/>
			<path class="st12" d="M756.2,119.2c-1,0.6-1.7,1.7-1.8,2.9c0,1.3,0.7,2.4,1.8,3V119.2z"/>
			<path class="st12" d="M756.2,127.3c-1.7,0.1-3.1,1.6-3,3.3c0,1.7,1.4,3.1,3,3.2V127.3z"/>
			<path class="st12" d="M756.2,136.1c-0.4-0.2-0.8-0.3-1.2-0.3c-1.7,0-3,1.3-3,3c0,1.7,1.3,3,3,3c0.5,0,0.9-0.1,1.3-0.3V136.1z"/>
			<path class="st12" d="M749.6,137.3"/>
			<path class="st12" d="M756.1,146.9c0,1.6-1.1,2.8-2.7,2.8c-1.6,0-2.8-1.1-2.8-2.7c0-1.6,1.1-2.8,2.7-2.8
				C754.9,144.2,756.1,145.3,756.1,146.9z"/>
			<path class="st12" d="M751.9,152.9c1.4,0,2.5,1,2.5,2.4c0,1.3-1,2.4-2.3,2.4"/>
			<path class="st12" d="M750.5,161.6c1.1,0,2,1,2,2c0,1.1-0.9,2-2,2"/>
		</g>
		<g class="st0">
			<path class="st12" d="M-5.2,417.9v7.8c2.1-0.2,3.6-1.8,3.6-4C-1.6,419.7-3.2,418.1-5.2,417.9z"/>
			<path class="st12" d="M118.6,491.3"/>
			<path class="st12" d="M118.6,499.1"/>
			<path class="st12" d="M0.4,414.9"/>
			<path class="st12" d="M-4,409.6c-0.4,0-0.8,0.1-1.2,0.2v7.3c0.3,0.1,0.7,0.2,1,0.2c2.1,0.1,3.9-1.7,4-3.8
				C-0.2,411.4-1.9,409.7-4,409.6z"/>
			<path class="st12" d="M129,506.2c0.2-0.4,0.3-0.9,0.3-1.4c0-2.1-1.7-3.8-3.8-3.8c-2.1,0-3.9,1.7-3.9,3.9c0,0.5,0.1,1,0.3,1.4H129
				z"/>
			<path class="st12" d="M120.1,490.7"/>
			<path class="st12" d="M137.4,506.2c0-2-1.6-3.6-3.6-3.6c-2.1,0-3.7,1.5-3.7,3.6c0,0,0,0,0,0H137.4z"/>
			<path class="st12" d="M128.3,492"/>
			<path class="st12" d="M-2.7,401.5c-1,0-1.9,0.4-2.5,1.1v5.2c0.7,0.7,1.6,1.1,2.6,1.1"/>
			<path class="st12" d="M136.8,493.4"/>
			<path class="st12" d="M145.3,506.2c-0.6-1.1-1.7-1.9-3-2c-1.4-0.1-2.6,0.8-3.3,2H145.3z"/>
			<path class="st12" d="M147.1,499.5c-0.1,1.9-1.6,3.4-3.5,3.3"/>
			<path class="st12" d="M-5.2,385.5v3.4c0.3-0.5,0.5-1,0.5-1.5C-4.7,386.7-4.8,386.1-5.2,385.5z"/>
			<path class="st12" d="M155.3,501c0,1.8-1.5,3.2-3.3,3.2c-1.8,0-3.2-1.5-3.2-3.2"/>
			<path class="st12" d="M150.3,492.5"/>
			<path class="st12" d="M156.6,492.6"/>
			<path class="st12" d="M163.4,502.5c-0.1,1.7-1.4,2.9-3.1,2.9c-1.7-0.1-2.9-1.4-2.9-3.1"/>
			<path class="st12" d="M83.3,400.2"/>
			<path class="st12" d="M91.7,401.8"/>
			<path class="st12" d="M68.4,389"/>
			<path class="st12" d="M-5.2,376.1v5.4c1-0.5,1.7-1.5,1.7-2.7C-3.5,377.6-4.2,376.6-5.2,376.1z"/>
			<path class="st12" d="M164.8,494.1"/>
			<path class="st12" d="M158.9,494"/>
			<path class="st12" d="M100.1,403.1"/>
			<path class="st12" d="M61.6,379.4"/>
			<path class="st12" d="M166.9,506.2h3c0.7-0.5,1.2-1.3,1.2-2.3c0-1.6-1.1-2.8-2.6-2.8c-1.6,0-2.9,1.1-2.8,2.8
				C165.7,504.9,166.2,505.7,166.9,506.2z"/>
			<path class="st12" d="M96,396.5"/>
			<path class="st12" d="M90.5,396.4"/>
			<path class="st12" d="M67.2,383.6"/>
			<path class="st12" d="M69.9,386.3"/>
			<path class="st12" d="M-5,367.8c-0.1,0-0.1,0-0.2,0v5.4c0.1,0,0.1,0,0.2,0c1.5,0,2.7-1.2,2.7-2.7C-2.3,368.9-3.5,367.8-5,367.8z"
				/>
			<path class="st12" d="M57.3,372.3"/>
			<path class="st12" d="M54.7,369.8"/>
			<path class="st12" d="M2.4,363.6"/>
			<path class="st12" d="M112.4,399.5"/>
			<path class="st12" d="M107.4,399.4"/>
			<path class="st12" d="M60.6,373.8"/>
			<path class="st12" d="M63.2,376.2"/>
			<path class="st12" d="M179.1,506.2c0.1-0.2,0.1-0.5,0.1-0.8c0-1.4-1-2.5-2.4-2.5c-1.4,0-2.5,1-2.5,2.4c0,0.3,0.1,0.6,0.1,0.9
				H179.1z"/>
			<path class="st12" d="M-3.4,359.8c-0.7,0-1.4,0.3-1.8,0.7v3.3c0.4,0.4,1,0.7,1.7,0.7c1.3,0,2.4-1,2.4-2.3
				C-1.1,360.9-2.1,359.8-3.4,359.8z"/>
			<path class="st12" d="M180.6,497.1"/>
			<path class="st12" d="M175.9,497"/>
			<path class="st12" d="M50,362.7"/>
			<path class="st12" d="M54.1,364.1"/>
			<path class="st12" d="M128.7,402.2"/>
			<path class="st12" d="M124.5,402.1"/>
			<path class="st12" d="M179.8,490.8"/>
			<path class="st12" d="M187.1,506.2c-0.3-0.8-1-1.4-1.9-1.4c-0.9,0-1.7,0.6-2,1.4H187.1z"/>
			<path class="st12" d="M0.1,353.8c0,1.1-0.9,2-2,2c-1.1,0-2.1-1-2.1-2.1c0-1.1,1-2,2.1-2C-0.9,351.8,0.1,352.7,0.1,353.8z"/>
			<path class="st12" d="M181.2,482.6"/>
			<path class="st12" d="M181.4,478.6"/>
			<path class="st12" d="M132.9,403.6"/>
			<path class="st12" d="M188.1,491.8"/>
			<path class="st12" d="M190.1,490.5"/>
			<path class="st12" d="M42.8,352.4"/>
			<path class="st12" d="M128.5,396c-0.2,0-0.5,0-0.7,0"/>
			<path class="st12" d="M49.4,352.7"/>
			<path class="st12" d="M49.4,356.1"/>
			<path class="st12" d="M142.7,403.3c0.2,0,0.5,0,0.7,0"/>
			<path class="st12" d="M191.3,482.2"/>
			<path class="st12" d="M189.6,480.4"/>
			<path class="st12" d="M196.3,500c0.1,0.5-0.6,1.1-1.3,2.1c-0.7-1-1.4-1.5-1.4-2"/>
			<path class="st12" d="M-0.4,346.8c-0.6-0.1-1-0.9-1.5-1.4c0.5-0.5,1-1.2,1.5-1.3"/>
			<path class="st12" d="M135.9,396.9c-0.4-0.5-1.1-1.1-1-1.6"/>
			<path class="st12" d="M137.5,395.2"/>
			<path class="st12" d="M42.6,343.5c0.3,0.4,0.9,0.7,0.9,1.1"/>
			<path class="st12" d="M198.1,491.6"/>
			<path class="st12" d="M196.4,490.6"/>
			<path class="st12" d="M49.9,346"/>
			<path class="st12" d="M144.5,395.9"/>
			<path class="st12" d="M144.5,397.6"/>
		</g>
		<circle class="st13" cx="55.2" cy="199.5" r="2.7"/>
		<circle class="st13" cx="427.1" cy="116.5" r="2.3"/>
		<circle class="st13" cx="472.9" cy="467.6" r="2.3"/>
		<path class="st14" d="M713.2,372.1c0,1.3-1,2.3-2.3,2.3c-1.3,0-2.3-1-2.3-2.3c0-1.3,1-2.3,2.3-2.3
			C712.2,369.8,713.2,370.8,713.2,372.1z"/>
		<path class="st13" d="M276,439.4c0,1.7-1.4,3.1-3.1,3.1c-1.7,0-3.1-1.4-3.1-3.1c0-1.7,1.4-3.1,3.1-3.1
			C274.6,436.3,276,437.7,276,439.4z"/>
		<g class="st0">
			<rect x="503.4" y="27.8" class="st9" width="4.2" height="14.2"/>
			
				<rect x="503.4" y="27.8" transform="matrix(-1.836970e-16 1 -1 -1.836970e-16 540.502 -470.5854)" class="st9" width="4.2" height="14.2"/>
		</g>
		<g class="st0">
			<rect x="220.9" y="158.6" class="st9" width="2.7" height="9.2"/>
			
				<rect x="220.9" y="158.6" transform="matrix(-1.836970e-16 1 -1 -1.836970e-16 385.4298 -59.0394)" class="st9" width="2.7" height="9.2"/>
		</g>
		<g class="st0">
			<rect x="531.8" y="437.9" class="st11" width="2.7" height="9.2"/>
			
				<rect x="531.8" y="437.9" transform="matrix(-1.836970e-16 1 -1 -1.836970e-16 975.7087 -90.6343)" class="st11" width="2.7" height="9.2"/>
		</g>
		<path class="st10" d="M238.2,65.6"/>
		<path class="st10" d="M276,27.8"/>
		<line class="st10" x1="542.1" y1="352.7" x2="503.4" y2="391.4"/>
		<path class="st15" d="M230.2,388.4"/>
		<line class="st15" x1="528.6" y1="81.7" x2="491" y2="119.2"/>
		<path class="st16" d="M184.6,327.9c1.6,37.6-30.8,70.1-71.7,71.7c-39.6,1.6-71.7-32.1-71.7-71.7s32.1-71.7,71.7-71.7
			S182.9,288.3,184.6,327.9z"/>
	</g>
	<g>
		<g>
			<linearGradient id="SVGID_10_" gradientUnits="userSpaceOnUse" x1="437.0343" y1="293.7083" x2="258.6093" y2="607.375">
				<stop  offset="0" style="stop-color:#000000;stop-opacity:0"/>
				<stop  offset="1.811987e-02" style="stop-color:#000205;stop-opacity:1.811987e-02"/>
				<stop  offset="0.1641" style="stop-color:#00142D;stop-opacity:0.1641"/>
				<stop  offset="0.3152" style="stop-color:#00224D;stop-opacity:0.3152"/>
				<stop  offset="0.4706" style="stop-color:#002E66;stop-opacity:0.4706"/>
				<stop  offset="0.6319" style="stop-color:#003678;stop-opacity:0.6319"/>
				<stop  offset="0.8029" style="stop-color:#003A83;stop-opacity:0.8029"/>
				<stop  offset="1" style="stop-color:#003C86"/>
			</linearGradient>
			<path class="st17" d="M306.4,490.7c-32.5,22.6-65,45.5-98.4,66.8c-5.6,3.5-11.3,6.7-17,9.9c-1.1,0.6-0.1-0.1-0.4,0.7
				c0.2-0.4,0.6-0.9,0.9-1.2c1.8-1.4,3.3-3.2,5-4.7c18.5-16.2,38.4-30.9,58-45.7c34.2-25.9,68.7-51.4,103.3-76.6
				c49.2-35.9,98.7-71.3,148.6-106.2c0.7-0.5,0-1.5-0.6-1.1c-84.6,59.3-168.6,119.7-251,182.1c-20.1,15.2-40.6,30.2-59.5,46.9
				c-0.9,0.8-7.3,5.5-5.7,7.1c1.5,1.7,9.6-4.2,10.7-4.9c36.7-22.1,71.7-47.5,106.8-72C307.6,491.3,307,490.2,306.4,490.7
				L306.4,490.7z"/>
		</g>
	</g>
	<g>
		<g>
			<linearGradient id="SVGID_11_" gradientUnits="userSpaceOnUse" x1="429.7934" y1="391.6351" x2="346.7456" y2="537.6309">
				<stop  offset="0" style="stop-color:#000000;stop-opacity:0"/>
				<stop  offset="1.811987e-02" style="stop-color:#000205;stop-opacity:1.811987e-02"/>
				<stop  offset="0.1641" style="stop-color:#00142D;stop-opacity:0.1641"/>
				<stop  offset="0.3152" style="stop-color:#00224D;stop-opacity:0.3152"/>
				<stop  offset="0.4706" style="stop-color:#002E66;stop-opacity:0.4706"/>
				<stop  offset="0.6319" style="stop-color:#003678;stop-opacity:0.6319"/>
				<stop  offset="0.8029" style="stop-color:#003A83;stop-opacity:0.8029"/>
				<stop  offset="1" style="stop-color:#003C86"/>
			</linearGradient>
			<path class="st18" d="M300.4,511.4c20-19.3,41.8-36.8,65.1-52.1c22.6-14.8,47-28.1,73.1-35.6c12.3-3.5,25.1-5.6,37.9-4.8
				c0.8,0.1,0.8-1.2,0-1.3c-23.6-1.5-47.1,6.4-68.3,16.2c-25.9,11.9-50,27.7-72.4,45.2c-12.6,9.8-24.7,20.3-36.2,31.4
				C299,511.1,299.9,512,300.4,511.4L300.4,511.4z"/>
		</g>
	</g>
</g>
</svg>
