<?xml version="1.0" encoding="utf-8"?>
<!-- Generator: Adobe Illustrator 22.0.0, SVG Export Plug-In . SVG Version: 6.00 Build 0)  -->
<svg version="1.1" xmlns="http://www.w3.org/2000/svg" xmlns:xlink="http://www.w3.org/1999/xlink" x="0px" y="0px"
	 viewBox="0 0 1200 800" style="enable-background:new 0 0 1200 800;" xml:space="preserve">
<style type="text/css">
	.st0{fill:#FFFFFF;}
	.st1{opacity:0.41;clip-path:url(#SVGID_2_);}
	.st2{opacity:0.4;fill:#CDCDCD;}
	.st3{opacity:0.4;clip-path:url(#SVGID_2_);}
	.st4{opacity:0.4;}
	.st5{clip-path:url(#SVGID_2_);}
	.st6{opacity:0.5;fill:#7F868C;}
	.st7{opacity:0.62;clip-path:url(#SVGID_2_);}
	.st8{opacity:0.5;clip-path:url(#SVGID_2_);}
	.st9{opacity:0.4;fill:#7F868C;}
	.st10{opacity:0.46;clip-path:url(#SVGID_2_);}
	.st11{opacity:0.4;fill:#F2F2F2;}
	.st12{opacity:0.92;clip-path:url(#SVGID_2_);}
	.st13{opacity:0.4;fill:#FFFFFF;}
	.st14{filter:url(#Adobe_OpacityMaskFilter);}
	.st15{filter:url(#Adobe_OpacityMaskFilter_1_);}
	.st16{mask:url(#XMLID_2_);fill:url(#XMLID_3_);}
	.st17{fill:url(#XMLID_4_);}
	.st18{filter:url(#Adobe_OpacityMaskFilter_2_);}
	.st19{filter:url(#Adobe_OpacityMaskFilter_3_);}
	.st20{mask:url(#XMLID_5_);fill:url(#XMLID_6_);}
	.st21{fill:url(#XMLID_7_);}
	.st22{filter:url(#Adobe_OpacityMaskFilter_4_);}
	.st23{filter:url(#Adobe_OpacityMaskFilter_5_);}
	.st24{mask:url(#XMLID_8_);fill:url(#XMLID_9_);}
	.st25{fill:url(#XMLID_10_);}
	.st26{filter:url(#Adobe_OpacityMaskFilter_6_);}
	.st27{filter:url(#Adobe_OpacityMaskFilter_7_);}
	.st28{mask:url(#XMLID_11_);fill:url(#XMLID_12_);}
	.st29{fill:url(#XMLID_13_);}
	.st30{filter:url(#Adobe_OpacityMaskFilter_8_);}
	.st31{filter:url(#Adobe_OpacityMaskFilter_9_);}
	.st32{mask:url(#XMLID_16_);fill:url(#XMLID_17_);}
	.st33{fill:url(#XMLID_18_);}
	.st34{filter:url(#Adobe_OpacityMaskFilter_10_);}
	.st35{filter:url(#Adobe_OpacityMaskFilter_11_);}
	.st36{mask:url(#XMLID_19_);fill:url(#XMLID_20_);}
	.st37{fill:url(#XMLID_21_);}
	.st38{filter:url(#Adobe_OpacityMaskFilter_12_);}
	.st39{filter:url(#Adobe_OpacityMaskFilter_13_);}
	.st40{mask:url(#XMLID_22_);fill:url(#XMLID_23_);}
	.st41{fill:url(#XMLID_24_);}
	.st42{filter:url(#Adobe_OpacityMaskFilter_14_);}
	.st43{filter:url(#Adobe_OpacityMaskFilter_15_);}
	.st44{mask:url(#XMLID_36_);fill:url(#XMLID_51_);}
	.st45{fill:url(#XMLID_53_);}
	.st46{filter:url(#Adobe_OpacityMaskFilter_16_);}
	.st47{filter:url(#Adobe_OpacityMaskFilter_17_);}
	.st48{mask:url(#XMLID_55_);fill:url(#XMLID_57_);}
	.st49{opacity:0.31;fill:url(#XMLID_59_);}
	.st50{filter:url(#Adobe_OpacityMaskFilter_18_);}
	.st51{filter:url(#Adobe_OpacityMaskFilter_19_);}
	.st52{mask:url(#XMLID_61_);fill:url(#XMLID_63_);}
	.st53{opacity:0.31;fill:url(#XMLID_65_);}
	.st54{filter:url(#Adobe_OpacityMaskFilter_20_);}
	.st55{filter:url(#Adobe_OpacityMaskFilter_21_);}
	.st56{mask:url(#XMLID_66_);fill:url(#XMLID_67_);}
	.st57{opacity:0.31;fill:url(#XMLID_68_);}
	.st58{filter:url(#Adobe_OpacityMaskFilter_22_);}
	.st59{filter:url(#Adobe_OpacityMaskFilter_23_);}
	.st60{mask:url(#XMLID_69_);fill:url(#XMLID_70_);}
	.st61{opacity:0.31;fill:url(#XMLID_71_);}
	.st62{filter:url(#Adobe_OpacityMaskFilter_24_);}
	.st63{filter:url(#Adobe_OpacityMaskFilter_25_);}
	.st64{mask:url(#XMLID_72_);fill:url(#XMLID_73_);}
	.st65{opacity:0.31;fill:url(#XMLID_74_);}
</style>
<g id="Background">
	<rect id="XMLID_1545_" class="st0" width="1200" height="800"/>
</g>
<g id="Object">
	<g>
		<defs>
			<rect id="SVGID_1_" width="1200" height="800"/>
		</defs>
		<clipPath id="SVGID_2_">
			<use xlink:href="#SVGID_1_"  style="overflow:visible;"/>
		</clipPath>
		<g id="XMLID_3047_" class="st1">
			<g id="XMLID_102_">
				
					<rect id="XMLID_106_" x="845" y="103.4" transform="matrix(0.6499 0.7601 -0.7601 0.6499 464.7612 -639.374)" class="st2" width="162.7" height="162.7"/>
				
					<rect id="XMLID_105_" x="845.3" y="92.8" transform="matrix(0.6499 0.7601 -0.7601 0.6499 456.8196 -643.3245)" class="st2" width="162.7" height="162.7"/>
				
					<rect id="XMLID_104_" x="845.8" y="78.1" transform="matrix(0.6499 0.7601 -0.7601 0.6499 445.8234 -648.7944)" class="st2" width="162.7" height="162.7"/>
				
					<rect id="XMLID_103_" x="846.1" y="68.1" transform="matrix(0.6499 0.7601 -0.7601 0.6499 438.3251 -652.5245)" class="st2" width="162.7" height="162.7"/>
			</g>
		</g>
		<g id="XMLID_3024_" class="st3">
			<g id="XMLID_160_">
				<g id="XMLID_167_" class="st4">
					
						<rect id="XMLID_168_" x="825" y="136.2" transform="matrix(0.7589 -0.6512 0.6512 0.7589 88.4239 617.4293)" class="st0" width="106.2" height="106.2"/>
				</g>
				<g id="XMLID_165_" class="st4">
					
						<rect id="XMLID_166_" x="825.2" y="129.3" transform="matrix(0.7589 -0.6512 0.6512 0.7589 92.9749 615.8895)" class="st0" width="106.2" height="106.2"/>
				</g>
				<g id="XMLID_163_" class="st4">
					
						<rect id="XMLID_164_" x="825.5" y="119.7" transform="matrix(0.7589 -0.6512 0.6512 0.7589 99.2757 613.7562)" class="st0" width="106.2" height="106.2"/>
				</g>
				<g id="XMLID_161_" class="st4">
					
						<rect id="XMLID_162_" x="825.7" y="113.2" transform="matrix(0.7589 -0.6512 0.6512 0.7589 103.5724 612.3018)" class="st0" width="106.2" height="106.2"/>
				</g>
			</g>
		</g>
		<g id="XMLID_3018_" class="st5">
			
				<rect id="XMLID_3023_" x="-279.2" y="-45.3" transform="matrix(0.6723 0.7403 -0.7403 0.6723 227.5806 55.6006)" class="st2" width="660.4" height="660.4"/>
			
				<rect id="XMLID_3022_" x="-234.4" y="-88" transform="matrix(0.6723 0.7403 -0.7403 0.6723 210.6739 8.4552)" class="st2" width="660.4" height="660.4"/>
			
				<rect id="XMLID_3021_" x="-186.4" y="-136" transform="matrix(0.6723 0.7403 -0.7403 0.6723 190.8712 -42.8053)" class="st2" width="660.4" height="660.4"/>
			
				<rect id="XMLID_3020_" x="-133.6" y="-187.6" transform="matrix(0.6723 0.7403 -0.7403 0.6723 169.9866 -98.7949)" class="st2" width="660.4" height="660.4"/>
		</g>
		<g id="XMLID_3013_" class="st5">
			
				<rect id="XMLID_3017_" x="-609.3" y="363.2" transform="matrix(0.9775 0.2109 -0.2109 0.9775 164.8391 54.3741)" class="st6" width="873.6" height="873.6"/>
			
				<rect id="XMLID_3016_" x="-567.7" y="321.6" transform="matrix(0.9775 0.2109 -0.2109 0.9775 157.0017 44.6654)" class="st6" width="873.6" height="873.6"/>
			
				<rect id="XMLID_3015_" x="-542.1" y="296" transform="matrix(0.9775 0.2109 -0.2109 0.9775 152.1788 38.6909)" class="st6" width="873.6" height="873.6"/>
			
				<rect id="XMLID_3014_" x="-516.5" y="273.6" transform="matrix(0.9775 0.2109 -0.2109 0.9775 148.0306 32.7883)" class="st6" width="873.6" height="873.6"/>
		</g>
		<g id="XMLID_3008_" class="st7">
			
				<rect id="XMLID_3012_" x="601.7" y="191.5" transform="matrix(0.6965 0.7175 -0.7175 0.6965 468.842 -433.9882)" class="st6" width="291.6" height="291.6"/>
			
				<rect id="XMLID_3011_" x="621" y="187.7" transform="matrix(0.6965 0.7175 -0.7175 0.6965 471.9178 -448.9718)" class="st6" width="291.6" height="291.6"/>
			
				<rect id="XMLID_3010_" x="632.8" y="185.3" transform="matrix(0.6965 0.7175 -0.7175 0.6965 473.8107 -458.1925)" class="st6" width="291.6" height="291.6"/>
			
				<rect id="XMLID_3009_" x="644.1" y="183.8" transform="matrix(0.6965 0.7175 -0.7175 0.6965 476.1612 -466.7185)" class="st6" width="291.6" height="291.6"/>
		</g>
		<g id="XMLID_3003_" class="st5">
			
				<rect id="XMLID_3007_" x="138.4" y="473.7" transform="matrix(0.6723 0.7403 -0.7403 0.6723 748.6768 -83.4202)" class="st2" width="660.4" height="660.4"/>
			
				<rect id="XMLID_3006_" x="183.2" y="431.1" transform="matrix(0.6723 0.7403 -0.7403 0.6723 731.7701 -130.5657)" class="st2" width="660.4" height="660.4"/>
			
				<rect id="XMLID_3005_" x="231.2" y="383.1" transform="matrix(0.6723 0.7403 -0.7403 0.6723 711.9674 -181.8261)" class="st2" width="660.4" height="660.4"/>
			
				<rect id="XMLID_3004_" x="284" y="331.5" transform="matrix(0.6723 0.7403 -0.7403 0.6723 691.0828 -237.8158)" class="st2" width="660.4" height="660.4"/>
		</g>
		<g id="XMLID_2992_" class="st8">
			<g id="XMLID_90_">
				
					<rect id="XMLID_94_" x="-51.9" y="-269.2" transform="matrix(-0.3905 0.9206 -0.9206 -0.3905 443.0099 -171.4018)" class="st9" width="660.4" height="660.4"/>
				
					<rect id="XMLID_93_" x="5.6" y="-246.4" transform="matrix(-0.3905 0.9206 -0.9206 -0.3905 543.9705 -192.6436)" class="st9" width="660.4" height="660.4"/>
				
					<rect id="XMLID_92_" x="69.3" y="-223" transform="matrix(-0.3905 0.9206 -0.9206 -0.3905 654.1425 -218.638)" class="st9" width="660.4" height="660.4"/>
				
					<rect id="XMLID_91_" x="138.2" y="-196.6" transform="matrix(-0.3905 0.9206 -0.9206 -0.3905 774.2692 -245.5102)" class="st9" width="660.4" height="660.4"/>
			</g>
		</g>
		<g id="XMLID_2980_" class="st10">
			<g id="XMLID_95_">
				
					<rect id="XMLID_99_" x="-608.1" y="427.5" transform="matrix(-0.3905 0.9206 -0.9206 -0.3905 311.1073 1309.3882)" class="st9" width="660.4" height="660.4"/>
				
					<rect id="XMLID_98_" x="-550.6" y="450.3" transform="matrix(-0.3905 0.9206 -0.9206 -0.3905 412.0679 1288.1462)" class="st9" width="660.4" height="660.4"/>
				
					<rect id="XMLID_97_" x="-486.9" y="473.8" transform="matrix(-0.3905 0.9206 -0.9206 -0.3905 522.2399 1262.152)" class="st9" width="660.4" height="660.4"/>
				
					<rect id="XMLID_96_" x="-417.9" y="500.1" transform="matrix(-0.3905 0.9206 -0.9206 -0.3905 642.3668 1235.2798)" class="st9" width="660.4" height="660.4"/>
			</g>
		</g>
		<g id="XMLID_2972_" class="st5">
			
				<rect id="XMLID_2978_" x="255.5" y="-297" transform="matrix(0.6723 0.7403 -0.7403 0.6723 204.7757 -418.1398)" class="st11" width="638.4" height="638.4"/>
			
				<rect id="XMLID_2977_" x="255.5" y="-338.6" transform="matrix(0.6723 0.7403 -0.7403 0.6723 173.9816 -431.7715)" class="st11" width="638.4" height="638.4"/>
			
				<rect id="XMLID_2975_" x="255.5" y="-396.2" transform="matrix(0.6723 0.7403 -0.7403 0.6723 131.3438 -450.6461)" class="st11" width="638.4" height="638.4"/>
			
				<rect id="XMLID_2974_" x="255.5" y="-435.4" transform="matrix(0.6723 0.7403 -0.7403 0.6723 102.2689 -463.5167)" class="st11" width="638.4" height="638.4"/>
		</g>
		<g id="XMLID_2960_" class="st3">
			<g id="XMLID_100_">
				
					<rect id="XMLID_109_" x="-388.2" y="532.7" transform="matrix(0.7499 0.6616 -0.6616 0.7499 507.1838 276.3644)" class="st2" width="552.5" height="552.5"/>
				
					<rect id="XMLID_108_" x="-392.1" y="496.9" transform="matrix(0.7499 0.6616 -0.6616 0.7499 482.5172 270.0419)" class="st2" width="552.5" height="552.5"/>
				
					<rect id="XMLID_107_" x="-397.6" y="447.3" transform="matrix(0.7499 0.6616 -0.6616 0.7499 448.3635 261.2878)" class="st2" width="552.5" height="552.5"/>
				
					<rect id="XMLID_101_" x="-401.4" y="413.6" transform="matrix(0.7499 0.6616 -0.6616 0.7499 425.0742 255.3185)" class="st2" width="552.5" height="552.5"/>
			</g>
		</g>
		<g id="XMLID_2935_" class="st12">
			
				<rect id="XMLID_2955_" x="408.8" y="578.6" transform="matrix(0.6723 0.7403 -0.7403 0.6723 781.6465 -197.7257)" class="st13" width="410.8" height="410.8"/>
			
				<rect id="XMLID_2951_" x="431.3" y="598.5" transform="matrix(0.6723 0.7403 -0.7403 0.6723 803.7813 -207.9016)" class="st13" width="410.8" height="410.8"/>
			
				<rect id="XMLID_2947_" x="453.9" y="618.4" transform="matrix(0.6723 0.7403 -0.7403 0.6723 825.9161 -218.0774)" class="st13" width="410.8" height="410.8"/>
			
				<rect id="XMLID_2944_" x="476.4" y="638.3" transform="matrix(0.6723 0.7403 -0.7403 0.6723 848.0507 -228.2532)" class="st13" width="410.8" height="410.8"/>
			
				<rect id="XMLID_2941_" x="499" y="658.3" transform="matrix(0.6723 0.7403 -0.7403 0.6723 870.1853 -238.4291)" class="st13" width="410.8" height="410.8"/>
			
				<rect id="XMLID_2937_" x="521.6" y="678.2" transform="matrix(0.6723 0.7403 -0.7403 0.6723 892.3206 -248.6048)" class="st13" width="410.8" height="410.8"/>
		</g>
		<g id="XMLID_2905_" class="st12">
			
				<rect id="XMLID_2931_" x="279.6" y="-436.8" transform="matrix(0.6723 0.7403 -0.7403 0.6723 -12.3417 -434.8168)" class="st13" width="410.8" height="410.8"/>
			
				<rect id="XMLID_2925_" x="302.1" y="-416.8" transform="matrix(0.6723 0.7403 -0.7403 0.6723 9.7931 -444.9925)" class="st13" width="410.8" height="410.8"/>
			
				<rect id="XMLID_2921_" x="324.7" y="-396.9" transform="matrix(0.6723 0.7403 -0.7403 0.6723 31.9279 -455.1685)" class="st13" width="410.8" height="410.8"/>
			
				<rect id="XMLID_2916_" x="347.2" y="-377" transform="matrix(0.6723 0.7403 -0.7403 0.6723 54.0627 -465.3443)" class="st13" width="410.8" height="410.8"/>
			
				<rect id="XMLID_2911_" x="369.8" y="-357.1" transform="matrix(0.6723 0.7403 -0.7403 0.6723 76.1975 -475.5201)" class="st13" width="410.8" height="410.8"/>
			
				<rect id="XMLID_2906_" x="392.4" y="-337.2" transform="matrix(0.6723 0.7403 -0.7403 0.6723 98.3323 -485.6959)" class="st13" width="410.8" height="410.8"/>
		</g>
		<g id="XMLID_2634_" class="st5">
			
				<rect id="XMLID_2903_" x="428.3" y="883.9" transform="matrix(0.6723 0.7403 -0.7403 0.6723 1135.6095 -159.0861)" class="st11" width="638.4" height="638.4"/>
			
				<rect id="XMLID_2637_" x="428.3" y="842.3" transform="matrix(0.6723 0.7403 -0.7403 0.6723 1104.8154 -172.7178)" class="st11" width="638.4" height="638.4"/>
			
				<rect id="XMLID_2636_" x="428.3" y="784.7" transform="matrix(0.6723 0.7403 -0.7403 0.6723 1062.1775 -191.5925)" class="st11" width="638.4" height="638.4"/>
			
				<rect id="XMLID_2635_" x="428.3" y="745.5" transform="matrix(0.6723 0.7403 -0.7403 0.6723 1033.1027 -204.4631)" class="st11" width="638.4" height="638.4"/>
		</g>
		<g id="XMLID_14_" class="st5">
			<g id="XMLID_1969_">
				<path id="XMLID_1971_" class="st0" d="M452.3,363.1C452.3,363.1,452.3,363.1,452.3,363.1L0.2,281.2c-0.1,0-0.2-0.1-0.2-0.2
					c0-0.1,0-0.2,0.1-0.3l231.2-161.3c0.1-0.1,0.3-0.1,0.3,0l220.9,243.2c0.1,0.1,0.1,0.2,0,0.3C452.5,363,452.4,363.1,452.3,363.1z
					 M0.9,280.8l450.7,81.6L231.4,120L0.9,280.8z"/>
			</g>
			<g id="XMLID_1952_">
				<path id="XMLID_1955_" class="st0" d="M323.9,770.7C323.8,770.7,323.8,770.7,323.9,770.7L73.2,717.3c-0.1,0-0.2-0.1-0.2-0.2
					c0-0.1,0-0.2,0.1-0.3L191.3,597L0,281.1l0.5-0.3l191.2,315.8l260.5-234c0.1-0.1,0.2-0.1,0.3,0L628,493.9l148.9-143.7
					c0,0,0.1-0.1,0.2-0.1l218.8-17.4c0.1,0,0.2,0.1,0.3,0.2c0,0.1,0,0.2-0.1,0.3L871.4,454.1L912.6,609c0,0.1,0,0.2-0.1,0.2
					c-0.1,0.1-0.1,0.1-0.2,0.1l-187-22.3l74.8,71.7c0.1,0.1,0.1,0.1,0.1,0.2c0,0.1,0,0.1-0.1,0.2L668.3,770.6
					c-0.1,0.1-0.3,0.1-0.4,0L421.3,543.4l-97.2,227.1C324.1,770.6,324,770.7,323.9,770.7z M73.8,716.9l249.9,53.2l97-226.8
					l-229,53.9L73.8,716.9z M421.8,543.1l246.4,227l131.3-111.2l-75.2-72c0,0,0,0,0,0l-96.4-92.3L421.8,543.1z M724.8,586.4
					L912,608.8l-41.1-154.6l-93.8-103.2L724.8,586.4z M452.4,363.2L192.6,596.5l434.8-102.4L452.4,363.2z M628.4,494.2l96,91.9
					l52.2-235L628.4,494.2z M777.6,350.6l93.6,103.1l124-120.3L777.6,350.6z"/>
			</g>
			<g id="XMLID_1943_">
				<path id="XMLID_1945_" class="st0" d="M452.3,363.4c-0.1,0-0.2-0.2-0.2-0.3c-0.1-0.1,0-0.3,0-0.3l115.4-191.9l-336-50.9l0.1-0.5
					l336.3,50.9L724,30.9c0.1-0.1,0.3-0.1,0.4,0l154,151.6c0.1,0.1,0.1,0.2,0.1,0.2c0,0.1-0.1,0.2-0.2,0.2l-198.1,83.8l97,83.4
					c0.1,0.1,0.1,0.2,0.1,0.3c0,0.1-0.1,0.3-0.2,0.3L452.3,363.4C452.3,363.4,452.3,363.4,452.3,363.4z M679.6,267l-225.8,95.5
					l322.5-12.4L679.6,267z M568,171L453,362.3l226.2-95.7L568,171z M568.3,170.6l111.4,95.8l198-83.7L724.2,31.5L568.3,170.6z"/>
			</g>
			<g id="XMLID_1939_">
				<path id="XMLID_1942_" class="st0" d="M878.3,182.9l-0.3-0.4l110.2-86.1l-84.7-96l0.4-0.4l84.9,96.2c0,0.1,0.1,0.1,0.1,0.2
					c0,0.1,0,0.1-0.1,0.2L878.3,182.9z"/>
			</g>
			<g id="XMLID_1936_">
				<path id="XMLID_1938_" class="st0" d="M231.6,119.8l-0.2-0.5L381,43.2l18-43.1l0.5,0.2l-18,43.2c0,0.1-0.1,0.1-0.1,0.1
					L231.6,119.8z"/>
			</g>
			<g id="XMLID_1930_">
				<path id="XMLID_1932_" class="st0" d="M73.3,717.3c-0.1,0-0.2,0-0.2-0.1L0.1,588.6c-0.1-0.1,0-0.2,0-0.3l99.6-142.5
					c0.1-0.1,0.2-0.1,0.3-0.1c0.1,0,0.2,0.2,0.2,0.3l-26.6,271C73.6,717.2,73.5,717.3,73.3,717.3C73.3,717.3,73.3,717.3,73.3,717.3z
					 M0.7,588.5l72.4,127.7L99.6,447L0.7,588.5z"/>
			</g>
			<g id="XMLID_1927_">
				<path id="XMLID_1929_" class="st0" d="M124.7,800l-0.4-0.4l124.4-116.2L73.6,717.3l16.4,82.6l-0.5,0.1L73,717.1
					c0-0.1,0-0.1,0-0.2c0-0.1,0.1-0.1,0.2-0.1l176.2-34.2c0.1,0,0.2,0,0.3,0.1c0.1,0.1,0,0.2-0.1,0.3L124.7,800z"/>
			</g>
			<g id="XMLID_1922_">
				<path id="XMLID_1923_" class="st0" d="M315.7,800l-0.5-0.1l8.4-29.4l-74.2-87.4l-57.9-85.9c0,0,0-0.1,0-0.1l-42.8-289.3
					c0,0,0.2-0.4,0.2-0.4h0.2c0,0,0,0.6,0,0.6c0,0,0,0,0,0c0,0,0,0,0,0l0,0c0,0-0.2,0-0.2-0.1l82.5-188.2L0.2,0.5
					C0.1,0.4,0,0.3,0,0.2C0.1,0,0.2-0.1,0.3,0l380.9,43.2l343-12.3l0,0.5L382,43.7l186,126.7c0.1,0.1,0.1,0.2,0.1,0.3
					c0,0.1-0.1,0.2-0.2,0.2L149.1,308.2l42.8,288.7l57.9,85.9l74.3,87.5c0.1,0.1,0.1,0.2,0.1,0.2L315.7,800z M381.2,43.8
					L149.6,307.5l417.7-137L381.2,43.8z M1.7,0.7l229.9,118.7c0.1,0.1,0.2,0.2,0.1,0.3l-82,186.8L380.6,43.6L1.7,0.7z"/>
			</g>
			<g id="XMLID_1920_">
				<path id="XMLID_1921_" class="st0" d="M249.7,683.1l-0.3-0.4L420.6,543L99.9,446.3l0.2-0.5l321.3,96.9c0.1,0,0.2,0.1,0.2,0.2
					c0,0.1,0,0.2-0.1,0.3L249.7,683.1z"/>
			</g>
			<g id="XMLID_1918_">
				<path id="XMLID_1919_" class="st0" d="M324,770.6l-0.2-0.5L475,713.5L421,543l0.5-0.2l54.2,170.7c0,0.1,0,0.3-0.2,0.3L324,770.6
					z"/>
			</g>
			<g id="XMLID_1915_">
				<path id="XMLID_1916_" class="st0" d="M668.2,770.7C668.1,770.7,668.1,770.7,668.2,770.7l-192.9-56.8l0.2-0.5L667.8,770
					l-40.1-275.8l0.5-0.1l40.2,276.2c0,0.1,0,0.2-0.1,0.2C668.3,770.6,668.2,770.7,668.2,770.7z"/>
			</g>
			<g id="XMLID_1912_">
				<path id="XMLID_1913_" class="st0" d="M595.8,800l-0.2-0.5l72.5-29.3c0.1,0,0.1,0,0.2,0l64.5,29.3l-0.2,0.5l-64.4-29.3
					L595.8,800z"/>
			</g>
			<g id="XMLID_1909_">
				
					<rect id="XMLID_1910_" x="806.9" y="658.5" transform="matrix(0.9947 -0.1026 0.1026 0.9947 -70.5932 86.6853)" class="st0" width="0.5" height="141.8"/>
			</g>
			<defs>
				<filter id="Adobe_OpacityMaskFilter" filterUnits="userSpaceOnUse" x="358.7" y="21" width="45" height="45">
					<feFlood  style="flood-color:white;flood-opacity:1" result="back"/>
					<feBlend  in="SourceGraphic" in2="back" mode="normal"/>
				</filter>
			</defs>
			<mask maskUnits="userSpaceOnUse" x="358.7" y="21" width="45" height="45" id="XMLID_2_">
				<g id="XMLID_308_" class="st14">
					<defs>
						<filter id="Adobe_OpacityMaskFilter_1_" filterUnits="userSpaceOnUse" x="358.7" y="21" width="45" height="45">
							<feFlood  style="flood-color:white;flood-opacity:1" result="back"/>
							<feBlend  in="SourceGraphic" in2="back" mode="normal"/>
						</filter>
					</defs>
					<mask maskUnits="userSpaceOnUse" x="358.7" y="21" width="45" height="45" id="XMLID_2_">
						<g id="XMLID_689_" class="st15">
						</g>
					</mask>
					<radialGradient id="XMLID_3_" cx="381.1829" cy="43.4373" r="22.4786" gradientUnits="userSpaceOnUse">
						<stop  offset="0" style="stop-color:#FFFFFF"/>
						<stop  offset="1" style="stop-color:#000000"/>
					</radialGradient>
					<circle id="XMLID_311_" class="st16" cx="381.2" cy="43.4" r="22.5"/>
				</g>
			</mask>
			<radialGradient id="XMLID_4_" cx="381.1829" cy="43.4373" r="22.4786" gradientUnits="userSpaceOnUse">
				<stop  offset="0" style="stop-color:#FFFFFF"/>
				<stop  offset="1" style="stop-color:#FFFFFF"/>
			</radialGradient>
			<circle id="XMLID_1856_" class="st17" cx="381.2" cy="43.4" r="22.5"/>
			<defs>
				<filter id="Adobe_OpacityMaskFilter_2_" filterUnits="userSpaceOnUse" x="125.1" y="286.6" width="45" height="45">
					<feFlood  style="flood-color:white;flood-opacity:1" result="back"/>
					<feBlend  in="SourceGraphic" in2="back" mode="normal"/>
				</filter>
			</defs>
			<mask maskUnits="userSpaceOnUse" x="125.1" y="286.6" width="45" height="45" id="XMLID_5_">
				<g id="XMLID_297_" class="st18">
					<defs>
						<filter id="Adobe_OpacityMaskFilter_3_" filterUnits="userSpaceOnUse" x="125.1" y="286.6" width="45" height="45">
							<feFlood  style="flood-color:white;flood-opacity:1" result="back"/>
							<feBlend  in="SourceGraphic" in2="back" mode="normal"/>
						</filter>
					</defs>
					<mask maskUnits="userSpaceOnUse" x="125.1" y="286.6" width="45" height="45" id="XMLID_5_">
						<g id="XMLID_684_" class="st19">
						</g>
					</mask>
					<radialGradient id="XMLID_6_" cx="147.5487" cy="309.0763" r="22.4786" gradientUnits="userSpaceOnUse">
						<stop  offset="6.955530e-02" style="stop-color:#FFFFFF"/>
						<stop  offset="1" style="stop-color:#000000"/>
					</radialGradient>
					<circle id="XMLID_300_" class="st20" cx="147.5" cy="309.1" r="22.5"/>
				</g>
			</mask>
			<radialGradient id="XMLID_7_" cx="147.5487" cy="309.0763" r="22.4786" gradientUnits="userSpaceOnUse">
				<stop  offset="6.955530e-02" style="stop-color:#FFFFFF"/>
				<stop  offset="1" style="stop-color:#FFFFFF"/>
			</radialGradient>
			<circle id="XMLID_1855_" class="st21" cx="147.5" cy="309.1" r="22.5"/>
			<defs>
				<filter id="Adobe_OpacityMaskFilter_4_" filterUnits="userSpaceOnUse" x="208.8" y="97.2" width="45" height="45">
					<feFlood  style="flood-color:white;flood-opacity:1" result="back"/>
					<feBlend  in="SourceGraphic" in2="back" mode="normal"/>
				</filter>
			</defs>
			<mask maskUnits="userSpaceOnUse" x="208.8" y="97.2" width="45" height="45" id="XMLID_8_">
				<g id="XMLID_292_" class="st22">
					<defs>
						<filter id="Adobe_OpacityMaskFilter_5_" filterUnits="userSpaceOnUse" x="208.8" y="97.2" width="45" height="45">
							<feFlood  style="flood-color:white;flood-opacity:1" result="back"/>
							<feBlend  in="SourceGraphic" in2="back" mode="normal"/>
						</filter>
					</defs>
					<mask maskUnits="userSpaceOnUse" x="208.8" y="97.2" width="45" height="45" id="XMLID_8_">
						<g id="XMLID_679_" class="st23">
						</g>
					</mask>
					<radialGradient id="XMLID_9_" cx="231.2943" cy="119.7151" r="22.4786" gradientUnits="userSpaceOnUse">
						<stop  offset="6.955530e-02" style="stop-color:#FFFFFF"/>
						<stop  offset="1" style="stop-color:#000000"/>
					</radialGradient>
					<circle id="XMLID_293_" class="st24" cx="231.3" cy="119.7" r="22.5"/>
				</g>
			</mask>
			<radialGradient id="XMLID_10_" cx="231.2943" cy="119.7151" r="22.4786" gradientUnits="userSpaceOnUse">
				<stop  offset="6.955530e-02" style="stop-color:#FFFFFF"/>
				<stop  offset="1" style="stop-color:#FFFFFF"/>
			</radialGradient>
			<circle id="XMLID_1853_" class="st25" cx="231.3" cy="119.7" r="22.5"/>
			<defs>
				<filter id="Adobe_OpacityMaskFilter_6_" filterUnits="userSpaceOnUse" x="398.7" y="520.2" width="45" height="45">
					<feFlood  style="flood-color:white;flood-opacity:1" result="back"/>
					<feBlend  in="SourceGraphic" in2="back" mode="normal"/>
				</filter>
			</defs>
			<mask maskUnits="userSpaceOnUse" x="398.7" y="520.2" width="45" height="45" id="XMLID_11_">
				<g id="XMLID_273_" class="st26">
					<defs>
						<filter id="Adobe_OpacityMaskFilter_7_" filterUnits="userSpaceOnUse" x="398.7" y="520.2" width="45" height="45">
							<feFlood  style="flood-color:white;flood-opacity:1" result="back"/>
							<feBlend  in="SourceGraphic" in2="back" mode="normal"/>
						</filter>
					</defs>
					<mask maskUnits="userSpaceOnUse" x="398.7" y="520.2" width="45" height="45" id="XMLID_11_">
						<g id="XMLID_674_" class="st27">
						</g>
					</mask>
					<radialGradient id="XMLID_12_" cx="421.1888" cy="542.7104" r="22.4785" gradientUnits="userSpaceOnUse">
						<stop  offset="6.955530e-02" style="stop-color:#FFFFFF"/>
						<stop  offset="1" style="stop-color:#000000"/>
					</radialGradient>
					<circle id="XMLID_275_" class="st28" cx="421.2" cy="542.7" r="22.5"/>
				</g>
			</mask>
			<radialGradient id="XMLID_13_" cx="421.1888" cy="542.7104" r="22.4785" gradientUnits="userSpaceOnUse">
				<stop  offset="6.955530e-02" style="stop-color:#FFFFFF"/>
				<stop  offset="1" style="stop-color:#FFFFFF"/>
			</radialGradient>
			<circle id="XMLID_1852_" class="st29" cx="421.2" cy="542.7" r="22.5"/>
			<defs>
				<filter id="Adobe_OpacityMaskFilter_8_" filterUnits="userSpaceOnUse" x="50.9" y="695.7" width="45" height="45">
					<feFlood  style="flood-color:white;flood-opacity:1" result="back"/>
					<feBlend  in="SourceGraphic" in2="back" mode="normal"/>
				</filter>
			</defs>
			<mask maskUnits="userSpaceOnUse" x="50.9" y="695.7" width="45" height="45" id="XMLID_16_">
				<g id="XMLID_263_" class="st30">
					<defs>
						<filter id="Adobe_OpacityMaskFilter_9_" filterUnits="userSpaceOnUse" x="50.9" y="695.7" width="45" height="45">
							<feFlood  style="flood-color:white;flood-opacity:1" result="back"/>
							<feBlend  in="SourceGraphic" in2="back" mode="normal"/>
						</filter>
					</defs>
					<mask maskUnits="userSpaceOnUse" x="50.9" y="695.7" width="45" height="45" id="XMLID_16_">
						<g id="XMLID_669_" class="st31">
						</g>
					</mask>
					<radialGradient id="XMLID_17_" cx="73.4045" cy="718.2029" r="22.4786" gradientUnits="userSpaceOnUse">
						<stop  offset="6.955530e-02" style="stop-color:#FFFFFF"/>
						<stop  offset="1" style="stop-color:#000000"/>
					</radialGradient>
					<circle id="XMLID_269_" class="st32" cx="73.4" cy="718.2" r="22.5"/>
				</g>
			</mask>
			<radialGradient id="XMLID_18_" cx="73.4045" cy="718.2029" r="22.4786" gradientUnits="userSpaceOnUse">
				<stop  offset="6.955530e-02" style="stop-color:#FFFFFF"/>
				<stop  offset="1" style="stop-color:#FFFFFF"/>
			</radialGradient>
			<circle id="XMLID_1851_" class="st33" cx="73.4" cy="718.2" r="22.5"/>
			<defs>
				<filter id="Adobe_OpacityMaskFilter_10_" filterUnits="userSpaceOnUse" x="534" y="133.8" width="69.9" height="69.9">
					<feFlood  style="flood-color:white;flood-opacity:1" result="back"/>
					<feBlend  in="SourceGraphic" in2="back" mode="normal"/>
				</filter>
			</defs>
			<mask maskUnits="userSpaceOnUse" x="534" y="133.8" width="69.9" height="69.9" id="XMLID_19_">
				<g id="XMLID_246_" class="st34">
					<defs>
						<filter id="Adobe_OpacityMaskFilter_11_" filterUnits="userSpaceOnUse" x="534" y="133.8" width="69.9" height="69.9">
							<feFlood  style="flood-color:white;flood-opacity:1" result="back"/>
							<feBlend  in="SourceGraphic" in2="back" mode="normal"/>
						</filter>
					</defs>
					<mask maskUnits="userSpaceOnUse" x="534" y="133.8" width="69.9" height="69.9" id="XMLID_19_">
						<g id="XMLID_664_" class="st35">
						</g>
					</mask>
					<radialGradient id="XMLID_20_" cx="568.9437" cy="168.789" r="34.9568" gradientUnits="userSpaceOnUse">
						<stop  offset="0" style="stop-color:#FFFFFF"/>
						<stop  offset="1" style="stop-color:#000000"/>
					</radialGradient>
					<circle id="XMLID_247_" class="st36" cx="568.9" cy="168.8" r="35"/>
				</g>
			</mask>
			<radialGradient id="XMLID_21_" cx="568.9437" cy="168.789" r="34.9568" gradientUnits="userSpaceOnUse">
				<stop  offset="0" style="stop-color:#FFFFFF"/>
				<stop  offset="1" style="stop-color:#FFFFFF"/>
			</radialGradient>
			<circle id="XMLID_1850_" class="st37" cx="568.9" cy="168.8" r="35"/>
			<defs>
				<filter id="Adobe_OpacityMaskFilter_12_" filterUnits="userSpaceOnUse" x="214.5" y="648" width="69.9" height="69.9">
					<feFlood  style="flood-color:white;flood-opacity:1" result="back"/>
					<feBlend  in="SourceGraphic" in2="back" mode="normal"/>
				</filter>
			</defs>
			<mask maskUnits="userSpaceOnUse" x="214.5" y="648" width="69.9" height="69.9" id="XMLID_22_">
				<g id="XMLID_239_" class="st38">
					<defs>
						<filter id="Adobe_OpacityMaskFilter_13_" filterUnits="userSpaceOnUse" x="214.5" y="648" width="69.9" height="69.9">
							<feFlood  style="flood-color:white;flood-opacity:1" result="back"/>
							<feBlend  in="SourceGraphic" in2="back" mode="normal"/>
						</filter>
					</defs>
					<mask maskUnits="userSpaceOnUse" x="214.5" y="648" width="69.9" height="69.9" id="XMLID_22_">
						<g id="XMLID_660_" class="st39">
						</g>
					</mask>
					<radialGradient id="XMLID_23_" cx="249.4302" cy="682.9977" r="34.9568" gradientUnits="userSpaceOnUse">
						<stop  offset="0" style="stop-color:#FFFFFF"/>
						<stop  offset="1" style="stop-color:#000000"/>
					</radialGradient>
					<circle id="XMLID_240_" class="st40" cx="249.4" cy="683" r="35"/>
				</g>
			</mask>
			<radialGradient id="XMLID_24_" cx="249.4302" cy="682.9977" r="34.9568" gradientUnits="userSpaceOnUse">
				<stop  offset="0" style="stop-color:#FFFFFF"/>
				<stop  offset="1" style="stop-color:#FFFFFF"/>
			</radialGradient>
			<circle id="XMLID_1849_" class="st41" cx="249.4" cy="683" r="35"/>
			<defs>
				<filter id="Adobe_OpacityMaskFilter_14_" filterUnits="userSpaceOnUse" x="742" y="314.1" width="69.9" height="69.9">
					<feFlood  style="flood-color:white;flood-opacity:1" result="back"/>
					<feBlend  in="SourceGraphic" in2="back" mode="normal"/>
				</filter>
			</defs>
			<mask maskUnits="userSpaceOnUse" x="742" y="314.1" width="69.9" height="69.9" id="XMLID_36_">
				<g id="XMLID_233_" class="st42">
					<defs>
						<filter id="Adobe_OpacityMaskFilter_15_" filterUnits="userSpaceOnUse" x="742" y="314.1" width="69.9" height="69.9">
							<feFlood  style="flood-color:white;flood-opacity:1" result="back"/>
							<feBlend  in="SourceGraphic" in2="back" mode="normal"/>
						</filter>
					</defs>
					<mask maskUnits="userSpaceOnUse" x="742" y="314.1" width="69.9" height="69.9" id="XMLID_36_">
						<g id="XMLID_655_" class="st43">
						</g>
					</mask>
					<radialGradient id="XMLID_51_" cx="776.9742" cy="349.0821" r="34.9568" gradientUnits="userSpaceOnUse">
						<stop  offset="0" style="stop-color:#FFFFFF"/>
						<stop  offset="1" style="stop-color:#000000"/>
					</radialGradient>
					<circle id="XMLID_236_" class="st44" cx="777" cy="349.1" r="35"/>
				</g>
			</mask>
			<radialGradient id="XMLID_53_" cx="776.9742" cy="349.0821" r="34.9568" gradientUnits="userSpaceOnUse">
				<stop  offset="0" style="stop-color:#FFFFFF"/>
				<stop  offset="1" style="stop-color:#FFFFFF"/>
			</radialGradient>
			<circle id="XMLID_1848_" class="st45" cx="777" cy="349.1" r="35"/>
			<defs>
				<filter id="Adobe_OpacityMaskFilter_16_" filterUnits="userSpaceOnUse" x="793" y="475.1" width="51.6" height="51.6">
					<feFlood  style="flood-color:white;flood-opacity:1" result="back"/>
					<feBlend  in="SourceGraphic" in2="back" mode="normal"/>
				</filter>
			</defs>
			<mask maskUnits="userSpaceOnUse" x="793" y="475.1" width="51.6" height="51.6" id="XMLID_55_">
				<g id="XMLID_229_" class="st46">
					<defs>
						<filter id="Adobe_OpacityMaskFilter_17_" filterUnits="userSpaceOnUse" x="793" y="475.1" width="51.6" height="51.6">
							<feFlood  style="flood-color:white;flood-opacity:1" result="back"/>
							<feBlend  in="SourceGraphic" in2="back" mode="normal"/>
						</filter>
					</defs>
					<mask maskUnits="userSpaceOnUse" x="793" y="475.1" width="51.6" height="51.6" id="XMLID_55_">
						<g id="XMLID_650_" class="st47">
						</g>
					</mask>
					
						<radialGradient id="XMLID_57_" cx="-1161.5768" cy="6968.6313" r="25.7922" gradientTransform="matrix(0 1 -1 0 7787.4536 1662.4425)" gradientUnits="userSpaceOnUse">
						<stop  offset="0" style="stop-color:#FFFFFF"/>
						<stop  offset="1" style="stop-color:#000000"/>
					</radialGradient>
					<circle id="XMLID_230_" class="st48" cx="818.8" cy="500.9" r="25.8"/>
				</g>
			</mask>
			
				<radialGradient id="XMLID_59_" cx="-1161.5768" cy="6968.6313" r="25.7922" gradientTransform="matrix(0 1 -1 0 7787.4536 1662.4425)" gradientUnits="userSpaceOnUse">
				<stop  offset="0" style="stop-color:#FFFFFF"/>
				<stop  offset="1" style="stop-color:#FFFFFF"/>
			</radialGradient>
			<circle id="XMLID_1847_" class="st49" cx="818.8" cy="500.9" r="25.8"/>
			<defs>
				<filter id="Adobe_OpacityMaskFilter_18_" filterUnits="userSpaceOnUse" x="266.6" y="476.7" width="51.6" height="51.6">
					<feFlood  style="flood-color:white;flood-opacity:1" result="back"/>
					<feBlend  in="SourceGraphic" in2="back" mode="normal"/>
				</filter>
			</defs>
			<mask maskUnits="userSpaceOnUse" x="266.6" y="476.7" width="51.6" height="51.6" id="XMLID_61_">
				<g id="XMLID_221_" class="st50">
					<defs>
						<filter id="Adobe_OpacityMaskFilter_19_" filterUnits="userSpaceOnUse" x="266.6" y="476.7" width="51.6" height="51.6">
							<feFlood  style="flood-color:white;flood-opacity:1" result="back"/>
							<feBlend  in="SourceGraphic" in2="back" mode="normal"/>
						</filter>
					</defs>
					<mask maskUnits="userSpaceOnUse" x="266.6" y="476.7" width="51.6" height="51.6" id="XMLID_61_">
						<g id="XMLID_645_" class="st51">
						</g>
					</mask>
					
						<radialGradient id="XMLID_63_" cx="-1159.9766" cy="7495.1084" r="25.7923" gradientTransform="matrix(0 1 -1 0 7787.4536 1662.4425)" gradientUnits="userSpaceOnUse">
						<stop  offset="0" style="stop-color:#FFFFFF"/>
						<stop  offset="1" style="stop-color:#000000"/>
					</radialGradient>
					<circle id="XMLID_223_" class="st52" cx="292.3" cy="502.5" r="25.8"/>
				</g>
			</mask>
			
				<radialGradient id="XMLID_65_" cx="-1159.9766" cy="7495.1084" r="25.7923" gradientTransform="matrix(0 1 -1 0 7787.4536 1662.4425)" gradientUnits="userSpaceOnUse">
				<stop  offset="0" style="stop-color:#FFFFFF"/>
				<stop  offset="1" style="stop-color:#FFFFFF"/>
			</radialGradient>
			<circle id="XMLID_1846_" class="st53" cx="292.3" cy="502.5" r="25.8"/>
			<defs>
				<filter id="Adobe_OpacityMaskFilter_20_" filterUnits="userSpaceOnUse" x="150.8" y="448.9" width="38.8" height="38.8">
					<feFlood  style="flood-color:white;flood-opacity:1" result="back"/>
					<feBlend  in="SourceGraphic" in2="back" mode="normal"/>
				</filter>
			</defs>
			<mask maskUnits="userSpaceOnUse" x="150.8" y="448.9" width="38.8" height="38.8" id="XMLID_66_">
				<g id="XMLID_213_" class="st54">
					<defs>
						<filter id="Adobe_OpacityMaskFilter_21_" filterUnits="userSpaceOnUse" x="150.8" y="448.9" width="38.8" height="38.8">
							<feFlood  style="flood-color:white;flood-opacity:1" result="back"/>
							<feBlend  in="SourceGraphic" in2="back" mode="normal"/>
						</filter>
					</defs>
					<mask maskUnits="userSpaceOnUse" x="150.8" y="448.9" width="38.8" height="38.8" id="XMLID_66_">
						<g id="XMLID_640_" class="st55">
						</g>
					</mask>
					
						<radialGradient id="XMLID_67_" cx="-1194.1149" cy="7617.2598" r="19.3948" gradientTransform="matrix(0 1 -1 0 7787.4536 1662.4425)" gradientUnits="userSpaceOnUse">
						<stop  offset="0" style="stop-color:#FFFFFF"/>
						<stop  offset="1" style="stop-color:#000000"/>
					</radialGradient>
					<circle id="XMLID_217_" class="st56" cx="170.2" cy="468.3" r="19.4"/>
				</g>
			</mask>
			
				<radialGradient id="XMLID_68_" cx="-1194.1149" cy="7617.2598" r="19.3948" gradientTransform="matrix(0 1 -1 0 7787.4536 1662.4425)" gradientUnits="userSpaceOnUse">
				<stop  offset="0" style="stop-color:#FFFFFF"/>
				<stop  offset="1" style="stop-color:#FFFFFF"/>
			</radialGradient>
			<circle id="XMLID_1845_" class="st57" cx="170.2" cy="468.3" r="19.4"/>
			<defs>
				<filter id="Adobe_OpacityMaskFilter_22_" filterUnits="userSpaceOnUse" x="298" y="744.4" width="51.6" height="51.6">
					<feFlood  style="flood-color:white;flood-opacity:1" result="back"/>
					<feBlend  in="SourceGraphic" in2="back" mode="normal"/>
				</filter>
			</defs>
			<mask maskUnits="userSpaceOnUse" x="298" y="744.4" width="51.6" height="51.6" id="XMLID_69_">
				<g id="XMLID_203_" class="st58">
					<defs>
						<filter id="Adobe_OpacityMaskFilter_23_" filterUnits="userSpaceOnUse" x="298" y="744.4" width="51.6" height="51.6">
							<feFlood  style="flood-color:white;flood-opacity:1" result="back"/>
							<feBlend  in="SourceGraphic" in2="back" mode="normal"/>
						</filter>
					</defs>
					<mask maskUnits="userSpaceOnUse" x="298" y="744.4" width="51.6" height="51.6" id="XMLID_69_">
						<g id="XMLID_635_" class="st59">
						</g>
					</mask>
					
						<radialGradient id="XMLID_70_" cx="-892.204" cy="7463.6372" r="25.7923" gradientTransform="matrix(0 1 -1 0 7787.4536 1662.4425)" gradientUnits="userSpaceOnUse">
						<stop  offset="0" style="stop-color:#FFFFFF"/>
						<stop  offset="1" style="stop-color:#000000"/>
					</radialGradient>
					<circle id="XMLID_208_" class="st60" cx="323.8" cy="770.2" r="25.8"/>
				</g>
			</mask>
			
				<radialGradient id="XMLID_71_" cx="-892.204" cy="7463.6372" r="25.7923" gradientTransform="matrix(0 1 -1 0 7787.4536 1662.4425)" gradientUnits="userSpaceOnUse">
				<stop  offset="0" style="stop-color:#FFFFFF"/>
				<stop  offset="1" style="stop-color:#FFFFFF"/>
			</radialGradient>
			<circle id="XMLID_1844_" class="st61" cx="323.8" cy="770.2" r="25.8"/>
			<defs>
				<filter id="Adobe_OpacityMaskFilter_24_" filterUnits="userSpaceOnUse" x="159.9" y="715.1" width="51.6" height="51.6">
					<feFlood  style="flood-color:white;flood-opacity:1" result="back"/>
					<feBlend  in="SourceGraphic" in2="back" mode="normal"/>
				</filter>
			</defs>
			<mask maskUnits="userSpaceOnUse" x="159.9" y="715.1" width="51.6" height="51.6" id="XMLID_72_">
				<g id="XMLID_15_" class="st62">
					<defs>
						<filter id="Adobe_OpacityMaskFilter_25_" filterUnits="userSpaceOnUse" x="159.9" y="715.1" width="51.6" height="51.6">
							<feFlood  style="flood-color:white;flood-opacity:1" result="back"/>
							<feBlend  in="SourceGraphic" in2="back" mode="normal"/>
						</filter>
					</defs>
					<mask maskUnits="userSpaceOnUse" x="159.9" y="715.1" width="51.6" height="51.6" id="XMLID_72_">
						<g id="XMLID_630_" class="st63">
						</g>
					</mask>
					
						<radialGradient id="XMLID_73_" cx="-921.5416" cy="7601.791" r="25.7922" gradientTransform="matrix(0 1 -1 0 7787.4536 1662.4425)" gradientUnits="userSpaceOnUse">
						<stop  offset="0" style="stop-color:#FFFFFF"/>
						<stop  offset="1" style="stop-color:#000000"/>
					</radialGradient>
					<circle id="XMLID_180_" class="st64" cx="185.7" cy="740.9" r="25.8"/>
				</g>
			</mask>
			
				<radialGradient id="XMLID_74_" cx="-921.5416" cy="7601.791" r="25.7922" gradientTransform="matrix(0 1 -1 0 7787.4536 1662.4425)" gradientUnits="userSpaceOnUse">
				<stop  offset="0" style="stop-color:#FFFFFF"/>
				<stop  offset="1" style="stop-color:#FFFFFF"/>
			</radialGradient>
			<circle id="XMLID_1842_" class="st65" cx="185.7" cy="740.9" r="25.8"/>
			<path id="XMLID_1841_" class="st0" d="M633.5,494.2c0,3.6-2.9,6.4-6.4,6.4c-3.6,0-6.4-2.9-6.4-6.4c0-3.6,2.9-6.4,6.4-6.4
				C630.6,487.7,633.5,490.6,633.5,494.2z"/>
			<path id="XMLID_1839_" class="st0" d="M106.5,446.2c0,3.6-2.9,6.4-6.4,6.4c-3.6,0-6.4-2.9-6.4-6.4c0-3.6,2.9-6.4,6.4-6.4
				C103.6,439.7,106.5,442.6,106.5,446.2z"/>
			<path id="XMLID_1838_" class="st0" d="M198.8,596.6c0,3.6-2.9,6.4-6.4,6.4c-3.6,0-6.4-2.9-6.4-6.4c0-3.6,2.9-6.4,6.4-6.4
				C195.9,590.1,198.8,593,198.8,596.6z"/>
			<path id="XMLID_1836_" class="st0" d="M806.4,659c0,3.6-2.9,6.4-6.4,6.4c-3.6,0-6.4-2.9-6.4-6.4c0-3.6,2.9-6.4,6.4-6.4
				C803.5,652.5,806.4,655.4,806.4,659z"/>
			<path id="XMLID_1835_" class="st0" d="M351.4,241.9c0,3.6-2.9,6.4-6.4,6.4c-3.6,0-6.4-2.9-6.4-6.4c0-3.6,2.9-6.4,6.4-6.4
				C348.5,235.4,351.4,238.3,351.4,241.9z"/>
			<path id="XMLID_1833_" class="st0" d="M688.5,265.9c0,3.6-2.9,6.4-6.4,6.4c-3.6,0-6.4-2.9-6.4-6.4c0-3.6,2.9-6.4,6.4-6.4
				C685.6,259.4,688.5,262.3,688.5,265.9z"/>
			<circle id="XMLID_1832_" class="st0" cx="381.2" cy="43.4" r="13.9"/>
			<circle id="XMLID_1829_" class="st0" cx="231.3" cy="119.7" r="13.9"/>
			<circle id="XMLID_1828_" class="st0" cx="147.5" cy="309.1" r="13.9"/>
			<circle id="XMLID_1826_" class="st0" cx="249.4" cy="683" r="13.9"/>
			<circle id="XMLID_1825_" class="st0" cx="421.7" cy="542.7" r="13.9"/>
			<circle id="XMLID_1823_" class="st0" cx="668.2" cy="770.5" r="13.9"/>
			
				<ellipse id="XMLID_1822_" transform="matrix(0.2086 -0.978 0.978 0.2086 -324.9807 1032.6549)" class="st0" cx="475.6" cy="717.1" rx="13.9" ry="13.9"/>
			
				<ellipse id="XMLID_1820_" transform="matrix(0.3827 -0.9239 0.9239 0.3827 -617.2335 510.5168)" class="st0" cx="73.4" cy="717.1" rx="13.9" ry="13.9"/>
			<circle id="XMLID_1819_" class="st0" cx="878.3" cy="182.7" r="13.9"/>
			
				<ellipse id="XMLID_1817_" transform="matrix(0.1575 -0.9875 0.9875 0.1575 20.2679 749.657)" class="st0" cx="449.5" cy="363" rx="13.9" ry="13.9"/>
			<circle id="XMLID_1816_" class="st0" cx="777" cy="349.1" r="13.9"/>
			<circle id="XMLID_1815_" class="st0" cx="912.5" cy="608.3" r="13.9"/>
			<circle id="XMLID_1814_" class="st0" cx="568.9" cy="168.8" r="13.9"/>
		</g>
	</g>
</g>
</svg>
