<?xml version="1.0" encoding="utf-8"?>
<!-- Generator: Adobe Illustrator 22.0.0, SVG Export Plug-In . SVG Version: 6.00 Build 0)  -->
<svg version="1.1" id="Layer_1" xmlns="http://www.w3.org/2000/svg" xmlns:xlink="http://www.w3.org/1999/xlink" x="0px" y="0px"
	 viewBox="0 0 283.5 85" style="enable-background:new 0 0 283.5 85;" xml:space="preserve">
<style type="text/css">
	.st0{clip-path:url(#SVGID_2_);fill:#FFFFFF;}
	.st1{clip-path:url(#SVGID_4_);}
	.st2{clip-path:url(#SVGID_9_);}
	.st3{clip-path:url(#SVGID_13_);}
	.st4{clip-path:url(#SVGID_17_);}
	.st5{clip-path:url(#SVGID_21_);}
	.st6{clip-path:url(#SVGID_25_);}
	.st7{clip-path:url(#SVGID_29_);}
	.st8{clip-path:url(#SVGID_33_);}
	.st9{clip-path:url(#SVGID_37_);}
	.st10{clip-path:url(#SVGID_41_);}
	.st11{clip-path:url(#SVGID_45_);}
	.st12{clip-path:url(#SVGID_49_);}
	.st13{clip-path:url(#SVGID_53_);}
	.st14{clip-path:url(#SVGID_57_);}
	.st15{clip-path:url(#SVGID_61_);}
	.st16{clip-path:url(#SVGID_65_);}
	.st17{clip-path:url(#SVGID_66_);}
	.st18{clip-path:url(#SVGID_70_);fill:#24366E;}
	.st19{clip-path:url(#SVGID_72_);}
</style>
<image style="overflow:visible;" width="500" height="472" xlink:href="8781AFB3.jpg"  transform="matrix(0.24 0 0 0.24 82 -13.9606)">
</image>
<g>
	<g>
		<defs>
			<rect id="SVGID_1_" x="-707" y="214.2" width="1200" height="799.8"/>
		</defs>
		<clipPath id="SVGID_2_">
			<use xlink:href="#SVGID_1_"  style="overflow:visible;"/>
		</clipPath>
		<polyline class="st0" points="493,1014 -707,1014 -707,214 493,214 493,1014 		"/>
	</g>
	<g>
		<defs>
			<path id="SVGID_3_" d="M177.4,1011.2c-0.3,0-0.5,0-0.8,0h1.6C177.9,1011.2,177.6,1011.2,177.4,1011.2 M458.8,1005.7v-782
				l-213.4,22.9l0,0l213.4-22.9V1005.7L458.8,1005.7"/>
		</defs>
		<clipPath id="SVGID_4_">
			<use xlink:href="#SVGID_3_"  style="overflow:visible;"/>
		</clipPath>
		<g class="st1">
			<defs>
				<rect id="SVGID_5_" x="176.6" y="223.7" width="282.3" height="787.5"/>
			</defs>
			<clipPath id="SVGID_6_">
				<use xlink:href="#SVGID_5_"  style="overflow:visible;"/>
			</clipPath>
			<g transform="matrix(1 0 0 1 0 6.103516e-05)" style="clip-path:url(#SVGID_6_);">
				
					<image style="overflow:visible;" width="596" height="1643" xlink:href="8781AFB1.jpg"  transform="matrix(0.48 0 0 -0.48 175.2839 1011.815)">
				</image>
			</g>
		</g>
	</g>
	<g>
		<defs>
			<rect id="SVGID_7_" x="214.6" y="223.4" width="244.6" height="36.5"/>
		</defs>
		<defs>
			<path id="SVGID_8_" d="M178.2,1011.2h-1.6c-64,0-121.9-1.4-151.9-5.5c-42.3-5.8-53.6-18.1-53.6-29.7c0-13.1,14.5-25,14.5-25
				c300.8-98.2,383.8-239.6,383.8-371.2c0-151.3-109.7-289.4-124-333.3l213.4-22.9v0v782C458.6,1005.7,306.5,1011.2,178.2,1011.2"/>
		</defs>
		<clipPath id="SVGID_9_">
			<use xlink:href="#SVGID_7_"  style="overflow:visible;"/>
		</clipPath>
		<clipPath id="SVGID_10_" class="st2">
			<use xlink:href="#SVGID_8_"  style="overflow:visible;"/>
		</clipPath>
		<g style="clip-path:url(#SVGID_10_);">
			
				<image style="overflow:visible;" width="1019" height="152" xlink:href="8781AFB7.jpg"  transform="matrix(0.2403 0 0 0.2419 214.3361 223.3353)">
			</image>
		</g>
	</g>
	<g>
		<defs>
			<rect id="SVGID_11_" x="249.4" y="259.2" width="209.8" height="72.2"/>
		</defs>
		<defs>
			<path id="SVGID_12_" d="M178.2,1011.2h-1.6c-64,0-121.9-1.4-151.9-5.5c-42.3-5.8-53.6-18.1-53.6-29.7c0-13.1,14.5-25,14.5-25
				c300.8-98.2,383.8-239.6,383.8-371.2c0-151.3-109.7-289.4-124-333.3l213.4-22.9v0v782C458.6,1005.7,306.5,1011.2,178.2,1011.2"/>
		</defs>
		<clipPath id="SVGID_13_">
			<use xlink:href="#SVGID_11_"  style="overflow:visible;"/>
		</clipPath>
		<clipPath id="SVGID_14_" class="st3">
			<use xlink:href="#SVGID_12_"  style="overflow:visible;"/>
		</clipPath>
		<g transform="matrix(1 0 0 1 0 0)" style="clip-path:url(#SVGID_14_);">
			
				<image style="overflow:visible;" width="874" height="301" xlink:href="8781AFB0.jpg"  transform="matrix(0.2401 0 0 0.241 249.376 259.0953)">
			</image>
		</g>
	</g>
	<g>
		<defs>
			<rect id="SVGID_15_" x="284.2" y="330.7" width="175" height="72.5"/>
		</defs>
		<defs>
			<path id="SVGID_16_" d="M178.2,1011.2h-1.6c-64,0-121.9-1.4-151.9-5.5c-42.3-5.8-53.6-18.1-53.6-29.7c0-13.1,14.5-25,14.5-25
				c300.8-98.2,383.8-239.6,383.8-371.2c0-151.3-109.7-289.4-124-333.3l213.4-22.9v0v782C458.6,1005.7,306.5,1011.2,178.2,1011.2"/>
		</defs>
		<clipPath id="SVGID_17_">
			<use xlink:href="#SVGID_15_"  style="overflow:visible;"/>
		</clipPath>
		<clipPath id="SVGID_18_" class="st4">
			<use xlink:href="#SVGID_16_"  style="overflow:visible;"/>
		</clipPath>
		<g style="clip-path:url(#SVGID_18_);">
			
				<image style="overflow:visible;" width="729" height="302" xlink:href="8781AFBE.jpg"  transform="matrix(0.2401 0 0 0.241 284.176 330.6154)">
			</image>
		</g>
	</g>
	<g>
		<defs>
			<rect id="SVGID_19_" x="319.2" y="402.4" width="139.9" height="108"/>
		</defs>
		<defs>
			<path id="SVGID_20_" d="M178.2,1011.2h-1.6c-64,0-121.9-1.4-151.9-5.5c-42.3-5.8-53.6-18.1-53.6-29.7c0-13.1,14.5-25,14.5-25
				c300.8-98.2,383.8-239.6,383.8-371.2c0-151.3-109.7-289.4-124-333.3l213.4-22.9v0v782C458.6,1005.7,306.5,1011.2,178.2,1011.2"/>
		</defs>
		<clipPath id="SVGID_21_">
			<use xlink:href="#SVGID_19_"  style="overflow:visible;"/>
		</clipPath>
		<clipPath id="SVGID_22_" class="st5">
			<use xlink:href="#SVGID_20_"  style="overflow:visible;"/>
		</clipPath>
		<g style="clip-path:url(#SVGID_22_);">
			
				<image style="overflow:visible;" width="583" height="450" xlink:href="8781AFBF.jpg"  transform="matrix(0.2401 0 0 0.2406 319.2161 402.3754)">
			</image>
		</g>
	</g>
	<g>
		<defs>
			<rect id="SVGID_23_" x="354" y="509.7" width="105.1" height="430.3"/>
		</defs>
		<defs>
			<path id="SVGID_24_" d="M178.2,1011.2h-1.6c-64,0-121.9-1.4-151.9-5.5c-42.3-5.8-53.6-18.1-53.6-29.7c0-13.1,14.5-25,14.5-25
				c300.8-98.2,383.8-239.6,383.8-371.2c0-151.3-109.7-289.4-124-333.3l213.4-22.9v0v782C458.6,1005.7,306.5,1011.2,178.2,1011.2"/>
		</defs>
		<clipPath id="SVGID_25_">
			<use xlink:href="#SVGID_23_"  style="overflow:visible;"/>
		</clipPath>
		<clipPath id="SVGID_26_" class="st6">
			<use xlink:href="#SVGID_24_"  style="overflow:visible;"/>
		</clipPath>
		<g transform="matrix(1 0 0 1 0 0)" style="clip-path:url(#SVGID_26_);">
			
				<image style="overflow:visible;" width="438" height="1793" xlink:href="8781AFB2.jpg"  transform="matrix(0.2401 0 0 0.2402 354.016 509.6554)">
			</image>
		</g>
	</g>
	<g>
		<defs>
			<rect id="SVGID_27_" x="319.2" y="653" width="35.5" height="358.6"/>
		</defs>
		<defs>
			<path id="SVGID_28_" d="M178.2,1011.2h-1.6c-64,0-121.9-1.4-151.9-5.5c-42.3-5.8-53.6-18.1-53.6-29.7c0-13.1,14.5-25,14.5-25
				c300.8-98.2,383.8-239.6,383.8-371.2c0-151.3-109.7-289.4-124-333.3l213.4-22.9v0v782C458.6,1005.7,306.5,1011.2,178.2,1011.2"/>
		</defs>
		<clipPath id="SVGID_29_">
			<use xlink:href="#SVGID_27_"  style="overflow:visible;"/>
		</clipPath>
		<clipPath id="SVGID_30_" class="st7">
			<use xlink:href="#SVGID_28_"  style="overflow:visible;"/>
		</clipPath>
		<g transform="matrix(1 0 0 1 0 0)" style="clip-path:url(#SVGID_30_);">
			
				<image style="overflow:visible;" width="148" height="1494" xlink:href="8781AFB5.jpg"  transform="matrix(0.2403 0 0 0.2402 319.2161 652.9354)">
			</image>
		</g>
	</g>
	<g>
		<defs>
			<rect id="SVGID_31_" x="284.2" y="724.5" width="35.8" height="287"/>
		</defs>
		<defs>
			<path id="SVGID_32_" d="M178.2,1011.2h-1.6c-64,0-121.9-1.4-151.9-5.5c-42.3-5.8-53.6-18.1-53.6-29.7c0-13.1,14.5-25,14.5-25
				c300.8-98.2,383.8-239.6,383.8-371.2c0-151.3-109.7-289.4-124-333.3l213.4-22.9v0v782C458.6,1005.7,306.5,1011.2,178.2,1011.2"/>
		</defs>
		<clipPath id="SVGID_33_">
			<use xlink:href="#SVGID_31_"  style="overflow:visible;"/>
		</clipPath>
		<clipPath id="SVGID_34_" class="st8">
			<use xlink:href="#SVGID_32_"  style="overflow:visible;"/>
		</clipPath>
		<g transform="matrix(1 0 0 1 0 0)" style="clip-path:url(#SVGID_34_);">
			
				<image style="overflow:visible;" width="149" height="1196" xlink:href="8781AFB6.jpg"  transform="matrix(0.2403 0 0 0.2402 284.176 724.4553)">
			</image>
		</g>
	</g>
	<g>
		<defs>
			<rect id="SVGID_35_" x="249.4" y="760.3" width="35.5" height="251.3"/>
		</defs>
		<defs>
			<path id="SVGID_36_" d="M178.2,1011.2h-1.6c-64,0-121.9-1.4-151.9-5.5c-42.3-5.8-53.6-18.1-53.6-29.7c0-13.1,14.5-25,14.5-25
				c300.8-98.2,383.8-239.6,383.8-371.2c0-151.3-109.7-289.4-124-333.3l213.4-22.9v0v782C458.6,1005.7,306.5,1011.2,178.2,1011.2"/>
		</defs>
		<clipPath id="SVGID_37_">
			<use xlink:href="#SVGID_35_"  style="overflow:visible;"/>
		</clipPath>
		<clipPath id="SVGID_38_" class="st9">
			<use xlink:href="#SVGID_36_"  style="overflow:visible;"/>
		</clipPath>
		<g style="clip-path:url(#SVGID_38_);">
			
				<image style="overflow:visible;" width="148" height="1047" xlink:href="95BE64E0.jpg"  transform="matrix(0.2403 0 0 0.2403 249.376 760.2153)">
			</image>
		</g>
	</g>
	<g>
		<defs>
			<rect id="SVGID_39_" x="214.6" y="796" width="35.5" height="215.5"/>
		</defs>
		<defs>
			<path id="SVGID_40_" d="M178.2,1011.2h-1.6c-64,0-121.9-1.4-151.9-5.5c-42.3-5.8-53.6-18.1-53.6-29.7c0-13.1,14.5-25,14.5-25
				c300.8-98.2,383.8-239.6,383.8-371.2c0-151.3-109.7-289.4-124-333.3l213.4-22.9v0v782C458.6,1005.7,306.5,1011.2,178.2,1011.2"/>
		</defs>
		<clipPath id="SVGID_41_">
			<use xlink:href="#SVGID_39_"  style="overflow:visible;"/>
		</clipPath>
		<clipPath id="SVGID_42_" class="st10">
			<use xlink:href="#SVGID_40_"  style="overflow:visible;"/>
		</clipPath>
		<g style="clip-path:url(#SVGID_42_);">
			
				<image style="overflow:visible;" width="148" height="898" xlink:href="95BE64E7.jpg"  transform="matrix(0.2419 0 0 0.2403 214.336 795.9754)">
			</image>
		</g>
	</g>
	<g>
		<defs>
			<rect id="SVGID_43_" x="145" y="831.8" width="70.3" height="179.8"/>
		</defs>
		<defs>
			<path id="SVGID_44_" d="M178.2,1011.2h-1.6c-64,0-121.9-1.4-151.9-5.5c-42.3-5.8-53.6-18.1-53.6-29.7c0-13.1,14.5-25,14.5-25
				c300.8-98.2,383.8-239.6,383.8-371.2c0-151.3-109.7-289.4-124-333.3l213.4-22.9v0v782C458.6,1005.7,306.5,1011.2,178.2,1011.2"/>
		</defs>
		<clipPath id="SVGID_45_">
			<use xlink:href="#SVGID_43_"  style="overflow:visible;"/>
		</clipPath>
		<clipPath id="SVGID_46_" class="st11">
			<use xlink:href="#SVGID_44_"  style="overflow:visible;"/>
		</clipPath>
		<g transform="matrix(1 0 0 1 0 0)" style="clip-path:url(#SVGID_46_);">
			
				<image style="overflow:visible;" width="293" height="749" xlink:href="95BE64E1.jpg"  transform="matrix(0.241 0 0 0.2404 144.736 831.7354)">
			</image>
		</g>
	</g>
	<g>
		<defs>
			<rect id="SVGID_47_" x="75.2" y="867.6" width="70.6" height="144"/>
		</defs>
		<defs>
			<path id="SVGID_48_" d="M178.2,1011.2h-1.6c-64,0-121.9-1.4-151.9-5.5c-42.3-5.8-53.6-18.1-53.6-29.7c0-13.1,14.5-25,14.5-25
				c300.8-98.2,383.8-239.6,383.8-371.2c0-151.3-109.7-289.4-124-333.3l213.4-22.9v0v782C458.6,1005.7,306.5,1011.2,178.2,1011.2"/>
		</defs>
		<clipPath id="SVGID_49_">
			<use xlink:href="#SVGID_47_"  style="overflow:visible;"/>
		</clipPath>
		<clipPath id="SVGID_50_" class="st12">
			<use xlink:href="#SVGID_48_"  style="overflow:visible;"/>
		</clipPath>
		<g transform="matrix(1 0 0 1 0 0)" style="clip-path:url(#SVGID_50_);">
			
				<image style="overflow:visible;" width="294" height="600" xlink:href="95BE64E3.jpg"  transform="matrix(0.241 0 0 0.2405 74.896 867.4954)">
			</image>
		</g>
	</g>
	<g>
		<defs>
			<rect id="SVGID_51_" x="5.6" y="903.6" width="70.3" height="108"/>
		</defs>
		<defs>
			<path id="SVGID_52_" d="M178.2,1011.2h-1.6c-64,0-121.9-1.4-151.9-5.5c-42.3-5.8-53.6-18.1-53.6-29.7c0-13.1,14.5-25,14.5-25
				c300.8-98.2,383.8-239.6,383.8-371.2c0-151.3-109.7-289.4-124-333.3l213.4-22.9v0v782C458.6,1005.7,306.5,1011.2,178.2,1011.2"/>
		</defs>
		<clipPath id="SVGID_53_">
			<use xlink:href="#SVGID_51_"  style="overflow:visible;"/>
		</clipPath>
		<clipPath id="SVGID_54_" class="st13">
			<use xlink:href="#SVGID_52_"  style="overflow:visible;"/>
		</clipPath>
		<g style="clip-path:url(#SVGID_54_);">
			
				<image style="overflow:visible;" width="293" height="450" xlink:href="95BE64FE.jpg"  transform="matrix(0.241 0 0 0.2406 5.296 903.4953)">
			</image>
		</g>
	</g>
	<g>
		<defs>
			<rect id="SVGID_55_" x="-29.2" y="939.3" width="35.5" height="72.2"/>
		</defs>
		<defs>
			<path id="SVGID_56_" d="M178.2,1011.2h-1.6c-64,0-121.9-1.4-151.9-5.5c-42.3-5.8-53.6-18.1-53.6-29.7c0-13.1,14.5-25,14.5-25
				c300.8-98.2,383.8-239.6,383.8-371.2c0-151.3-109.7-289.4-124-333.3l213.4-22.9v0v782C458.6,1005.7,306.5,1011.2,178.2,1011.2"/>
		</defs>
		<clipPath id="SVGID_57_">
			<use xlink:href="#SVGID_55_"  style="overflow:visible;"/>
		</clipPath>
		<clipPath id="SVGID_58_" class="st14">
			<use xlink:href="#SVGID_56_"  style="overflow:visible;"/>
		</clipPath>
		<g style="clip-path:url(#SVGID_58_);">
			
				<image style="overflow:visible;" width="148" height="301" xlink:href="95BE64FF.jpg"  transform="matrix(0.2403 0 0 0.241 -29.264 939.2554)">
			</image>
		</g>
	</g>
	<g>
		<defs>
			<rect id="SVGID_59_" x="354" y="939.3" width="105.1" height="72.2"/>
		</defs>
		<defs>
			<path id="SVGID_60_" d="M178.2,1011.2h-1.6c-64,0-121.9-1.4-151.9-5.5c-42.3-5.8-53.6-18.1-53.6-29.7c0-13.1,14.5-25,14.5-25
				c300.8-98.2,383.8-239.6,383.8-371.2c0-151.3-109.7-289.4-124-333.3l213.4-22.9v0v782C458.6,1005.7,306.5,1011.2,178.2,1011.2"/>
		</defs>
		<clipPath id="SVGID_61_">
			<use xlink:href="#SVGID_59_"  style="overflow:visible;"/>
		</clipPath>
		<clipPath id="SVGID_62_" class="st15">
			<use xlink:href="#SVGID_60_"  style="overflow:visible;"/>
		</clipPath>
		<g style="clip-path:url(#SVGID_62_);">
			
				<image style="overflow:visible;" width="438" height="301" xlink:href="95BE64E2.jpg"  transform="matrix(0.2401 0 0 0.241 354.016 939.2554)">
			</image>
		</g>
	</g>
	<g>
		<defs>
			<path id="SVGID_63_" d="M240.2,203.9c0,35.9-1.8,62.9,104.7,188.6C451.5,518.1,462.3,622,382.9,725.9
				C303.4,829.8-64.9,1001.7-243.6,1003H493V203.9H240.2L240.2,203.9z"/>
		</defs>
		<defs>
			<rect id="SVGID_64_" x="-707" y="214.2" width="1200" height="799.8"/>
		</defs>
		<clipPath id="SVGID_65_">
			<use xlink:href="#SVGID_63_"  style="overflow:visible;"/>
		</clipPath>
		<clipPath id="SVGID_66_" class="st16">
			<use xlink:href="#SVGID_64_"  style="overflow:visible;"/>
		</clipPath>
		<g class="st17">
			<defs>
				<rect id="SVGID_67_" x="-243.8" y="214.2" width="736.8" height="788.9"/>
			</defs>
			<clipPath id="SVGID_68_">
				<use xlink:href="#SVGID_67_"  style="overflow:visible;"/>
			</clipPath>
			<g style="clip-path:url(#SVGID_68_);">
				
					<image style="overflow:visible;" width="1540" height="1647" xlink:href="95BE64E5.jpg"  transform="matrix(0.48 0 0 -0.48 -244.808 1003.8922)">
				</image>
			</g>
		</g>
	</g>
	<g>
		<defs>
			<rect id="SVGID_69_" x="-707" y="214.2" width="1200" height="799.8"/>
		</defs>
		<clipPath id="SVGID_70_">
			<use xlink:href="#SVGID_69_"  style="overflow:visible;"/>
		</clipPath>
		<path class="st18" d="M-659.5,1025.2c47.2-61.8,160-128.3,531.2-119.6c371.2,8.7,629.6-161.8,629.6-161.8v281.4H-659.5
			L-659.5,1025.2z"/>
	</g>
	<g>
		<defs>
			<path id="SVGID_71_" d="M-639.9,1056.4c47.2-61.8,140.4-128.3,511.6-119.6c371.2,8.7,629.6-148.4,629.6-148.4v267.9H-659.5
				H-639.9L-639.9,1056.4z"/>
		</defs>
		<clipPath id="SVGID_72_">
			<use xlink:href="#SVGID_71_"  style="overflow:visible;"/>
		</clipPath>
		<g class="st19">
			<defs>
				<rect id="SVGID_73_" x="-597.6" y="793.1" width="1090.6" height="221"/>
			</defs>
			<clipPath id="SVGID_74_">
				<use xlink:href="#SVGID_73_"  style="overflow:visible;"/>
			</clipPath>
			<g style="clip-path:url(#SVGID_74_);">
				
					<image style="overflow:visible;" width="2276" height="463" xlink:href="95BE64E6.jpg"  transform="matrix(0.48 0 0 -0.48 -598.3856 1014.7114)">
				</image>
			</g>
		</g>
	</g>
</g>
</svg>
