<?xml version="1.0" encoding="utf-8"?>
<!-- Generator: Adobe Illustrator 22.0.0, SVG Export Plug-In . SVG Version: 6.00 Build 0)  -->
<svg version="1.1" xmlns="http://www.w3.org/2000/svg" xmlns:xlink="http://www.w3.org/1999/xlink" x="0px" y="0px"
	 viewBox="0 0 3710 3710" style="enable-background:new 0 0 3710 3710;" xml:space="preserve">
<style type="text/css">
	.st0{fill:#FFFFFF;}
	.st1{fill:#F4F7FA;}
	.st2{fill:#D8DEE8;}
	.st3{clip-path:url(#SVGID_3_);}
	.st4{clip-path:url(#SVGID_6_);}
	.st5{fill:url(#SVGID_7_);}
	.st6{fill:url(#SVGID_8_);}
	.st7{fill:url(#SVGID_9_);}
	.st8{fill:url(#SVGID_10_);}
	.st9{fill:url(#SVGID_11_);}
	.st10{opacity:0.48;fill:#FFFFFF;}
	.st11{fill:url(#SVGID_12_);}
	.st12{opacity:0.3;fill:url(#SVGID_13_);}
	.st13{opacity:0.75;}
	.st14{fill:url(#SVGID_14_);}
	.st15{opacity:0.74;fill:#FFFFFF;}
	.st16{fill:url(#SVGID_15_);}
	.st17{opacity:0.5;}
	.st18{fill:url(#SVGID_16_);}
	.st19{fill:url(#SVGID_17_);}
	.st20{fill:url(#SVGID_18_);}
	.st21{fill:#26264F;}
	.st22{fill:url(#SVGID_19_);}
	.st23{fill:url(#SVGID_20_);}
	.st24{fill:url(#SVGID_21_);}
	.st25{opacity:0.25;fill:url(#SVGID_22_);}
	.st26{fill:#444B8C;}
	.st27{fill:url(#SVGID_23_);}
	.st28{fill:url(#SVGID_24_);}
	.st29{fill:url(#SVGID_25_);}
	.st30{fill:url(#SVGID_26_);}
	.st31{opacity:0.25;fill:url(#SVGID_27_);}
	.st32{fill:url(#SVGID_28_);}
	.st33{fill:url(#SVGID_29_);}
	.st34{opacity:0.3;}
	.st35{fill:url(#SVGID_30_);}
	.st36{fill:url(#SVGID_31_);}
	.st37{fill:url(#SVGID_32_);}
	.st38{fill:url(#SVGID_33_);}
	.st39{fill:url(#SVGID_34_);}
	.st40{fill:url(#SVGID_35_);}
	.st41{fill:url(#SVGID_36_);}
</style>
<g id="Background">
	<g>
		<g>
			<rect class="st0" width="3710" height="3710"/>
		</g>
	</g>
</g>
<g id="Illustration">
	<g>
		<path class="st1" d="M2367.4,637.1c-201.3-42.8-410.7-63.4-615.3-50.3c-181.4,11.6-387,43.3-533,156.6
			c-69.6,54-152.5,151.1-175.3,236.8c0,0-119.8,450.9-359.3,547.5c-239.6,96.6-405.9,1745.6,1410.7,1584.6
			c0,0,1067-42.2,1131.2-1257.7c15.5-293.6,6.8-616.4-179.1-861.9c-142.5-188.1-342.1-271.8-571.5-330.3
			C2440,653.3,2403.9,644.8,2367.4,637.1z"/>
		<g>
			<path class="st2" d="M2279.1,1638.1l12.1,62.2c-27.1,10.7-53,23.6-77.3,38.6l-41.5-47.7c-11.3-13-31.1-14.2-44.1-2.7l-81.7,72
				c-13.1,11.5-14.5,31.4-3.2,44.5l41.9,48.3c-18,22.6-34.1,46.8-48,72.2l-60.6-20.6c-16.3-5.6-34.2,3.4-39.9,19.9l-35.8,103.8
				c-5.7,16.6,2.9,34.7,19.3,40.3l60.8,20.8c-4.5,28.4-6.5,57.5-6.1,86.9l-63.7,13c-17.1,3.5-28.3,20.3-25.1,37.6l20.2,108.5
				c3.2,17.4,19.8,28.6,36.9,25.2l63.8-13c10.3,27.6,22.8,54,37.4,78.8l-49.1,43.6c-13.2,11.8-14.7,32.2-3.3,45.5l71.6,83.9
				c11.5,13.4,31.5,14.8,44.8,2.9l49.1-43.8c22.5,18.5,46.6,35,71.9,49.2l-21.1,62.8c-5.7,17,3.1,35.5,19.7,41.2l104.1,36.1
				c16.7,5.8,34.8-3.4,40.5-20.4l20.8-62.3c28.5,4.5,57.7,6.4,87.3,5.8l12.6,64.5c3.4,17.7,20.3,29.1,37.5,25.6l108.1-22
				c17.3-3.5,28.5-20.7,25-38.3l-12.7-63.9c27.7-10.9,54.1-24,78.9-39.4l42.1,48.6c11.7,13.5,31.9,14.8,45.1,3l82.4-74.1
				c13.2-11.8,14.3-32.3,2.6-45.8l-42-48.2c18.3-23.3,34.5-48.2,48.5-74.4l59.8,20.4c16.7,5.7,34.7-3.4,40.2-20.3l34.3-105.5
				c5.5-16.8-3.6-35.1-20.3-40.7l-59.2-20.1c4.2-29.1,5.8-58.8,4.9-88.8l61.1-12.4c17.1-3.5,28.1-20.4,24.5-37.7l-22.4-108
				c-3.6-17.2-20.3-28.4-37.4-24.9l-60.9,12.4c-10.9-27.8-24-54.2-39.2-79l46.2-41.2c13-11.6,14.1-31.6,2.6-44.7l-72.3-81.8
				c-11.5-13.1-31.4-14.3-44.4-2.7L2780,1773c-22.8-18.1-47.1-34.3-72.6-48.1l19.8-59.2c5.5-16.5-3.4-34.3-19.8-39.8l-102.6-34.4
				c-16.4-5.5-34.2,3.4-39.7,19.8l-20,59.4c-28.2-4.2-57.1-5.8-86.3-4.9l-12.2-61.7c-3.4-17-19.8-27.9-36.8-24.5l-106,21.6
				C2286.8,1604.6,2275.8,1621.1,2279.1,1638.1z M2158.2,2228c-33.3-174.5,79.1-343.5,251-378.6c171.9-35.1,339.6,76.9,374.9,251
				c35.4,175.1-76.5,346.6-250.3,382.1C2359.9,2517.9,2191.7,2403.6,2158.2,2228z"/>
			<path class="st2" d="M2829.6,1359.7l3.6,18.3c-8,3.2-15.6,6.9-22.7,11.4l-12.2-14c-3.3-3.8-9.1-4.2-13-0.8l-24,21.2
				c-3.8,3.4-4.3,9.2-0.9,13.1l12.3,14.2c-5.3,6.7-10,13.8-14.1,21.2l-17.8-6.1c-4.8-1.6-10.1,1-11.7,5.9l-10.5,30.5
				c-1.7,4.9,0.9,10.2,5.7,11.8l17.9,6.1c-1.3,8.4-1.9,16.9-1.8,25.6l-18.7,3.8c-5,1-8.3,6-7.4,11.1l5.9,31.9
				c1,5.1,5.8,8.4,10.9,7.4l18.8-3.8c3,8.1,6.7,15.9,11,23.2l-14.4,12.8c-3.9,3.5-4.3,9.5-1,13.4l21.1,24.7c3.4,4,9.3,4.3,13.2,0.9
				l14.4-12.9c6.6,5.4,13.7,10.3,21.1,14.5l-6.2,18.5c-1.7,5,0.9,10.4,5.8,12.1l30.6,10.6c4.9,1.7,10.2-1,11.9-6l6.1-18.3
				c8.4,1.3,17,1.9,25.7,1.7l3.7,19c1,5.2,6,8.6,11,7.5l31.8-6.5c5.1-1,8.4-6.1,7.3-11.3l-3.7-18.8c8.1-3.2,15.9-7.1,23.2-11.6
				l12.4,14.3c3.4,4,9.4,4.4,13.3,0.9l24.2-21.8c3.9-3.5,4.2-9.5,0.8-13.5l-12.3-14.2c5.4-6.9,10.2-14.2,14.3-21.9l17.6,6
				c4.9,1.7,10.2-1,11.8-6l10.1-31c1.6-5-1.1-10.3-6-12l-17.4-5.9c1.2-8.6,1.7-17.3,1.4-26.1l18-3.7c5-1,8.3-6,7.2-11.1l-6.6-31.8
				c-1-5.1-6-8.3-11-7.3l-17.9,3.7c-3.2-8.2-7.1-16-11.5-23.2l13.6-12.1c3.8-3.4,4.2-9.3,0.8-13.1l-21.3-24.1
				c-3.4-3.8-9.2-4.2-13.1-0.8l-13.7,12.2c-6.7-5.3-13.8-10.1-21.4-14.2l5.8-17.4c1.6-4.8-1-10.1-5.8-11.7l-30.2-10.1
				c-4.8-1.6-10,1-11.7,5.8l-5.9,17.5c-8.3-1.2-16.8-1.7-25.4-1.4l-3.6-18.1c-1-5-5.8-8.2-10.8-7.2l-31.2,6.4
				C2831.9,1349.8,2828.6,1354.7,2829.6,1359.7z M2794.1,1533.1c-9.8-51.3,23.3-101,73.8-111.3c50.5-10.3,99.9,22.6,110.2,73.8
				c10.4,51.5-22.5,101.9-73.6,112.4C2853.4,1618.4,2803.9,1584.8,2794.1,1533.1z"/>
		</g>
		<g>
			<g>
				<g>
					<defs>
						<path id="SVGID_1_" d="M1470.1,2260.9c36.6-111.5,73.9-281.8,30.2-470.9c-50.1-217.1-161-260.5-260.6-492.6
							c-142.2-331.3,18.7-571.2-128.5-672.5c-71.8-49.4-184.7-49.4-254.3,0.2c-198.6,141.4-144.1,757.4,170.9,997.8
							c142.5,108.7,266.8,95.8,373.7,236.5C1496.1,1983.7,1488.6,2147.7,1470.1,2260.9z"/>
					</defs>
					<linearGradient id="SVGID_2_" gradientUnits="userSpaceOnUse" x1="859.2615" y1="601.5662" x2="1333.9905" y2="2112.0664">
						<stop  offset="0" style="stop-color:#FF9085"/>
						<stop  offset="1" style="stop-color:#FB6FBB"/>
					</linearGradient>
					<use xlink:href="#SVGID_1_"  style="overflow:visible;fill:url(#SVGID_2_);"/>
					<clipPath id="SVGID_3_">
						<use xlink:href="#SVGID_1_"  style="overflow:visible;"/>
					</clipPath>
					<g class="st3">
						<path class="st0" d="M1492.4,1980.2c-11.9-46.9-28-93-47.7-137c-45.3-101.1-95.3-156.8-158.6-227.2
							c-41.3-46-88.2-98.1-142.3-172.8c-101.3-139.8-132.7-188.9-160.8-268c-55.7-156.6-47.2-297-37.1-366.8
							c14.3-99,47.5-193.1,98.7-279.9l3.1,1.8c-51,86.4-84,180.1-98.2,278.6c-10,69.4-18.5,209.2,36.9,365.1
							c28,78.7,59.3,127.7,160.4,267.1c54,74.5,100.8,126.6,142,172.5c63.5,70.7,113.7,126.5,159.2,228.1
							c19.8,44.2,35.9,90.5,47.9,137.6L1492.4,1980.2z"/>
						<path class="st0" d="M955.8,1064.6l-2.6-1.4c-0.6-0.3-59.4-32.6-111.6-98.4c-48.2-60.7-100.7-163.2-76.4-306.7l3.5,0.6
							c-24,142.1,27.9,243.7,75.7,303.8c45.6,57.4,96.1,89.1,108,96c3.3-114.6,76.7-188.8,138.1-231
							c66.9-46.1,134.3-64.9,134.9-65.1l1,3.4c-0.7,0.2-67.5,18.9-133.9,64.7c-61.1,42.1-134.5,116.4-136.5,231.1L955.8,1064.6z"/>
						<path class="st0" d="M972.6,1433c-59.5,0-129.4-14.6-193.9-64.8l2.2-2.8c144.8,112.7,317.1,44,334.2,36.7
							c-29.3-113.1-3.4-196.6,23.6-246.7c29.3-54.6,66.3-82.7,66.7-83l2.1,2.9c-0.4,0.3-36.8,28-65.7,82
							c-26.7,49.8-52.3,132.8-22.8,245.5l0.4,1.5l-1.4,0.6C1116.8,1405.2,1054.6,1433,972.6,1433z"/>
						<path class="st0" d="M1105.2,1648.8c-44.6,0-98-8.1-160.1-30.8l1.2-3.4c203.5,74.4,312.2-8.9,323.4-18.2
							c-49.5-115.9,20.2-303.3,20.9-305.1l3.3,1.3c-0.7,1.9-70.4,189.2-20.5,303.7l0.5,1.2l-0.9,0.9
							C1272.3,1599,1215.8,1648.8,1105.2,1648.8z"/>
					</g>
				</g>
			</g>
			<g>
				<g>
					<defs>
						<path id="SVGID_4_" d="M1533.8,2126.3c11.6-70.2,18.3-179.9-38.9-278c-99.7-171.1-281.5-114.4-455.5-297.7
							c-140.3-147.9-96.1-262.8-251.6-361c-26-16.4-163.6-107-265.8-52.4c-57.6,30.7-78.5,93.8-82.4,105.6
							c-59.2,178.9,123,459.1,360.6,587.2c136.5,73.6,180.5,49.6,420.7,135.4C1362,2015.9,1467.9,2080.9,1533.8,2126.3z"/>
					</defs>
					<linearGradient id="SVGID_5_" gradientUnits="userSpaceOnUse" x1="1728.5317" y1="4949.4194" x2="1624.0168" y2="4488.3228">
						<stop  offset="0" style="stop-color:#FF9085"/>
						<stop  offset="1" style="stop-color:#FB6FBB"/>
					</linearGradient>
					<use xlink:href="#SVGID_4_"  style="overflow:visible;fill:url(#SVGID_5_);"/>
					<clipPath id="SVGID_6_">
						<use xlink:href="#SVGID_4_"  style="overflow:visible;"/>
					</clipPath>
					<g class="st4">
						<path class="st0" d="M1553.8,2210.9c-34.8-167-100.5-279-195.5-333.2c-46.3-26.4-83.4-30.6-122.6-35
							c-42.8-4.8-87.1-9.9-145.7-45.3c-57-34.5-77.4-67.6-103.2-109.5c-22.9-37.2-51.5-83.6-115.5-145.3
							c-56.1-54.1-97-79.4-133.1-101.8c-39.5-24.5-70.7-43.8-106.9-91.2c-59-77.3-89.8-176.4-91.6-294.4l3.6-0.1
							c1.8,117.3,32.4,215.6,90.9,292.3c35.8,46.9,66.8,66.1,105.9,90.4c36.2,22.4,77.3,47.9,133.7,102.2c64.3,62,93,108.6,116,146
							c25.6,41.5,45.7,74.3,102,108.3c57.9,35,101.8,40,144.3,44.8c39.6,4.5,77,8.7,123.9,35.5c95.9,54.6,162.3,167.5,197.3,335.5
							L1553.8,2210.9z"/>
						<path class="st0" d="M740.3,1451.2c-122,0-213.1-46.8-268.8-86.9c-62.7-45.2-95.3-92-95.6-92.5l2.9-2
							c0.3,0.5,32.6,46.9,94.9,91.7c57.1,41.1,151.6,89.2,278.8,86c-7.6-24.6-71.3-239.9,11.1-332.4l2.7,2.4
							c-85.6,96.1-10.4,328.8-9.6,331.1l0.7,2.3l-2.4,0.1C750,1451.1,745.1,1451.2,740.3,1451.2z"/>
						<path class="st0" d="M730.9,1649.7c-78.1,0-177.6-16.1-277.5-76l1.8-3.1c124.3,74.5,248,80.7,330,72.8
							c81.3-7.8,138.5-30.7,148.1-34.7c-33.1-122.1-3.6-294.2-3.3-295.9l3.5,0.6c-0.3,1.7-29.9,174.5,3.6,295.8l0.4,1.5l-1.4,0.6
							c-0.6,0.3-61.2,27-150.6,35.6C769,1648.7,750.6,1649.7,730.9,1649.7z"/>
						<path class="st0" d="M836.8,1933.1c-6,0-12-0.1-18-0.2l0.1-3.6c124.8,2.7,220.9-23.2,279.5-45.5c56-21.3,89.4-43.3,96.8-48.3
							c-91.6-113.9-55.7-299.7-55.4-301.6l3.5,0.7c-0.4,1.9-36.2,187.7,55.8,300.1l1.2,1.5l-1.5,1.1
							C1197.5,1838.3,1065.8,1933.1,836.8,1933.1z"/>
					</g>
				</g>
			</g>
			<g>
				
					<linearGradient id="SVGID_7_" gradientUnits="userSpaceOnUse" x1="-2617.6477" y1="1725.0883" x2="-3644.9958" y2="2568.9824" gradientTransform="matrix(-0.9456 0.3251 0.3251 0.9456 -2368.6013 1020.5929)">
					<stop  offset="0" style="stop-color:#FF9085"/>
					<stop  offset="1" style="stop-color:#FB6FBB"/>
				</linearGradient>
				<path class="st5" d="M1536.2,2066.7c-39.1-28.1-103-68.7-189-99.2c-152.9-54.2-223-22.2-287.8-86.9
					c-67-66.9-23.6-132.8-103.8-207.6c-6.7-6.3-92.9-84.5-170.8-55.3c-54.5,20.4-75.8,82.3-85.7,111.4
					c-38.7,112.8-16.2,284.6,104.1,369.4c114.1,80.4,258.5,42.1,304.4,29.6c80.4-21.9,99.5-53.3,181.3-73.1
					C1388.3,2030.8,1477.7,2048.7,1536.2,2066.7z"/>
			</g>
		</g>
		<g>
			<linearGradient id="SVGID_8_" gradientUnits="userSpaceOnUse" x1="1711.5359" y1="3152.1421" x2="1513.4052" y2="3235.3569">
				<stop  offset="0" style="stop-color:#40447E"/>
				<stop  offset="0.9964" style="stop-color:#3C3B6B"/>
			</linearGradient>
			<path class="st6" d="M3340.6,3043.5l-2820.2-24.8v73.3c0,19.9,12.3,36.8,29,39.9l797.5,144.4c9.5,1.7,19.1,2.2,28.6,1.4
				L3309.9,3113c17.3-1.5,30.6-18.4,30.6-38.9V3043.5z"/>
			<g>
				<linearGradient id="SVGID_9_" gradientUnits="userSpaceOnUse" x1="1389.1653" y1="2271.3337" x2="1183.7365" y2="2357.6138">
					<stop  offset="0" style="stop-color:#40447E"/>
					<stop  offset="0.9964" style="stop-color:#3C3B6B"/>
				</linearGradient>
				<path class="st7" d="M2317.1,2924.6L549.5,3058.8c-31.6,2.4-57.3-23.1-57.3-57V1644.5c0-33.9,25.7-61.3,57.3-61.3h1767.6
					c26.1,0,47.1,24.8,47.1,55.5v1227C2364.2,2896.2,2343.2,2922.6,2317.1,2924.6z"/>
				<linearGradient id="SVGID_10_" gradientUnits="userSpaceOnUse" x1="520.3517" y1="2321.0703" x2="2392.4241" y2="2321.0703">
					<stop  offset="0" style="stop-color:#40447E"/>
					<stop  offset="0.9964" style="stop-color:#3C3B6B"/>
				</linearGradient>
				<path class="st8" d="M2345.3,2924.6L577.7,3058.8c-31.6,2.4-57.3-23.1-57.3-57V1644.5c0-33.9,25.7-61.3,57.3-61.3h1767.6
					c26.1,0,47.1,24.8,47.1,55.5v1227C2392.4,2896.2,2371.4,2922.6,2345.3,2924.6z"/>
				<linearGradient id="SVGID_11_" gradientUnits="userSpaceOnUse" x1="640.6023" y1="2924.5928" x2="2540.9756" y2="1377.0927">
					<stop  offset="0" style="stop-color:#AA80F9"/>
					<stop  offset="0.9964" style="stop-color:#6165D7"/>
				</linearGradient>
				<path class="st9" d="M2290.2,2838.1L643.9,2954.7c-25.7,1.8-46.7-19.1-46.7-46.8V1719.6c0-27.7,20.9-50.2,46.7-50.3l1646.3-7.3
					c21.5-0.1,38.9,20.2,38.9,45.4v1082.3C2329.1,2814.9,2311.7,2836.6,2290.2,2838.1z"/>
				<path class="st0" d="M1523.9,1620.3c0,12.6-9.1,22.9-20.3,22.9c-11.2,0-20.4-10.2-20.4-22.8c0-12.6,9.1-22.9,20.4-22.9
					C1514.8,1597.5,1523.9,1607.7,1523.9,1620.3z"/>
				<path class="st10" d="M1919.4,2552.4c-136.3-78.8-243.4,21-346.8-77.4c-62.7-59.7-31.9-104.2-109.1-193.4
					c-85.4-98.8-141.1-65.6-226.9-154.5c-108.6-112.4-54.3-199.9-147.8-280.6c-113.4-97.9-235.8-7.3-343.8-101.2
					c-46.6-40.5-72.1-99.4-85.5-162H553.9c-18.5,0-33.6,16.1-33.6,36v1406.9c0,19.9,15,34.9,33.6,33.4l1801.5-137.3
					c8.8-0.7,16.7-6.2,21.7-14.3c-131.9-5.2-212.9-52.6-264.7-101.7C2011.1,2710.2,2028.7,2615.5,1919.4,2552.4z"/>
			</g>
			<linearGradient id="SVGID_12_" gradientUnits="userSpaceOnUse" x1="520.3517" y1="3064.665" x2="3340.5518" y2="3064.665">
				<stop  offset="0" style="stop-color:#40447E"/>
				<stop  offset="0.9964" style="stop-color:#3C3B6B"/>
			</linearGradient>
			<path class="st11" d="M2415.7,2918.5L520.4,3059.8l826.4,149.7c9.5,1.7,19.1,2.2,28.6,1.4l1965.2-167.3l-894.7-124
				C2435.9,2918.1,2425.8,2917.8,2415.7,2918.5z"/>
			<linearGradient id="SVGID_13_" gradientUnits="userSpaceOnUse" x1="796.9197" y1="3041.3455" x2="2863.2627" y2="3041.3455">
				<stop  offset="0" style="stop-color:#40447E"/>
				<stop  offset="0.9964" style="stop-color:#3C3B6B"/>
			</linearGradient>
			<polygon class="st12" points="796.9,3063.3 2374.9,2944 2863.3,3011.1 1298.9,3138.7 			"/>
			<g class="st13">
				<polygon class="st0" points="933.1,1762.6 751.8,1763.3 751.8,1704.6 933.1,1704.6 				"/>
				<polygon class="st0" points="1883,1759.3 1048.3,1762.2 1048.3,1704.6 1883,1704.6 				"/>
				<polygon class="st0" points="1223.3,1859 1048.3,1860.7 1048.3,1803 1223.3,1802 				"/>
				<polygon class="st0" points="2141.2,1850.3 1334.4,1858 1334.4,1801.3 2141.2,1796.5 				"/>
				<polygon class="st0" points="1223.3,1956.4 1048.3,1959.1 1048.3,1901.5 1223.3,1899.4 				"/>
				<polygon class="st0" points="2141.2,1942.3 1334.4,1954.7 1334.4,1898.1 2141.2,1888.4 				"/>
				<polygon class="st0" points="933.1,2060 751.8,2063.9 751.8,2005.2 933.1,2002 				"/>
				<polygon class="st0" points="1883,2039.7 1048.3,2057.6 1048.3,1999.9 1883,1985 				"/>
				<polygon class="st0" points="1223.3,2151.2 1048.3,2156 1048.3,2098.4 1223.3,2094.2 				"/>
				<polygon class="st0" points="2141.2,2126.1 1334.4,2148.2 1334.4,2091.5 2141.2,2072.3 				"/>
				<polygon class="st0" points="1223.3,2248.6 1048.3,2254.4 1048.3,2196.8 1223.3,2191.6 				"/>
				<polygon class="st0" points="2141.2,2218 1334.4,2244.9 1334.4,2188.3 2141.2,2164.2 				"/>
				<polygon class="st0" points="1223.3,2346 1048.3,2352.9 1048.3,2295.3 1223.3,2289 				"/>
				<polygon class="st0" points="2141.2,2310 1334.4,2341.7 1334.4,2285 2141.2,2256.2 				"/>
				<polygon class="st0" points="1506.1,2430.6 1337.1,2438.3 1337.1,2381.6 1506.1,2374.6 				"/>
				<polygon class="st0" points="2264.4,2396.3 1613.4,2425.8 1613.4,2370.1 2264.4,2342.9 				"/>
				<polygon class="st0" points="933.1,2555.7 751.8,2565 751.8,2506.3 933.1,2497.6 				"/>
				<polygon class="st0" points="1883,2507 1048.3,2549.8 1048.3,2492.2 1883,2452.3 				"/>
				<polygon class="st0" points="1223.3,2638.2 1048.3,2648.2 1048.3,2590.6 1223.3,2581.2 				"/>
				<polygon class="st0" points="2141.2,2585.8 1334.4,2631.9 1334.4,2575.2 2141.2,2531.9 				"/>
				<polygon class="st0" points="1223.3,2735.6 1048.3,2746.7 1048.3,2689 1223.3,2678.6 				"/>
				<polygon class="st0" points="2141.2,2677.7 1334.4,2728.6 1334.4,2672 2141.2,2623.9 				"/>
				<polygon class="st0" points="933.1,2853.1 751.8,2865.6 751.8,2806.9 933.1,2795 				"/>
				<polygon class="st0" points="1883,2787.5 1048.3,2845.1 1048.3,2787.5 1883,2732.7 				"/>
			</g>
		</g>
		<g>
			<linearGradient id="SVGID_14_" gradientUnits="userSpaceOnUse" x1="2313.6819" y1="520.463" x2="641.4005" y2="3865.019">
				<stop  offset="3.597120e-03" style="stop-color:#E38DDD"/>
				<stop  offset="1" style="stop-color:#9571F6"/>
			</linearGradient>
			<path class="st14" d="M2515.9,912.6l-1543-50.7c-51.7-1.7-93.9,39.1-93.9,91.2V2457c0,52.1,42.1,92.5,93.9,90.3l1543-65.9
				c44.6-1.9,80.7-42.4,80.7-90.5V1002.3C2596.6,954.2,2560.6,914.1,2515.9,912.6z"/>
			<path class="st15" d="M972.9,2517.3c-35.2,1.5-63.8-26-63.8-61.4V953.9c0-35.4,28.6-63.2,63.8-62.1l1543,48.6
				c30.4,1,55,28.3,55,61v1390.3c0,32.8-24.6,60.3-55,61.6L972.9,2517.3z"/>
			<linearGradient id="SVGID_15_" gradientUnits="userSpaceOnUse" x1="1590.4161" y1="416.0126" x2="1880.9808" y2="1578.2754">
				<stop  offset="3.597120e-03" style="stop-color:#E38DDD"/>
				<stop  offset="1" style="stop-color:#9571F6"/>
			</linearGradient>
			<path class="st16" d="M2515.9,912.6l-1543-50.7c-51.7-1.7-93.9,39.1-93.9,91.2v67.6l1717.6,44v-62.4
				C2596.6,954.2,2560.6,914.1,2515.9,912.6z"/>
			<path class="st0" d="M1045.9,948.8c0,16.9-13.6,30.2-30.4,29.8C998.6,978.1,985,964,985,947c0-17,13.7-30.3,30.5-29.8
				C1032.3,917.8,1045.9,931.9,1045.9,948.8z"/>
			<path class="st0" d="M1152.2,951.9c0,16.8-13.5,30.1-30.1,29.6c-16.7-0.5-30.2-14.5-30.2-31.4c0-16.9,13.5-30.1,30.2-29.6
				C1138.7,921,1152.2,935,1152.2,951.9z"/>
			<path class="st0" d="M1257.4,954.9c0,16.8-13.4,30-29.9,29.5c-16.5-0.5-29.9-14.4-29.9-31.2c0-16.8,13.4-30,29.9-29.5
				C1244,924.2,1257.4,938.2,1257.4,954.9z"/>
			<g>
				<polygon class="st0" points="1803.5,1208.9 988.4,1194.2 988.4,1242.1 1803.5,1255 				"/>
				<polygon class="st0" points="2416.2,1219.9 2416.2,1264.7 2502.4,1266.1 2502.4,1221.4 				"/>
			</g>
			<g>
				<polygon class="st0" points="1160.7,1359.4 988.4,1357.5 988.4,1308.1 1160.7,1310.3 				"/>
				<polygon class="st0" points="2081.3,1369.2 1270.7,1360.5 1270.7,1311.7 2081.3,1322.2 				"/>
				<polygon class="st0" points="1438.7,1445 1270.7,1443.9 1270.7,1395.1 1438.7,1396.6 				"/>
				<polygon class="st0" points="2336.7,1451.2 1546,1445.8 1546,1397.6 2336.7,1404.7 				"/>
				<polygon class="st0" points="1438.7,1527.7 1270.7,1527.2 1270.7,1478.4 1438.7,1479.3 				"/>
				<polygon class="st0" points="2336.7,1530.5 1546,1528.1 1546,1479.9 2336.7,1484.1 				"/>
				<polygon class="st0" points="1160.7,1610.6 988.4,1610.7 988.4,1561.3 1160.7,1561.6 				"/>
				<polygon class="st0" points="2081.3,1610 1270.7,1610.5 1270.7,1561.8 2081.3,1563 				"/>
				<polygon class="st0" points="1438.7,1693.1 1270.7,1693.9 1270.7,1645.1 1438.7,1644.7 				"/>
				<polygon class="st0" points="2336.7,1689.1 1546,1692.7 1546,1644.5 2336.7,1642.7 				"/>
				<polygon class="st0" points="1438.7,1775.8 1270.7,1777.2 1270.7,1728.4 1438.7,1727.4 				"/>
				<polygon class="st0" points="2336.7,1768.4 1546,1775 1546,1726.8 2336.7,1722 				"/>
				<polygon class="st0" points="1438.7,1858.5 1270.7,1860.6 1270.7,1811.8 1438.7,1810.1 				"/>
				<polygon class="st0" points="2336.7,1847.7 1546,1857.3 1546,1809.1 2336.7,1801.3 				"/>
				<polygon class="st0" points="1712.4,1936.9 1548.6,1939.5 1548.6,1891.3 1712.4,1889.1 				"/>
				<polygon class="st0" points="2459.4,1925.1 1817,1935.3 1817,1887.7 2459.4,1878.9 				"/>
				<polygon class="st0" points="1160.7,2029.4 988.4,2032.8 988.4,1983.4 1160.7,1980.4 				"/>
				<polygon class="st0" points="2081.3,2011.3 1270.7,2027.3 1270.7,1978.5 2081.3,1964.3 				"/>
				<polygon class="st0" points="1438.7,2106.7 1270.7,2110.6 1270.7,2061.8 1438.7,2058.2 				"/>
				<polygon class="st0" points="2336.7,2085.6 1546,2104.1 1546,2056 2336.7,2039.2 				"/>
				<polygon class="st0" points="1438.7,2189.4 1270.7,2193.9 1270.7,2145.2 1438.7,2141 				"/>
				<polygon class="st0" points="2336.7,2164.9 1546,2186.4 1546,2138.3 2336.7,2118.5 				"/>
				<polygon class="st0" points="1160.7,2280.7 988.4,2286 988.4,2236.6 1160.7,2231.7 				"/>
				<polygon class="st0" points="2081.3,2252.1 1270.7,2277.3 1270.7,2228.5 2081.3,2205.2 				"/>
				<polygon class="st0" points="1438.7,2354.8 1270.7,2360.6 1270.7,2311.8 1438.7,2306.4 				"/>
				<polygon class="st0" points="2336.7,2323.5 1546,2351 1546,2302.9 2336.7,2277.1 				"/>
			</g>
			<g class="st17">
				<path class="st0" d="M1916.1,1490.7c-180.2-262.2-492.2-178.8-689.5-468.6c-35.6-52.3-59.7-105.4-76.3-154.5l-177.4-5.8
					c-51.7-1.7-93.9,39.1-93.9,91.2V2457c0,52.1,42.1,92.5,93.9,90.3l1486.5-63.5c-34.1-49.1-330.7-231-407.3-510.3
					C1982.1,1718,2024.9,1649,1916.1,1490.7z"/>
			</g>
		</g>
		<g>
			<g>
				<linearGradient id="SVGID_16_" gradientUnits="userSpaceOnUse" x1="1837.7653" y1="1541.5736" x2="1795.4833" y2="1609.9711">
					<stop  offset="0" style="stop-color:#FFC444"/>
					<stop  offset="0.9964" style="stop-color:#F36F56"/>
				</linearGradient>
				<path class="st18" d="M1835.5,1611.4c4.3-6.7,12.1-20.8,12.6-39.8c1-36.9-26.4-65.8-30.1-64.1c-2,0.9,0.5,11.7,1.9,16.5
					c2.9,10,6.1,11,5.8,15.5c-0.5,9.4-14.2,9.8-21.4,22.3c-5.2,9-5.6,21.9,0,32.1C1813.7,1610.8,1834.7,1611.4,1835.5,1611.4z"/>
				<linearGradient id="SVGID_17_" gradientUnits="userSpaceOnUse" x1="2440.0232" y1="2351.1086" x2="2457.0972" y2="2386.2188">
					<stop  offset="0" style="stop-color:#FFC444"/>
					<stop  offset="0.9964" style="stop-color:#F36F56"/>
				</linearGradient>
				<polygon class="st19" points="2420.9,2413.8 2410.3,2377.5 2454.3,2345 2481.7,2334.7 2465.5,2385.4 				"/>
				
					<linearGradient id="SVGID_18_" gradientUnits="userSpaceOnUse" x1="1146.9912" y1="3245.2065" x2="1146.9912" y2="3135.0598" gradientTransform="matrix(1 0 0 1 1249.563 0)">
					<stop  offset="0" style="stop-color:#FFC444"/>
					<stop  offset="0.9964" style="stop-color:#F36F56"/>
				</linearGradient>
				<path class="st20" d="M2366.4,3143.7c0,0,24.1,60.5,17.7,87.3c25.8-0.5,42.5-3.8,42.5-3.8s-10.4-27.6-12.4-41.3
					c-2.7-18.5-2.5-48.4-2.5-48.4L2366.4,3143.7z"/>
				<path class="st21" d="M2101.3,3285.2c1.6,1.9,4.3,5.8,4.5,11.1c0.1,2.9-0.5,5.3-1.4,7.4c-4.1,10.8-10.5,12.2-17.5,23.7
					c-4.2,7-3.4,9.1-7.3,12.3c-5.1,4.2-11.3,4.4-16.7,4.5c-9.1,0.1-22.2-0.2-38.6-2.2c8.6-11.1,17.8-22.4,27.6-33.8
					c4.3-5,8.6-9.9,12.8-14.7l25.4-8.6C2093.8,3285,2097.6,3285.1,2101.3,3285.2z"/>
				
					<linearGradient id="SVGID_19_" gradientUnits="userSpaceOnUse" x1="811.2632" y1="3276.5972" x2="811.2632" y2="3143.8523" gradientTransform="matrix(1 0 0 1 1249.563 0)">
					<stop  offset="0" style="stop-color:#FFC444"/>
					<stop  offset="0.9964" style="stop-color:#F36F56"/>
				</linearGradient>
				<path class="st22" d="M2080.2,3162c0,0-14.5,75.7,4,96.9c15.7,21.2-7.6,6.1-7.6,6.1l-27.8,24.3l-16.7,28.9
					c0,0,15.4-74.1,11.3-103.5c-4.1-29.4-6.2-49.2-6.2-49.2L2080.2,3162z"/>
				
					<linearGradient id="SVGID_20_" gradientUnits="userSpaceOnUse" x1="737.001" y1="2755.1555" x2="1171.2939" y2="2755.1555" gradientTransform="matrix(1 0 0 1 1249.563 0)">
					<stop  offset="0" style="stop-color:#311944"/>
					<stop  offset="1" style="stop-color:#893976"/>
				</linearGradient>
				<path class="st23" d="M2025.5,2334.1c0,0-39,34.9-39,178.4s18.5,455.3,18.5,455.3l29.5,223.2c0,0,30.6,1.1,51.1-5.1
					c18.5-84.1,48.5-226.3,34.2-345.3c-6.2-129.2,51.3-291.2,51.3-291.2s49.2,164.1,84.1,246.1c34.9,82,101.2,339,107.4,357.5
					c40.8,3.7,58.2-7.1,58.2-7.1s-26.2-276.6-50.8-381.2c-24.6-104.6-22.6-356.9-63.6-428.6
					C2214.2,2299.2,2025.5,2334.1,2025.5,2334.1z"/>
				
					<linearGradient id="SVGID_21_" gradientUnits="userSpaceOnUse" x1="723.1986" y1="2431.4138" x2="1036.0826" y2="2956.9382" gradientTransform="matrix(1 0 0 1 1249.563 0)">
					<stop  offset="0" style="stop-color:#311944"/>
					<stop  offset="1" style="stop-color:#893976"/>
				</linearGradient>
				<path class="st24" d="M2025.5,2334.1c0,0-39,34.9-39,178.4s18.5,455.3,18.5,455.3l29.5,223.2c0,0,30.6,1.1,51.1-5.1
					c18.5-84.1,48.5-226.3,34.2-345.3c-6.2-129.2,51.3-291.2,51.3-291.2s49.2,164.1,84.1,246.1c34.9,82,101.2,339,107.4,357.5
					c40.8,3.7,58.2-7.1,58.2-7.1s-26.2-276.6-50.8-381.2c-24.6-104.6-22.6-356.9-63.6-428.6
					C2214.2,2299.2,2025.5,2334.1,2025.5,2334.1z"/>
				
					<linearGradient id="SVGID_22_" gradientUnits="userSpaceOnUse" x1="846.3727" y1="2358.0791" x2="1159.2566" y2="2883.6035" gradientTransform="matrix(1 0 0 1 1249.563 0)">
					<stop  offset="0" style="stop-color:#311944"/>
					<stop  offset="1" style="stop-color:#893976"/>
				</linearGradient>
				<path class="st25" d="M2228,2597.2c12.2,79,36.5,121.5,97.2,176.2c48.6,36.5,12.2,115.4,30.4,176.2
					c6.1,18.2,24.3,36.5,30.4,54.7c22.6,45.2,1.5,100.5,11.7,148.4c16-2.2,23.2-6.6,23.2-6.6s-26.2-276.6-50.8-381.2
					c-24.6-104.6-22.6-356.9-63.6-428.6c-92.3-36.9-281-2-281-2s-39,34.9-39,178.4c0,11.6,0.1,24.4,0.3,38
					c40.5,35.8,123.2,43.8,174.2,4.1c3.1-2.3,6.4-3.7,9.8-4.4c0.2-0.5,0.3-0.8,0.3-0.8s0.1,0.3,0.2,0.7
					C2194.6,2545.9,2222.7,2576.1,2228,2597.2z"/>
				<g>
					<path class="st21" d="M2377.8,3254c0,0-6,0-5.5,7.7c0.5,7.7-2.7,34.4,27.8,35.6c30.5,1.2,35.2-2.2,36.2-2.2c1,0-8-25.5-8-25.5
						l-9.7-12.5l-26.2-2.7L2377.8,3254z"/>
					<path class="st26" d="M2445.4,3280.7c-0.7-6.4-4.2-16.6-7.9-24.7c-5.4-12.1-1-16.6-6.1-27.7c-1.8-3.8-3.5-7.4-7.3-11
						c-0.9-0.8-9.3-8.6-21.5-8.2c-2.4,0.1-6.1,0.2-10.1,2.4c-4.7,2.5-7.1,6.3-9.1,9.6c-3.2,5.2-2.4,6.8-7.3,21.8
						c-0.4,1.2-1.3,3.8-1.9,7.4c-0.5,2.8-0.7,5.1-0.8,6.6c8,0,38.7,1.2,45.2,6c6.5,4.7,9.7,12.7,9.7,20.7c0,8,4,11.7,8,11.5
						C2439.8,3295,2446.9,3288.4,2445.4,3280.7z"/>
				</g>
				<path class="st26" d="M2076.3,3248.2c6.9,0.1,11.9,5.6,15.7,18.7c3.8,13.2,22,24.8,0.8,22c-21.3-2.8-36.7,27.3-44.3,38.5
					c-7.6,11.1-28,21-27.5,10.1c0.5-10.9,9.5-16,12-27.1C2035.6,3299.4,2060.7,3248,2076.3,3248.2z"/>
				<path class="st0" d="M2437,2351.4c5-14,36.5-106.2-14.4-190.2c-41.7-68.8-113.8-91.2-124.1-94.3c-62.6-18.5-93.9,5.3-113.7-16.6
					c-33.5-37.1,4.4-163.4,77.9-188.7c82.8-28.5,182,81.1,222.3,153.2c52.8,94.5,39.8,188.4,36.7,207.8
					c-7.9,50.3-26.4,88.6-40.1,112.1C2466.8,2340.3,2451.9,2345.9,2437,2351.4z"/>
				<path class="st0" d="M2220.9,1843.8c-73.9-3-130.8-1.8-163,30.4c-34,34,0.4,72.3-7,161.2c-11.3,136-98,169.3-104.5,307.3
					c-2.2,46.5,5.7,84.5,11.8,107.4c19,23.7,50.2,57.1,96.1,85.1c66.9,40.7,105.7,33.6,201.7,59.9c157.1,43,171.1,94.2,249,81.1
					c78.7-13.2,147.8-79.4,139.4-115.8c-5-21.8-36.7-15.6-73.3-48.8c-47.1-42.8-28.9-83.7-64.7-129.7
					c-51.4-66.1-123.1-25.7-166.9-83c-44.3-58-26.7-172.2,10.6-234.4c24.4-40.7,34.9-88.3,55.6-130.9c1.7-3.5,3.7-9.3,2.8-16.6
					c-3.4-27.8-49.7-42.8-84.7-53.9C2270.3,1846.1,2226.9,1844,2220.9,1843.8z"/>
				
					<linearGradient id="SVGID_23_" gradientUnits="userSpaceOnUse" x1="926.8111" y1="1780.5792" x2="990.9453" y2="1882.5161" gradientTransform="matrix(1 0 0 1 1249.563 0)">
					<stop  offset="3.597120e-03" style="stop-color:#E38DDD"/>
					<stop  offset="1" style="stop-color:#9571F6"/>
				</linearGradient>
				<path class="st27" d="M2158.7,1840.8l14.6-4.5c0,0,3.8,19.7,50.7,22.2c26,0,42.8-14.6,42.8-14.6l10,7.3c0,0-21.8,27.3-56.6,26.6
					C2175.2,1876.8,2158.7,1840.8,2158.7,1840.8z"/>
				<g>
					
						<linearGradient id="SVGID_24_" gradientUnits="userSpaceOnUse" x1="1004.2374" y1="1764.9412" x2="933.7542" y2="1878.9581" gradientTransform="matrix(1 0 0 1 1249.563 0)">
						<stop  offset="0" style="stop-color:#FFC444"/>
						<stop  offset="0.9964" style="stop-color:#F36F56"/>
					</linearGradient>
					<path class="st28" d="M2188.3,1780.8c2.8-21.7,19.9-35.5,23.7-38.5c15.6-12.4,18.8-13.7,24.2-14.7l7.3-1.1c0,0,0.4,0,0.8,0
						c4.3,0.3,17.2,5.3,19.5,6.9c7.5,5.3,2,42.5-20.7,88.8c-0.9,3.9-1.8,7.8-2.7,11.8c19.8,3.5,24.7,7,24.8,9.9
						c0.3,6.2-21.3,14-41.4,14.5c-25.1,0.6-51.8-10.2-51.3-18.3c0.2-3.3,4.9-7.3,23.2-11.3c2.9-4,5.7-8,8.6-12
						C2201.8,1813.7,2186.3,1796.7,2188.3,1780.8z"/>
					
						<linearGradient id="SVGID_25_" gradientUnits="userSpaceOnUse" x1="412.3184" y1="1241.5103" x2="344.1112" y2="1351.8455" gradientTransform="matrix(0.9717 -0.2361 0.2361 0.9717 1534.775 640.4756)">
						<stop  offset="0" style="stop-color:#FFC444"/>
						<stop  offset="0.9964" style="stop-color:#F36F56"/>
					</linearGradient>
					<path class="st29" d="M2219.4,1772.6c5.7-3.4,10,3.9,7.4,10.3c-2.7,6.4-11.7,10.4-17.2,6.6
						C2204.1,1785.7,2211.7,1777.2,2219.4,1772.6z"/>
					<linearGradient id="SVGID_26_" gradientUnits="userSpaceOnUse" x1="2207.8997" y1="1277.9467" x2="2798.6021" y2="2216.8274">
						<stop  offset="0" style="stop-color:#444B8C"/>
						<stop  offset="0.9964" style="stop-color:#26264F"/>
					</linearGradient>
					<path class="st30" d="M2958.7,1772.5c-75.1-81.5-249.8-59.1-346.7,6.3c-45,30.4-68.1,66.3-121.3,69.3
						c-40.4,2.3-104.8-12.9-138.7-56.7c-4.3-5.5-21.3-28.7-47-57.9c-11.3-12.9-22.5-24.9-40-27.7c-4.4-0.7-19.2-3.1-28.9,6.4
						c-7.9,7.7-9.8,21.1-7.5,30.8c1.4,5.8,3.2,6.4,2.9,10.2c-0.7,10.6-20.1,15.2-19,20.6c0.8,3.8,10.8,2.4,12.6,7.2
						c1.9,5.3-9.2,9.8-13.9,23c-8.9,6-14.5,20.8-16.5,40.6c-2.9,29.2,0.1,52.9,5.6,70.7c26.6,85.9,45.6,147.4,91.7,181.7
						c61,45.4,115.9,3.5,271-3.2c212.4-9.1,265.4,62.9,341.7,13.7C3000.2,2046.1,3036.6,1857.1,2958.7,1772.5z"/>
				</g>
				<path class="st0" d="M1844.5,1606.2c-1.9,17.8-8.3,96.4,45.9,162.8c50.7,62,122.4,74.4,135.8,76.4c64.5,9.8,92.4-18.1,114.9,0.9
					c38.3,32.2,17.9,162.5-51.3,197.6c-78.1,39.6-191.4-55.5-241.1-121.3c-65.2-86.4-65.2-181.2-64.8-200.8
					c1-50.9,14-91.4,24.4-116.6c4.2-1.3,10.7-2.7,18.6-2.4C1834.4,1603,1840.5,1604.7,1844.5,1606.2z"/>
				<linearGradient id="SVGID_27_" gradientUnits="userSpaceOnUse" x1="1981.7502" y1="1890.4963" x2="2317.3459" y2="2580.5952">
					<stop  offset="0" style="stop-color:#FF9085"/>
					<stop  offset="1" style="stop-color:#FB6FBB"/>
				</linearGradient>
				<path class="st31" d="M2507.2,2624.1c-18.9-19.4,1.9-58.4-26-87.5c-25.9-26.9-55.2-5.2-96.9-28.4
					c-53.5-29.7-38.7-84.2-89.8-113.5c-36.7-21-54,1.6-111.1-9.5c-57-11-126.4-50.3-160.7-120.5c-14.6-29.8-19.9-59.5-20.7-86
					c-25.6,45.8-52.2,89.7-55.7,163.8c-2.2,46.5,5.7,84.5,11.8,107.4c19,23.7,50.2,57.1,96.1,85.1c66.9,40.7,105.7,33.6,201.7,59.9
					c157.1,43,171.1,94.2,249,81.1c50.3-8.4,96.6-38.5,121.3-68.6C2553.6,2639.8,2520.9,2638.2,2507.2,2624.1z"/>
			</g>
		</g>
		<g>
			<linearGradient id="SVGID_28_" gradientUnits="userSpaceOnUse" x1="2483.5691" y1="1022.9521" x2="2798.6309" y2="1655.2054">
				<stop  offset="0" style="stop-color:#FFC444"/>
				<stop  offset="0.9964" style="stop-color:#F36F56"/>
			</linearGradient>
			<path class="st32" d="M2906.4,1436.3c0.3-111.9-112.1-197.5-239.1-191.5c-69.1,3.3-127.3,33.3-162.8,76.2c0,0,0,0,0,0
				c-0.2,0.3-0.4,0.5-0.6,0.8c-0.6,0.7-1.2,1.5-1.8,2.2c-1.1,1.4-2.2,2.7-3.2,4.1c-0.6,0.8-1.2,1.7-1.8,2.5c-1,1.4-2,2.8-2.9,4.2
				c-0.5,0.8-1.1,1.6-1.6,2.4c-1.1,1.6-2.1,3.3-3.1,4.9c-0.4,0.6-0.7,1.2-1.1,1.8c-1.3,2.2-2.6,4.5-3.8,6.8
				c-0.3,0.6-0.6,1.2-0.9,1.8c-0.9,1.7-1.7,3.5-2.6,5.2c-0.4,0.9-0.8,1.7-1.2,2.6c-0.7,1.5-1.4,3.1-2,4.7c-0.4,0.9-0.7,1.8-1.1,2.7
				c-0.6,1.6-1.2,3.2-1.8,4.9c-0.3,0.9-0.6,1.7-0.9,2.6c-0.7,2.1-1.3,4.1-1.9,6.2c-0.1,0.4-0.3,0.9-0.4,1.3c-0.7,2.5-1.3,5-1.9,7.6
				c-0.2,0.8-0.3,1.5-0.5,2.3c-0.4,1.8-0.7,3.7-1.1,5.5c-0.2,0.9-0.3,1.9-0.4,2.8c-0.3,1.7-0.5,3.4-0.7,5.2c-0.1,1-0.2,1.9-0.3,2.9
				c-0.2,1.8-0.3,3.6-0.4,5.5c-0.1,0.9-0.1,1.7-0.2,2.6c-0.1,2.7-0.2,5.4-0.2,8.1c0.2,64.6,40.2,123.8,101.5,158.5
				c5.7,3.2,11.6,6.3,17.7,9.1c3.1,1.4,6.2,2.8,9.3,4.1c22.3,9.2,46.8,15.4,72.8,18l0,0l0,0l0,0c3.6,0.4,7.2,0.6,10.8,0.8
				c1.2,0.1,2.4,0.1,3.6,0.1c2.4,0.1,4.8,0.2,7.1,0.2c1.5,0,2.9,0,4.3,0c2.1,0,4.3,0,6.4-0.1c1.5,0,3.1-0.1,4.6-0.2
				c2-0.1,4-0.2,6-0.3c1.6-0.1,3.2-0.2,4.8-0.4c1.9-0.2,3.9-0.3,5.8-0.6c1.6-0.2,3.2-0.4,4.8-0.6c1.9-0.2,3.8-0.5,5.6-0.8
				c1.6-0.2,3.2-0.5,4.8-0.8c1.9-0.3,3.7-0.7,5.5-1c1.6-0.3,3.2-0.6,4.7-1c0.6-0.1,1.2-0.2,1.8-0.4c0,0,0,0,0,0
				C2838.3,1590.1,2906.2,1522.4,2906.4,1436.3z"/>
			<g>
				<linearGradient id="SVGID_29_" gradientUnits="userSpaceOnUse" x1="2582.2966" y1="1275.9482" x2="2886.8257" y2="1840.7592">
					<stop  offset="0" style="stop-color:#FFC444"/>
					<stop  offset="0.9964" style="stop-color:#F36F56"/>
				</linearGradient>
				<path class="st33" d="M2880.9,1434.5c-0.3,110.6-110.6,189.4-234.9,177.3c-113.2-11-198-94.7-198.4-188
					c-0.3-93.5,84.3-173.6,198.1-179.1C2770.7,1238.7,2881.2,1323.5,2880.9,1434.5z"/>
				<g>
					<path class="st0" d="M2571.5,1391c-7.6-0.1-13.5,3-17.7,9.3c-4.1,6.3-6.2,15-6.1,26.3c0.1,23.4,8,35.4,23.9,36.1
						c6.8,0.3,15-1.3,24.7-4.7l0,19c-8,3.3-16.9,4.7-26.6,4.2c-13.9-0.7-24.4-5.8-31.6-15.3c-7.2-9.5-10.8-22.8-10.8-40
						c0-10.8,1.7-20.3,5.2-28.4c3.5-8.1,8.6-14.4,15.2-18.7c6.7-4.4,14.6-6.5,23.7-6.5c9.4,0,18.9,2.6,28.5,7.6l-6.7,18.4
						c-3.7-1.9-7.3-3.6-11-5.1C2578.6,1391.8,2575,1391,2571.5,1391z"/>
					<path class="st0" d="M2685,1454.3c0,10-3.4,17.8-10.2,23.2c-6.8,5.4-16.1,7.9-28,7.3c-10.8-0.5-20.3-3.1-28.6-7.8l0-21.3
						c6.8,3.5,12.5,6,17.2,7.5c4.7,1.5,9.1,2.4,13,2.5c4.8,0.2,8.4-0.6,11-2.5c2.6-1.9,3.8-4.7,3.8-8.6c0-2.2-0.6-4.1-1.7-5.8
						c-1.1-1.7-2.8-3.4-5-5c-2.2-1.6-6.6-4.2-13.3-7.8c-6.2-3.3-10.8-6.4-13.9-9.4c-3.1-2.9-5.5-6.3-7.4-10.2
						c-1.8-3.8-2.7-8.3-2.8-13.4c0-9.6,3-17.1,9-22.5c6-5.5,14.4-8.2,25.3-8.2c5.3,0,10.5,0.7,15.4,2.1c4.9,1.4,10.1,3.3,15.5,5.8
						l-7.2,18.2c-5.6-2.5-10.2-4.2-13.8-5.2c-3.6-1-7.1-1.5-10.6-1.5c-4.1,0-7.3,0.9-9.4,3c-2.2,2-3.3,4.7-3.3,8
						c0,2,0.4,3.8,1.3,5.4c0.9,1.5,2.3,3,4.2,4.5c1.9,1.5,6.5,4.1,13.8,8c9.7,5.1,16.3,10.2,20,15.3
						C2683.1,1441,2685,1447.1,2685,1454.3z"/>
					<path class="st0" d="M2776.6,1457.5c0,10.4-3.7,18.4-11,24c-7.2,5.6-17.3,8.1-30,7.5c-11.6-0.5-21.8-3.3-30.6-8.2l0-22
						c7.2,3.6,13.4,6.2,18.4,7.8c5.1,1.6,9.7,2.5,14,2.6c5.1,0.2,9-0.7,11.8-2.6c2.7-1.9,4.1-4.9,4.1-8.9c0-2.2-0.6-4.2-1.8-6
						c-1.2-1.8-3-3.5-5.3-5.2c-2.3-1.7-7.1-4.4-14.2-8.1c-6.6-3.4-11.6-6.7-14.9-9.7c-3.3-3-5.9-6.6-7.9-10.5c-2-4-2.9-8.6-2.9-13.8
						c0-9.9,3.2-17.7,9.7-23.3c6.5-5.7,15.5-8.5,27.1-8.5c5.7,0,11.2,0.7,16.5,2.2c5.3,1.4,10.8,3.4,16.6,6l-7.7,18.9
						c-6-2.6-10.9-4.4-14.8-5.4c-3.9-1-7.7-1.6-11.4-1.6c-4.4,0-7.8,1-10.1,3.1c-2.3,2.1-3.5,4.8-3.5,8.2c0,2.1,0.5,4,1.4,5.5
						c0.9,1.6,2.4,3.1,4.5,4.6c2.1,1.5,7,4.3,14.8,8.3c10.4,5.3,17.5,10.6,21.4,15.9C2774.7,1443.6,2776.6,1450,2776.6,1457.5z"/>
				</g>
				<g class="st34">
					<linearGradient id="SVGID_30_" gradientUnits="userSpaceOnUse" x1="2493.4729" y1="1315.0983" x2="2786.3459" y2="1902.8245">
						<stop  offset="0" style="stop-color:#FFC444"/>
						<stop  offset="0.9964" style="stop-color:#F36F56"/>
					</linearGradient>
					<path class="st35" d="M2699.2,1569.4c-26.7-56.7,0.3-106.8-35.8-143.4c-35.7-36.2-80.5-4.3-127-33.1
						c-17.5-10.8-36.8-31.2-51-72.6c-24,29.2-37.9,64.9-37.7,103.5c0.3,93.3,85.2,177,198.4,188c27.4,2.7,54.3,0.9,79.4-4.8
						C2712.9,1594,2704.7,1581.2,2699.2,1569.4z"/>
				</g>
			</g>
		</g>
		<g>
			<linearGradient id="SVGID_31_" gradientUnits="userSpaceOnUse" x1="2711.6438" y1="520.496" x2="3054.7083" y2="1208.9443">
				<stop  offset="0" style="stop-color:#FFC444"/>
				<stop  offset="0.9964" style="stop-color:#F36F56"/>
			</linearGradient>
			<path class="st36" d="M3177,984.2c0-113.8-113.9-208-249.2-210.4c-76.8-1.3-143.6,27.4-185.2,72.6c0,0,0,0,0,0
				c-0.3,0.3-0.5,0.6-0.8,0.9c-0.7,0.8-1.4,1.6-2.1,2.4c-1.3,1.5-2.6,2.9-3.8,4.4c-0.7,0.9-1.4,1.8-2.2,2.7c-1.2,1.5-2.3,3-3.5,4.5
				c-0.6,0.9-1.3,1.7-1.9,2.6c-1.3,1.8-2.5,3.5-3.7,5.3c-0.4,0.7-0.9,1.3-1.3,1.9c-1.6,2.4-3.1,4.9-4.5,7.4c-0.4,0.7-0.7,1.3-1.1,2
				c-1.1,1.9-2.1,3.8-3.1,5.7c-0.5,0.9-0.9,1.9-1.4,2.8c-0.8,1.7-1.6,3.4-2.4,5.1c-0.4,1-0.9,2-1.3,3c-0.8,1.8-1.5,3.6-2.1,5.4
				c-0.4,0.9-0.7,1.9-1.1,2.8c-0.8,2.3-1.6,4.6-2.3,6.9c-0.1,0.5-0.3,1-0.5,1.4c-0.8,2.8-1.6,5.6-2.3,8.4c-0.2,0.8-0.4,1.7-0.6,2.5
				c-0.5,2-0.9,4.1-1.3,6.1c-0.2,1-0.4,2.1-0.5,3.2c-0.3,1.9-0.6,3.8-0.9,5.7c-0.1,1.1-0.3,2.2-0.4,3.2c-0.2,2-0.4,4.1-0.5,6.1
				c-0.1,1-0.2,1.9-0.2,2.9c-0.2,3-0.3,6-0.3,9.1c0,72.6,47.5,139.1,118.9,177.1c6.6,3.5,13.3,6.8,20.3,9.8c3.5,1.5,7,2.9,10.6,4.3
				c25.2,9.7,52.6,16,81.4,18.3l0,0l0,0l0,0c4,0.3,7.9,0.5,11.9,0.7c1.3,0.1,2.6,0.1,4,0.1c2.6,0.1,5.2,0.1,7.8,0.1
				c1.6,0,3.1-0.1,4.7-0.1c2.3,0,4.6-0.1,6.9-0.2c1.7-0.1,3.3-0.2,5-0.3c2.2-0.1,4.3-0.3,6.5-0.4c1.7-0.1,3.4-0.3,5.1-0.5
				c2.1-0.2,4.2-0.4,6.2-0.7c1.7-0.2,3.4-0.4,5.2-0.7c2-0.3,4-0.6,6-0.9c1.7-0.3,3.4-0.6,5.1-0.9c2-0.4,3.9-0.8,5.9-1.2
				c1.7-0.4,3.4-0.7,5-1.1c0.6-0.1,1.2-0.3,1.9-0.4c0,0,0,0,0,0C3108.8,1141.8,3177,1071.9,3177,984.2z"/>
			<g>
				<linearGradient id="SVGID_32_" gradientUnits="userSpaceOnUse" x1="2815.6343" y1="804.5267" x2="3148.8599" y2="1422.5616">
					<stop  offset="0" style="stop-color:#FFC444"/>
					<stop  offset="0.9964" style="stop-color:#F36F56"/>
				</linearGradient>
				<path class="st37" d="M3143.5,983.2c0,113.2-112.8,196.1-246.7,185.4c-128.6-10.2-229-103.4-229-208.5
					c0-105.1,100.5-188.6,229-186.3C3030.7,776.2,3143.5,870,3143.5,983.2z"/>
				<g>
					<path class="st0" d="M2797.8,1009.6l-17.2-0.9v-37.2l-31.9-1.6v37l-17-0.9v-85.4l17,0.7v33.6l31.9,1.5v-33.7l17.2,0.7V1009.6z"
						/>
					<path class="st0" d="M2856,1012.8l-17.5-1v-71.5l-22.3-1V924l62.5,2.6v15.4l-22.6-1V1012.8z"/>
					<path class="st0" d="M2933.1,1017.1l-20.4-70.1l-0.5,0c0.7,14.1,1.1,23.4,1.1,28.1v40.9l-16-0.9v-87.7l24.3,1l20.1,68.4l0.3,0
						l21.5-66.6l24.9,1v88.9l-17-0.9v-42c0-2,0-4.3,0.1-6.9c0.1-2.6,0.3-9.5,0.8-20.6l-0.5,0l-22.1,68.3L2933.1,1017.1z"/>
					<path class="st0" d="M3016.4,1021.7v-89.3l18.5,0.8v73.9l35.8,1.9v15.8L3016.4,1021.7z"/>
				</g>
				<g class="st34">
					<linearGradient id="SVGID_33_" gradientUnits="userSpaceOnUse" x1="2722.1021" y1="840.3769" x2="3046.9197" y2="1492.2078">
						<stop  offset="0" style="stop-color:#FFC444"/>
						<stop  offset="0.9964" style="stop-color:#F36F56"/>
					</linearGradient>
					<path class="st38" d="M2954.9,1122.5c-29.1-60.6,0.3-113.8-38.9-153.7c-39.4-40-89.8-7-143.2-40.1
						c-20.4-12.6-42.9-36-59.6-82.7c-28.7,31.3-45.6,70.7-45.6,114.1c0,105.1,100.5,198.3,229,208.5c30.2,2.4,59.4,0,86.4-6.4
						C2969.8,1148.6,2961,1135.1,2954.9,1122.5z"/>
				</g>
			</g>
		</g>
		<g>
			<linearGradient id="SVGID_34_" gradientUnits="userSpaceOnUse" x1="2182.9829" y1="116.1294" x2="2484.9678" y2="722.1406">
				<stop  offset="0" style="stop-color:#FFC444"/>
				<stop  offset="0.9964" style="stop-color:#F36F56"/>
			</linearGradient>
			<path class="st39" d="M2659.2,660.9c0-104.7-96.6-186.5-211.7-182.7c-65.5,2.1-122.5,31.7-158.1,75.3c0,0,0,0,0,0
				c-0.2,0.3-0.4,0.6-0.6,0.8c-0.6,0.8-1.2,1.5-1.8,2.3c-1.1,1.4-2.2,2.8-3.2,4.3c-0.6,0.8-1.2,1.7-1.8,2.6c-1,1.4-2,2.9-3,4.3
				c-0.6,0.8-1.1,1.7-1.7,2.5c-1.1,1.7-2.1,3.4-3.2,5.1c-0.4,0.6-0.8,1.2-1.1,1.9c-1.4,2.3-2.6,4.7-3.9,7.1c-0.3,0.6-0.6,1.3-1,1.9
				c-0.9,1.8-1.8,3.6-2.6,5.4c-0.4,0.9-0.8,1.8-1.2,2.7c-0.7,1.6-1.4,3.2-2.1,4.9c-0.4,0.9-0.8,1.9-1.1,2.9
				c-0.6,1.7-1.3,3.4-1.8,5.1c-0.3,0.9-0.6,1.8-0.9,2.7c-0.7,2.1-1.4,4.3-2,6.4c-0.1,0.5-0.3,0.9-0.4,1.3c-0.7,2.6-1.4,5.2-2,7.9
				c-0.2,0.8-0.3,1.6-0.5,2.4c-0.4,1.9-0.8,3.8-1.1,5.7c-0.2,1-0.3,2-0.5,2.9c-0.3,1.8-0.5,3.6-0.7,5.4c-0.1,1-0.2,2-0.3,3
				c-0.2,1.9-0.3,3.8-0.5,5.7c-0.1,0.9-0.1,1.8-0.2,2.7c-0.1,2.8-0.2,5.6-0.2,8.4c0,67.2,40.7,126.5,101.7,158.2
				c5.6,2.9,11.4,5.6,17.3,8c3,1.2,6,2.4,9.1,3.5c21.5,7.7,44.9,12.3,69.4,13l0,0l0,0c0,0,0,0,0,0c3.4,0.1,6.8,0.1,10.1,0.1
				c1.1,0,2.3-0.1,3.4-0.1c2.2-0.1,4.4-0.1,6.6-0.3c1.3-0.1,2.7-0.2,4-0.3c2-0.1,3.9-0.3,5.9-0.5c1.4-0.1,2.8-0.3,4.3-0.5
				c1.8-0.2,3.7-0.5,5.5-0.7c1.5-0.2,2.9-0.5,4.4-0.7c1.8-0.3,3.5-0.6,5.3-0.9c1.5-0.3,2.9-0.6,4.4-0.9c1.7-0.4,3.4-0.7,5.1-1.2
				c1.5-0.3,2.9-0.7,4.4-1.1c1.7-0.4,3.4-0.9,5-1.4c1.4-0.4,2.9-0.8,4.3-1.2c0.5-0.2,1.1-0.3,1.6-0.5c0,0,0,0,0,0
				C2601.3,809.3,2659.2,741.7,2659.2,660.9z"/>
			<g>
				<linearGradient id="SVGID_35_" gradientUnits="userSpaceOnUse" x1="2360.571" y1="514.1766" x2="2653.8909" y2="1058.198">
					<stop  offset="0" style="stop-color:#FFC444"/>
					<stop  offset="0.9964" style="stop-color:#F36F56"/>
				</linearGradient>
				<path class="st40" d="M2643.3,661c0,104.5-96.1,186.3-210.6,183c-110.2-3.2-196.6-84.8-196.6-182.3s86.4-179.4,196.6-183
					C2547.2,475,2643.3,556.5,2643.3,661z"/>
				<g>
					<path class="st0" d="M2381.1,711.6l-81.7-41.6v-13.4l81.7-47.3v22.8l-56.5,30.2l56.5,26.6V711.6z"/>
					<path class="st0" d="M2468,590.8l-46.5,140.5l-23.3-0.2l46.1-139.9L2468,590.8z"/>
					<path class="st0" d="M2485.3,689.2l59.7-27.3l-59.7-30.6v-23.2l87.1,47.7v14l-87.1,42.4V689.2z"/>
				</g>
				<g class="st34">
					<linearGradient id="SVGID_36_" gradientUnits="userSpaceOnUse" x1="2280.0188" y1="550.3305" x2="2564.9707" y2="1122.1608">
						<stop  offset="0" style="stop-color:#FFC444"/>
						<stop  offset="0.9964" style="stop-color:#F36F56"/>
					</linearGradient>
					<path class="st41" d="M2482.5,798.5c-24.8-54.7,0.3-105.2-33.3-140.3c-33.7-35.2-76.9-2.3-122.7-30.5
						c-17.5-10.8-36.9-31.4-51.2-74c-24.7,30.3-39.2,67.6-39.2,107.9c0,97.5,86.4,179.1,196.6,182.3c25.8,0.8,50.8-2.8,73.9-10.1
						C2495.2,821.9,2487.7,809.8,2482.5,798.5z"/>
				</g>
			</g>
		</g>
	</g>
</g>
</svg>
