<?xml version="1.0" encoding="utf-8"?>
<!-- Generator: Adobe Illustrator 22.0.0, SVG Export Plug-In . SVG Version: 6.00 Build 0)  -->
<svg version="1.1" id="Layer_1" xmlns="http://www.w3.org/2000/svg" xmlns:xlink="http://www.w3.org/1999/xlink" x="0px" y="0px"
	 viewBox="0 0 3037.2 2222" style="enable-background:new 0 0 3037.2 2222;" xml:space="preserve">
<style type="text/css">
	.st0{fill-rule:evenodd;clip-rule:evenodd;fill:#FFFFFF;}
	.st1{fill-rule:evenodd;clip-rule:evenodd;fill:#939598;}
	.st2{fill-rule:evenodd;clip-rule:evenodd;fill:#97999C;}
	.st3{fill-rule:evenodd;clip-rule:evenodd;fill:#9D9FA2;}
	.st4{fill-rule:evenodd;clip-rule:evenodd;fill:#A1A3A6;}
	.st5{fill-rule:evenodd;clip-rule:evenodd;fill:#A5A7AA;}
	.st6{fill-rule:evenodd;clip-rule:evenodd;fill:#ABADB0;}
	.st7{fill-rule:evenodd;clip-rule:evenodd;fill:#AFB1B4;}
	.st8{fill-rule:evenodd;clip-rule:evenodd;fill:#B3B5B8;}
	.st9{fill-rule:evenodd;clip-rule:evenodd;fill:#BABCBE;}
	.st10{fill-rule:evenodd;clip-rule:evenodd;fill:#BEC0C2;}
	.st11{fill-rule:evenodd;clip-rule:evenodd;fill:#C2C4C6;}
	.st12{fill-rule:evenodd;clip-rule:evenodd;fill:#C9CACC;}
	.st13{fill-rule:evenodd;clip-rule:evenodd;fill:#CDCFD0;}
	.st14{fill-rule:evenodd;clip-rule:evenodd;fill:#D3D5D6;}
	.st15{fill-rule:evenodd;clip-rule:evenodd;fill:#D8D9DA;}
	.st16{fill-rule:evenodd;clip-rule:evenodd;fill:#DCDDDE;}
	.st17{fill-rule:evenodd;clip-rule:evenodd;fill:#E2E3E4;}
	.st18{fill-rule:evenodd;clip-rule:evenodd;fill:#E6E7E8;}
	.st19{fill-rule:evenodd;clip-rule:evenodd;fill:#EDEDEE;}
	.st20{fill-rule:evenodd;clip-rule:evenodd;fill:#F1F2F2;}
	.st21{fill-rule:evenodd;clip-rule:evenodd;fill:#F6F6F6;}
	.st22{fill-rule:evenodd;clip-rule:evenodd;fill:#441872;}
	.st23{fill-rule:evenodd;clip-rule:evenodd;fill:#0A3F89;}
	.st24{fill-rule:evenodd;clip-rule:evenodd;fill:#006BB0;}
	.st25{fill-rule:evenodd;clip-rule:evenodd;fill:#0093DD;}
	.st26{fill-rule:evenodd;clip-rule:evenodd;fill:#0094A1;}
	.st27{fill-rule:evenodd;clip-rule:evenodd;fill:#009269;}
	.st28{fill-rule:evenodd;clip-rule:evenodd;fill:#009B3C;}
	.st29{fill-rule:evenodd;clip-rule:evenodd;fill:#68B92E;}
	.st30{fill-rule:evenodd;clip-rule:evenodd;fill:#D1E200;}
	.st31{fill-rule:evenodd;clip-rule:evenodd;fill:#F6B800;}
	.st32{fill-rule:evenodd;clip-rule:evenodd;fill:#E77516;}
	.st33{fill-rule:evenodd;clip-rule:evenodd;fill:#DA251D;}
	.st34{fill-rule:evenodd;clip-rule:evenodd;fill:#F58220;}
	.st35{fill-rule:evenodd;clip-rule:evenodd;fill:#00AEEF;}
	.st36{fill-rule:evenodd;clip-rule:evenodd;fill:#EC008C;}
</style>
<g>
	<rect x="0" y="0" class="st0" width="3037.2" height="2222"/>
	<g>
		<g>
			<g>
				<path class="st1" d="M1525.2,1240.3c-288.6,148.2-557.7,318.6-794.7,251.3c-267.8-76-497.9-388.7-722.9-649.4
					c-2.5-3.9-5-7.8-7.5-11.6v204.7c2.5,4.7,5,9.4,7.5,14.2c225,319.1,455.1,701.9,722.9,794.9c237,82.4,506.1-126.3,794.7-307.6
					c270.4-169.9,552.2-361.8,861.8-432.8c204.9-46.9,422.2-20,650.2,71.2V945c-228-74.5-445.4-96.5-650.2-58.1
					C2077.3,944.8,1795.6,1101.5,1525.2,1240.3z"/>
				<path class="st2" d="M1523.6,1251.4c-288.6,148.2-557.7,318.6-794.7,251.3c-267.8-76-497.9-388.7-722.9-649.4
					c-2-3.1-3.9-6.1-5.9-9.2v205.3c2,3.7,3.9,7.4,5.9,11.2c225,319.1,455.1,701.9,722.9,794.9c237,82.4,506.1-126.3,794.7-307.6
					c270.4-169.9,552.2-361.8,861.8-432.8c205.4-47,423.2-19.9,651.8,71.9V956.7c-228.6-75-446.5-97.1-651.8-58.7
					C2075.7,955.9,1794,1112.7,1523.6,1251.4z"/>
				<path class="st3" d="M1522,1262.6c-288.6,148.2-557.7,318.6-794.7,251.3c-267.8-76-497.9-388.7-722.9-649.4
					c-1.4-2.3-2.9-4.5-4.3-6.7v205.9c1.4,2.7,2.9,5.5,4.3,8.2c225,319.1,455.1,701.9,722.9,794.9c237,82.3,506.1-126.3,794.7-307.7
					c270.4-169.9,552.2-361.8,861.8-432.8c205.8-47.1,424.3-19.7,653.4,72.5V968.3c-229.2-75.4-447.6-97.7-653.4-59.2
					C2074.2,967.1,1792.4,1123.8,1522,1262.6z"/>
				<path class="st4" d="M1520.4,1273.8c-288.6,148.2-557.7,318.6-794.7,251.3c-267.8-76-497.9-388.7-722.9-649.4L0,871.5v206.4
					l2.7,5.2c225,319.1,455.1,701.9,722.9,794.9c237,82.4,506.1-126.3,794.7-307.6c270.4-169.9,552.2-361.8,861.8-432.8
					c206.3-47.2,425.3-19.6,655.1,73.1V980c-229.8-75.8-448.7-98.3-655.1-59.7C2072.6,978.3,1790.8,1135,1520.4,1273.8z"/>
				<path class="st5" d="M1518.8,1285c-288.6,148.2-557.7,318.6-794.7,251.3c-267.8-76-497.9-388.7-722.9-649.4L0,885.1v207l1.1,2.2
					c225,319.1,455.1,701.9,722.9,794.9c237,82.3,506.1-126.3,794.7-307.7c270.4-169.9,552.2-361.8,861.8-432.8
					c206.8-47.3,426.3-19.5,656.6,73.8V991.7c-230.3-76.2-449.8-99-656.6-60.2C2071,989.4,1789.2,1146.2,1518.8,1285z"/>
				<path class="st6" d="M1517.2,1296.1c-288.6,148.1-557.7,318.6-794.7,251.3C454.8,1471.5,224.9,1159.2,0,898.6v207.5
					c224.9,319,454.8,701.3,722.5,794.3c237,82.4,506.1-126.3,794.7-307.6c270.4-169.9,552.2-361.8,861.8-432.8
					c207.3-47.4,427.3-19.3,658.2,74.4v-230.9c-230.9-76.6-450.9-99.6-658.2-60.8C2069.4,1000.6,1787.6,1157.3,1517.2,1296.1z"/>
				<path class="st7" d="M1515.6,1307.3c-288.6,148.2-557.7,318.6-794.7,251.3c-267-75.8-496.5-386.8-720.9-647v207.9
					c224.4,318.5,453.8,699.2,720.9,792c237,82.4,506.1-126.3,794.7-307.7c270.4-169.9,552.2-361.8,861.8-432.7
					c207.7-47.6,428.3-19.2,659.8,75.1v-231.1c-231.5-77.1-452.1-100.2-659.8-61.3C2067.8,1011.8,1786,1168.5,1515.6,1307.3z"/>
				<path class="st8" d="M1514,1318.5c-288.6,148.1-557.7,318.6-794.7,251.3C452.9,1494.2,223.8,1184.5,0,924.7V1133
					c223.8,318,452.9,697.2,719.3,789.7c237,82.3,506.1-126.3,794.7-307.6c270.4-169.9,552.2-361.8,861.8-432.8
					c208.2-47.7,429.3-19.1,661.4,75.7v-231.2C2805.1,949.3,2584,926,2375.7,965C2066.2,1022.9,1784.4,1179.7,1514,1318.5z"/>
				<path class="st9" d="M1512.4,1329.6c-288.6,148.2-557.7,318.6-794.7,251.3C451.9,1505.5,223.3,1197.1,0,937.7v208.7
					c223.3,317.6,451.9,695.1,717.7,787.5c237,82.4,506.1-126.3,794.7-307.7c270.4-169.9,552.2-361.8,861.8-432.8
					c208.7-47.8,430.3-19,663,76.4v-231.3c-232.7-77.9-454.3-101.5-663-62.4C2064.6,1034.1,1782.8,1190.8,1512.4,1329.6z"/>
				<path class="st10" d="M1510.8,1340.8c-288.6,148.2-557.7,318.6-794.7,251.3C451,1516.9,222.8,1209.7,0,950.7v209.1
					c222.8,317.1,451,693.1,716.1,785.2c237,82.3,506.1-126.3,794.7-307.6c270.4-169.9,552.2-361.8,861.8-432.8
					c209.2-47.9,431.3-18.9,664.6,77v-231.4c-233.3-78.4-455.4-102.1-664.6-62.9C2063,1045.3,1781.2,1202,1510.8,1340.8z"/>
				<path class="st11" d="M1509.2,1352c-288.6,148.1-557.7,318.6-794.7,251.3C450,1528.2,222.3,1222.4,0,963.7v209.5
					c222.3,316.6,450,691.1,714.5,782.9c237,82.4,506.1-126.3,794.7-307.7c270.4-169.9,552.2-361.8,861.8-432.7
					c209.7-48,432.4-18.7,666.2,77.7v-231.6c-233.9-78.8-456.6-102.7-666.2-63.4C2061.4,1056.4,1779.6,1213.2,1509.2,1352z"/>
				<path class="st12" d="M1507.6,1363.1c-288.6,148.2-557.7,318.6-794.7,251.3C449,1539.6,221.8,1235,0,976.7v210
					c221.8,316.1,449,689,712.9,780.7c237,82.3,506.1-126.3,794.7-307.7c270.4-169.9,552.2-361.8,861.8-432.8
					c210.1-48.1,433.4-18.6,667.8,78.3v-231.7c-234.4-79.2-457.7-103.3-667.8-64C2059.8,1067.6,1778,1224.3,1507.6,1363.1z"/>
				<path class="st13" d="M1506,1374.3c-288.6,148.2-557.7,318.6-794.7,251.3c-263.2-74.7-490-378-711.3-635.9v210.4
					c221.3,315.6,448.1,686.9,711.3,778.4c237,82.4,506.1-126.3,794.7-307.6c270.4-169.9,552.2-361.8,861.8-432.8
					c210.6-48.2,434.4-18.4,669.4,79v-231.8c-235-79.6-458.8-103.9-669.4-64.5C2058.2,1078.8,1776.4,1235.5,1506,1374.3z"/>
				<path class="st14" d="M1504.4,1385.5c-288.6,148.2-557.7,318.6-794.7,251.3c-262.6-74.5-488.9-376.6-709.7-634v210.8
					c220.8,315.1,447.1,684.9,709.7,776.1c237,82.3,506.1-126.3,794.7-307.7c270.4-169.9,552.2-361.8,861.8-432.8
					c211.1-48.3,435.4-18.3,671,79.7v-231.9c-235.6-80.1-459.9-104.6-671-65.1C2056.6,1089.9,1774.8,1246.7,1504.4,1385.5z"/>
				<path class="st15" d="M1502.8,1396.6c-288.6,148.2-557.7,318.6-794.7,251.3c-262-74.3-487.8-375.1-708.1-632.1V1227
					c220.3,314.6,446.1,682.8,708.1,773.8c237,82.4,506.1-126.3,794.7-307.6c270.4-169.9,552.2-361.8,861.8-432.8
					c211.6-48.4,436.4-18.2,672.6,80.4v-232c-236.2-80.5-461-105.2-672.6-65.6C2055,1101.1,1773.2,1257.9,1502.8,1396.6z"/>
				<path class="st16" d="M1501.2,1407.8c-288.6,148.2-557.7,318.6-794.7,251.3C445.2,1585,219.8,1285.5,0,1028.9v211.6
					c219.8,314.1,445.2,680.8,706.5,771.6c237,82.4,506.1-126.3,794.7-307.7c270.4-169.9,552.2-361.8,861.8-432.8
					c212.1-48.5,437.4-18,674.2,81v-232.2c-236.8-80.9-462.1-105.8-674.2-66.1C2053.4,1112.3,1771.6,1269,1501.2,1407.8z"/>
				<path class="st17" d="M1499.6,1419c-288.6,148.1-557.7,318.6-794.7,251.3c-260.7-74-485.6-372.2-704.9-628.4v212.1
					c219.3,313.6,444.2,678.7,704.9,769.3c237,82.4,506.1-126.3,794.7-307.6c270.4-169.9,552.2-361.8,861.8-432.7
					c212.5-48.7,438.4-17.9,675.8,81.7v-232.3c-237.3-81.4-463.3-106.5-675.8-66.7C2051.8,1123.5,1770,1280.2,1499.6,1419z"/>
				<path class="st18" d="M1498,1430.1c-288.6,148.2-557.7,318.6-794.7,251.3C443.2,1607.7,218.8,1310.7,0,1054.9v212.5
					c218.8,313.1,443.2,676.6,703.3,767c237,82.4,506.1-126.3,794.7-307.7c270.4-169.9,552.2-361.8,861.8-432.7
					c213-48.8,439.5-17.8,677.4,82.4v-232.4c-237.9-81.8-464.4-107.1-677.4-67.2C2050.2,1134.6,1768.4,1291.4,1498,1430.1z"/>
				<path class="st19" d="M1496.4,1441.3c-288.6,148.2-557.7,318.6-794.7,251.3C442.3,1619,218.3,1323.3,0,1068v212.9
					c218.3,312.6,442.3,674.6,701.7,764.7c237,82.3,506.1-126.3,794.7-307.6c270.4-169.9,552.2-361.8,861.8-432.8
					c213.5-48.9,440.5-17.6,679,83v-232.5c-238.5-82.2-465.5-107.8-679-67.8C2048.6,1145.8,1766.8,1302.5,1496.4,1441.3z"/>
				<path class="st20" d="M1494.8,1452.5c-288.6,148.2-557.7,318.6-794.7,251.3C441.3,1630.4,217.8,1335.9,0,1081v213.3
					c217.8,312.1,441.3,672.5,700.1,762.4c237,82.4,506.1-126.3,794.7-307.7c270.4-169.9,552.2-361.8,861.8-432.8
					c214-49,441.5-17.5,680.6,83.7v-232.7c-239.1-82.7-466.6-108.4-680.6-68.3C2047,1157,1765.3,1313.7,1494.8,1452.5z"/>
				<path class="st21" d="M1493.2,1463.7c-288.6,148.2-557.7,318.6-794.7,251.3C440.4,1641.7,217.3,1348.6,0,1094v213.7
					c217.3,311.5,440.4,670.4,698.5,760.1c237,82.3,506.1-126.3,794.7-307.7c270.4-169.9,552.2-361.8,861.8-432.8
					c214.4-49.1,442.5-17.3,682.2,84.4v-232.8c-239.7-83.1-467.7-109-682.2-68.9C2045.4,1168.1,1763.7,1324.9,1493.2,1463.7z"/>
				<path class="st0" d="M1491.6,1474.8C1203,1623,933.9,1793.5,696.9,1726.2c-257.5-73.1-480.2-365-696.9-619.1v214.1
					c216.8,311,439.4,668.4,696.9,757.9c237,82.3,506.1-126.3,794.7-307.7c270.4-169.9,552.2-361.8,861.8-432.8
					c214.9-49.2,443.5-17.2,683.8,85.1v-232.9c-240.3-83.6-468.9-109.7-683.8-69.5C2043.8,1179.3,1762.1,1336,1491.6,1474.8z"/>
			</g>
			<path class="st0" d="M1511.8,1152.8c-288.6,148.2-557.7,318.6-794.7,251.3C451.6,1328.7,223.2,1020.8,0,761.5v208.9
				c223.2,317.4,451.6,694.4,717.1,786.6c237,82.3,506.1-126.3,794.7-307.7c270.4-169.9,552.2-361.8,861.8-432.8
				c208.9-47.8,430.7-18.9,663.6,76.6V861.9c-232.9-78.1-454.7-101.7-663.6-62.6C2064,857.2,1782.2,1014,1511.8,1152.8z"/>
		</g>
		<g>
			<g>
				<path class="st22" d="M9.1,1316.8c0.3-0.1,1.2-1.1,1-2c-0.2-0.8-0.9-1.3-2-0.7c-0.2,0.2-0.2,0.7-0.7,1.8
					C7.4,1316.8,8,1317.3,9.1,1316.8L9.1,1316.8z M0,1325.8c1.9-1.4,2.1-3.9,2-5.8c-0.4-1.6-1.1-2.4-2-2.3L0,1325.8L0,1325.8z"/>
				<path class="st23" d="M57.5,1293.8c1,0.1,1.6-0.9,1.8-2c-0.3-1-1.4-1.7-1.9-1.7c-0.6-0.2-1.4,0.6-1.6,1.8
					C55.9,1292.9,56.4,1294,57.5,1293.8L57.5,1293.8z M45.1,1296c1.8-0.1,3.6-2.1,4-4.7c-0.4-2.3-2.6-4.6-4.6-4.4
					c-2.2,0-3.9,1.8-3.6,4.3C41.1,1293.7,42.7,1295.9,45.1,1296L45.1,1296z M28.4,1299.4c2.7-0.7,4.3-4.2,4-8c0.1-3.9-2.6-7.2-5.9-7
					c-2.4,0.6-4.5,4.6-4,8.7C22.7,1297.2,25.2,1300,28.4,1299.4L28.4,1299.4z M9.7,1306.2c3.8-0.8,6.6-6.2,6-11.6
					c-0.2-5.5-3.8-9.1-7.8-8c-3.3,1.2-6,6.5-5.8,12C2.4,1303.9,5.7,1307.3,9.7,1306.2z"/>
				<path class="st24" d="M26.8,1272c6.8,0.7,11.8-5,11.9-12.7c0.7-8.2-4.5-15.1-10.5-15.9c-5.8-0.7-10.7,5.4-11.1,13.3
					C17.1,1264.6,22.2,1271,26.8,1272L26.8,1272z M4.2,1270.1c-1.5,0.2-3-0.4-4.2-1.6v-19.7c1-1.5,2.3-2.5,3.8-2.8
					c3.5-0.7,7.1,4.1,6.8,10.9C11.4,1263.4,8.4,1269.1,4.2,1270.1L4.2,1270.1z M116.9,1287.7c1,0.8,2.1,0.2,2.1-0.8
					c0.4-1-0.5-2-2.1-2.5c-0.7-0.5-1.7-0.2-2.1,0.8C115.2,1286.2,115.9,1287.3,116.9,1287.7L116.9,1287.7z M100.3,1282.9
					c2.7,1.3,4.5,0.4,4.9-2.4c0.5-2.3-1.3-5.2-3.9-6.5c-2.6-1.1-4.8-0.2-5.2,2.2C96.2,1279,98,1281.9,100.3,1282.9L100.3,1282.9z
					 M79.9,1278.3c3.7,1.3,7.2-1,7.3-5.3c0-4.2-2.8-8.6-6.8-10.2c-3.8-1.1-7.1,1.2-7.2,5.3C73.1,1272.4,76.1,1276.9,79.9,1278.3
					L79.9,1278.3z M54.4,1273c4.6,1.1,9.7-2.1,9.7-7.8c0.6-5.8-3.7-11.9-8.5-13.9c-5.2-1.7-9.6,2.7-9.5,9
					C45.8,1266.3,49.4,1272.3,54.4,1273z"/>
				<path class="st25" d="M75.6,1242.9c7.1,3.2,14.6,1.4,16.2-5.8c2-7.1-2.8-16.4-10.7-20.8c-7.5-4.9-14.8-2.6-15.8,5.9
					C63.8,1230.3,68.9,1239.6,75.6,1242.9L75.6,1242.9z M2.2,1206.3c-0.8-0.2-1.6-0.8-2.2-1.6v-8.8c0.8-1.1,1.8-1.7,3.4-1.4
					c1.7,0.2,3.3,3.3,3.1,6.9C6.2,1204.3,4.1,1206.7,2.2,1206.3L2.2,1206.3z M20.7,1213.5c-3.7-0.8-6.3-5.5-5.8-10.8
					c0.1-5.2,3.2-9.1,7.3-8.5c3.1,1.4,6,6.3,5.1,11.3C27.4,1210.9,24.3,1214.5,20.7,1213.5L20.7,1213.5z M44.8,1225.1
					c-5.2-2.4-9-9.4-7.9-15.8c1.2-6.3,6.1-9.4,11.3-7c5.6,2.5,9.3,9.7,8.8,15.9C55.1,1224.7,50.6,1227.6,44.8,1225.1L44.8,1225.1z
					 M185.3,1294.8c0.9,0.6,2,0.4,2.6-0.1c0.5-0.9-0.3-2.2-1.3-2.9c-1.1-0.9-2.6-0.5-2.7,0C183,1292.7,184,1293.8,185.3,1294.8
					L185.3,1294.8z M166.8,1286.6c2.7,1.6,5.3,1.2,6.6-1.2c0.5-2.3-0.6-5.4-3.4-7c-2.8-1.8-6.3-1-6.8,1
					C161.9,1281.7,163.7,1285,166.8,1286.6L166.8,1286.6z M140.1,1273.8c5.6,2.8,10.1,2.4,11.9-1.2c1.4-3.6-1.3-8.5-6.8-11.5
					c-4.3-3-9-2.6-10.3,0.8C133.4,1265.3,136.3,1270.8,140.1,1273.8L140.1,1273.8z M109.8,1258.8c6.2,3.9,12.3,1.7,13.8-3.8
					c2.1-5-1.7-12.4-8.2-16.5c-6.2-3.1-12.4-1.3-14.4,4.2C99.5,1248,103.8,1255.4,109.8,1258.8z"/>
				<path class="st26" d="M135.8,1234.1c8.8,6.4,19,6.5,23,1.3c4-4.4,0.6-13.7-8.4-21.1c-9.4-7.4-19.6-7.9-23.6-2.3
					C122.9,1217.7,127.3,1227.8,135.8,1234.1L135.8,1234.1z M29.1,1145c-1.2-0.5-2.2-1.9-1.6-3.4c0.8-1.5,1.7-2.1,2.6-1.5
					c1.4,0.7,1.9,2,1.6,3.5C31.2,1144.9,29.9,1145.6,29.1,1145L29.1,1145z M44.3,1157.6c-2.9-1.7-4.4-5.6-3.3-8.6
					c1.2-2.5,4.4-2.7,6.9-0.5c3,2.2,4.7,6,3.9,8.4C50.3,1159.3,47.6,1159.6,44.3,1157.6L44.3,1157.6z M67.9,1178.6
					c-4.3-3.5-7-9.3-5.6-13.6c2.5-4,7.5-4.6,12.8-1.5c4.5,3.3,7,9.2,4.6,13.4C78.2,1181.1,72.7,1181.8,67.9,1178.6L67.9,1178.6z
					 M98.1,1202.7c-6.1-4.4-9.6-12.4-7.1-18.2c2.8-4.8,11.2-3.9,18.1,1.7c7.5,5.1,10.3,13.2,7.2,17.6
					C112.6,1208.2,105.1,1207.4,98.1,1202.7L98.1,1202.7z M260,1305.8c0.8,0.6,2.5,0.6,3.2,0c0.8-0.8,0.2-1.8-0.8-2.6
					c-1.1-0.5-2.9-0.4-3.3,0.2C258.1,1304.2,258.8,1305.3,260,1305.8L260,1305.8z M240,1296.7c2.6,1.8,6.4,2,7.6,0.5
					c2.3-1.6,1.3-4.3-1.9-6.3c-3.1-1.9-6.8-2.3-8.5-0.9C235.5,1291.8,236.4,1294.7,240,1296.7L240,1296.7z M210.5,1281.3
					c5,2.9,11.3,3.5,14.2,1c3-2.4,1.2-7.4-4-10.8c-4.9-3.5-11.9-4.4-14.4-1.8C203.8,1272.8,205.5,1278,210.5,1281.3L210.5,1281.3z
					 M175.9,1260.2c6.6,5.1,15,5.9,18.4,2.2c3.8-4.2,1.5-11.2-6-15.9c-6.9-5.3-15.8-6.5-19.5-2.9
					C165.8,1247.3,168,1254.8,175.9,1260.2z"/>
				<path class="st27" d="M208.2,1243.1c9.1,7.5,21.8,11.1,29,8.3c6.9-2.2,5.5-9.4-4.3-16.9c-9.1-7.5-23-12.6-30.1-10.3
					C195.6,1226.4,197.8,1235.3,208.2,1243.1L208.2,1243.1z M87.7,1125.1c-1.5-1.1-2-2.4-1.2-3.2c0.5-1,2.7-0.3,4,1
					c1.2,1.2,1.7,2.8,0.7,3.3C90.8,1126.9,88.8,1126.4,87.7,1125.1L87.7,1125.1z M106.2,1145.6c-3.6-3-4.8-6.7-2.2-8.4
					c1.3-1.8,6-0.6,9.4,2.4c3.5,3.5,4.4,7.2,2.8,7.8C113.9,1149.4,109.3,1148.4,106.2,1145.6L106.2,1145.6z M133.2,1173.1
					c-5.5-5.2-7-10.9-3.7-12.4c3.3-1.5,10.6,1.4,16.4,6.6c5.9,4.8,7.6,10.3,3.5,11.9C146.3,1180.9,139.1,1178.3,133.2,1173.1
					L133.2,1173.1z M167.5,1207.2c-7.4-6.7-9.9-14-4.4-16.5c4.9-2.8,16.2,1.2,23.8,8.2c7.6,7.2,9.7,13.5,3.6,15.1
					C185.1,1215.9,175.2,1213.4,167.5,1207.2L167.5,1207.2z M336.1,1312.8c1.4,0.4,2.9,0.4,4.4-0.1c0.5-0.3,0.5-1-0.2-1.5
					c-1.4-0.3-2.6-0.6-4.2,0C335.5,1311.4,335.1,1312.4,336.1,1312.8L336.1,1312.8z M316.2,1306.5c2.2,1.6,7.1,1.5,9.3,0.7
					c3-1.1,3-2.8,0.2-4.1c-3.4-1.5-7.8-2-10.5-1.3C312.3,1303,312.3,1304.9,316.2,1306.5L316.2,1306.5z M286.8,1294.2
					c5.3,2.8,12.2,3.5,16.7,1.9c4.2-1.6,3.9-4.8-1.6-7.5c-4.7-2.7-12.3-4.2-16.7-2.8C281,1287.3,282,1291,286.8,1294.2L286.8,1294.2
					z M251.3,1272.5c6.6,5,16.6,7.8,22.1,5.8c5.5-1.6,4.8-6.8-2.6-11.4c-7.1-5.4-17.3-8.9-23-7.8
					C242,1261.5,244.1,1267.6,251.3,1272.5z"/>
				<path class="st28" d="M287.5,1263c9.4,6.8,24.9,12.1,34.9,12.7c11.1,0.7,11.9-2.4,2.6-8.3c-8.5-6.5-25.4-14-36.7-15.9
					C278.1,1250.7,278.1,1256.3,287.5,1263L287.5,1263z M165.8,1141.8c-1.4-1.3-1.6-2.4,0.2-2.1c1,0,3.5,1.5,5,3.3
					c1.7,1.5,1.9,2.6,0.5,2.3C170.2,1144.9,167.5,1143.7,165.8,1141.8L165.8,1141.8z M185.5,1165.3c-3.2-3.8-3.5-6.8,0-6.2
					c3.7,0.4,9.2,4,13.1,7.4c3.7,3.6,3.7,6.2,0.3,5.7C195.4,1172.1,189.6,1168.9,185.5,1165.3L185.5,1165.3z M213.5,1194.9
					c-5.5-5.3-6-9.5-0.3-9.4c5.9,1.6,15.4,7.4,21.7,13.3c6,5.5,5.3,9-0.1,7.4C228.7,1205.4,219.6,1200.2,213.5,1194.9L213.5,1194.9z
					 M247.9,1229.7c-7.6-7.1-7.4-12.1,0.7-10.9c7.7,1.5,20.7,8.3,29.5,14.6c7.9,6.6,7.3,10.1-1.3,8.9
					C268.6,1241.7,255.8,1236.4,247.9,1229.7L247.9,1229.7z M410.4,1307.1c1.3-0.1,3.1-0.4,4.6-0.7c1.4-0.3,1.3-0.4,1.1-0.6
					c-1.1,0.2-3.3,0.6-4.9,0.8C409.6,1307.2,409.6,1307.2,410.4,1307.1L410.4,1307.1z M391.5,1307.8c2.4,0,7.3-0.3,10.9-0.9
					c3.8-0.6,4.9-1.1,2.1-1.1c-2.7-0.3-7.7-0.2-11.1,0.2C389.1,1306.7,388.8,1307.5,391.5,1307.8L391.5,1307.8z M365.5,1303
					c4.1,1.2,11.8,1.9,17.1,1.3c5.8-0.4,7.4-1.6,3.2-2.6c-4.4-1.1-12.5-2.7-18.5-2.4C362,1299.5,361,1301.4,365.5,1303L365.5,1303z
					 M331.3,1289c6.6,3.4,17.6,5.7,25.6,5.6c7.8,0.4,9.5-1.4,2.7-4.6c-6.2-3.5-18.3-7.6-27.1-8C325.2,1281.7,324.4,1285,331.3,1289z
					"/>
				<path class="st29" d="M374.7,1290.5c7.7,3.9,25.4,8.6,39.3,12.1c14.4,3.7,19.7,5.9,12,3.3c-8.3-3.4-27.8-11.3-42.2-16.5
					C370.1,1284.9,366.4,1285.9,374.7,1290.5L374.7,1290.5z M264.7,1193.8c-1.8-1.7-1.3-2,0.3-0.8c2.6,0.9,5.6,3.4,7.3,4.9
					c1.7,1.5,1,2-1.2,0.7C269.2,1197.3,266.2,1195,264.7,1193.8L264.7,1193.8z M283.2,1214c-4.1-3.5-3.1-4.5,2-1.5
					c6,2.7,13.3,7.8,17.2,11.3c3.7,3.3,2,4-2.8,1.3C293.8,1222.7,287,1217.8,283.2,1214L283.2,1214z M309.4,1240.1
					c-5.8-4.9-3.8-6,4.4-2.5c7.7,4.3,19.5,11.7,25,16.6c6,4.6,3.6,4.9-4.3,0.5C326.1,1251.3,315.3,1244.9,309.4,1240.1L309.4,1240.1
					z M341,1266.9c-7.5-5.3-4.7-6.6,6.1-1.8c11.1,5.4,26.6,14.2,34.1,18.9c7.1,4.5,3.4,3.8-8.2-0.6
					C362.3,1279.3,348.1,1272.4,341,1266.9L341,1266.9z M481.5,1286c1-0.7,3-1.7,4.9-2c1.5-0.3,2.1,0.5,1.7,1.2
					c-1,0.9-2.4,1.5-4.3,1.8C482.2,1287.1,480.8,1286.8,481.5,1286L481.5,1286z M467.1,1296.4c1.4-1.4,6.3-2.8,10.8-3.1
					c4.2-0.4,6,0.9,4.1,2.6c-1.3,1.3-6.6,2.6-10.5,2.3C467.2,1298.4,465.1,1297.6,467.1,1296.4L467.1,1296.4z M444.9,1304.2
					c4.4-1.1,12.3-2.1,18.7-1.8c7.5,0.4,10.9,1.9,7.9,3.4c-3.6,1.4-11.7,1.2-19.4,0.3C444.7,1305.3,441.6,1304.8,444.9,1304.2
					L444.9,1304.2z M414.5,1303.8c6.1,0.8,18.7,1.9,28.6,3.4c10.6,1.7,15.1,4,9.5,3.8c-4.8-0.5-18.7-3.5-29.3-6.1
					C412.8,1302.6,409.1,1302.3,414.5,1303.8z"/>
				<path class="st30" d="M467.7,1317.9c6-0.3,24.2,2.8,41.1,8.3c17.2,6,27.1,14.2,20.9,16.9c-5.5,1.7-26-4.4-43.8-13.2
					C468.7,1322.3,460.8,1317.6,467.7,1317.9L467.7,1317.9z M380.4,1273.3c-2-1.2-1.1-0.5,2,1.4c3,2.1,6.6,4.6,8.3,6
					c1,1,0.2,0.4-2.6-1.6C385,1277.1,381.3,1274.6,380.4,1273.3L380.4,1273.3z M395.2,1285.8c-4.4-2.9-1-1.1,5.8,3.8
					c7.1,4.7,15.6,10.8,19.3,13.5c3.5,2.1,0.2,0.5-6.3-4.5C406.4,1294.1,398.5,1288.5,395.2,1285.8L395.2,1285.8z M416.7,1301.1
					c-5.5-3.2-0.7-0.8,9.7,6c11.5,7.3,24.1,15.7,29.7,18c4,2.5-0.7-1.2-11.2-7.8C434.4,1311.1,421.4,1304.1,416.7,1301.1
					L416.7,1301.1z M441.5,1313.6c-6.4-2.6,0,1,14.2,8.8c14.5,8.8,31.4,17.2,37,18.6c5.5,1-1.2-4.8-14.6-12.1
					C463.7,1322.2,448.1,1315.7,441.5,1313.6L441.5,1313.6z M551.2,1246c0.4-1.6,2.5-3,3.8-3.5c2.3-0.3,3.7,1,3.2,2.7
					c-0.1,1.5-2.1,3.1-3.7,3.3C552.4,1248.6,550.7,1247.8,551.2,1246L551.2,1246z M540.5,1268.9c0.4-3.2,6.1-6.5,11.5-6.8
					c4.6,0,8,2.7,7.5,6.6c-1.4,3.6-6.5,6.2-11.8,6.1C542.7,1274.7,539.3,1272,540.5,1268.9L540.5,1268.9z M523.4,1293.5
					c2.2-4.1,11.3-7.1,19.9-6.9c8.3,1,14.6,5.4,12.6,10.2c-2.2,4.4-10.9,6.7-20.4,5.3C526.7,1300.7,521.5,1297.1,523.4,1293.5
					L523.4,1293.5z M499.8,1312.2c-4.9,2.7,2.6,7.2,15.5,10.8c13.5,4,27.6,4.9,31.4,1c3.7-4.6-4.2-11-17.1-13.9
					C516.9,1307.9,503.8,1309.1,499.8,1312.2z"/>
				<path class="st31" d="M562.5,1341c4.5-6.3,23-6.9,42.3,0.2c19.7,6.7,35.1,20.6,30.9,29.8c-3.8,8.6-24,5.7-44.8-4.4
					C570.4,1357.3,558.4,1346.1,562.5,1341L562.5,1341z M509,1371.7c-1.1-0.9,0.3,0.8,3.4,3.8c3.6,2.8,7.4,5.6,8.9,6.1
					c1.4,0.6-0.7-1.2-4.1-3.9C513.9,1374.7,509.8,1372.1,509,1371.7L509,1371.7z M517.3,1372c3.1,0.8,12,6.6,21.1,12.5
					c8.5,6,13.2,10.8,10.7,10.2c-2.9-0.7-12.4-6.4-21.2-12.8C519,1375.4,514,1370.8,517.3,1372L517.3,1372z M531.8,1370.5
					c-4.3-0.5,3,6,16.5,15.4c14,9.3,28.1,16.7,32,16.2c3.1-0.8-5-8.6-17.6-17.2C549.5,1376.8,536.1,1370.5,531.8,1370.5
					L531.8,1370.5z M547.7,1361.9c-4.1,1.4,5.8,10.5,22.7,20.8c17.6,10.6,35.3,16.9,39,13.6c3.7-4-6.7-15-23.8-23.6
					C569.5,1364.6,552.3,1359.9,547.7,1361.9L547.7,1361.9z M618.5,1188.6c-0.1-2.3,1.7-4.6,4-4.6c2.7-0.4,4.3,1.4,4.2,4
					c0.5,2.2-1.7,4.6-4.1,4.9C620.1,1193,618.4,1191.2,618.5,1188.6L618.5,1188.6z M611.5,1225.2c0.1-5.8,5-10.4,11.7-11
					c5.8,0,10.9,4.5,10.9,10.3c-0.2,5.6-5.8,10.6-11.8,10.2C615.9,1234.8,610.9,1230.5,611.5,1225.2L611.5,1225.2z M601,1268.2
					c0.6-7.4,9.1-13.5,20.3-13.1c10.1,0.9,18.5,8.5,17.7,16.8c-0.5,8.1-10.3,13-20.9,11.5C607.5,1282,599.7,1275.5,601,1268.2
					L601,1268.2z M585.1,1309.8c-2.4,7.1,7.9,16.1,22.4,20.8c16.4,4.4,31.1,1.4,33.1-7.7c1.9-9.5-9.9-20.2-24.8-23.2
					C600.7,1297.2,587.2,1302.1,585.1,1309.8z"/>
				<path class="st32" d="M659,1354c1.2-12.3,20.3-18.6,42.5-12.1c22.1,7,40.6,25.3,40.9,41.8c-0.8,15.3-20.8,18.3-44.4,8.8
					C673.8,1382.7,656.4,1365.7,659,1354L659,1354z M646.6,1475.3c-1.1,0.2,1.7,3.2,5.8,6.5c3.9,3.5,8,5.7,8.6,5.5
					c0.9-0.3-1.5-3.4-5.9-6.9C651.4,1477.4,647.7,1475.1,646.6,1475.3L646.6,1475.3z M648,1460.6c2-1.3,10.9,3.6,20.5,10.7
					c9.8,6.7,16.7,13.7,15.2,15.7c-2.3,2-11.2-2.3-21.8-10.3C652.4,1469.1,646.1,1461.8,648,1460.6L648,1460.6z M652.4,1438.7
					c1.5-3.2,16,0.5,31.2,9c14.6,9.2,25.4,20.8,23.5,25.5c-1.9,4.3-16.8-0.2-32.3-10.4C660,1453.1,649.4,1442.3,652.4,1438.7
					L652.4,1438.7z M656.3,1404.6c-2.7,7,11.3,20.7,31.8,31.7c20.5,11.7,37.8,13.3,39.4,4.1c1.5-9.6-13.1-25-32.1-33.1
					C676.2,1398.3,658.5,1397.2,656.3,1404.6L656.3,1404.6z M685.1,1118.9c-0.4-3.1,1.3-5.8,4.5-6.2c2.5-0.1,5.3,2.4,5.5,5.5
					c1,3.1-1.5,5.9-4.3,6.3C688,1124.3,685.1,1122,685.1,1118.9L685.1,1118.9z M681.1,1167.5c-0.7-7.6,4.7-14.2,12-14.9
					c7.8-0.4,14.1,6,14.5,13.7c0.7,7.9-4.9,14.3-12.2,14C688,1180.9,681.4,1175.1,681.1,1167.5L681.1,1167.5z M676.8,1228.8
					c-0.6-10.8,8.4-19.7,19.8-19.5c12.6,0.2,23.3,10.2,24.4,22c0,11.7-9.2,19.9-21.4,18.8C687.8,1248.8,677.5,1239.7,676.8,1228.8
					L676.8,1228.8z M671,1294.1c0.5-12.7,13.4-21.6,29.5-19.4c17.3,2.4,32.2,16.5,32,31.4c0.2,14.2-13.4,22-30.9,17.6
					C684.5,1319,671.1,1306.4,671,1294.1z"/>
				<path class="st33" d="M751.1,1352.6c-0.6-18.8,18.7-31.2,43.3-27.3c25,4.2,46.4,26.7,48.4,48.5c2.4,21.9-16.5,34.3-42.8,26.5
					C773.7,1392.6,752,1371.3,751.1,1352.6L751.1,1352.6z M784.6,1569.7c-0.7,1.6,2.9,5.1,7.4,8.4c4.1,3.2,8.2,4.5,8.1,2.7
					c0.5-1.7-2.6-5.2-7.3-8.2C788.7,1569.6,785,1568.2,784.6,1569.7L784.6,1569.7z M778,1538.3c-0.9,4,6.8,12.6,17.9,19.9
					c10.9,7.5,20,10,20.9,5.6c0.4-4.4-7.8-14-18.8-20.9C787.7,1536.2,778.4,1534.3,778,1538.3L778,1538.3z M771.3,1494
					c0.8-7.7,14.1-6.9,29.4,0.2c16.2,7.2,29.4,21,28.7,30.1c-0.3,9.2-13.5,10.1-29.8,0.9C784.3,1516,770.7,1501.5,771.3,1494
					L771.3,1494z M763.4,1433.8c-0.1,12.5,16.2,29.7,37.6,39c22.6,9.1,40.1,5.5,39.8-10c-1.5-15.3-18.4-32.5-40-39.9
					C779.6,1415.4,763.3,1421.1,763.4,1433.8L763.4,1433.8z M753.5,1046.2c-0.3-3.6,2.1-6.7,5.7-7.1c2.9-0.3,6.3,2.7,6.6,6.4
					c1,3.5-1.8,6.7-4.9,7C757.5,1052.9,754.1,1049.9,753.5,1046.2L753.5,1046.2z M751.6,1102.8c-1.5-9,4.6-16.6,13.6-17.1
					c8.4-0.3,16.6,6.6,17.6,15.9c0.5,9.3-5.3,16.7-14.2,17C759.9,1118.7,752.9,1111.7,751.6,1102.8L751.6,1102.8z M753.3,1177.7
					c-1.6-13.8,6.6-25.1,19.7-25c13.3,0.2,26.7,11.6,28.2,25.9c1.4,14.2-7.6,25.1-20.7,24.3C767,1202.7,755.2,1191.2,753.3,1177.7
					L753.3,1177.7z M754.5,1264.4c-2.2-17.2,11.6-30.6,29.8-29.2c18.6,1.2,35.3,17.8,37.4,36.4c2.3,18.6-11.3,31.3-29.8,28.4
					C773.3,1297.1,756.1,1281.8,754.5,1264.4z"/>
				<path class="st22" d="M2880,1242c-18.6,13.2-33.3,30.5-31.3,41.2c1.5,10.3,15.9,9.3,35.9-3.4c17.3-14.5,31.2-34.9,29.5-44.7
					C2913.7,1225,2898.4,1228.9,2880,1242L2880,1242z M3015.3,1124.1c7.9-10.1,12.8-14.9,12.7-10.7c-0.8,4.7-6.3,16.6-13.8,27.2
					c-7.6,10.3-13.6,14.5-13.7,9.5C3000.5,1145.6,3007,1133.6,3015.3,1124.1L3015.3,1124.1z M2959.5,1182.8
					c12.8-12.2,21.8-16.2,22.7-9.4c-0.6,6.7-9.9,22.7-21.4,35.4c-13.9,12-23.9,15.7-25.1,8.4
					C2935.7,1209.8,2945.7,1194.5,2959.5,1182.8L2959.5,1182.8z M2625.1,1379.7c-3,0.4-5,2.4-5.2,4.1c1.2,1.7,4,2.6,6.9,1.8
					c3.3-0.6,5.4-2.4,5.5-3.9C2632,1379.8,2629,1378.6,2625.1,1379.7L2625.1,1379.7z M2671.6,1360.5c-7.7,2.2-13,8.2-11.5,12.4
					c0.9,4.4,8.1,6,15.1,3.7c7.9-2.8,12.4-8.2,12.2-12.6C2685.6,1359.2,2679,1358,2671.6,1360.5L2671.6,1360.5z M2733.5,1334.1
					c-11.6,4.2-20.1,13.4-18.2,19.6c1.2,7.1,12.6,9.2,22.8,4.6c11.6-4.6,20.2-13.9,17.9-20.5
					C2755.5,1331.4,2745.2,1329.5,2733.5,1334.1L2733.5,1334.1z M2801.8,1295.5c-13.7,7.3-23.1,21-20.6,29.5
					c1.4,9.8,15.2,10.1,28.1,1.8c13.8-8.4,22.3-22.5,20.9-31.3C2827.7,1287.4,2815.9,1287.1,2801.8,1295.5z"/>
				<path class="st23" d="M2716.4,1375.9c-22,5.8-39.3,22.3-40.1,37.3c1.6,14.9,19.1,22.8,40,16.5c21.6-6.8,37.1-24.2,37.8-38.9
					C2753.4,1376.5,2737.2,1370,2716.4,1375.9L2716.4,1375.9z M2958.9,1255.4c2.9-2.3,3.9-2.4,4-0.5c-0.2,1.8-1.9,5.2-4.2,7.2
					c-2.4,2.3-4.5,2.7-4.8,0.9C2955.2,1261,2957,1257.7,2958.9,1255.4L2958.9,1255.4z M2922.4,1283.5c6.7-5.8,11.9-6.1,11.1-0.9
					c0,5.1-5.7,13.9-11.5,19.6c-5.6,5.1-11.1,4.9-10.9-0.3C2912,1296.7,2916.5,1288.4,2922.4,1283.5L2922.4,1283.5z M2868,1316.8
					c9-6.6,17-5.2,16.1,2.8c1.1,8-6,20.2-14.9,26.5c-8.5,6.6-16.3,5-17.7-3.6C2851.7,1334.4,2859.2,1323.1,2868,1316.8L2868,1316.8z
					 M2803.8,1349.9c13.8-7.5,25.8-4.5,25.6,6.8c0.9,11.8-9.4,27.9-23.4,35.3c-14.6,6.3-27.5,1.8-28.4-9.7
					C2778,1371.4,2790,1357.3,2803.8,1349.9L2803.8,1349.9z M2413,1424.2c-3,0-5,1.3-5.1,3.2c-0.4,2.1,2.5,3.9,5.6,4
					c4,0,6.1-1.3,6-3.3C2420.1,1425.9,2416.8,1424.1,2413,1424.2L2413,1424.2z M2464.7,1420.8c-7.6-0.3-14.2,3.2-14,8.6
					c-1,4.9,6.5,9.1,14.6,9.3c8.7,0.1,15.3-3.5,15.6-8.5C2480.6,1425.4,2474.1,1420.9,2464.7,1420.8L2464.7,1420.8z M2534.2,1415.3
					c-11.5,1.1-22.1,8-21.8,15.9c0,7.8,10.7,14.9,24.8,14.5c11.5-1.1,20.3-8.7,20.2-17.2C2555.8,1420.3,2546.9,1414.3,2534.2,1415.3
					L2534.2,1415.3z M2616.7,1402.4c-19.3,1.7-32.4,12.5-31.2,23.5c0.2,11.2,14.2,19.1,29.9,17.5c19.1-2.5,35-13.8,35.3-25.3
					C2650.5,1406.9,2636,1399.8,2616.7,1402.4z"/>
				<path class="st24" d="M2531,1470.6c-25.1-2.7-47,8-50.5,23.4c-3.2,16,14.9,31,39.5,33.8c24.2,2.5,46-8.3,48.8-24.3
					C2571.4,1487.5,2555,1473.3,2531,1470.6L2531,1470.6z M2828.5,1461c2.9-1.1,4.8,0.1,4.3,3c0.5,2.3-3,5.6-4.7,6.1
					c-3.9,1.5-5.5,0.1-5.2-2.3C2823.3,1464.8,2826.1,1462,2828.5,1461L2828.5,1461z M2785,1468.4c6.7-2.4,12.2,1.5,12.3,8
					c-1.3,6.9-7.1,13.8-14.4,16.3c-7.7,2-13.8-1.5-11.9-8.4C2770.9,1477.7,2777.9,1470.4,2785,1468.4L2785,1468.4z M2719.6,1477.9
					c12.1-2.8,21.6,3.6,20.8,14.4c-1.1,11.1-13.3,20.4-27,22.1c-14.5,1.2-23.5-5.8-21.7-15.8
					C2692.4,1488.9,2706.1,1479.8,2719.6,1477.9L2719.6,1477.9z M2628.8,1478.4c18.9-1,32,9.4,29,22.8
					c-1.3,13.9-15.9,25.8-32.8,26.5c-17,0.9-29.8-10-28.6-23.6C2597.5,1490.4,2612,1479.2,2628.8,1478.4L2628.8,1478.4z
					 M2191.9,1430.7c-3.8-0.8-7.2-0.5-7.3,1.4c-0.4,1.7,1.8,3.8,5.1,5c3.8,0.8,7.2,0.2,6.9-1.4
					C2197.3,1434.2,2195.2,1431.9,2191.9,1430.7L2191.9,1430.7z M2247.2,1441.7c-8.5-2.7-17.1-1-18.4,3.3
					c-1.1,4.2,4.9,9.7,13.3,12.6c8.4,2.5,16.9,0.9,18.3-3.5C2261.6,1449.2,2255.9,1443.8,2247.2,1441.7L2247.2,1441.7z
					 M2320.8,1452.1c-14.6-2.9-26.9,1.1-28.8,8.9c-1.4,8,8.3,16.8,21.4,20.1c13.5,2.9,26-1.1,29.4-9
					C2345.2,1464,2335.4,1455,2320.8,1452.1L2320.8,1452.1z M2421.2,1465c-19.4-2.2-38.7,3-42.3,14.1c-4.2,11.1,10.1,23.5,31.6,27.7
					c20.8,4.3,39-3.3,41.4-15.8C2455.1,1478.7,2441,1467,2421.2,1465z"/>
				<path class="st25" d="M2326.9,1519.2c-24.7-7-52.9-5.1-61.1,7.6c-8,12.2,6.5,30.6,33.6,40.9c26.7,10.5,53.9,8.2,60.6-7.2
					C2365.8,1545.6,2350.9,1527,2326.9,1519.2L2326.9,1519.2z M2671.7,1625.1c3-0.1,5.9,2.5,5.3,5.4c-1,3-3.8,4.5-8.3,4
					c-3.4-0.5-6-3.3-4.4-5.5C2665.7,1626.1,2668.6,1624.4,2671.7,1625.1L2671.7,1625.1z M2618.8,1609c8.9,1.8,14.5,8.1,12.8,14.7
					c-1.5,6.3-10.1,10.7-20,9.2c-8.8-1.3-15-8.1-12.4-14.9C2600.4,1612.1,2609.9,1607.6,2618.8,1609L2618.8,1609z M2543.5,1588.8
					c14.9,2.4,24.2,13,20.4,23.2c-3.8,10.4-18.9,16.9-33.4,14.5c-16.5-3.5-25-14.7-20.6-23.8
					C2513.5,1592.1,2527.9,1586.2,2543.5,1588.8L2543.5,1588.8z M2444,1559.7c22.3,6,34.5,20.8,28.6,32.9
					c-6.7,11.8-31.6,16.4-53.4,10.1c-22.4-6.1-33.6-20.7-28.4-32.9C2397.5,1558.1,2421.9,1553.6,2444,1559.7L2444,1559.7z
					 M1973.1,1414.3c-3-1.4-7-1.4-7.7-0.2c-1.5,1.3-0.7,3.7,3.6,5c2.8,1.2,6.4,1.3,7.4,0C1977.8,1417.7,1976.2,1415.7,1973.1,1414.3
					L1973.1,1414.3z M2025.9,1429.2c-8.1-3.1-16.9-2.4-19.3,1.2c-3.2,3.8,1.7,9.3,9.2,12.3c8.9,3.3,17.6,2.5,20-0.8
					C2039.4,1438.1,2034,1432.3,2025.9,1429.2L2025.9,1429.2z M2108.9,1453.9c-15.6-5.7-31.7-5.3-37.8,0.9
					c-5.8,6,1.5,15.1,17.2,20.8c15.5,5.7,32.4,5.6,37.4-0.2C2131.8,1469.3,2123.4,1459.5,2108.9,1453.9L2108.9,1453.9z
					 M2210.1,1484.1c-21-7.5-41.9-4.6-48.4,4.9c-7.3,8.7,3.5,22.3,24.7,30.3c19.8,7.1,42.2,5.5,49.1-4.2
					C2241.6,1505.3,2230.2,1491.3,2210.1,1484.1z"/>
				<path class="st26" d="M2114,1523.5c-27-12.7-58.2-14.6-71.3-6.2c-14.1,6.7-4.3,23.2,21.8,37.6c26.7,14.4,59.1,17.8,74.3,9.4
					C2154,1555,2142.6,1536.4,2114,1523.5L2114,1523.5z M2479,1718.2c5.6,1.7,7.2,4.8,5.7,7.4c-1.8,2.2-7,3.1-10.4,1.6
					c-4.7-1.8-6.5-5-4.5-7.4C2471,1717.6,2475.5,1716.9,2479,1718.2L2479,1718.2z M2423.1,1688.2c9.3,4.1,15.1,12.1,10.9,17.3
					c-4.4,4.1-16.4,3.1-27.6-2.2c-10.1-5-15.5-12.7-10.6-16.7C2400.4,1682.2,2413,1682.9,2423.1,1688.2L2423.1,1688.2z
					 M2338.8,1640.6c15.9,7.5,23.4,19.8,16.5,26.3c-7.9,6.8-26.8,6-43.6-1.5c-15.8-7.8-23.6-19.4-15.4-26.3
					C2302.5,1632.1,2322,1632.7,2338.8,1640.6L2338.8,1640.6z M2236.3,1587.3c21.6,9.6,31.4,25.5,20.9,34.8
					c-11.1,7.9-39.2,3.5-62.9-8.3c-23.5-11.6-33-26.2-20.3-33.1C2186.2,1573.9,2213.5,1577.2,2236.3,1587.3L2236.3,1587.3z
					 M1770.6,1392.8c-2.9-1-6.5-1.2-8.3-0.1c-1.6,0.9-0.2,2.5,2,3.6c3,1.1,5.9,1.4,8.3,0.1
					C1774.1,1395.4,1773.4,1393.6,1770.6,1392.8L1770.6,1392.8z M1824.5,1407.8c-8.5-3-19.3-3.4-23.9-1.3c-4.8,2.7-2.3,6.9,5.5,10.1
					c8.3,3.3,18.5,3.9,23.5,1.4C1835,1415.8,1832.5,1411.2,1824.5,1407.8L1824.5,1407.8z M1900.6,1434.3
					c-13.4-5.3-30.1-6.6-38.2-2.8c-9,3.7-4.5,11.4,8.7,17.5c14.3,6.2,31.9,8.5,39.5,4.1C1918.4,1448.4,1913.5,1440.2,1900.6,1434.3
					L1900.6,1434.3z M1996.1,1473.3c-18.6-9.5-43.4-12.1-53.4-6c-10.7,5.9-4.4,17.7,14.9,26.6c19.6,9.5,44.3,13.2,55,7.7
					C2024,1496.1,2015.7,1483.3,1996.1,1473.3z"/>
				<path class="st27" d="M1903.5,1497.6c-25.3-13.4-61.1-20.6-80.8-17c-18.5,2.7-15.5,14.2,8.2,27.3c23.9,13.1,62.5,23.3,83.2,21.2
					C1934.2,1526.4,1929.3,1511.9,1903.5,1497.6L1903.5,1497.6z M2254.1,1729.2c5.7,2.8,5.9,5.7,3.4,6.4c-3.4,1-9.9-0.7-14.1-3.4
					c-4.9-2.7-6.1-5.7-2.8-6.3C2243.7,1724.9,2249.1,1726.6,2254.1,1729.2L2254.1,1729.2z M2192.2,1686.7c11.6,6.1,13.6,13.1,6,15.5
					c-6.4,2-20.6-1.5-31.6-8.1c-10.2-7.2-13.4-13.8-5.9-14.8C2166.9,1677.1,2181.6,1680.3,2192.2,1686.7L2192.2,1686.7z
					 M2110.8,1630.1c16.1,10.8,20.4,21,8.8,22.2c-11.2,1.6-34.4-6.1-51-16.5c-15.8-9.9-19.8-19-7.9-21
					C2071.7,1613.1,2093.9,1619.5,2110.8,1630.1L2110.8,1630.1z M2012.1,1563.9c21.9,12.7,26.1,25.5,11.5,28.2
					c-16.4,3-45.9-6.1-68.2-19.5c-21.6-12.8-25.5-23.8-8.9-24.9C1962.1,1545.7,1991.5,1551.9,2012.1,1563.9L2012.1,1563.9z
					 M1595.8,1380.3c-2.3-0.6-5.9-0.7-9.3,0.2c-2.4,0.6-1.9,1.6,0.5,2c2.5,0.7,6.8,0.6,9.2,0
					C1598,1382.1,1597.6,1380.9,1595.8,1380.3L1595.8,1380.3z M1641.2,1390.3c-6.4-2.3-17-2.6-22.7-1.2c-6.1,1.5-6.1,3.7,0.6,5.9
					c6,2.5,16.9,3,23.3,2C1648.5,1395.5,1648,1392.6,1641.2,1390.3L1641.2,1390.3z M1705.6,1410.1c-11.5-4.8-28.2-6.2-37.1-3.7
					c-10.2,2-9.5,6.7,1.2,11.3c11.7,4.2,29.3,6.9,38.5,4.9C1719.1,1420.8,1717.3,1415.1,1705.6,1410.1L1705.6,1410.1z
					 M1790.1,1445.8c-16.6-8.2-40.9-13-54.4-10.6c-13.4,2.1-11.9,9.7,3.8,17.9c17.2,8.6,43.5,15.1,57.1,13.7
					C1810.3,1464.3,1807.2,1454.4,1790.1,1445.8z"/>
				<path class="st28" d="M1700,1455.8c-20.5-10.9-56.2-19.9-80-21.2c-23.6-2.1-27.4,2.4-7.3,11.8c20.2,9.8,58.4,22.5,83.1,26.8
					C1720.2,1475.6,1721.6,1467.1,1700,1455.8L1700,1455.8z M2004,1669.5c3.4,2.9,4.4,4.7-0.3,3.8c-4.6-0.7-11.6-3.6-15.8-7
					c-4.1-2.8-4-4.8,0.2-3.9C1992.3,1663.3,1998.8,1666.4,2004,1669.5L2004,1669.5z M1948.9,1626.2c10.2,7,10.4,11.7,0,9.7
					c-10.8-1.7-27.1-8.7-36.9-15.3c-10.8-6.7-10.7-10.5-0.3-9.2C1921.8,1612.9,1938.3,1619.4,1948.9,1626.2L1948.9,1626.2z
					 M1873.5,1572.6c15.5,9.5,16.1,16.2,0.8,14.5c-15.5-3.8-39.7-15.2-54.4-25.5c-13.9-9.7-13.9-14.7,1.3-11.4
					C1835.9,1552.8,1858.7,1562.9,1873.5,1572.6L1873.5,1572.6z M1789.6,1511.9c18.5,11.9,18.4,19.7-1,16.2
					c-20.8-3.5-51.7-15.9-69.5-26.6c-18.3-10.8-15.9-16.4,3.9-13.2C1741.7,1490.4,1771.7,1500.5,1789.6,1511.9L1789.6,1511.9z
					 M1443.8,1385.3c-2,0.3-5.8,0.6-8.9,1.2c-2.3,0.1-2.9,0.3-1.1,0.2c2,0.1,5.5-0.5,8-0.8
					C1444.4,1385.4,1445.6,1385.2,1443.8,1385.3L1443.8,1385.3z M1479.6,1385.2c-4.5-0.4-14.3,0.1-20.9,0.8
					c-6.8,0.3-8.9,1.2-4.1,1.5c4.6,0.6,14.5,0.4,21.1,0C1482.6,1386.9,1484.4,1385.8,1479.6,1385.2L1479.6,1385.2z M1530.6,1393.1
					c-8.4-2.1-24.1-3.3-34.9-2.7c-12,0.7-14.3,1.6-5.6,3.3c7.6,2.3,24,4.6,35.8,4.4C1537.8,1397.8,1539.3,1395.7,1530.6,1393.1
					L1530.6,1393.1z M1603.2,1414.3c-14.5-5.5-40.1-8.8-55.9-9c-16.1-0.8-19.3,1.7-6.9,6.4c13,5.6,38.7,11.9,57.1,12.9
					C1616.1,1425.3,1618.1,1420.5,1603.2,1414.3z"/>
				<path class="st29" d="M1510.6,1410.1c-15.8-5.8-48.5-13.6-74.7-18.4c-25.7-5.7-35.5-8.9-20.7-5c15.2,4.4,49.9,16.3,77.8,24.1
					C1519,1418.2,1527.3,1416.9,1510.6,1410.1L1510.6,1410.1z M1746.4,1563.1c3.4,2.6,2.5,3-2.1,0.9c-4.8-2-12.7-6.3-16-8.9
					c-3.7-2.5-2.5-3,2.3-0.7C1736,1556.7,1742.9,1560.4,1746.4,1563.1L1746.4,1563.1z M1704.2,1529.5c9.3,5.7,6.2,6.9-5.7,2
					c-13-5.2-29.5-13.7-38.3-19.4c-7.2-5.5-5-6.3,7.1-1.5C1679.5,1515,1695.7,1522.9,1704.2,1529.5L1704.2,1529.5z M1646.2,1487.5
					c12.4,7.7,7.6,9.4-10.8,2.8c-18.7-6.8-43.6-18.8-55.1-26.6c-11.5-7.2-6.7-7.3,10-0.5C1608.4,1469.4,1633,1479.8,1646.2,1487.5
					L1646.2,1487.5z M1578,1445.4c14.8,8.4,8.6,10.1-13.5,2c-22.8-8.3-53.2-21.7-66.5-28.7c-13.8-6.5-6.7-5.2,15.6,1.4
					C1534.8,1426.6,1562.8,1437.4,1578,1445.4L1578,1445.4z M1312.8,1410.7c-0.7,0.8-3.9,1.9-7,2.1c-2.6,0.2-4-0.5-3-1.4
					c1.2-1.2,4.3-2,7-2.1C1312.4,1409.1,1314.1,1409.7,1312.8,1410.7L1312.8,1410.7z M1339.2,1398c-3.5,1.5-11.6,3.5-18.9,3.5
					c-7.2,0.3-10.7-1.5-8.1-3.4c3.4-1.9,11.8-2.9,19.6-2.9C1338.8,1395.1,1341.6,1396.4,1339.2,1398L1339.2,1398z M1378.3,1388.4
					c-7.1,1.4-22.3,2.4-34.1,1.6c-12.2-0.5-17.6-2.9-11.7-4.7c5.2-1.4,20-1.1,32.8,0.5C1379.1,1386.7,1384.9,1387.7,1378.3,1388.4
					L1378.3,1388.4z M1435.1,1389.9c-10.4-1.5-34.4-3.1-53.3-5.3c-19-2.5-27.2-5.2-17.4-5.3c10.2,0.8,35.1,5,54.8,8.9
					C1439.8,1391.5,1446,1392.1,1435.1,1389.9z"/>
				<path class="st30" d="M1339,1370.1c-10.7,0.2-40.5-4.3-66.9-11.6c-27.1-7.6-42.2-17.5-32.8-20.9c9.2-2.5,40.8,5.4,69.7,16.4
					C1337.3,1364.2,1350.5,1370.7,1339,1370.1L1339,1370.1z M1499.6,1433.2c2.7,1.9,0.7,1.1-4.7-1.9c-5.5-3.1-12.1-7-14.8-8.8
					c-2.8-1.6-0.7-0.8,5,2.5C1489.8,1427.5,1496.9,1431.7,1499.6,1433.2L1499.6,1433.2z M1471.6,1415.4c7.3,3.9,1.9,1.3-11.3-5.8
					c-13.1-6.6-28.5-15.4-35.1-19c-6.4-3.1-1-0.6,11.7,6C1450,1403.2,1465.2,1411.4,1471.6,1415.4L1471.6,1415.4z M1431.7,1393.5
					c10.1,4.5,1.6,1.1-18.3-8.5c-20.6-9.8-44.3-21.1-52.7-24.6c-9.1-2.9-0.3,1.8,19.7,10.5
					C1399.5,1379.4,1422.6,1388.9,1431.7,1393.5L1431.7,1393.5z M1385.2,1376.1c11.9,3.5,0.6-1.6-24.9-12.1
					c-25.2-11-52.5-22.6-62.3-24.3c-9.2-1,2.4,6.2,25.2,15.7C1346.4,1364.3,1374.2,1372.9,1385.2,1376.1L1385.2,1376.1z
					 M1200.7,1454.8c-0.1,2-3.1,3.9-5.4,3.9c-3.4,0.3-5.3-1.4-4.8-3.4c0.5-2,3.1-3.5,6.5-3.8
					C1199.2,1451.7,1201.6,1453,1200.7,1454.8L1200.7,1454.8z M1218.1,1428.3c-1.6,4.1-9.8,7.4-16.5,7.3c-7.8-0.1-13.4-3.7-11.8-8.1
					c1.4-4,9.3-7.1,17.1-6.3C1214.8,1421.4,1220.2,1424.3,1218.1,1428.3L1218.1,1428.3z M1246.9,1399.1c-4,4.9-18.4,8.4-32.4,7.6
					c-13.2-1.3-22-7.1-18.5-12.8c3.8-5.3,18.1-7.8,32.3-5.6C1242.4,1390.1,1250.8,1394.6,1246.9,1399.1L1246.9,1399.1z
					 M1285.3,1376.7c7-3.4-3.6-9-24.1-14c-21.2-5-43.3-6.2-49.2-1.4c-5.5,5.4,6.1,13.3,26,16.8
					C1257.7,1381.6,1278.9,1380.5,1285.3,1376.7z"/>
				<path class="st31" d="M1188.4,1340.5c-6.9,7.6-34,8.2-61.1,0.3c-26.6-8.2-45.1-24.2-40.7-34.9c4.8-10.1,31.7-7.4,60.1,4.3
					C1176.9,1321,1195.7,1334.2,1188.4,1340.5L1188.4,1340.5z M1273,1301.3c1.4,1-1.4-1.3-6.1-4.8c-5.7-3.6-11.3-7-13-7.6
					c-2.3-0.6,0.6,1.5,6,4.8C1265.2,1297.2,1271.2,1300.3,1273,1301.3L1273,1301.3z M1259.3,1301c-4.4-1.4-18.2-7.8-31-15
					c-12.4-7.5-19.5-12.9-16-12.5c4.3,0.7,18.1,7.5,31,15.3C1256.4,1296.7,1263.6,1302.3,1259.3,1301L1259.3,1301z M1238,1303
					c6,0.5-4.8-7.5-25.2-18.5c-20-10.7-41.3-19.5-46.6-18.2c-5.3,1.3,5.8,10.1,24.9,20.2C1210.9,1295.9,1231.6,1303.2,1238,1303
					L1238,1303z M1212.2,1314.2c7.5-1.9-7.2-12.7-33.5-24.8c-25.9-11.9-51.8-18.4-57.2-14.2c-4.5,5,10.1,17.5,33.5,27.1
					C1179.7,1311.8,1205.6,1316.9,1212.2,1314.2L1212.2,1314.2z M1104.5,1513.8c-0.2,2.4-2.9,4.9-6.3,4.9c-3.6,0.2-5.8-2-5.8-4.7
					c0-2.7,2.7-5.2,6.1-5.1C1102.4,1508.9,1105,1511,1104.5,1513.8L1104.5,1513.8z M1116.3,1473.7c-0.7,6.5-8.3,11.5-16.4,11.1
					c-8.3-0.5-15.7-5.7-15.4-12.1c1.3-6.7,8.7-11.6,16.8-10.8C1110.4,1462.4,1116.2,1467.7,1116.3,1473.7L1116.3,1473.7z
					 M1131.7,1425.2c-1.1,8.5-13.6,14.6-28,13.9c-14.2-1.7-24.4-10.8-23.4-20c1.2-9.4,13.9-14.4,28.5-12.2
					C1122.9,1409.2,1132.8,1417.1,1131.7,1425.2L1131.7,1425.2z M1153.4,1377.9c3.6-8.7-10-19.3-31.1-25.1
					c-20.7-5.1-40-1.8-42.7,8.5c-2,10.8,12.6,23.1,32.9,27C1132.5,1391.9,1150.3,1386.9,1153.4,1377.9z"/>
				<path class="st32" d="M1056.3,1325.8c-2.4,14.3-26.5,21.1-54.6,14.1c-26.1-7.8-47.3-27.3-47.1-44.9c0.3-16.7,23.5-20.8,53-11.4
					C1037.6,1293.6,1059.8,1312.5,1056.3,1325.8L1056.3,1325.8z M1073.7,1184.2c0.8-0.5-2-3.6-7.7-6.8c-5.4-3.7-10.1-6.3-11.5-5.7
					c-0.9,0.3,2.5,3.7,8.1,7.5C1067.6,1182.3,1072.5,1184.6,1073.7,1184.2L1073.7,1184.2z M1070.9,1201.8
					c-1.7,1.8-14.1-2.8-26.3-10.2c-12.1-6.7-20.2-14.2-18-16.8c1.6-2.4,13.5,1.6,26.6,9.8
					C1065.8,1192.2,1074.2,1200.3,1070.9,1201.8L1070.9,1201.8z M1065.8,1227.6c3-4.1-10.2-16-28.5-25.6
					c-19.4-10-37.2-14.3-39.6-8.8c-2.2,5.5,11,17.5,29.4,26.5C1044.9,1228.7,1062.7,1231.9,1065.8,1227.6L1065.8,1227.6z
					 M1060.6,1267.7c2.7-7.9-14.4-23.2-39.4-34.2c-25.4-11.6-47-12-49.1-1.6c-2,10.9,15.3,26.8,39.3,34.9
					C1034.8,1276.1,1057.1,1276.2,1060.6,1267.7L1060.6,1267.7z M1018.7,1579.3c0.4,3.3-2.2,5.8-6.2,5.6c-3.4-0.3-6.1-3.2-6.8-6.4
					c-0.1-3.5,2.6-6,6.2-5.8C1015.1,1573,1018.3,1576,1018.7,1579.3L1018.7,1579.3z M1024,1529.1c0.6,8.1-6,14.1-14.5,13.9
					c-8.9-0.6-16.5-7.9-17.6-16.2c-0.2-8.2,6.8-14.2,15-13.1C1016,1514.1,1023.6,1521.2,1024,1529.1L1024,1529.1z M1029.9,1463.9
					c0.8,11.8-10.8,20.6-24.7,19.2c-13.6-1.7-26.5-13.1-26.9-25.3c-0.6-12.4,10.6-20.4,24.5-18.3
					C1017,1441.6,1029.1,1452.1,1029.9,1463.9L1029.9,1463.9z M1038.1,1393.1c-0.9,14.1-16.2,23.3-36.2,19.8
					c-19.7-3.2-36.5-18.9-36.4-34.6c-1-15.1,15.4-23.4,35.8-18.3C1022.2,1364.9,1039.5,1379.3,1038.1,1393.1z"/>
				<path class="st33" d="M944.6,1328.5c0.9,20-20.3,32.7-47.3,28.3c-27.1-4.2-49-26.8-51.9-48.8c-1.7-22,18.8-35.7,46.6-28.7
					C919.8,1286.2,943.7,1308.4,944.6,1328.5L944.6,1328.5z M907,1095.1c0.7-1.7-3-5.1-8.4-7.5c-4.9-2.7-9.5-3.3-9.6-1.8
					c-0.4,1.9,3,5.6,8.6,8.1C902.2,1096.4,906.7,1096.8,907,1095.1L907,1095.1z M913.8,1129c0.7-4.3-8.1-12.8-19.5-19.4
					c-11.5-6.2-21.2-7.4-22-2.6c-0.5,4.7,9,13.8,19.6,19.7C902.9,1133,913,1133.5,913.8,1129L913.8,1129z M921.5,1177.2
					c0.4-8.4-14.1-22.9-31-31c-17.2-7.8-30.9-5.2-30.9,4.4c-0.3,9.7,13.5,23,30,29.3C905.8,1186,920.9,1185.5,921.5,1177.2
					L921.5,1177.2z M930.8,1241.9c-0.3-13.5-18.4-30.7-41.5-39c-22.6-7.9-40.9-2.5-39.8,13.5c1.1,15.9,19.5,32.6,41.2,39.2
					C913.2,1262.5,930.5,1255.6,930.8,1241.9L930.8,1241.9z M937.2,1640.4c0.5,3.3-2.2,6.1-6,5.8c-3.5-0.5-7.2-3.8-7.5-7.4
					c0.2-4,2.5-6.4,6.4-6C933.5,1633.3,936.7,1636.6,937.2,1640.4L937.2,1640.4z M939.9,1585.2c1,9.2-5.9,15.6-14.6,14.5
					c-8.8-0.9-17.1-9.2-18.4-17.9c-1-9.2,5.4-15.7,14.1-14.6C930.6,1568.2,938.1,1576.5,939.9,1585.2L939.9,1585.2z M939.4,1510
					c1.9,14.1-8.1,24.4-22.4,22.5c-14.2-1.4-26.9-14.4-28.6-28.7c-2-14,7.9-23.8,21.5-22.1C924.5,1483.4,937.6,1495.9,939.4,1510
					L939.4,1510z M941.1,1420.8c0.6,18.3-14.8,30.9-35.5,28.6c-18.8-2.6-36.6-19.8-38.6-38.5c-2-18.9,11.7-31,32.8-28.1
					C920.5,1386.2,939,1402.8,941.1,1420.8z"/>
				<path class="st33" d="M13.2,1911.2c1.9,2.6,4.3,4.5,5.7,4.1c1.7-0.5,1.7-2.9,0.1-5.6c-1.5-2.5-3.8-4.2-5.2-3.9
					C11.8,1906.3,11.9,1908.9,13.2,1911.2L13.2,1911.2z M0,1882.7l0.2-0.1c3.7-1,3.7-6.9,0.1-13.3l-0.3-0.5V1882.7z"/>
				<path class="st22" d="M631.1,1528.5c-10-4.8-21.3-12-25.6-17.7c-3.7-5.4,1.1-6.3,11.4-1.9c9.8,5.8,21.3,14.7,24.6,19.7
					C646.1,1533.9,640.5,1533.2,631.1,1528.5L631.1,1528.5z M771,1616c1.7,1.2,2.5,1.8,2.2,1.6c-0.5-0.4-2.5-1.8-3.9-3.1
					c-1.5-1.5-2.8-2.1-2.5-1.8C767.4,1613.1,769.3,1614.8,771,1616L771,1616z M746.3,1597.7c4,3.3,6.9,4.4,5.7,3.5
					c-1.7-1.6-5.8-5-10.3-7.8c-4-3.3-6.4-4.6-4.9-3.3C737.7,1591.2,742.5,1594.8,746.3,1597.7L746.3,1597.7z M712.2,1574.8
					c6.5,4.3,10.5,6.3,8.4,4c-2.1-2.1-9.1-7.6-15.2-12.3c-6.6-4.5-9.4-6.2-7.4-3.6C699.6,1565.4,706.2,1570.9,712.2,1574.8
					L712.2,1574.8z M674,1550.7c7.8,5,12,5.9,9.2,2.6c-2.6-3.2-11.5-10.6-19.7-15.9c-8-4.7-12.4-5.6-9.1-1.9
					C657.4,1539.4,666,1546.2,674,1550.7L674,1550.7z M505.2,1482.9c-1.1,0.2-2.9-0.8-3.1-1.6c-0.8-0.8,0-1.6,0.9-1.6
					c0.9,0,2.5,0.7,3.1,1.6C506.9,1482.1,506.4,1483,505.2,1482.9L505.2,1482.9z M524.9,1488.3c-2.8-0.3-6.5-2.9-8.1-5.2
					c-1.2-2.5-0.2-3.8,2.9-3.3c2.6,0.9,6.5,3.1,7.8,5.4C528.9,1487.5,528,1489,524.9,1488.3L524.9,1488.3z M552.1,1496
					c-4.9-0.9-10.8-4.8-13-8.4c-2.6-3.6-0.4-5.7,4.2-4.4c4.8,1.5,11,5.3,13,8.7C558.5,1495.5,556.7,1497.3,552.1,1496L552.1,1496z
					 M586.7,1509.2c-6.8-2.6-15.2-8.7-18.9-13c-3.4-5.1,0.2-6.6,8-3.7c7.6,2.8,16,9.2,19.1,13.8
					C598.3,1510.6,594.3,1512,586.7,1509.2z"/>
				<path class="st23" d="M530.1,1476.4c-7.4-1-19-7.7-24.9-15.3c-6-7.6-4.6-13.4,3.4-11.9c8.2,1.6,19.5,9.1,25.4,16.4
					C539.6,1472.9,538.4,1477.3,530.1,1476.4L530.1,1476.4z M644.3,1514.2c1.2,0.8,1.7,0.8,1.1-0.2c-1.5-0.8-3.1-2.3-4.3-3.1
					c-1.6-0.9-2-1.1-1.6,0.2C640.3,1511.9,642.1,1513.3,644.3,1514.2L644.3,1514.2z M624,1503.6c4,2.2,5.3,1.9,3-0.6
					c-2-2.7-6.8-6.6-10.8-8.7c-3.3-2.1-4.4-1.5-2.1,1.1C615.5,1498.2,620.8,1501.7,624,1503.6L624,1503.6z M597,1491.9
					c5.5,2.3,7.1,1,3.5-2.9c-3.1-4.2-10.8-9.5-16-11.9c-5.9-2.2-7-0.7-3.6,3.5C584.2,1484.6,591.6,1489.7,597,1491.9L597,1491.9z
					 M564.2,1481.6c7,2.4,8.7-0.1,4-5.8c-4.5-6-14.3-13.1-21.2-15.3c-6.5-2-8.1,1.5-3.3,7.3C548.2,1473,557,1479.1,564.2,1481.6
					L564.2,1481.6z M425.4,1480c-0.6,0.2-2.4,0-3-1.1c-0.7-1.2-0.6-2.5,0.5-2.8c0.5-0.3,1.6,0.2,2.6,1.3
					C426.9,1478.4,426,1479.8,425.4,1480L425.4,1480z M441.5,1476.9c-2.3,1-5.2-0.5-8.3-3.1c-1.6-2.5-1.1-5.4,0.9-6.3
					c2.2-0.8,5.3,0.4,7.9,3C443.7,1473.2,443.5,1476,441.5,1476.9L441.5,1476.9z M464.2,1473.3c-4.4,0.5-10.3-2.1-13.5-6.1
					c-3.8-4.1-3.2-8.7,1.1-9.9c3.9-0.5,10.1,2.6,13.3,6.9C468.8,1468.6,468.3,1472.6,464.2,1473.3L464.2,1473.3z M494.4,1472
					c5.4-0.5,6.4-5.4,1.4-11c-3.8-6.1-12.5-10.4-18.3-9.9c-5.7,0.6-7.3,6.1-2.6,11.9C479.8,1468.8,488.3,1473,494.4,1472z"/>
				<path class="st24" d="M439.6,1445.1c-6.1,3.6-16.7,0.3-23.6-7.4c-7.2-7.9-8.2-17.4-2.3-20.7c5.9-3.3,16.1,0.3,23.6,8.1
					C445.2,1433.1,446,1441.7,439.6,1445.1L439.6,1445.1z M525.1,1424c1.1,0.5,1.2-0.5,0.1-2c-1.4-0.9-3.2-2.2-4-2.5
					c-1.3-0.2-1.2,0.5-0.3,1.7C522.1,1422.5,523.8,1423.7,525.1,1424L525.1,1424z M510.5,1424.2c2.8,0.4,3-1.8-0.2-5.1
					c-2.3-3.3-7.1-6.1-10.3-6.8c-2.5-0.4-2.3,1.7,0.8,4.9C503.1,1420.5,507.6,1423.8,510.5,1424.2L510.5,1424.2z M490.2,1424.9
					c4,0.2,4.5-3.8,0-9c-5.1-5.4-12-9-15.9-8.7c-4.2,0.6-3.6,4.7,0.4,9.6C479.3,1421.4,486.4,1424.8,490.2,1424.9L490.2,1424.9z
					 M466.6,1432.2c5.6-1.3,5-7.4-1.3-13.9c-5.7-6.8-15.1-11.6-20.6-10.6c-5.6,1.3-4.9,7.8,1,14.4
					C451.6,1429,461.3,1433.4,466.6,1432.2L466.6,1432.2z M356.6,1497.5c-1,0.9-1.9,0.9-2.4-0.1c-1.2-0.9-1.5-2-1-3.1
					c1.1-0.9,1.9-0.7,2.5,0.2C357.1,1495.2,356.9,1496.7,356.6,1497.5L356.6,1497.5z M369.6,1486.5c-2,2.2-5.1,2.4-7.7,0.2
					c-2.2-2.3-2.7-5.7-0.8-8.4c1.4-1.9,5-2,7.6,0.2C371,1481,371.4,1484.4,369.6,1486.5L369.6,1486.5z M388.2,1473.8
					c3.2-3,2.2-8.5-1.2-12.6c-4.4-3.9-10-4.7-12.9-2c-3.2,3-2.5,8.5,2,12.5C379.3,1475.6,385.3,1476.8,388.2,1473.8L388.2,1473.8z
					 M411.5,1457.8c4.5-2.7,3.2-10-1.9-16.1c-5.6-6.4-14.3-8.7-18.3-4.6c-4,4.2-3,12,2.9,17.1
					C399.5,1459.9,406.9,1460.9,411.5,1457.8z"/>
				<path class="st25" d="M361.7,1438.1c-4.8,5.9-14.6,7.5-22.5,1.8c-7.1-5.5-10.3-16.6-6.5-24.2c4-7.7,14.2-9.1,22.6-1.9
					C363.8,1420.9,366.8,1431.8,361.7,1438.1L361.7,1438.1z M418,1356c0.6-0.2,0.7-1.9-1.1-3.2c-0.8-1.5-2.8-2.1-3.7-1.4
					c-0.6,0.6-0.6,2.2,1.1,3.2C415.2,1355.9,417,1356.5,418,1356L418,1356z M408.6,1368.1c1.9-1.7,1.3-5-2-8.4
					c-3.2-3-7.4-4.4-9.2-3.1c-1.7,1.5-1.2,5.4,2.2,8.5C402.2,1368.1,406.9,1369.6,408.6,1368.1L408.6,1368.1z M395.7,1384.3
					c-2.8,2.4-9.7,0.7-14.2-4.6c-4.7-4.1-6.6-10.4-4-13.6c3.2-2.3,10-0.4,15.1,4.6C397.1,1375.6,399.5,1381.7,395.7,1384.3
					L395.7,1384.3z M379.5,1407.2c3.9-4.8,1.6-13.5-4.8-19.1c-6.6-5.4-15.1-5.9-18.3-0.9c-3.8,4.9-1.4,13.6,5.2,19.1
					C367.5,1411.9,375.5,1412.3,379.5,1407.2L379.5,1407.2z M296,1528.5c-0.8,1-1.4,1.2-2.3,0.6c-1.4-0.4-2-1.9-1.2-2.9
					c0.9-1.1,1.8-1.4,3.3-1C296.3,1525.9,296.7,1527.3,296,1528.5L296,1528.5z M308,1514.6c-1.7,2.5-4.9,3.1-8,1.2
					c-2.2-1.6-3.3-5.1-1.6-7.6c1-2.6,4.5-3.1,7.2-1.5C308.1,1508.5,309.6,1512,308,1514.6L308,1514.6z M322.6,1493.2
					c-2.2,4.5-7.2,5.9-11.4,3.2c-4.1-2.6-5.8-8.2-3.3-12.9c2.1-4.6,6.9-6.1,11.4-3.5C323.1,1482.8,324.5,1488.8,322.6,1493.2
					L322.6,1493.2z M340.4,1467.5c3-5.8,0.6-14.3-5.4-18.7c-6.1-4.4-13.1-3.5-16,2.1c-2.9,5.9-0.9,14.4,5.3,18.2
					C330.1,1473.7,337.4,1473.4,340.4,1467.5z"/>
				<path class="st26" d="M296.2,1455.1c-2.9,9.2-12.8,13.5-20.2,10c-8-2.1-11.6-11.9-8.7-22.2c2.9-10.3,12.7-15.1,20.1-11.7
					C295.8,1434.6,299.6,1445.5,296.2,1455.1L296.2,1455.1z M328.1,1324c0.8-1.2-0.3-2.9-1.8-4c-1.2-0.8-2.5-1.1-3.2,0
					c-0.4,1-0.1,2.8,1.3,3.8C326.3,1325,327.7,1325,328.1,1324L328.1,1324z M322.6,1343.5c1.4-3,0-7.3-3.4-9.5
					c-3.1-1.8-7.1-0.1-7.5,3.2c-1.9,3.7-0.4,7.6,2.9,9.3C317.9,1348.3,321.5,1346.9,322.6,1343.5L322.6,1343.5z M315,1374.8
					c2.3-5.4,0-12-5.4-15c-4.9-2.9-10-0.9-12.2,4.5c-1.6,5.2,1,11.7,5.8,14.5C308,1382,313.1,1380.1,315,1374.8L315,1374.8z
					 M306.5,1410.6c2.4-6.6-1.1-15.9-7.8-19.7c-6.8-3.3-13,1.2-15.2,9.3c-2,7.9,1.1,16.4,7.4,19.2
					C296.9,1422.1,303.8,1418.1,306.5,1410.6L306.5,1410.6z M241.3,1561.3c-1,0.9-2.3,1.4-3.1,0.8c-1,0-1.6-1.1-0.7-2.2
					c0.3-0.8,1-1.3,3-0.9C241.4,1559.4,241.6,1560.6,241.3,1561.3L241.3,1561.3z M251.9,1547.1c-1.5,2.6-4.9,3.8-7.1,3.2
					c-2.4-1-3.7-3.7-2.2-6.4c1-2.6,3.8-4,6.7-3.1C251.6,1541.4,252.8,1544.3,251.9,1547.1L251.9,1547.1z M264,1524.5
					c-1.6,4.3-6.5,6.8-10.1,5.5c-4.2-1.5-6.2-6-4.4-10.7c1.7-4.9,6.4-7.9,10.2-6C263.9,1515,266.4,1519.9,264,1524.5L264,1524.5z
					 M278.5,1493.9c-2.6,6.9-9.3,10.7-14.5,8.3c-5.7-2.2-8.7-9.1-6.6-16c2.1-7.2,8.8-11.4,14.8-9.6
					C277.9,1478.6,281.1,1486.4,278.5,1493.9z"/>
				<path class="st27" d="M239.3,1489.5c-2.1,9.6-9.9,17-17.7,17c-7,0.2-10.9-6.4-8.8-16c2.3-9.5,9.6-18.5,17-19.6
					C237.3,1470.4,241.5,1478.9,239.3,1489.5L239.3,1489.5z M256,1335.8c-0.2-1.9-0.5-3.4-1.4-3.8c-1.8,0.1-3.1,1.4-3.2,3
					c-0.3,1.9,0.3,3.6,2.1,3.6C253.9,1338.8,255.7,1337.5,256,1335.8L256,1335.8z M254.7,1362.3c0.5-3.9-1.2-7.8-4.1-8.2
					c-3.2-0.7-6.3,2.3-7.1,6.7c-0.2,4.5,1.5,8.1,3.7,8C250.8,1369.5,253.6,1366.4,254.7,1362.3L254.7,1362.3z M251.2,1398.7
					c1.4-7-1.1-12.8-6-12.4c-4.3,0.2-8.9,6.3-10.4,13.1c-0.8,6.8,1.7,11.9,5.9,11.9C245,1411.3,250.8,1405.9,251.2,1398.7
					L251.2,1398.7z M246,1443.2c1.6-8.9-2-16.3-7.8-16.5c-6.2-0.2-12.2,7.5-13.4,16.7c-1.4,9.1,1.7,15.4,8,14.3
					C237.9,1457.4,244.4,1451.5,246,1443.2L246,1443.2z M186.4,1587.4c-0.9,0.7-2,1.3-3.4,1.3c-0.8-0.3-1.2-0.9-0.5-1.3
					c0.9-0.7,2-1.3,3.1-1.1C186.3,1586.3,186.7,1586.9,186.4,1587.4L186.4,1587.4z M196.9,1576.8c-1,2-4.2,3.4-7.1,3.3
					c-2.1-0.2-3.5-1.6-2.1-3.6c1.4-2,4.1-3.4,6.8-3.8C197.5,1573.2,198.5,1574.9,196.9,1576.8L196.9,1576.8z M210,1558.7
					c-1.7,3.8-6.9,6.4-10.8,6c-4.4,0.1-6.1-2.9-3.9-6.7c1.6-3.6,5.9-6.8,10.1-6.8C209.5,1551.1,211.4,1554.6,210,1558.7L210,1558.7z
					 M225,1529.3c-2.5,6.3-9,11.6-15.4,11.6c-5.6,0.3-8.3-4.1-6.2-10.3c2.3-6.8,8.9-13,14.9-14.1
					C224.8,1516.7,227.5,1522.6,225,1529.3z"/>
				<path class="st28" d="M189.1,1533.3c-2.3,8.1-10.1,16.9-17,20.4c-7.2,3.5-10.5,1.3-7.8-6.2c2.6-7.5,9.9-18.8,16.8-23.8
					C187.8,1519.7,191.6,1524.6,189.1,1533.3L189.1,1533.3z M201.2,1387c0.2-1.9-0.6-2.7-1.7-1.9c-0.5,0.7-1.2,2.8-1.5,5
					c-0.5,2,0.7,2.8,1.2,2.1C200,1391.5,201.4,1389.1,201.2,1387L201.2,1387z M201.9,1415c0.1-4.6-1.5-7.1-4-5.4
					c-2.6,1.8-4.9,7.1-5.2,11.6c-0.7,4.6,1.1,6.6,3.9,4.9C198.8,1424.4,201,1419.7,201.9,1415L201.9,1415z M200.1,1450.9
					c1.1-6.6-1.8-10.4-6-8.2c-3.8,3.7-7.3,12.2-7.9,19.1c-1.4,7.1,1.2,9.7,4.5,6.4C195.3,1465.2,199.4,1457.4,200.1,1450.9
					L200.1,1450.9z M196.4,1492.3c1.8-8.4-2-12.6-7.4-8.8c-5.9,4.1-10.5,13.9-12.2,21.7c-1.4,8.1,1.8,10.9,6.5,7.2
					C188.7,1509.3,194.7,1500.5,196.4,1492.3L196.4,1492.3z M130.4,1601.8c-1.1,0.2-2.5,0.5-3.1,0.4c-1.1,0.2-1.7,0-1.3,0.1
					c0.9-0.3,2.5-0.5,4.2-0.6C130.9,1601.8,130.9,1601.8,130.4,1601.8L130.4,1601.8z M143.3,1597.7c-2,0.9-5.1,1.7-7.9,2
					c-2.8,0.6-3.6,0.3-1.9-0.4c1.7-0.8,4.9-1.8,7.4-2.3C143.8,1596.4,144.5,1596.9,143.3,1597.7L143.3,1597.7z M158.7,1587.4
					c-2.3,2-8,4.6-12.2,5.5c-3.9,0.9-5.7,0.6-4-1.2c2.4-2.4,8.2-5.5,11.7-6.7C159.2,1583.6,160.8,1584.7,158.7,1587.4L158.7,1587.4z
					 M174.1,1567c-2.5,4.7-9.2,9.2-15.1,11.3c-5.2,2.3-7.9,1.4-5-2.9c2.1-4.6,8.9-11.2,14.4-13.9
					C173.8,1559.4,177.1,1561.8,174.1,1567z"/>
				<path class="st29" d="M143.4,1579.7c-3.4,5.4-11.1,13.3-18.2,19.3c-7.1,6.4-9.2,9.2-5.5,5.5c3.6-4.5,10.9-15.4,17-23.3
					C143.4,1573.9,146.9,1573.8,143.4,1579.7L143.4,1579.7z M160.8,1468.2c0.1-2.1-0.6-2.2-0.8-0.6c-1,1.6-1.4,4.7-1.9,6.7
					c0,1.7,0.2,1.8,1.1,0.2C159.9,1472.5,160.5,1469.9,160.8,1468.2L160.8,1468.2z M160.7,1491c0.4-4-1.3-4.3-2.8-0.3
					c-2,3.8-4.5,10.5-4.5,14.6c-0.7,3.8,0.9,4,2.5,0.1C158.4,1501.4,160.2,1495.4,160.7,1491L160.7,1491z M158.7,1520.7
					c0.6-5.6-1.5-6.2-4.9-0.5c-3.3,5.6-6.9,15.2-8,20.8c-0.7,5.3,1,4.9,4.2-1C153.6,1534.9,157.3,1526.4,158.7,1520.7L158.7,1520.7z
					 M153.1,1551.8c1.8-6.5-1.1-7-6,0.2c-4.4,7.3-9.7,18.4-12.2,24.1c-1.5,5.3,0.5,3.8,5.7-2.7
					C145.2,1567.4,150.9,1558,153.1,1551.8L153.1,1551.8z M71.9,1602c-1-0.4-2.9-0.9-3.6-0.7c-1.4,0.3-1.5,1-0.8,1.5
					c0.7,0.5,2.2,0.5,3.6,0.2C72.2,1602.8,72.5,1602.3,71.9,1602L71.9,1602z M87.1,1606.4c-1.6-0.6-5.5-0.7-9,0.2
					c-2.3,0.6-3.3,1.9-0.8,2.8c1.7,1,5.5,0.3,8-0.6C88.7,1607.9,89.2,1607,87.1,1606.4L87.1,1606.4z M106.2,1607.3
					c2.8-0.3,0.9,1-3.5,3.2c-4.1,2.4-9.4,4.3-12.7,4.2c-2.8-0.3-1.5-2.5,2.9-4.3C97,1608.7,102.7,1607.4,106.2,1607.3L106.2,1607.3z
					 M125.5,1600.2c-2.5,1.8-10.6,5.7-16.6,9c-5.3,3.6-7.1,6.4-4,5.3c3.4-1.6,10.3-7,16.1-11.6
					C126.1,1598.6,128.9,1597.6,125.5,1600.2z"/>
				<path class="st30" d="M99.8,1623.1c-4.8,1.2-14.4,7.4-21.3,14.9c-6.5,8-7.6,15.7-2.5,16.8c4.2,0.4,12.7-8.4,18.5-18.4
					C101.4,1626.7,103.8,1621.2,99.8,1623.1L99.8,1623.1z M129.9,1567.2c0.2-1.2-0.7-0.5-1,1.7c-0.7,2.5-1.1,5.3-1,6.8
					c-0.6,1.2,0.2,0.5-0.1-1.9C129,1571.7,129.5,1568.7,129.9,1567.2L129.9,1567.2z M128,1580.8c0.3-3.1-0.4-1-1.5,4.7
					c-2.3,5.4-3.9,12.5-5.1,15.3c-1,2.7,0.5,0.4,1.9-5.1C125.3,1590.5,127.2,1584,128,1580.8L128,1580.8z M123,1598.2
					c1.1-3.6-0.2-0.7-2.7,7.2c-3.1,8-7.1,17.7-9,20.7c-1.1,2.9-0.4-1,2.9-8.5C117.2,1610.4,121.5,1602,123,1598.2L123,1598.2z
					 M113.5,1614.1c3-3.6,1.6,0.5-3.2,10c-5.2,9.8-10.9,20-13.9,22.2c-2.4,1.7-1.4-4.1,3.1-12.5
					C105,1625.6,111.2,1617.2,113.5,1614.1L113.5,1614.1z M12.1,1588c-0.7-1.3-2.9-1.8-4-1.6c-1.4,0.3-1.6,1.5-0.2,2.6
					c0.9,1,2.7,1.7,4.1,1.4C12.6,1590.1,12.8,1588.8,12.1,1588L12.1,1588z M30,1602c-2-2.5-6.4-3.4-9.6-2.7
					c-3.4,1.2-3.1,3.8-0.6,6.4c2.3,2.4,6.4,3,9.1,2.1C32,1606.7,32.1,1604,30,1602L30,1602z M52.5,1616.2c-3.1-2.3-9.9-2.6-14.3-0.8
					c-4.3,2.3-5.4,7-1.3,10.1c3.3,2.8,9.7,2.4,13.7-0.3C55.2,1622.3,56.1,1618.5,52.5,1616.2L52.5,1616.2z M75.9,1625.4
					c4.4,1.3,2.1,6-2.4,11.3c-5.8,5.6-13.4,8.9-17.6,6.8c-4.1-2.8-2.9-9,1.9-13.4C64.2,1625.6,72,1623.9,75.9,1625.4z"/>
				<path class="st31" d="M56.5,1658.9c-5.9-3.6-16-0.9-24.2,7.7c-6.9,8.3-7.6,20.9-1.3,27c6.4,5.5,16.6,0.5,23.2-10.5
					C61.2,1672.5,62,1662.1,56.5,1658.9L56.5,1658.9z M104.2,1672.8c0.2-0.9,0.2,0.9-0.1,3.7c-0.8,2.8-1.7,5.7-2.2,6.3
					c0.4,0.6,0.2-0.9,0.2-3.6C102.8,1676.2,104.1,1673.4,104.2,1672.8L104.2,1672.8z M98.9,1674.7c1.1-1.6,0.9,2.8-0.6,9.6
					c-0.9,6.1-3.2,12.1-4.2,13.1c-1.7,0.8-1-3.5,0.4-9.7C96.2,1681.6,97.8,1675.9,98.9,1674.7L98.9,1674.7z M89.9,1676.2
					c-1.7,0.4-5.9,7.6-9,16c-2.7,8.6-3.1,15.6-1.3,15.9c2.7,0,7.2-8.3,9.7-17.5C91.9,1681.2,92.8,1674.9,89.9,1676.2L89.9,1676.2z
					 M76.3,1672.2c3.4,0.5,2.7,8.9-1.4,19.6c-4.5,10.9-11.5,18.4-15.8,16.5c-4.1-2.4-3.5-12.2,1.4-21.4
					C65.3,1678,72.6,1671.4,76.3,1672.2L76.3,1672.2z M0,1624.3c0.9-2.1,0.9-4.6,0-7.1V1624.3L0,1624.3z M27.1,1640.4
					c5.3,4.7,4.4,12.9-1.6,19.2c-6.7,5.9-15,6.3-20.5,0.3c-5.1-6.5-4.6-16.2,1.3-21.1C12.1,1634.2,21.6,1635.3,27.1,1640.4z"/>
				<path class="st32" d="M11.5,1684.8c-3-3.7-7.1-6.1-11.5-6.9v47.4c4.1-0.7,8-3.2,10.9-7.4C18,1707.7,18.3,1693.1,11.5,1684.8
					L11.5,1684.8z M80,1772.2c0.9,0,1,2.6,0,5.6c0.3,3.1-1.3,5.3-1.7,5.1c-0.5,0-0.7-2.7-0.5-5.6C78.5,1774.2,79.4,1772.1,80,1772.2
					L80,1772.2z M71.2,1761.5c2,0.4,1.9,6.6,0.3,13.4c-1.8,7-4.4,11.3-6.2,9.9c-1.7-1.3-1.5-7.4-0.1-13.3
					C66.9,1765.1,69.6,1760.5,71.2,1761.5L71.2,1761.5z M57.6,1745.6c3,2.2,2.8,11.4,0.2,20.3c-3.1,9.1-8.4,14.1-11.8,11.3
					c-3-3.3-3.7-12.9-0.5-21.3C48.9,1747.7,54.6,1743.4,57.6,1745.6L57.6,1745.6z M37.9,1721.1c4.7,4.5,4.1,16.6-0.3,27.2
					c-4.5,10.8-12.3,13.9-17.7,7.4c-5.6-6.6-6.1-19.1-0.3-27.6C24.5,1719.2,32.5,1716.2,37.9,1721.1z"/>
				<path class="st33" d="M54.9,1854.1c0.9,1,0.5,4.3-0.2,7c-0.6,2.2-1.9,3.4-3.1,2.4c-0.5-1.4-0.9-4.1,0-6.7
					C52.4,1854.3,53.7,1853.1,54.9,1854.1L54.9,1854.1z M42.3,1830.9c2.3,2.7,2.6,9.6,0.9,15.8c-2,5.8-6.2,8.3-8.4,5.1
					c-2.5-2.9-3.4-10.4-0.7-16.3C36,1829.9,40,1828,42.3,1830.9L42.3,1830.9z M24.1,1798.1c4,5.5,3.8,17.2,0.2,25
					c-3.8,7.9-11,8.1-15.5,1.8c-4.3-6.4-4.2-17.6-0.1-23.9C13,1794.6,19.7,1793,24.1,1798.1L24.1,1798.1z M0,1757.9
					c3.8,7.6,4.1,17.7,0,25.5V1757.9z"/>
				<path class="st22" d="M2006.6,1885.9c-15.9-11.3-30.9-25.8-34.8-34.3c-3.5-8,7-6.2,22.7,4.6c15.6,12.6,30.8,29.2,34.2,36.7
					C2032.3,1901.3,2022.2,1897.4,2006.6,1885.9L2006.6,1885.9z M2221.1,2066.8c2.3,2.3,2.9,3,3.4,2.7c-0.2-0.5-3.8-3.3-6.2-5.6
					c-2.2-2.6-3.8-3.7-3.3-3C2216.2,2061.3,2218.9,2064.6,2221.1,2066.8L2221.1,2066.8z M2186.5,2031.9c6.8,5.8,9.8,8.9,8,7
					c-1.4-2.4-7.2-8.2-13.3-14.2c-5.5-5.9-8.5-9-7.2-6.8C2175.2,2020,2181,2026.4,2186.5,2031.9L2186.5,2031.9z M2137.3,1987.1
					c10.2,8.5,15.6,12.9,13.9,9.3c-3.2-4-12-13.8-20.8-22.7c-10-8.7-15.9-12.5-14.1-8.4C2118.8,1969.1,2128.3,1978.8,2137.3,1987.1
					L2137.3,1987.1z M2075.7,1936.8c13,10.3,21.5,14.3,18.8,8.9c-3.2-5.3-15.4-18.6-28.5-29.4c-13.1-10.4-21.2-14-18.9-7.9
					C2050.4,1914.2,2062.3,1926.8,2075.7,1936.8L2075.7,1936.8z M1786.2,1759.8c-1.4-0.6-4.4-2.4-5-3.8c-0.2-1.4,1.4-1.8,3.8-1.1
					c2.5,0.7,3.9,2.7,4.7,3.6C1790.6,1760.2,1788.7,1760.5,1786.2,1759.8L1786.2,1759.8z M1823.4,1777.7c-6-2.2-11.8-7.1-12.6-10.5
					c-0.6-3.5,3.5-4.3,8.9-2c5.7,2.5,11.2,7,12.4,10.5C1833.1,1779.6,1829.2,1780,1823.4,1777.7L1823.4,1777.7z M1873.8,1802.7
					c-9.2-4.4-18.5-11.8-19.8-17.1c-2.2-5.2,4.6-6.3,13.1-1.8c9.6,4.2,18.6,12.4,20.3,17.4
					C1889.5,1806.4,1883.4,1806.9,1873.8,1802.7L1873.8,1802.7z M1935.3,1838.4c-12.9-6.9-24.6-18.8-26.5-25.6
					c-2.6-7.6,5-6.8,17.8,0.7c12.8,7.9,24,20,27.7,26.7C1956.1,1846.9,1947.8,1845.9,1935.3,1838.4z"/>
				<path class="st23" d="M1845.3,1767.9c-15.7-5.6-33.3-19.8-39.3-31.8c-4.8-12.1,3.3-17.3,19.4-11c15.8,6.8,32.7,21.8,38.9,33.6
					C1870,1770.1,1861.3,1773.9,1845.3,1767.9L1845.3,1767.9z M2047.2,1879.3c2,1.7,2.7,1.9,1.9,0.4c-0.6-1.4-3.5-4.2-6-5.9
					c-1.4-2-2.5-2.4-1.6-0.7C2042.1,1874.4,2044.4,1877.1,2047.2,1879.3L2047.2,1879.3z M2014.3,1855.3c5.6,4.6,8.4,5.1,6.5,1.1
					c-2.3-4-8.6-11.1-13.8-16.1c-5.1-4.5-7.8-4.3-5.4-0.3C2003.6,1844.1,2009.5,1850.8,2014.3,1855.3L2014.3,1855.3z M1970.5,1826.1
					c8.3,5.7,12.8,5,9.2-1.2c-3-6.4-12.5-16.7-21.4-22.6c-8.6-5.9-13.4-5.1-9.9,1.7C1951.4,1810.6,1961.3,1820,1970.5,1826.1
					L1970.5,1826.1z M1913.3,1794.8c12.8,6.9,18.5,5.3,14.2-3.7c-4.4-9.5-18-22.9-30.5-29.9c-12.5-6.1-18.9-3.1-13.9,6.1
					C1887.4,1775.6,1901.1,1787.7,1913.3,1794.8L1913.3,1794.8z M1628,1709.2c-1.9-0.3-3.7-1.6-4.7-3.2c-1.1-1.5,0.3-2.9,2.5-2.6
					c1.9,0.3,4.4,1.3,5.4,3.1C1632.4,1708.1,1631,1709.5,1628,1709.2L1628,1709.2z M1663.1,1715.6c-4.6-0.5-10.7-4-13.1-8.1
					c-1.9-3.7,1.1-7,7.2-6.6c5,0.5,10.9,3.9,13.2,7.8C1671.9,1712.8,1669.1,1715.6,1663.1,1715.6L1663.1,1715.6z M1711.2,1724.9
					c-8.4-1.8-17.3-8.3-20.6-14.6c-3.7-6.3,1.1-11.1,9.6-9.9c7.9,1.7,17.1,9.1,20.3,15.4C1723.2,1722.7,1719.4,1726.5,1711.2,1724.9
					L1711.2,1724.9z M1772.6,1741.2c-12.6-2.7-27.1-12.1-31.2-20.9c-4.5-9.2,2.2-14.3,15.3-11.7c13.1,3,27.1,12.9,30.5,22
					C1792.3,1739.6,1785.6,1744.1,1772.6,1741.2z"/>
				<path class="st24" d="M1686.2,1679.9c-14.8,0.3-33.3-9.8-41.8-22.5c-7.8-12.8-2.2-23.7,11.7-23.9c14.7,0.2,32.9,10.3,41,23.3
					C1705.5,1670,1700.9,1679.6,1686.2,1679.9L1686.2,1679.9z M1883.6,1708c2.4,0.7,3,0.1,1.9-2.4c-1-1.7-4.1-4.5-6.3-5.3
					c-2.3-1.3-3-0.4-2.2,1.6C1878.5,1704.5,1880.9,1706.9,1883.6,1708L1883.6,1708z M1853,1698.8c5.5,2,7.7-0.1,4.9-5.8
					c-2.7-5.1-10-11.3-16-13.6c-5.3-2.3-7.3,0.5-4.3,5.9C1840.8,1690.4,1847.6,1696.8,1853,1698.8L1853,1698.8z M1809.3,1687.1
					c8.9,2.7,12-1.6,7.6-9.9c-4.9-8.7-16.2-16.8-25.1-19.1c-9.5-1.8-12.3,3.3-8.6,11.3C1788.4,1676.8,1799.6,1685.2,1809.3,1687.1
					L1809.3,1687.1z M1751.5,1681.4c13,1.9,17-5.4,10.9-16c-6.5-11.3-21.6-21.9-33.8-24c-13.4-1.8-17.9,5.9-11.8,16.8
					C1722.8,1669.4,1739.5,1679.6,1751.5,1681.4L1751.5,1681.4z M1476.3,1687.5c-2.1,0.6-4.5,0-5.8-1.3c-0.8-1.5,0.3-3.3,1.8-3.9
					c2.2-0.4,4.7,0.3,5.5,1.8C1479.2,1685.5,1478.1,1687.5,1476.3,1687.5L1476.3,1687.5z M1509.1,1683.5c-4.5,1.2-10.6-0.7-13.8-4.6
					c-2.2-3.6-1.5-7.4,3.4-9.1c5.1-1.5,11.4,0.5,14.8,4.3C1516.7,1678.3,1514.3,1682.3,1509.1,1683.5L1509.1,1683.5z M1558.4,1680.7
					c-9.2,1.3-20.2-3-24.1-9.7c-4.9-6.4-1.5-13.1,6.8-14.4c9-1.4,19.2,2.9,23.8,9.4C1570.3,1672.4,1566.6,1678.9,1558.4,1680.7
					L1558.4,1680.7z M1617.9,1676.8c-10.9,0.5-26.4-5.2-32-14.1c-6.7-9.1-2.2-18.4,9.4-20.5c11.3-1.9,26.3,5.4,32.8,15.7
					C1634.6,1667.8,1629.8,1676.6,1617.9,1676.8z"/>
				<path class="st25" d="M1534.8,1626.3c-15.2,3.9-36.2,0-47.4-10.8c-10.3-10.4-7-24.2,8.3-30.7c15-6.3,36-2.2,47.1,10.9
					C1552.9,1608.2,1549.7,1622.1,1534.8,1626.3L1534.8,1626.3z M1720.9,1567.4c1.9,0.2,2.4-1.4,1.1-3.9c-1.8-2.6-4.8-3.9-6.9-3.7
					c-2.8,0.2-2.9,2-1.4,4C1715.4,1565.9,1718.8,1567.6,1720.9,1567.4L1720.9,1567.4z M1690,1575.9c5.4-0.6,7.3-5.2,2.9-10.6
					c-3.2-5.5-11.4-9.4-17.4-8.9c-6.3,0.3-7.1,5.4-2.5,10.9C1675.9,1572.3,1684.2,1576.3,1690,1575.9L1690,1575.9z M1647,1586.4
					c8-0.8,9.8-8.6,3.2-17.2c-5.3-8.6-17.6-14.6-25.1-13.9c-8.3,1.6-10.1,9.7-3.9,17.3C1627.3,1581.2,1638.8,1587.5,1647,1586.4
					L1647,1586.4z M1596.3,1602.4c11.5-3.1,14-14.1,5.6-24.2c-8.8-10-24.9-15.4-36.3-11.9c-11.1,3.4-13.6,14.3-5.9,24.3
					C1568.7,1600.4,1585.1,1605.7,1596.3,1602.4L1596.3,1602.4z M1333,1685.5c-2,0.7-3.9,0.2-5.4-0.8c-1.4-1.3-1-2.7,0.4-3.7
					c1.8-0.8,4.6-0.5,5.8,0.6C1334.8,1683.1,1334.7,1684.6,1333,1685.5L1333,1685.5z M1366.4,1677.5c-4.6,1.8-11.7,0.7-15-2.7
					c-3.9-3.5-2.8-7.7,1.8-9.3c5.3-1.9,12.2-0.9,15.2,2.7C1373.1,1671,1371.1,1675.6,1366.4,1677.5L1366.4,1677.5z M1412.7,1663
					c-8.5,3.5-18.7,2.1-25.3-3.2c-5.8-5.4-4.3-12.1,3.7-16c7.8-3.6,19.2-2.4,24.8,2.9C1421.7,1652.1,1420.5,1659.3,1412.7,1663
					L1412.7,1663z M1467.8,1645.9c10-4.5,11.7-15.2,3.7-23.4c-8.1-8.3-22.9-11.6-33.7-7.3c-9.6,4.7-11.6,15.1-3.8,22.9
					C1442,1646.4,1457,1650.1,1467.8,1645.9z"/>
				<path class="st26" d="M1390.8,1606.7c-13.3,8.2-34.6,7.5-48.2-0.4c-12.5-6.7-12-19.5,1.9-29.1c12.9-9.8,34-9.8,46.8-1.6
					C1404.1,1584.2,1404.1,1598.1,1390.8,1606.7L1390.8,1606.7z M1560.1,1478.7c1.8-0.8,2.4-3.3,0.2-5.5c-1.5-1.6-4.9-2.7-7.2-1.9
					c-2,0.8-2.1,3.1,0.4,5.3C1554.7,1478.6,1558.3,1479.4,1560.1,1478.7L1560.1,1478.7z M1534.2,1498c5.1-2.9,5.5-8.5,1-12.9
					c-5-3.7-13.5-4.4-18.6-0.9c-4.9,2.9-5.3,8.9-0.8,12.7C1520.7,1500.6,1528.9,1501.2,1534.2,1498L1534.2,1498z M1494.5,1529.4
					c8.4-5.2,8.7-14,1.4-20.3c-8.1-5.9-21.4-6.7-29.4-2c-9.1,5.1-9.2,13.6-1.3,20.1C1473,1533.1,1485.9,1534.1,1494.5,1529.4
					L1494.5,1529.4z M1444.1,1564.1c10.5-5.7,11.4-18.1,1.2-26.5c-10.6-7.3-27.4-6-37.7,1.9c-10.2,7.5-10.6,18.6-0.2,25.2
					C1417.1,1571.1,1433.8,1570.7,1444.1,1564.1L1444.1,1564.1z M1203.3,1688.4c-2.3,0.8-4.6,0.5-6.3-0.7c-1.8-0.9-1.6-2.1-0.6-2.7
					c1.8-0.8,4.9-0.6,6.7,0.7C1205,1686.5,1205.1,1687.6,1203.3,1688.4L1203.3,1688.4z M1233.6,1679.7c-4,1.9-11.1,1.4-15.3-0.7
					c-4.6-2.5-4.5-5.9,0.2-7.9c4.2-2.1,11.5-1.9,15.3,0.4C1238.2,1673.8,1238.2,1677.5,1233.6,1679.7L1233.6,1679.7z M1275.2,1663
					c-7,3.6-17.7,3.5-24.9-0.3c-7-3.5-7-9.6,0.1-13.8c7.1-4.1,17.9-4.7,25.4-0.7C1282.2,1652.7,1282.4,1659.4,1275.2,1663
					L1275.2,1663z M1326.3,1638.9c10.6-6.7,10.9-16.6,0.7-22.1c-9.5-5.6-27-4.5-35.8,1.8c-9.7,6-9.2,14.8,0.1,20.6
					C1300.6,1645.1,1316.1,1644.9,1326.3,1638.9z"/>
				<path class="st27" d="M1254.1,1611.3c-11.5,9.1-33.1,12.4-48,8c-14.6-3.6-16.9-13-4.4-22c11.7-9.2,32.8-14.6,47.4-11.3
					C1262.4,1590,1265.3,1601.5,1254.1,1611.3L1254.1,1611.3z M1402.9,1451.2c2.1-1.9,1.8-4.1-0.6-5c-2.5-0.7-6.5,0.2-8.1,2
					c-1.6,1.5-2,3.9,0.8,4.5C1397.1,1453.9,1401,1453.2,1402.9,1451.2L1402.9,1451.2z M1380.3,1480.6c4.1-4.1,3.4-9.6-2-12
					c-5.3-2.2-13-0.7-17.6,3.8c-4.7,5.1-3.9,9.8,1.1,11.4C1367.7,1486.1,1375.7,1484.6,1380.3,1480.6L1380.3,1480.6z M1346.2,1519.5
					c8-7.4,6.7-15.2-2.4-17.5c-8.6-2.3-21.8,1.8-29.7,8.9c-7.3,6.9-6.5,14.1,2.4,16.7C1325.8,1530.1,1339,1526.6,1346.2,1519.5
					L1346.2,1519.5z M1302.6,1565.2c10.3-8.6,8.9-18.8-2.9-22.4c-12.6-3.4-31.7,1.6-40.7,10.7c-9.4,8.7-7.4,17.5,4.1,19.8
					C1274,1576.4,1291.3,1573.8,1302.6,1565.2L1302.6,1565.2z M1082.2,1684.7c-1.1,0.2-3.9,0.3-6-0.5c-2.2-0.6-2.2-1.5-0.9-1.7
					c1.7-0.5,4.2-0.4,6.3,0.4C1083.5,1683.6,1083.9,1684.5,1082.2,1684.7L1082.2,1684.7z M1110.5,1679.7c-3.8,1.4-10.5,1-15.4-0.5
					c-5.1-1.6-5.8-3.7-2.3-5c3.6-1.5,11-1.3,15.8,0.1C1113.3,1675.9,1114.9,1678.4,1110.5,1679.7L1110.5,1679.7z M1147.8,1668.3
					c-5.8,3-17.1,3.1-24.6,0.1c-7.7-2.4-8.9-6.3-3.1-9.3c6.1-2.8,17-3.4,24.7-1.1C1152.4,1660.4,1153.8,1665,1147.8,1668.3
					L1147.8,1668.3z M1196.1,1645.7c-9.6,5.3-25.5,7.2-37.2,4c-10.3-2.9-12.6-9.2-4.1-14.4c9.3-5.9,26.4-9,38-6.9
					C1204.1,1632.1,1205.4,1640.1,1196.1,1645.7z"/>
				<path class="st28" d="M1126.3,1629.6c-10.1,7.3-30.9,12.3-46.6,11.6c-15.5,0.1-20.2-3.9-9.5-10.5c10.1-6.6,30.5-14.4,46.7-15.7
					C1132,1614.9,1136,1622.4,1126.3,1629.6L1126.3,1629.6z M1255.7,1478.1c1.5-2,1.2-3.5-1.8-3c-2.5,0.3-6.1,2.1-8,4.5
					c-1.8,2.1-0.8,3.5,1.2,3.2C1250.2,1482.6,1253.8,1480.4,1255.7,1478.1L1255.7,1478.1z M1235.1,1509.3c4.1-4.8,2.7-8.8-3.4-8.1
					c-5.9,0.6-14.1,5.2-18.4,9.7c-3.9,4.6-2.5,8,3.5,7.5C1222.7,1518.2,1231.5,1514,1235.1,1509.3L1235.1,1509.3z M1206.6,1547.6
					c6.3-6.7,4.1-12.1-5.3-12.1c-9.3,1.8-22.9,9-29.5,16c-6.8,7-4.1,11.3,5.3,9.8C1186.9,1560.5,1199.8,1554.2,1206.6,1547.6
					L1206.6,1547.6z M1169.2,1590.4c9-8.5,6.4-15-7.2-13.8c-14.5,1.6-32.6,9.2-41,16.8c-7.6,7.3-4.6,12.2,7.4,11.2
					C1141.4,1604.4,1159.8,1598.5,1169.2,1590.4L1169.2,1590.4z M970,1668.2c-1.3-0.2-4.3-0.7-6.2-1.4c-2.1-0.5-2.1-0.8-0.8-0.6
					c1.3,0.2,4,0.8,5.9,1.5C971.3,1668.1,971.6,1668.3,970,1668.2L970,1668.2z M995.6,1671.3c-3.4-0.1-9.5-1.4-15-2.2
					c-5.4-1.1-6.2-1.7-3.6-1.5c3.7,0,9.7,0.9,15.3,1.7C997.6,1670.3,998.9,1671.3,995.6,1671.3L995.6,1671.3z M1030.2,1669.2
					c6.2-1.3,3.6-3.8-5.6-4.6c-9-1.1-19.6-0.5-24.7,0.3c-5.5,0.8-3.1,2.2,4.8,3.5C1012.5,1669.8,1024,1670.2,1030.2,1669.2
					L1030.2,1669.2z M1074.7,1657c-8.2,3.2-24.3,4.3-36.2,3.3c-12.7-0.5-16.6-3-8.4-6c8-3.5,25.7-6.7,37.5-6.4
					C1079.5,1648.5,1083.1,1652.7,1074.7,1657z"/>
				<path class="st29" d="M1007.7,1653.2c-8.2,3.2-28.5,7-45.1,9c-16.6,3.1-22.1,4.6-13.1,2.5c8.5-2.7,29.2-9.5,45.2-14.1
					C1011.1,1647.2,1018,1648.6,1007.7,1653.2L1007.7,1653.2z M1117.3,1544.5c1.9-2,0.8-2.5-2.1-1.2c-2.9,1.3-6.8,4.2-7.9,6.1
					c-1.4,2-0.9,2.4,2.1,0.8C1112.1,1548.8,1115.9,1546.1,1117.3,1544.5L1117.3,1544.5z M1101.1,1568.8c3.3-4.1,1.2-5.2-4.8-2.1
					c-6.6,3.1-14.6,8.8-18.2,13c-3.3,4.1-0.7,4.9,5,1.8C1090,1578.8,1097.5,1573.4,1101.1,1568.8L1101.1,1568.8z M1077.4,1599.1
					c6-5.6,2-7-7.9-3.2c-10.4,4.4-23,12.3-29.2,18c-5.9,4.8-2,5.3,8.3,1.2C1058.6,1611.4,1071.5,1604.6,1077.4,1599.1L1077.4,1599.1
					z M1046.2,1629.2c8.1-6.1,2.5-8-11.3-3c-14.4,5-32.5,13.7-39.9,18.6c-6.6,4-2.3,3.7,10.9,0
					C1020.3,1641.2,1038.1,1634.6,1046.2,1629.2L1046.2,1629.2z M863.9,1636.4c-1.1-0.7-3.8-2-5.7-2.3c-2.1-0.5-2.6,0.1-1.5,1
					c0.9,1,3.5,1.7,5.7,2.4C864.6,1637.6,865,1637.3,863.9,1636.4L863.9,1636.4z M889.3,1649.3c-3.4-1.4-10.3-3.7-16.1-4.5
					c-5.7-0.7-7.5,0.4-4.5,2.2c3.1,1.9,10,3.4,15.7,4.2C890.1,1652,892.2,1651.1,889.3,1649.3L889.3,1649.3z M922.4,1660.6
					c-5.3-1.4-16.5-3.4-26.2-3.9c-9.1-0.4-12.4,0.9-7.6,3.1c4.7,1.7,16.9,2.7,26.1,2.5C923.8,1662.3,927.7,1661.6,922.4,1660.6
					L922.4,1660.6z M962.6,1663.6c-6.8,0.6-23.1,0.1-35.8,0.9c-12.6,0.5-17.9,2.4-10.5,3c6.9,0.2,23-1.5,35.8-3.2
					C965.1,1662.8,969.7,1662.9,962.6,1663.6z"/>
				<path class="st30" d="M900.3,1673.2c-8.4-1.3-29.4,0-46.1,3.9c-16.3,4.2-23.5,11.3-15.5,15c8.5,2.8,28-1.3,44.6-8
					C900.7,1677.9,909.2,1673.5,900.3,1673.2L900.3,1673.2z M991.3,1632.6c1.1-1.6-0.2-0.8-2.7,1.1c-2.8,2.5-5.6,4.9-7,6.2
					c-1.6,1.2-0.6,0.6,2.7-1.5C986.6,1636.4,989.3,1633.6,991.3,1632.6L991.3,1632.6z M979.1,1645.2c2.8-2.6-0.4-1-6.3,3.7
					c-6.8,5-14.6,10.9-17.8,13.3c-3.1,2.2-0.3,0.5,6.1-4C967.9,1653.5,975.6,1648.2,979.1,1645.2L979.1,1645.2z M959.1,1660.4
					c4.8-2.9,0.5-0.6-10.1,6c-10.7,6.6-24,14.4-28.6,16.5c-5.3,2.4-0.7-1.2,10.4-7.1C940.7,1670,953.9,1663.4,959.1,1660.4
					L959.1,1660.4z M932.4,1671.9c7.1-2.4,0.6,1.1-13.4,7.9c-15.1,7.5-32.2,14.6-38.3,15.4c-6.1,0-1.2-5,12.4-10.7
					C907.9,1678.7,925.3,1673.5,932.4,1671.9L932.4,1671.9z M766.4,1589.3c-0.8-1.9-3.8-3.5-6-4c-2.7-0.2-3.5,0.8-2.1,2.5
					c1.2,1.6,4,3.3,5.8,3.9C766.4,1591.7,767.9,1590.8,766.4,1589.3L766.4,1589.3z M789.9,1613.7c-2.3-3.8-9.6-7.4-14.9-8.1
					c-6.3-0.5-8.6,2.3-6.5,6.1c3.2,3.6,10.3,6.7,16.3,7C790.2,1619.4,792.8,1616.8,789.9,1613.7L789.9,1613.7z M820.9,1640.4
					c-5.1-4.3-15.7-8.3-25.4-8.7c-9.4,0-13.4,4.2-8.6,9.4c3.7,4.7,15.7,8,25.1,7.2C821.2,1648.2,825.3,1644.6,820.9,1640.4
					L820.9,1640.4z M857.2,1662.9c6.8,3.3,0.9,7.4-12.1,9.6c-13.1,2.9-28.9,1.9-35.3-2.7c-5.8-5.2-0.4-10.8,12.5-12.4
					C835.4,1656.3,851.1,1659.2,857.2,1662.9z"/>
				<path class="st31" d="M800.5,1685.9c-7.5-7.2-28.7-9.8-47.1-5.2c-16.6,4.4-24.8,16.4-17.6,26.1c7.8,8.8,27.1,9.2,45,1.7
					C799.3,1701.8,808.3,1692,800.5,1685.9L800.5,1685.9z M877.3,1725.9c1.5-0.6-0.1,1-2.9,3.7c-2.6,2.6-5.5,5-6.9,5.3
					c-0.9,0.4,0.2-1.2,2.5-3.7C873.2,1728.7,876.4,1726.2,877.3,1725.9L877.3,1725.9z M867.1,1724.9c-2.3,0.4-10.3,5.2-17.6,10.1
					c-6.2,5.5-9.4,9.7-6.8,9.5c2.6-0.2,10.6-5,17.5-10.7C866.9,1728.3,869.8,1724.2,867.1,1724.9L867.1,1724.9z M850.3,1721.4
					c5.1,0-0.8,5.8-11.5,13.9c-11,7.8-23.7,13.7-28,12.2c-4.4-1.5,0.8-8.4,11.5-15.3C833,1725.5,845.7,1720.8,850.3,1721.4
					L850.3,1721.4z M827.7,1710.1c6.1,2-1.5,10.1-15.9,18.5c-14.5,8.3-30.9,11.8-37.2,7.8c-5.5-4.7,0.6-14.2,15.4-20.7
					C804.4,1710,821.9,1707,827.7,1710.1L827.7,1710.1z M694.7,1565.7c-2.7-5.6-9.5-10.6-15.3-11.2c-5.7-0.4-8.7,3.9-5.9,9.3
					c2.7,5.6,9.6,10.2,15.5,10.5C694.8,1574.5,697.6,1570.7,694.7,1565.7L694.7,1565.7z M724.3,1608c-4.4-7.2-15.7-13.8-24.9-13.9
					c-10,0.2-14.1,7-10,15.1c4.4,8,15.6,13.3,24.8,12.6C724,1621.4,728.4,1615.4,724.3,1608L724.3,1608z M759.7,1650.9
					c-6.2-7.9-22.3-14.1-35.3-12.7c-13.4,1.5-19.7,11.2-13.9,20.6c5.8,9,21.5,13.5,34.4,10.7
					C758.3,1666.6,765.9,1658.5,759.7,1650.9z"/>
				<path class="st32" d="M707,1687.3c-7.1-12.4-27.7-20.2-46.6-16.6c-17.7,4.2-26.2,19.1-19.7,34.5c6.6,14.4,26.6,20.1,45.5,14.5
					C705.1,1713.3,713.8,1699.1,707,1687.3L707,1687.3z M773.3,1810.6c1.4,0.4-0.2,3-2.6,5.4c-3.1,2.9-6.4,4.2-7.4,3.5
					c-1-0.4,0.5-2.8,3.5-5.8C769.1,1811.7,772.3,1810.2,773.3,1810.6L773.3,1810.6z M765,1795.2c-2.5-1.8-10.1,1.3-16.6,6.6
					c-6.8,4.6-10.9,10.6-7.7,13c2,2.5,9.7-0.2,16.9-6.3C764.4,1802.6,767.7,1796.8,765,1795.2L765,1795.2z M750.6,1772.2
					c4.3,3.8-1.2,12.9-12,19.9c-11.2,7.2-23.1,9.2-26.9,4.4c-4-5,1.3-14.2,11.8-20.6C735,1769.4,747.2,1768.4,750.6,1772.2
					L750.6,1772.2z M731.4,1737.3c-5.9-7.4-22-9.3-36.8-2.9c-14.7,5-22.2,17.3-16.7,26.9c5.1,9.2,21.8,10.5,36.6,2.4
					C729.5,1756.2,737,1744.4,731.4,1737.3L731.4,1737.3z M614.5,1529.6c-2.9-6.8-10-12.9-16.5-13.2c-6.6-0.5-9.5,5.2-6.9,12.1
					c2.4,7.2,9.4,12.9,16.4,13C613.6,1541.7,616.9,1536.4,614.5,1529.6L614.5,1529.6z M637.4,1574.1c-3.4-10.2-15.3-18.8-25.5-18.8
					c-10.3,0-15.7,8.9-11.8,19.5c4,10.7,15.8,18.5,26.2,17.9C637.1,1592.2,642.2,1584.4,637.4,1574.1L637.4,1574.1z M668.2,1628.1
					c-5.6-11.9-21.3-21.7-36.5-20.5c-14,1.1-20.8,13.1-15,26.5c5.5,13.3,21.1,21.9,35.4,19.3C667.1,1651.1,674,1639.7,668.2,1628.1z
					"/>
				<path class="st33" d="M620,1675.4c-6.6-17.1-26.5-30.4-45.2-28.6c-18.8,1.6-28.3,19.2-21.6,38.1c6.2,19,26.8,32.4,45.3,28.9
					C617.7,1709.7,626.7,1692.6,620,1675.4L620,1675.4z M681,1874c0.6,1.5-0.6,4.4-3.3,6.6c-2.8,1.8-5.9,2.3-6.2,0.6
					c-1.1-1.5,0-4.6,2.4-6.2C676.5,1873.1,679.7,1872.7,681,1874L681,1874z M673.9,1845.5c2.5,3.9-1,10.7-7.9,15.4
					c-6.8,4.3-14,4.5-16.7,0.5c-2.8-4.2,1.4-11.5,8.5-15.6C664.5,1841.3,671.6,1841.7,673.9,1845.5L673.9,1845.5z M660.9,1804.7
					c4,7.1-1.8,18.4-12.3,23.8c-10.7,5.7-22.9,1.9-26.4-6.3c-3.9-8.4,2.2-19.2,12.9-23C645,1795.4,657,1797.3,660.9,1804.7
					L660.9,1804.7z M642.5,1749.2c5.3,11.8-2,25-17,30.2c-14.5,4.8-30-1.4-35.5-15.2c-5.3-13.6,2.2-26.6,16.5-30.5
					C621.1,1730.1,637.1,1737.3,642.5,1749.2L642.5,1749.2z M550.1,1518c-4-11.9-16.1-21.7-26.3-21.6c-10.2-0.1-15.8,10-11.7,22.1
					c4.1,12.1,15.6,21.5,25.3,21.8C548.2,1539.9,553.6,1530.3,550.1,1518L550.1,1518z M583,1595.3c-5.9-15.5-21.6-27.9-36.1-27.6
					c-13.8,0.1-21.6,13.7-16,29.7c5.6,15.9,21.9,27.9,36.1,26.9C581.4,1623.3,588.1,1610.5,583,1595.3z"/>
				<path class="st25" d="M32.9,1635.8c0.8-0.5,1.6-0.2,2.4,0.5c0.4,0.6,0.5,1.7-0.4,2.5c-1.1,0.6-1.9,0.3-2.4-0.5
					C32,1637.5,32.2,1636.6,32.9,1635.8L32.9,1635.8z M19.9,1641.1c1.9-1.3,4.7-0.6,5.9,1.7c1.9,2.2,1.7,4.8-0.4,5.9
					c-2.3,1.4-5.2,0.6-6.1-1.4C17.7,1645,17.7,1642.2,19.9,1641.1L19.9,1641.1z M2.7,1650.2c3.4-2.2,7.7-1.5,10.2,1.9
					c2,3.6,1.5,7.6-1.6,10.1c-2.7,2.2-6.6,1.3-9.2-2.1C-0.2,1656.9,0.4,1652.6,2.7,1650.2z"/>
				<path class="st26" d="M13,1685.2c4.6-4.8,13.3-4.1,18.1,1.1c5.1,4.6,5.9,12.5,1.1,18.2c-5.1,5.8-13,5.4-18.4-0.1
					C8.5,1699.2,8.4,1690.4,13,1685.2L13,1685.2z M0,1729.1c3.1,0.5,6.3-0.7,8.6-3.2c3.7-4.1,3.1-10.8-0.6-15.3
					c-2.4-2.2-5.3-3.2-8-3.2V1729.1L0,1729.1z M88.8,1633c0.8-0.5,1.6-0.2,2.9,0.5c0.8,0.5,0.7,1.5-0.1,2c-0.8,0.5-1.9,0.3-2.9-0.5
					C87.8,1634.3,87.7,1633.6,88.8,1633L88.8,1633z M75.8,1639.1c1.3-1,4.5-1.1,6.6,0.5c1.8,1.6,1.8,4,0.1,5.1
					c-1.6,1.6-4.8,1.6-6.6-0.1C73.9,1643.1,73.6,1640.5,75.8,1639.1L75.8,1639.1z M58.2,1650.4c2.8-2.4,7.6-2.2,11.2,0.2
					c2.5,2.6,3.2,6.6-0.1,9.1c-2.5,2.7-7.5,3-10.4,0.1C55.9,1656.8,55.6,1652.5,58.2,1650.4L58.2,1650.4z M37.1,1665.8
					c-4.2,4.1-4.3,10.6,0.2,14.4c4.1,3.4,10.9,3,15.3-1c4.1-3.9,4.1-9.7-0.6-13.6C48,1661.9,40.7,1662,37.1,1665.8z"/>
				<path class="st27" d="M69.5,1684.3c4.8-5.6,13.9-7.5,20.7-4.4c6.7,2.6,7.8,9,2.5,14.7c-4.7,5.8-14.2,9-21,6.6
					C65.2,1698.3,64.2,1690.7,69.5,1684.3L69.5,1684.3z M12.1,1778.9c-0.7,0.9-0.2,2.3,0.6,3c1,0.6,2.4,0.3,2.7-0.4
					c0.9-1.1,0.9-2.5-0.5-3.2C14.2,1777.8,13.1,1778,12.1,1778.9L12.1,1778.9z M20.9,1762.7c-1.6,2.2-1.4,5.5,0.6,7.3
					c2.8,1.3,5.1,1.1,7-1.3c2.1-3,1.7-6-0.6-7.1C25.5,1759.9,22.4,1760.3,20.9,1762.7L20.9,1762.7z M32.9,1740.5
					c-2.6,3.9-1.8,9,1.7,10.6c3.5,2,8.4,0.2,11.2-4.1c2.8-3.8,2.7-8.7-1.6-10.5C40.7,1734.8,35.7,1736.3,32.9,1740.5L32.9,1740.5z
					 M49,1713.2c-3.9,5.4-3,11.5,2.1,14.3c4.9,3.1,12.8,0.4,16.6-5.4c4-5.2,3.1-11.2-2.4-12.9C60.5,1707,53.4,1708.2,49,1713.2
					L49,1713.2z M148.4,1634.7c0.8-0.5,1.7-0.1,3.2,0.4c0.8,0.7,0.6,1.2,0.4,1.4c-1.1,0.2-2.2,0-3.7-0.4
					C147.7,1635.6,147.6,1634.8,148.4,1634.7L148.4,1634.7z M134.4,1638.3c1.8-1.1,5.2-0.5,8,0.5c2.4,1,3,2.6,1,3.5
					c-2.1,1.2-5.5,1-8.3-0.1C132.7,1641.2,132.1,1639.3,134.4,1638.3L134.4,1638.3z M115.4,1646.8c3.2-2.1,8.7-2.2,12.6-0.2
					c4,1.6,4.9,4.3,1.5,6.6c-2.6,1.9-8.2,2.5-12.2,0.8C113.1,1652.3,112.6,1648.8,115.4,1646.8L115.4,1646.8z M93.4,1662.2
					c3.9-3.5,11.4-4.8,17.3-2.5c5,2,6.1,6.3,1.9,10c-3.6,3.9-12.1,6-16.8,4.3C90.3,1671.3,89.2,1666.1,93.4,1662.2z"/>
				<path class="st28" d="M127.1,1673.8c5.2-5,15.7-8.2,23.6-7.8c8.1,0.3,10.6,3.2,5.5,7.6c-5.1,4.8-15.6,10.1-23.9,10.7
					C124.8,1684.2,122.4,1678.9,127.1,1673.8L127.1,1673.8z M71,1770.7c-0.7,1.2-0.4,2.2,0.8,2.1c0.7,0.2,2.5-0.9,3.7-2.4
					c0.2-1.3,0.3-2.3-1.3-2.1C73.3,1768.2,72,1769.3,71,1770.7L71,1770.7z M79.4,1751.6c-1.9,3.1-1.3,5.6,1.7,5.5
					c3-0.1,6.3-2.6,8.5-5.4c1.3-2.9,1-5.1-2.2-5.1C84.6,1746.5,81.4,1748.7,79.4,1751.6L79.4,1751.6z M92.2,1727.7
					c-3,4.3-1.8,8,2.4,8.4c4.2-0.6,10.6-5.2,13-9.6c2.9-4.4,2-7.4-2.2-6.8C100.6,1719.8,95.1,1723.6,92.2,1727.7L92.2,1727.7z
					 M107.9,1700c-3.7,5.5-2.3,10.1,3.7,9.8c6.8-0.4,14.9-5.4,19.3-10.4c3.4-5,1.8-8.2-5-7.9C120,1691.2,111.3,1695.1,107.9,1700
					L107.9,1700z M210.6,1646.1c1.4,0,2.7,0.7,3.7,1.1c1.9,0.4,2.1,0.6,1.3,0.3c-0.6-0.2-2.6-0.6-4-1
					C210.4,1646,210.2,1645.8,210.6,1646.1L210.6,1646.1z M196.1,1644c1.9,0.1,5.4,0.9,8.5,1.9c3.1,0.6,3.8,1.1,2.5,0.8
					c-2.4,0.4-6.1-0.4-9.7-1C194.5,1644.8,193.6,1644.1,196.1,1644L196.1,1644z M176.2,1645.9c-3.7,1-1.9,2.6,3,3.3
					c4.7,0.8,11.5,0.4,14.2-0.4c3.1-0.4,1.8-1.4-3.3-2.4C185.5,1645.2,179.2,1645,176.2,1645.9L176.2,1645.9z M153.2,1654.8
					c3.9-2.6,12.3-3.2,18.4-2.4c7.2,0.6,9,2.3,4.3,4.6c-4.1,2.5-12.6,4.7-18.7,4.2C151.1,1660.8,149.2,1657.7,153.2,1654.8z"/>
				<path class="st29" d="M188.5,1657.8c5.2-2.7,17.9-5.5,27.3-7.1c9.5-2.2,13-3.7,7.5-2c-5.1,2.1-17.1,7.5-26.9,10.8
					C186.4,1662.4,183.2,1661.1,188.5,1657.8L188.5,1657.8z M134.1,1733.2c-1.3,1.5-0.5,1.8,0.4,1c1.7-0.8,3.2-2.8,4.3-4
					c0.4-1.1,0.3-1.5-1.6-0.5C136.2,1730.7,134.8,1732,134.1,1733.2L134.1,1733.2z M141.8,1716.8c-1.8,2.9-0.4,3.9,2.4,1.9
					c3.8-2,7.5-5.8,9.6-8.7c1.3-2.4,0.1-3.3-3-1.2C147.6,1710.6,143.8,1713.9,141.8,1716.8L141.8,1716.8z M153.4,1696.2
					c-2.8,3.8-1.1,5.1,4.1,2.8c5.5-2.9,12-8.6,14.7-12.5c2.5-3.2,1.2-3.9-4.1-1C163,1688,156.2,1692.5,153.4,1696.2L153.4,1696.2z
					 M168.4,1675.5c-3.4,4-0.7,5.3,6.1,2.2c7.7-3.5,17.5-10,21.5-13.5c4-3.2,1.6-2.9-6.8,0C182.4,1666.6,172.8,1671.6,168.4,1675.5
					L168.4,1675.5z M276,1671.8c0.9,0.6,2.4,1.8,4.2,2.1c1.5,0.4,1.9,0,1.2-0.9c-0.7-0.9-2.4-1.8-4-1.9
					C275.7,1670.9,275.4,1671,276,1671.8L276,1671.8z M259.5,1661.3c2.5,1.2,7.1,2.9,10.4,3.6c3.7,0.7,4.9-0.1,3.3-1.6
					c-2-1.6-6.6-2.9-10.5-3.4C259.2,1659.3,257.6,1659.9,259.5,1661.3L259.5,1661.3z M239,1652.2c3.3,1.1,10.1,2.7,16.2,3.2
					c5.2,0.4,7.8-0.8,4.3-2.4c-2.8-1.5-9.9-2.3-15.8-2.2C238.8,1650.7,236.3,1651.3,239,1652.2L239,1652.2z M216,1649.5
					c3.8-0.2,13.5-0.2,20.5-0.1c7.2-0.4,10.3-2,6.3-2.6c-4-0.2-13.9,1.4-21.1,2.5C214,1650.4,211.4,1650.2,216,1649.5z"/>
				<path class="st30" d="M252.6,1642.1c4.6,1,18.5,0,29.8-3.2c11.1-3.8,16.4-10.1,10.2-13c-5.1-2.1-18.8,1.5-30.1,7.4
					C251.3,1638.5,246.3,1641.8,252.6,1642.1L252.6,1642.1z M198.6,1673.7c-0.7,0.8,0,0.4,1.5-0.9c1.9-2.1,3.6-3.9,4.3-4.7
					c0.7-0.9,0.3-0.5-1.6,1.2C200.9,1670.5,199.5,1672.6,198.6,1673.7L198.6,1673.7z M206.2,1663.9c-1.8,2-0.5,0.6,3.7-3.1
					c3.6-3.4,8.3-8.3,10.1-9.9c1.8-1.8,0.6-0.6-3.6,3.1C212.4,1657.5,207.8,1661.6,206.2,1663.9L206.2,1663.9z M218,1652
					c-3.1,2.5-0.6,0.6,5.4-4.5c6.2-5,13.2-11.1,15.8-13c3.6-1.7,0.3,1.3-5.3,5.6C228,1644.8,220.6,1649.9,218,1652L218,1652z
					 M232.9,1643.6c-3.9,1.5-0.1-1.1,7.6-6.7c9-6,19.4-12,23.5-12.7c4.1,0,0.9,4.1-8,9.1C247.3,1637.8,236.9,1642.1,232.9,1643.6
					L232.9,1643.6z M345.3,1713c0.5,1.4,2.7,3,4.7,3.4c1.9,0.4,2-0.6,1.1-2c-0.6-1.5-3-2.9-4.2-3.4
					C344.9,1711,344.7,1711.5,345.3,1713L345.3,1713z M327.9,1691.8c1.9,3.1,7.4,6.2,11.5,6.8c3.9,0.9,5.6-1.4,3.5-4.6
					c-1.9-3.1-7-6.2-11-6.4C327.6,1687.1,326,1689,327.9,1691.8L327.9,1691.8z M306.2,1668.8c3.1,3.6,10.9,7,17.7,7.7
					c6.3,0.3,8.9-3.4,5.7-7.7c-3.3-4.1-11.2-6.9-18.1-6.2C305.7,1662.7,302.6,1665.4,306.2,1668.8L306.2,1668.8z M280.4,1650.4
					c-4.3-2.8-0.3-6,8.1-8c8.8-2.4,19.8-1.7,24.4,2.1c3.8,4.1,0.6,8.9-8.2,10.3C295.8,1655.6,285,1653.4,280.4,1650.4z"/>
				<path class="st31" d="M318.7,1630.8c5.6,5.9,20.6,8.1,34.2,3.7c13.7-4.2,20.1-15.1,14.2-23.6c-6.1-7.5-21.1-7-35.1,0
					C319.1,1617.1,313.5,1625.7,318.7,1630.8L318.7,1630.8z M266.2,1598.8c-0.6,0.6,0.2-0.9,1.9-3c1.6-2.3,3.6-4.1,4.3-4.6
					c0.5-0.4,0,0.9-1.8,3.1C269.1,1596.6,267,1598.3,266.2,1598.8L266.2,1598.8z M273.1,1599.5c1.5-0.6,6.6-4.7,11.1-9.2
					c4.2-4.7,6.8-8.6,4.2-8.1c-1.7,0.4-6.4,4.4-11.2,9.4C273.2,1596.4,271.5,1600.1,273.1,1599.5L273.1,1599.5z M284.2,1601.9
					c-3,0.2,0.5-5.1,7.8-11.9c6.7-7,14.9-12.5,17.9-11.7c3.2,1.1-0.7,7.4-7.3,13.8C295.8,1597.9,287.3,1602.2,284.2,1601.9
					L284.2,1601.9z M299.4,1610.8c-3.7-1.7,1.1-8.8,10.1-16.5c10.5-7.5,22.1-11.1,27.1-8.1c3.6,4-0.7,12.8-11.6,18.7
					C315.1,1610.5,303.8,1613,299.4,1610.8L299.4,1610.8z M419.5,1768.9c0.5,2.1,3.4,4.3,5.4,4.7c2.4,0.4,2.3-0.7,1.6-3
					c-1-2.1-3.3-4.2-5.1-4.9C419.3,1765.2,418.6,1766.8,419.5,1768.9L419.5,1768.9z M400.3,1736.6c2,4.9,7.9,9.7,13,10.4
					c4.4,0.8,7.3-2.9,5.1-8c-2.9-4.9-8.4-9.3-13.4-9.9C400.1,1728.6,397.7,1732,400.3,1736.6L400.3,1736.6z M376.3,1698.1
					c3.2,6.5,12.9,12.4,21.1,12.9c7.3,0.3,10.6-5.5,7.5-12.9c-3.7-7.3-12.4-12.4-20.6-11.5C376.5,1686.6,372.8,1691.7,376.3,1698.1
					L376.3,1698.1z M348.9,1660.3c4.7,6.8,17.1,12.3,27.7,11.3c10.7-1.4,15.7-9.6,10.7-18.2c-4.5-8-16.9-11.7-27.8-9.1
					C349,1647.1,344.5,1653.7,348.9,1660.3z"/>
				<path class="st32" d="M390.4,1627.8c5.4,11.1,22.3,18.1,37.1,14.6c15.1-3.9,23.5-18.6,17.5-32.8c-6.9-13.2-23.9-17.9-39.6-11.7
					C390.9,1604.3,384.6,1617.3,390.4,1627.8L390.4,1627.8z M336.2,1520.6c-0.4-0.2,0.5-2.6,2.5-5.2c1.8-2.5,3.9-4.2,4.7-3.7
					c0.8,0.3-0.2,2.6-2,5.3C339.5,1519.4,337,1520.9,336.2,1520.6L336.2,1520.6z M343,1533.8c1.7,1.2,7.2-1.9,12.3-7.2
					c5-4.8,7.3-10.4,5.2-12.4c-1.6-1.9-7,1-12.5,7.1C343.5,1526.7,340.8,1532.5,343,1533.8L343,1533.8z M354.4,1553.1
					c-3.1-3,0.5-11.5,8-18.6c8.4-7.3,17.8-10.2,21.1-6.2c3.2,4.4-1.4,13.5-9.2,19.9C366.3,1554.5,357.3,1556.5,354.4,1553.1
					L354.4,1553.1z M370.2,1583.6c4.2,6.5,17.3,7.3,28,1.2c12-5.4,18-17.4,13.5-26.2c-4.7-8.1-18.5-8.1-30.3,0.2
					C370.6,1566.6,365.3,1577.3,370.2,1583.6L370.2,1583.6z M497.1,1835.7c0.3,3,3,5.3,5.3,5.6c2.6,0.5,3.7-1.3,3.1-3.9
					c-1.1-2.9-3.3-5.6-6.1-6C497.1,1831.1,495.9,1833,497.1,1835.7L497.1,1835.7z M476.1,1793.3c2.6,6.4,8.7,12.8,14.8,13.5
					c5.7,1,8.6-3.7,7-10.5c-3-6.6-9.4-12.9-15.4-13.2C476.3,1782,474.3,1786.8,476.1,1793.3L476.1,1793.3z M450.6,1739.6
					c3.3,9.4,13.6,18,22.5,18.7c9.8,0.6,14.7-7.4,11-17.4c-4-10.2-14.1-18.1-23.9-18.1C451.3,1722.8,447.3,1729.8,450.6,1739.6
					L450.6,1739.6z M421.9,1681.4c4.4,11.2,17.8,20.4,30.4,19.7c12.6-0.6,18.9-11.8,14-24.6c-5.4-12.3-19-20.6-31.5-18
					C422.6,1660.7,417.1,1670.6,421.9,1681.4z"/>
				<path class="st33" d="M463.3,1637.7c6.3,16.2,25.5,28.6,42.7,27.3c17.2-1.3,26.2-18.7,19.8-37.8c-6.6-18.7-26.3-31.1-43.2-26.8
					C466,1604.5,457.4,1621.4,463.3,1637.7L463.3,1637.7z M426.5,1516.2c-3.7-6.8,1.1-18.1,10.2-24.5c8.9-6.3,19.3-4.2,22.7,3.7
					c3.5,7.9-0.7,18.6-9.8,23.5C440.3,1523.5,430.1,1522.8,426.5,1516.2L426.5,1516.2z M442.8,1568.3c-4.6-11.2,2.2-24.9,14.7-30.5
					c13-6.1,27.5-1.3,33.1,12c4.7,13.2-1.8,26.8-15.1,31.2C462.5,1585.4,448,1579.2,442.8,1568.3L442.8,1568.3z M579.9,1904.6
					c0.8,3.1,3.6,6.3,7,6.7c2.6,0.5,4.2-1.8,3-5.1c-0.8-3.1-4.3-6-6.8-6.6C580,1899.1,578.9,1901.4,579.9,1904.6L579.9,1904.6z
					 M557.1,1855.6c2.9,7.7,10.3,14.6,16.7,15.6c6.9,0.9,10.2-4.7,7.3-12.4c-2.3-8-10.1-14.8-16.4-15.6
					C558,1842.3,554.7,1847.9,557.1,1855.6L557.1,1855.6z M529.3,1790.3c4.1,11.7,15.7,22.3,25.7,23.5c10.6,0.9,16.1-8.2,12.2-20.3
					c-4.2-12.2-15.4-22.5-25.7-23.2C531.4,1769.3,525.4,1778.3,529.3,1790.3L529.3,1790.3z M498.1,1714.4
					c5.3,14.9,20.8,27.8,34.9,28.1c13.4,0.6,20.2-12,14.8-27.9c-5.4-16.3-21.2-28.3-34.4-27.7
					C500.1,1687.3,493.1,1699.7,498.1,1714.4z"/>
			</g>
			<path class="st34" d="M3036.1,1905c-210,45-401.7,47.7-570.7-5.5c-189.9-59.8-355.8-168.7-511.9-277.8
				c-182.2-120.7-341.7-263.2-509.3-271.4c-183.6-8.9-356.6,172.9-538.3,300.2c-161.1,112.8-280,103.4-361.2,44.5v5.5
				c81,57.7,199.2,65.9,359.3-46.9c182.4-128.5,356.1-311.9,540.6-303.8c168.2,7.4,329.2,147.1,511.4,268.6
				c158,105.4,323.3,213.9,513.6,270.5c168.2,50,358.6,44.2,566.6-2.9V1905z"/>
			<path class="st35" d="M0,1156.1c254.5-54.8,486.9-58,691.7,7c230.4,73.1,431.8,206.3,621.3,339.7
				c221.1,147.6,414.7,321.9,618.1,331.8c222.9,10.9,432.8-211.5,653.3-367c195.6-137.9,339.8-126.5,438.3-54.4v-6.7
				c-98.3-70.6-241.7-80.6-436,57.3c-221.3,157.1-432.1,381.4-656.1,371.5c-204.1-9-399.6-179.9-620.6-328.5
				c-191.8-128.9-392.3-261.6-623.3-330.8C482.9,1115,252.1,1122,0,1179.4V1156.1z"/>
			<path class="st36" d="M15.1,1814.4h9.1c36.8-16.2,76.2-32.8,119.4-49.8l0,0c10.6-4.6,20.8-8.8,30.7-12.9c-3.6,0.5-7.2,1-10.9,1.5
				c-7.8,3.3-15.8,6.6-24,10.2l0,0C93.9,1780.8,52.9,1797.9,15.1,1814.4L15.1,1814.4z M3031.2,1814.4h6v-1.7
				c-55.2-28.9-114.8-67.2-180-116.4l0,0c-78.1-52.9-145.1-100.6-207-142.7c-60.1-40.9-115.7-76.8-166.1-108.2
				c-90.6-52.3-163.3-93.3-242.5-118.9c-75.2-24.3-157.5-34.6-261.6-29.4l0,0c-135.6,10.4-289,69.5-433.3,134.6
				c-198,114.3-405.6,272-606.1,329.4l0,0c-131,29.3-225.7,7-315.2-21.2c-56.4-16.8-106.8-35.7-153.4-45.6c-3.1-1.4-6.4-2.8-9.8-4
				l-11.5,3c4.5,1.4,8.8,3,13,4.7c47.8,9.9,99.8,28.1,153.5,46c89.5,28.3,185.9,51,318.1,22l0,0c208.2-60.1,418-219.6,619.8-334.8
				c144.4-63.9,291-121.6,422.7-131.6c101.9-4.8,183.5,5.3,258.2,29.3c78.5,25.2,150.7,65.8,241.3,117.5
				c50.3,31.3,105.5,66.8,165.4,107.4c62.1,42.1,128.9,89.7,207,142.8C2915.4,1746.2,2975.5,1784.9,3031.2,1814.4z"/>
		</g>
	</g>
</g>
</svg>
